%TF.GenerationSoftware,KiCad,Pcbnew,8.0.6*%
%TF.CreationDate,2025-01-29T18:48:29-08:00*%
%TF.ProjectId,SMV H and S Board,534d5620-4820-4616-9e64-205320426f61,rev?*%
%TF.SameCoordinates,Original*%
%TF.FileFunction,Paste,Top*%
%TF.FilePolarity,Positive*%
%FSLAX46Y46*%
G04 Gerber Fmt 4.6, Leading zero omitted, Abs format (unit mm)*
G04 Created by KiCad (PCBNEW 8.0.6) date 2025-01-29 18:48:29*
%MOMM*%
%LPD*%
G01*
G04 APERTURE LIST*
%ADD10R,1.150000X1.450000*%
%ADD11R,1.420000X0.890000*%
%ADD12R,0.890000X1.420000*%
%ADD13R,0.558800X1.549400*%
%ADD14R,4.470400X4.800600*%
%ADD15R,0.990600X0.914400*%
%ADD16R,1.450000X1.150000*%
%ADD17R,0.800000X0.800000*%
%ADD18R,1.320800X0.508000*%
%ADD19R,0.508000X1.320800*%
%ADD20R,1.549400X0.558800*%
%ADD21R,4.800600X4.470400*%
%ADD22R,0.914400X0.990600*%
%ADD23R,1.409700X0.355600*%
%ADD24R,0.889000X1.765300*%
%ADD25R,3.149600X1.765300*%
G04 APERTURE END LIST*
D10*
%TO.C,C4*%
X124002750Y-43000000D03*
X125802750Y-43000000D03*
%TD*%
D11*
%TO.C,R10*%
X112002750Y-51545001D03*
X112002750Y-49605001D03*
%TD*%
D12*
%TO.C,R15*%
X163910000Y-51500000D03*
X165850000Y-51500000D03*
%TD*%
D13*
%TO.C,Q2*%
X170905000Y-59200000D03*
X169635000Y-59200000D03*
X168365000Y-59200000D03*
X167095000Y-59200000D03*
D14*
X169000000Y-62933800D03*
%TD*%
D15*
%TO.C,C11*%
X114100000Y-50399900D03*
X114100000Y-52000100D03*
%TD*%
D16*
%TO.C,C2*%
X120502750Y-44725002D03*
X120502750Y-46525002D03*
%TD*%
D11*
%TO.C,R8*%
X112002750Y-55545001D03*
X112002750Y-53605001D03*
%TD*%
%TO.C,R7*%
X129500000Y-53130000D03*
X129500000Y-55070000D03*
%TD*%
D16*
%TO.C,C9*%
X129002750Y-43425002D03*
X129002750Y-41625002D03*
%TD*%
D11*
%TO.C,R9*%
X132800000Y-29130000D03*
X132800000Y-31070000D03*
%TD*%
D12*
%TO.C,R18*%
X169500000Y-56800000D03*
X167560000Y-56800000D03*
%TD*%
D16*
%TO.C,C3*%
X120502750Y-49575001D03*
X120502750Y-51375001D03*
%TD*%
D17*
%TO.C,D2*%
X131200000Y-27500000D03*
X132800000Y-27500000D03*
%TD*%
D11*
%TO.C,R5*%
X114002750Y-47545001D03*
X114002750Y-45605001D03*
%TD*%
D12*
%TO.C,R16*%
X163910000Y-56800000D03*
X165850000Y-56800000D03*
%TD*%
D11*
%TO.C,R3*%
X123300000Y-57070000D03*
X123300000Y-55130000D03*
%TD*%
%TO.C,R17*%
X168000000Y-51770000D03*
X168000000Y-49830000D03*
%TD*%
D18*
%TO.C,U3*%
X109207551Y-43225001D03*
X109207551Y-44175002D03*
X109207551Y-45125003D03*
X111797949Y-45125003D03*
X111797949Y-43225001D03*
%TD*%
D19*
%TO.C,U4*%
X117452751Y-53779802D03*
X116502750Y-53779802D03*
X115552749Y-53779802D03*
X115552749Y-56370200D03*
X117452751Y-56370200D03*
%TD*%
D12*
%TO.C,R19*%
X116032750Y-51575001D03*
X117972750Y-51575001D03*
%TD*%
%TO.C,R2*%
X117972750Y-49375002D03*
X116032750Y-49375002D03*
%TD*%
D11*
%TO.C,R14*%
X163900000Y-61220000D03*
X163900000Y-59280000D03*
%TD*%
D20*
%TO.C,Q1*%
X170500000Y-48090000D03*
X170500000Y-49360000D03*
X170500000Y-50630000D03*
X170500000Y-51900000D03*
D21*
X174233800Y-49995000D03*
%TD*%
D17*
%TO.C,D3*%
X165500000Y-68500000D03*
X163900000Y-68500000D03*
%TD*%
D22*
%TO.C,C6*%
X109899800Y-47075001D03*
X111500000Y-47075001D03*
%TD*%
D12*
%TO.C,R4*%
X123330000Y-53300000D03*
X125270000Y-53300000D03*
%TD*%
D16*
%TO.C,C5*%
X169500000Y-40400000D03*
X169500000Y-38600000D03*
%TD*%
D10*
%TO.C,C10*%
X117500000Y-59000000D03*
X119300000Y-59000000D03*
%TD*%
D17*
%TO.C,D4*%
X165500000Y-63100000D03*
X163900000Y-63100000D03*
%TD*%
D12*
%TO.C,R1*%
X117972750Y-46625001D03*
X116032750Y-46625001D03*
%TD*%
D11*
%TO.C,R12*%
X163900000Y-66770000D03*
X163900000Y-64830000D03*
%TD*%
D16*
%TO.C,C8*%
X132402750Y-45925002D03*
X132402750Y-44125002D03*
%TD*%
D10*
%TO.C,C1*%
X114400000Y-43075001D03*
X116200000Y-43075001D03*
%TD*%
D23*
%TO.C,U1*%
X123547250Y-45575000D03*
X123547250Y-46225001D03*
X123547250Y-46874999D03*
X123547250Y-47525001D03*
X123547250Y-48174999D03*
X123547250Y-48824998D03*
X123547250Y-49474999D03*
X123547250Y-50124998D03*
X123547250Y-50774999D03*
X123547250Y-51424998D03*
X129452750Y-51425000D03*
X129452750Y-50775002D03*
X129452750Y-50125001D03*
X129452750Y-49475002D03*
X129452750Y-48825001D03*
X129452750Y-48175002D03*
X129452750Y-47525001D03*
X129452750Y-46875002D03*
X129452750Y-46225001D03*
X129452750Y-45575002D03*
%TD*%
D17*
%TO.C,D1*%
X169300000Y-45000000D03*
X167700000Y-45000000D03*
%TD*%
D24*
%TO.C,U2*%
X164688600Y-35617850D03*
X167000000Y-35617850D03*
X169311400Y-35617850D03*
D25*
X167000000Y-29382150D03*
%TD*%
D12*
%TO.C,R6*%
X165920000Y-45000000D03*
X163980000Y-45000000D03*
%TD*%
D10*
%TO.C,C7*%
X164700000Y-38500000D03*
X166500000Y-38500000D03*
%TD*%
D11*
%TO.C,R13*%
X107002750Y-43795001D03*
X107002750Y-41855001D03*
%TD*%
%TO.C,R11*%
X107002750Y-45205001D03*
X107002750Y-47145001D03*
%TD*%
M02*
