%TF.GenerationSoftware,KiCad,Pcbnew,8.0.6*%
%TF.CreationDate,2025-01-29T18:48:29-08:00*%
%TF.ProjectId,SMV H and S Board,534d5620-4820-4616-9e64-205320426f61,rev?*%
%TF.SameCoordinates,Original*%
%TF.FileFunction,Copper,L2,Bot*%
%TF.FilePolarity,Positive*%
%FSLAX46Y46*%
G04 Gerber Fmt 4.6, Leading zero omitted, Abs format (unit mm)*
G04 Created by KiCad (PCBNEW 8.0.6) date 2025-01-29 18:48:29*
%MOMM*%
%LPD*%
G01*
G04 APERTURE LIST*
%TA.AperFunction,ComponentPad*%
%ADD10C,1.700000*%
%TD*%
%TA.AperFunction,ComponentPad*%
%ADD11R,1.150000X1.150000*%
%TD*%
%TA.AperFunction,ComponentPad*%
%ADD12C,1.150000*%
%TD*%
%TA.AperFunction,ComponentPad*%
%ADD13C,1.574800*%
%TD*%
%TA.AperFunction,ComponentPad*%
%ADD14C,1.605000*%
%TD*%
%TA.AperFunction,ViaPad*%
%ADD15C,0.600000*%
%TD*%
G04 APERTURE END LIST*
D10*
%TO.P,RP1,1,VBAT*%
%TO.N,+5V*%
X160160000Y-41340000D03*
%TO.P,RP1,2,EN*%
%TO.N,unconnected-(RP1-EN-Pad2)*%
X160160000Y-43880000D03*
%TO.P,RP1,3,VBUS*%
%TO.N,unconnected-(RP1-VBUS-Pad3)*%
X160160000Y-46420000D03*
%TO.P,RP1,4,D13*%
%TO.N,/D13*%
X160160000Y-48960000D03*
%TO.P,RP1,5,D12*%
%TO.N,/D12*%
X160160000Y-51500000D03*
%TO.P,RP1,6,D11*%
%TO.N,/D11*%
X160160000Y-54040000D03*
%TO.P,RP1,7,D10*%
%TO.N,Net-(RP1-D10)*%
X160160000Y-56580000D03*
%TO.P,RP1,8,D9*%
%TO.N,unconnected-(RP1-D9-Pad8)*%
X160160000Y-59120000D03*
%TO.P,RP1,9,D6*%
%TO.N,Net-(RP1-D6)*%
X160160000Y-61660000D03*
%TO.P,RP1,10,D5*%
%TO.N,unconnected-(RP1-D5-Pad10)*%
X160160000Y-64200000D03*
%TO.P,RP1,11,SCL*%
%TO.N,unconnected-(RP1-SCL-Pad11)*%
X160160000Y-66740000D03*
%TO.P,RP1,12,SDA*%
%TO.N,unconnected-(RP1-SDA-Pad12)*%
X160160000Y-69280000D03*
%TO.P,RP1,13,D4*%
%TO.N,unconnected-(RP1-D4-Pad13)*%
X139776500Y-69280000D03*
%TO.P,RP1,14,TX*%
%TO.N,unconnected-(RP1-TX-Pad14)*%
X139776500Y-66740000D03*
%TO.P,RP1,15,RX*%
%TO.N,unconnected-(RP1-RX-Pad15)*%
X139776500Y-64200000D03*
%TO.P,RP1,16,MISO*%
%TO.N,unconnected-(RP1-MISO-Pad16)*%
X139776500Y-61660000D03*
%TO.P,RP1,17,MOSI*%
%TO.N,/GPIO_RESET*%
X139776500Y-59120000D03*
%TO.P,RP1,18,SCK*%
%TO.N,/SCLK*%
X139776500Y-56580000D03*
%TO.P,RP1,19,D25*%
%TO.N,/CS*%
X139776500Y-54040000D03*
%TO.P,RP1,20,D24*%
%TO.N,unconnected-(RP1-D24-Pad20)*%
X139776500Y-51500000D03*
%TO.P,RP1,21,A3*%
%TO.N,unconnected-(RP1-A3-Pad21)*%
X139776500Y-48960000D03*
%TO.P,RP1,22,A2*%
%TO.N,/MISO*%
X139776500Y-46420000D03*
%TO.P,RP1,23,A1*%
%TO.N,/MOSI*%
X139776500Y-43880000D03*
%TO.P,RP1,24,A0*%
%TO.N,/GPIO_CLKIN*%
X139776500Y-41340000D03*
%TO.P,RP1,25,GND*%
%TO.N,GND*%
X139776500Y-38800000D03*
%TO.P,RP1,26,3.3V*%
%TO.N,+3V3*%
X139776500Y-36260000D03*
%TO.P,RP1,27,3.3V*%
X139776500Y-33720000D03*
%TO.P,RP1,28,RESET*%
%TO.N,unconnected-(RP1-RESET-Pad28)*%
X139776500Y-31180000D03*
%TO.P,RP1,29,CAN_L*%
%TO.N,/CAN_N*%
X153690500Y-71820000D03*
%TO.P,RP1,30,GND*%
%TO.N,GND*%
X150190500Y-71820000D03*
%TO.P,RP1,31,CAN_H*%
%TO.N,/CAN_P*%
X146690500Y-71820000D03*
%TD*%
D11*
%TO.P,Brake Pedal,1,1*%
%TO.N,+3V3*%
X96950002Y-43504010D03*
D12*
%TO.P,Brake Pedal,2,2*%
%TO.N,GND*%
X96950002Y-46004010D03*
%TO.P,Brake Pedal,3,3*%
%TO.N,Net-(J5-Pad3)*%
X96950002Y-48504010D03*
%TD*%
D11*
%TO.P,CAN,1,1*%
%TO.N,/CAN_P*%
X170200000Y-79100000D03*
D12*
%TO.P,CAN,2,2*%
%TO.N,GND*%
X170200000Y-76600000D03*
%TO.P,CAN,3,3*%
%TO.N,/CAN_N*%
X170200000Y-74100000D03*
%TD*%
D11*
%TO.P,Gas Pedal,1,1*%
%TO.N,+3V3*%
X96972749Y-57025002D03*
D12*
%TO.P,Gas Pedal,2,2*%
%TO.N,GND*%
X96972749Y-59525002D03*
%TO.P,Gas Pedal,3,3*%
%TO.N,Net-(J4-Pad3)*%
X96972749Y-62025002D03*
%TD*%
D13*
%TO.P,Horn,1,1*%
%TO.N,/Drain2*%
X182579998Y-63000000D03*
%TO.P,Horn,2,2*%
%TO.N,+12V*%
X179579999Y-63000000D03*
%TD*%
D14*
%TO.P,Wipers,1,1*%
%TO.N,unconnected-(J6-Pad1)*%
X182680000Y-43000000D03*
%TO.P,Wipers,2,2*%
%TO.N,/Drain1*%
X182680000Y-46000000D03*
%TO.P,Wipers,3,3*%
%TO.N,+12V*%
X179680000Y-43000000D03*
%TO.P,Wipers,4,4*%
%TO.N,/D13*%
X179680000Y-46000000D03*
%TD*%
D13*
%TO.P,Power,1,1*%
%TO.N,GND*%
X183500000Y-32989301D03*
%TO.P,Power,2,2*%
%TO.N,+12V*%
X183500000Y-35989300D03*
%TD*%
D11*
%TO.P,CAN,1,1*%
%TO.N,/CAN_P*%
X123649999Y-79070990D03*
D12*
%TO.P,CAN,2,2*%
%TO.N,GND*%
X123649999Y-76570990D03*
%TO.P,CAN,3,3*%
%TO.N,/CAN_N*%
X123649999Y-74070990D03*
%TD*%
D13*
%TO.P,Power,1,1*%
%TO.N,+12V*%
X183500000Y-74179998D03*
%TO.P,Power,2,2*%
%TO.N,GND*%
X183500000Y-71179999D03*
%TD*%
D15*
%TO.N,GND*%
X176000000Y-43500000D03*
X172500000Y-82500000D03*
X109100000Y-47100000D03*
X157500000Y-40000000D03*
X110500000Y-49605001D03*
X107500000Y-70000000D03*
X156250000Y-82500000D03*
X172400000Y-57800000D03*
X125802750Y-41600000D03*
X123750000Y-70000000D03*
X170350000Y-29075000D03*
X174300000Y-57800000D03*
X107500000Y-82500000D03*
X115500000Y-55100000D03*
X176100000Y-59100000D03*
X170900000Y-56400000D03*
X169400000Y-49100000D03*
X166500000Y-40000000D03*
X151700000Y-71700000D03*
X167600000Y-49100000D03*
X167600000Y-47800000D03*
X166500000Y-32500000D03*
X131250000Y-25000000D03*
X95500000Y-70000000D03*
X174300000Y-59100000D03*
X171000000Y-45000000D03*
X105000000Y-25000000D03*
X169450000Y-41550000D03*
X125000000Y-46225001D03*
X114100000Y-49300000D03*
X125000000Y-47500000D03*
X123750000Y-82500000D03*
X172425000Y-59075000D03*
X167000000Y-37100000D03*
X145000000Y-65000000D03*
X166600000Y-68500000D03*
X140000000Y-82500000D03*
X157500000Y-52500000D03*
X127900000Y-46200000D03*
X145000000Y-40000000D03*
X119300000Y-57500000D03*
X176100000Y-57800000D03*
X168900000Y-67900000D03*
X145000000Y-52500000D03*
X125000000Y-50800000D03*
X120502750Y-52572250D03*
X165500000Y-62000000D03*
X144375000Y-25000000D03*
X157500000Y-25000000D03*
X120500000Y-43700000D03*
X157500000Y-65000000D03*
X168500000Y-49100000D03*
X125270000Y-54570000D03*
X105700000Y-41855001D03*
X168500000Y-47800000D03*
X120500000Y-25000000D03*
X169417330Y-47776541D03*
X148700000Y-71700000D03*
X116200000Y-41700000D03*
X110500000Y-45000000D03*
%TD*%
%TA.AperFunction,Conductor*%
%TO.N,GND*%
G36*
X194267539Y-22720185D02*
G01*
X194313294Y-22772989D01*
X194324500Y-22824500D01*
X194324500Y-84575500D01*
X194304815Y-84642539D01*
X194252011Y-84688294D01*
X194200500Y-84699500D01*
X93174500Y-84699500D01*
X93107461Y-84679815D01*
X93061706Y-84627011D01*
X93050500Y-84575500D01*
X93050500Y-81303711D01*
X94424500Y-81303711D01*
X94424500Y-81546288D01*
X94456161Y-81786785D01*
X94518947Y-82021104D01*
X94611773Y-82245205D01*
X94611776Y-82245212D01*
X94733064Y-82455289D01*
X94733066Y-82455292D01*
X94733067Y-82455293D01*
X94880733Y-82647736D01*
X94880739Y-82647743D01*
X95052256Y-82819260D01*
X95052262Y-82819265D01*
X95244711Y-82966936D01*
X95454788Y-83088224D01*
X95678900Y-83181054D01*
X95913211Y-83243838D01*
X96093586Y-83267584D01*
X96153711Y-83275500D01*
X96153712Y-83275500D01*
X96396289Y-83275500D01*
X96444388Y-83269167D01*
X96636789Y-83243838D01*
X96871100Y-83181054D01*
X97095212Y-83088224D01*
X97305289Y-82966936D01*
X97497738Y-82819265D01*
X97669265Y-82647738D01*
X97816936Y-82455289D01*
X97938224Y-82245212D01*
X98031054Y-82021100D01*
X98093838Y-81786789D01*
X98125500Y-81546288D01*
X98125500Y-81303712D01*
X98125500Y-81303711D01*
X189274500Y-81303711D01*
X189274500Y-81546288D01*
X189306161Y-81786785D01*
X189368947Y-82021104D01*
X189461773Y-82245205D01*
X189461776Y-82245212D01*
X189583064Y-82455289D01*
X189583066Y-82455292D01*
X189583067Y-82455293D01*
X189730733Y-82647736D01*
X189730739Y-82647743D01*
X189902256Y-82819260D01*
X189902262Y-82819265D01*
X190094711Y-82966936D01*
X190304788Y-83088224D01*
X190528900Y-83181054D01*
X190763211Y-83243838D01*
X190943586Y-83267584D01*
X191003711Y-83275500D01*
X191003712Y-83275500D01*
X191246289Y-83275500D01*
X191294388Y-83269167D01*
X191486789Y-83243838D01*
X191721100Y-83181054D01*
X191945212Y-83088224D01*
X192155289Y-82966936D01*
X192347738Y-82819265D01*
X192519265Y-82647738D01*
X192666936Y-82455289D01*
X192788224Y-82245212D01*
X192881054Y-82021100D01*
X192943838Y-81786789D01*
X192975500Y-81546288D01*
X192975500Y-81303712D01*
X192943838Y-81063211D01*
X192881054Y-80828900D01*
X192788224Y-80604788D01*
X192666936Y-80394711D01*
X192519265Y-80202262D01*
X192519260Y-80202256D01*
X192347743Y-80030739D01*
X192347736Y-80030733D01*
X192155293Y-79883067D01*
X192155292Y-79883066D01*
X192155289Y-79883064D01*
X191945212Y-79761776D01*
X191925167Y-79753473D01*
X191721104Y-79668947D01*
X191486785Y-79606161D01*
X191246289Y-79574500D01*
X191246288Y-79574500D01*
X191003712Y-79574500D01*
X191003711Y-79574500D01*
X190763214Y-79606161D01*
X190528895Y-79668947D01*
X190304794Y-79761773D01*
X190304785Y-79761777D01*
X190094706Y-79883067D01*
X189902263Y-80030733D01*
X189902256Y-80030739D01*
X189730739Y-80202256D01*
X189730733Y-80202263D01*
X189583067Y-80394706D01*
X189461777Y-80604785D01*
X189461773Y-80604794D01*
X189368947Y-80828895D01*
X189306161Y-81063214D01*
X189274500Y-81303711D01*
X98125500Y-81303711D01*
X98093838Y-81063211D01*
X98031054Y-80828900D01*
X97938224Y-80604788D01*
X97816936Y-80394711D01*
X97669265Y-80202262D01*
X97669260Y-80202256D01*
X97497743Y-80030739D01*
X97497736Y-80030733D01*
X97305293Y-79883067D01*
X97305292Y-79883066D01*
X97305289Y-79883064D01*
X97095212Y-79761776D01*
X97075167Y-79753473D01*
X96871104Y-79668947D01*
X96636785Y-79606161D01*
X96396289Y-79574500D01*
X96396288Y-79574500D01*
X96153712Y-79574500D01*
X96153711Y-79574500D01*
X95913214Y-79606161D01*
X95678895Y-79668947D01*
X95454794Y-79761773D01*
X95454785Y-79761777D01*
X95244706Y-79883067D01*
X95052263Y-80030733D01*
X95052256Y-80030739D01*
X94880739Y-80202256D01*
X94880733Y-80202263D01*
X94733067Y-80394706D01*
X94611777Y-80604785D01*
X94611773Y-80604794D01*
X94518947Y-80828895D01*
X94456161Y-81063214D01*
X94424500Y-81303711D01*
X93050500Y-81303711D01*
X93050500Y-78448125D01*
X122574499Y-78448125D01*
X122574499Y-79693860D01*
X122574500Y-79693866D01*
X122580907Y-79753473D01*
X122631201Y-79888318D01*
X122631205Y-79888325D01*
X122717451Y-80003534D01*
X122717454Y-80003537D01*
X122832663Y-80089783D01*
X122832670Y-80089787D01*
X122967516Y-80140081D01*
X122967515Y-80140081D01*
X122974443Y-80140825D01*
X123027126Y-80146490D01*
X124272871Y-80146489D01*
X124332482Y-80140081D01*
X124467330Y-80089786D01*
X124582545Y-80003536D01*
X124668795Y-79888321D01*
X124719090Y-79753473D01*
X124725499Y-79693863D01*
X124725498Y-78477135D01*
X169124500Y-78477135D01*
X169124500Y-79722870D01*
X169124501Y-79722876D01*
X169130908Y-79782483D01*
X169181202Y-79917328D01*
X169181206Y-79917335D01*
X169267452Y-80032544D01*
X169267455Y-80032547D01*
X169382664Y-80118793D01*
X169382671Y-80118797D01*
X169517517Y-80169091D01*
X169517516Y-80169091D01*
X169524444Y-80169835D01*
X169577127Y-80175500D01*
X170822872Y-80175499D01*
X170882483Y-80169091D01*
X171017331Y-80118796D01*
X171132546Y-80032546D01*
X171218796Y-79917331D01*
X171269091Y-79782483D01*
X171275500Y-79722873D01*
X171275499Y-78477128D01*
X171269091Y-78417517D01*
X171256475Y-78383693D01*
X171256472Y-78383685D01*
X181725500Y-78383685D01*
X181725500Y-78616314D01*
X181749115Y-78795680D01*
X181755863Y-78846930D01*
X181785965Y-78959274D01*
X181816068Y-79071620D01*
X181905083Y-79286521D01*
X181905088Y-79286532D01*
X182021387Y-79487966D01*
X182021398Y-79487982D01*
X182162996Y-79672517D01*
X182163002Y-79672524D01*
X182327475Y-79836997D01*
X182327482Y-79837003D01*
X182432164Y-79917328D01*
X182512026Y-79978608D01*
X182512033Y-79978612D01*
X182713467Y-80094911D01*
X182713472Y-80094913D01*
X182713475Y-80094915D01*
X182771122Y-80118793D01*
X182928379Y-80183931D01*
X182928380Y-80183931D01*
X182928382Y-80183932D01*
X183153070Y-80244137D01*
X183383693Y-80274500D01*
X183383700Y-80274500D01*
X183616300Y-80274500D01*
X183616307Y-80274500D01*
X183846930Y-80244137D01*
X184071618Y-80183932D01*
X184286525Y-80094915D01*
X184487974Y-79978608D01*
X184672519Y-79837002D01*
X184837002Y-79672519D01*
X184978608Y-79487974D01*
X185094915Y-79286525D01*
X185183932Y-79071618D01*
X185244137Y-78846930D01*
X185274500Y-78616307D01*
X185274500Y-78383693D01*
X185244137Y-78153070D01*
X185183932Y-77928382D01*
X185094915Y-77713475D01*
X185094913Y-77713472D01*
X185094911Y-77713467D01*
X184978612Y-77512033D01*
X184978608Y-77512026D01*
X184837002Y-77327481D01*
X184836997Y-77327475D01*
X184672524Y-77163002D01*
X184672517Y-77162996D01*
X184487982Y-77021398D01*
X184487980Y-77021396D01*
X184487974Y-77021392D01*
X184487969Y-77021389D01*
X184487966Y-77021387D01*
X184286532Y-76905088D01*
X184286521Y-76905083D01*
X184071620Y-76816068D01*
X183959274Y-76785965D01*
X183846930Y-76755863D01*
X183795680Y-76749115D01*
X183616314Y-76725500D01*
X183616307Y-76725500D01*
X183383693Y-76725500D01*
X183383685Y-76725500D01*
X183178694Y-76752489D01*
X183153070Y-76755863D01*
X183102676Y-76769366D01*
X182928379Y-76816068D01*
X182713478Y-76905083D01*
X182713467Y-76905088D01*
X182512033Y-77021387D01*
X182512017Y-77021398D01*
X182327482Y-77162996D01*
X182327475Y-77163002D01*
X182163002Y-77327475D01*
X182162996Y-77327482D01*
X182021398Y-77512017D01*
X182021387Y-77512033D01*
X181905088Y-77713467D01*
X181905083Y-77713478D01*
X181816068Y-77928379D01*
X181755863Y-78153071D01*
X181725500Y-78383685D01*
X171256472Y-78383685D01*
X171218797Y-78282671D01*
X171218793Y-78282664D01*
X171132547Y-78167455D01*
X171132544Y-78167452D01*
X171017335Y-78081206D01*
X171017328Y-78081202D01*
X170882482Y-78030908D01*
X170882483Y-78030908D01*
X170822883Y-78024501D01*
X170822881Y-78024500D01*
X170822873Y-78024500D01*
X170822864Y-78024500D01*
X169577129Y-78024500D01*
X169577123Y-78024501D01*
X169517516Y-78030908D01*
X169382671Y-78081202D01*
X169382664Y-78081206D01*
X169267455Y-78167452D01*
X169267452Y-78167455D01*
X169181206Y-78282664D01*
X169181202Y-78282671D01*
X169130908Y-78417517D01*
X169127618Y-78448125D01*
X169124501Y-78477123D01*
X169124500Y-78477135D01*
X124725498Y-78477135D01*
X124725498Y-78448118D01*
X124719090Y-78388507D01*
X124717294Y-78383693D01*
X124668796Y-78253661D01*
X124668792Y-78253654D01*
X124582546Y-78138445D01*
X124582543Y-78138442D01*
X124467334Y-78052196D01*
X124467327Y-78052192D01*
X124332481Y-78001898D01*
X124332482Y-78001898D01*
X124272882Y-77995491D01*
X124272880Y-77995490D01*
X124272872Y-77995490D01*
X124272863Y-77995490D01*
X123027128Y-77995490D01*
X123027122Y-77995491D01*
X122967515Y-78001898D01*
X122832670Y-78052192D01*
X122832663Y-78052196D01*
X122717454Y-78138442D01*
X122717451Y-78138445D01*
X122631205Y-78253654D01*
X122631201Y-78253661D01*
X122580907Y-78388507D01*
X122574500Y-78448106D01*
X122574500Y-78448113D01*
X122574499Y-78448125D01*
X93050500Y-78448125D01*
X93050500Y-76570989D01*
X122570394Y-76570989D01*
X122570394Y-76570990D01*
X122588775Y-76769366D01*
X122588776Y-76769369D01*
X122643292Y-76960976D01*
X122643300Y-76960996D01*
X122730772Y-77136663D01*
X123249999Y-76617436D01*
X123249999Y-76623651D01*
X123277258Y-76725384D01*
X123329919Y-76816596D01*
X123404393Y-76891070D01*
X123495605Y-76943731D01*
X123597338Y-76970990D01*
X123603552Y-76970990D01*
X123087470Y-77487069D01*
X123087471Y-77487070D01*
X123168774Y-77537411D01*
X123168783Y-77537415D01*
X123354548Y-77609380D01*
X123354553Y-77609381D01*
X123550388Y-77645990D01*
X123749610Y-77645990D01*
X123945444Y-77609381D01*
X123945449Y-77609380D01*
X124131216Y-77537414D01*
X124131220Y-77537412D01*
X124212526Y-77487069D01*
X123696447Y-76970990D01*
X123702660Y-76970990D01*
X123804393Y-76943731D01*
X123895605Y-76891070D01*
X123970079Y-76816596D01*
X124022740Y-76725384D01*
X124049999Y-76623651D01*
X124049999Y-76617437D01*
X124569225Y-77136663D01*
X124656696Y-76960998D01*
X124656702Y-76960983D01*
X124711221Y-76769368D01*
X124711222Y-76769366D01*
X124726916Y-76599999D01*
X169120395Y-76599999D01*
X169120395Y-76600000D01*
X169138776Y-76798376D01*
X169138777Y-76798379D01*
X169193293Y-76989986D01*
X169193301Y-76990006D01*
X169280773Y-77165673D01*
X169800000Y-76646446D01*
X169800000Y-76652661D01*
X169827259Y-76754394D01*
X169879920Y-76845606D01*
X169954394Y-76920080D01*
X170045606Y-76972741D01*
X170147339Y-77000000D01*
X170153553Y-77000000D01*
X169637471Y-77516079D01*
X169637472Y-77516080D01*
X169718775Y-77566421D01*
X169718784Y-77566425D01*
X169904549Y-77638390D01*
X169904554Y-77638391D01*
X170100389Y-77675000D01*
X170299611Y-77675000D01*
X170495445Y-77638391D01*
X170495450Y-77638390D01*
X170681217Y-77566424D01*
X170681221Y-77566422D01*
X170762527Y-77516079D01*
X170246448Y-77000000D01*
X170252661Y-77000000D01*
X170354394Y-76972741D01*
X170445606Y-76920080D01*
X170520080Y-76845606D01*
X170572741Y-76754394D01*
X170600000Y-76652661D01*
X170600000Y-76646447D01*
X171119226Y-77165673D01*
X171206697Y-76990008D01*
X171206703Y-76989993D01*
X171261222Y-76798378D01*
X171261223Y-76798376D01*
X171279605Y-76600000D01*
X171279605Y-76599999D01*
X171261223Y-76401623D01*
X171261222Y-76401621D01*
X171206703Y-76210006D01*
X171206697Y-76209991D01*
X171119225Y-76034325D01*
X170600000Y-76553551D01*
X170600000Y-76547339D01*
X170572741Y-76445606D01*
X170520080Y-76354394D01*
X170445606Y-76279920D01*
X170354394Y-76227259D01*
X170252661Y-76200000D01*
X170246448Y-76200000D01*
X170762527Y-75683919D01*
X170762526Y-75683918D01*
X170681224Y-75633579D01*
X170681215Y-75633574D01*
X170495450Y-75561609D01*
X170495445Y-75561608D01*
X170299611Y-75525000D01*
X170100389Y-75525000D01*
X169904554Y-75561608D01*
X169904553Y-75561608D01*
X169718780Y-75633576D01*
X169718776Y-75633578D01*
X169637471Y-75683919D01*
X170153553Y-76200000D01*
X170147339Y-76200000D01*
X170045606Y-76227259D01*
X169954394Y-76279920D01*
X169879920Y-76354394D01*
X169827259Y-76445606D01*
X169800000Y-76547339D01*
X169800000Y-76553552D01*
X169280773Y-76034325D01*
X169193298Y-76210002D01*
X169193293Y-76210013D01*
X169138777Y-76401620D01*
X169138776Y-76401623D01*
X169120395Y-76599999D01*
X124726916Y-76599999D01*
X124729604Y-76570990D01*
X124729604Y-76570989D01*
X124711222Y-76372613D01*
X124711221Y-76372611D01*
X124656702Y-76180996D01*
X124656696Y-76180981D01*
X124569224Y-76005315D01*
X124049999Y-76524541D01*
X124049999Y-76518329D01*
X124022740Y-76416596D01*
X123970079Y-76325384D01*
X123895605Y-76250910D01*
X123804393Y-76198249D01*
X123702660Y-76170990D01*
X123696447Y-76170990D01*
X124212526Y-75654909D01*
X124212525Y-75654908D01*
X124131223Y-75604569D01*
X124131214Y-75604564D01*
X123945449Y-75532599D01*
X123945444Y-75532598D01*
X123749610Y-75495990D01*
X123550388Y-75495990D01*
X123354553Y-75532598D01*
X123354552Y-75532598D01*
X123168779Y-75604566D01*
X123168775Y-75604568D01*
X123087470Y-75654909D01*
X123603552Y-76170990D01*
X123597338Y-76170990D01*
X123495605Y-76198249D01*
X123404393Y-76250910D01*
X123329919Y-76325384D01*
X123277258Y-76416596D01*
X123249999Y-76518329D01*
X123249999Y-76524542D01*
X122730772Y-76005315D01*
X122643297Y-76180992D01*
X122643292Y-76181003D01*
X122588776Y-76372610D01*
X122588775Y-76372613D01*
X122570394Y-76570989D01*
X93050500Y-76570989D01*
X93050500Y-74070989D01*
X122569891Y-74070989D01*
X122569891Y-74070990D01*
X122588281Y-74269454D01*
X122588281Y-74269456D01*
X122588282Y-74269459D01*
X122626703Y-74404496D01*
X122642829Y-74461173D01*
X122731669Y-74639588D01*
X122731674Y-74639596D01*
X122851791Y-74798656D01*
X122978507Y-74914172D01*
X122999089Y-74932935D01*
X123168553Y-75037863D01*
X123354413Y-75109866D01*
X123550339Y-75146490D01*
X123550341Y-75146490D01*
X123749657Y-75146490D01*
X123749659Y-75146490D01*
X123945585Y-75109866D01*
X124131445Y-75037863D01*
X124300909Y-74932935D01*
X124448208Y-74798654D01*
X124568325Y-74639594D01*
X124657170Y-74461170D01*
X124711716Y-74269459D01*
X124727419Y-74099999D01*
X169119892Y-74099999D01*
X169119892Y-74100000D01*
X169138282Y-74298464D01*
X169138282Y-74298466D01*
X169138283Y-74298469D01*
X169168450Y-74404496D01*
X169192830Y-74490183D01*
X169281670Y-74668598D01*
X169281675Y-74668606D01*
X169401792Y-74827666D01*
X169528508Y-74943182D01*
X169549090Y-74961945D01*
X169718554Y-75066873D01*
X169904414Y-75138876D01*
X170100340Y-75175500D01*
X170100342Y-75175500D01*
X170299658Y-75175500D01*
X170299660Y-75175500D01*
X170495586Y-75138876D01*
X170681446Y-75066873D01*
X170850910Y-74961945D01*
X170998209Y-74827664D01*
X171118326Y-74668604D01*
X171207171Y-74490180D01*
X171261717Y-74298469D01*
X171272695Y-74179997D01*
X182207180Y-74179997D01*
X182207180Y-74179998D01*
X182226820Y-74404489D01*
X182226821Y-74404496D01*
X182285145Y-74622163D01*
X182285149Y-74622174D01*
X182380382Y-74826402D01*
X182380385Y-74826408D01*
X182509643Y-75011009D01*
X182668988Y-75170354D01*
X182668991Y-75170356D01*
X182853590Y-75299613D01*
X182967262Y-75352618D01*
X183057823Y-75394848D01*
X183057825Y-75394848D01*
X183057830Y-75394851D01*
X183275504Y-75453177D01*
X183455100Y-75468889D01*
X183499999Y-75472818D01*
X183500000Y-75472818D01*
X183500001Y-75472818D01*
X183537416Y-75469544D01*
X183724496Y-75453177D01*
X183942170Y-75394851D01*
X184146410Y-75299613D01*
X184331009Y-75170356D01*
X184490358Y-75011007D01*
X184619615Y-74826408D01*
X184714853Y-74622168D01*
X184773179Y-74404494D01*
X184792820Y-74179998D01*
X184773179Y-73955502D01*
X184714853Y-73737828D01*
X184619615Y-73533588D01*
X184490358Y-73348989D01*
X184490356Y-73348986D01*
X184331011Y-73189641D01*
X184146410Y-73060383D01*
X184146404Y-73060380D01*
X183942176Y-72965147D01*
X183942165Y-72965143D01*
X183724498Y-72906819D01*
X183724491Y-72906818D01*
X183500001Y-72887178D01*
X183499999Y-72887178D01*
X183275508Y-72906818D01*
X183275501Y-72906819D01*
X183057834Y-72965143D01*
X183057823Y-72965147D01*
X182853595Y-73060380D01*
X182853589Y-73060383D01*
X182668988Y-73189641D01*
X182509643Y-73348986D01*
X182380385Y-73533587D01*
X182380382Y-73533593D01*
X182285149Y-73737821D01*
X182285145Y-73737832D01*
X182226821Y-73955499D01*
X182226820Y-73955506D01*
X182207180Y-74179997D01*
X171272695Y-74179997D01*
X171280108Y-74100000D01*
X171261717Y-73901531D01*
X171207171Y-73709820D01*
X171119420Y-73533593D01*
X171118329Y-73531401D01*
X171118324Y-73531393D01*
X170998207Y-73372333D01*
X170850911Y-73238056D01*
X170850910Y-73238055D01*
X170772717Y-73189640D01*
X170681447Y-73133127D01*
X170681445Y-73133126D01*
X170580203Y-73093905D01*
X170495586Y-73061124D01*
X170495582Y-73061123D01*
X170416639Y-73046366D01*
X170299660Y-73024500D01*
X170100340Y-73024500D01*
X170010254Y-73041339D01*
X169904417Y-73061123D01*
X169904415Y-73061123D01*
X169904414Y-73061124D01*
X169852517Y-73081229D01*
X169718554Y-73133126D01*
X169718552Y-73133127D01*
X169549088Y-73238056D01*
X169401792Y-73372333D01*
X169281675Y-73531393D01*
X169281670Y-73531401D01*
X169192830Y-73709816D01*
X169138282Y-73901535D01*
X169119892Y-74099999D01*
X124727419Y-74099999D01*
X124730107Y-74070990D01*
X124711716Y-73872521D01*
X124657170Y-73680810D01*
X124655758Y-73677974D01*
X124568328Y-73502391D01*
X124568323Y-73502383D01*
X124448206Y-73343323D01*
X124300910Y-73209046D01*
X124300909Y-73209045D01*
X124236374Y-73169086D01*
X124131446Y-73104117D01*
X124131444Y-73104116D01*
X124049378Y-73072324D01*
X123945585Y-73032114D01*
X123945581Y-73032113D01*
X123866638Y-73017356D01*
X123749659Y-72995490D01*
X123550339Y-72995490D01*
X123460253Y-73012329D01*
X123354416Y-73032113D01*
X123354414Y-73032113D01*
X123354413Y-73032114D01*
X123302516Y-73052219D01*
X123168553Y-73104116D01*
X123168551Y-73104117D01*
X122999087Y-73209046D01*
X122851791Y-73343323D01*
X122731674Y-73502383D01*
X122731669Y-73502391D01*
X122642829Y-73680806D01*
X122588281Y-73872525D01*
X122569891Y-74070989D01*
X93050500Y-74070989D01*
X93050500Y-71819999D01*
X145334841Y-71819999D01*
X145334841Y-71820000D01*
X145355436Y-72055403D01*
X145355438Y-72055413D01*
X145416594Y-72283655D01*
X145416596Y-72283659D01*
X145416597Y-72283663D01*
X145468227Y-72394383D01*
X145516465Y-72497830D01*
X145516467Y-72497834D01*
X145574962Y-72581373D01*
X145652005Y-72691401D01*
X145819099Y-72858495D01*
X145888113Y-72906819D01*
X146012665Y-72994032D01*
X146012667Y-72994033D01*
X146012670Y-72994035D01*
X146226837Y-73093903D01*
X146226843Y-73093904D01*
X146226844Y-73093905D01*
X146281785Y-73108626D01*
X146455092Y-73155063D01*
X146643418Y-73171539D01*
X146690499Y-73175659D01*
X146690500Y-73175659D01*
X146690501Y-73175659D01*
X146729734Y-73172226D01*
X146925908Y-73155063D01*
X147154163Y-73093903D01*
X147368330Y-72994035D01*
X147561901Y-72858495D01*
X147728995Y-72691401D01*
X147864535Y-72497830D01*
X147964403Y-72283663D01*
X148025563Y-72055408D01*
X148046159Y-71820000D01*
X148046159Y-71819998D01*
X148835343Y-71819998D01*
X148835343Y-71820001D01*
X148855930Y-72055315D01*
X148855932Y-72055326D01*
X148917066Y-72283483D01*
X148917070Y-72283492D01*
X149016900Y-72497579D01*
X149016902Y-72497583D01*
X149075572Y-72581373D01*
X149075573Y-72581373D01*
X149707537Y-71949409D01*
X149724575Y-72012993D01*
X149790401Y-72127007D01*
X149883493Y-72220099D01*
X149997507Y-72285925D01*
X150061090Y-72302962D01*
X149429125Y-72934925D01*
X149512921Y-72993599D01*
X149727007Y-73093429D01*
X149727016Y-73093433D01*
X149955173Y-73154567D01*
X149955184Y-73154569D01*
X150190498Y-73175157D01*
X150190502Y-73175157D01*
X150425815Y-73154569D01*
X150425826Y-73154567D01*
X150653983Y-73093433D01*
X150653992Y-73093429D01*
X150868078Y-72993600D01*
X150868082Y-72993598D01*
X150951873Y-72934926D01*
X150951873Y-72934925D01*
X150319909Y-72302962D01*
X150383493Y-72285925D01*
X150497507Y-72220099D01*
X150590599Y-72127007D01*
X150656425Y-72012993D01*
X150673462Y-71949410D01*
X151305425Y-72581373D01*
X151305426Y-72581373D01*
X151364098Y-72497582D01*
X151364100Y-72497578D01*
X151463929Y-72283492D01*
X151463933Y-72283483D01*
X151525067Y-72055326D01*
X151525069Y-72055315D01*
X151545657Y-71820001D01*
X151545657Y-71819999D01*
X152334841Y-71819999D01*
X152334841Y-71820000D01*
X152355436Y-72055403D01*
X152355438Y-72055413D01*
X152416594Y-72283655D01*
X152416596Y-72283659D01*
X152416597Y-72283663D01*
X152468227Y-72394383D01*
X152516465Y-72497830D01*
X152516467Y-72497834D01*
X152574962Y-72581373D01*
X152652005Y-72691401D01*
X152819099Y-72858495D01*
X152888113Y-72906819D01*
X153012665Y-72994032D01*
X153012667Y-72994033D01*
X153012670Y-72994035D01*
X153226837Y-73093903D01*
X153226843Y-73093904D01*
X153226844Y-73093905D01*
X153281785Y-73108626D01*
X153455092Y-73155063D01*
X153643418Y-73171539D01*
X153690499Y-73175659D01*
X153690500Y-73175659D01*
X153690501Y-73175659D01*
X153729734Y-73172226D01*
X153925908Y-73155063D01*
X154154163Y-73093903D01*
X154368330Y-72994035D01*
X154561901Y-72858495D01*
X154728995Y-72691401D01*
X154864535Y-72497830D01*
X154964403Y-72283663D01*
X155025563Y-72055408D01*
X155046159Y-71820000D01*
X155025563Y-71584592D01*
X154964403Y-71356337D01*
X154882174Y-71179997D01*
X182207682Y-71179997D01*
X182207682Y-71180000D01*
X182227314Y-71404402D01*
X182227316Y-71404413D01*
X182285615Y-71621990D01*
X182285618Y-71621999D01*
X182380819Y-71826156D01*
X182380820Y-71826158D01*
X182430020Y-71896423D01*
X182430021Y-71896424D01*
X182989765Y-71336679D01*
X183002950Y-71385884D01*
X183073174Y-71507514D01*
X183172485Y-71606825D01*
X183294115Y-71677049D01*
X183343318Y-71690232D01*
X182783573Y-72249977D01*
X182853840Y-72299178D01*
X182853842Y-72299179D01*
X183057999Y-72394380D01*
X183058008Y-72394383D01*
X183275585Y-72452682D01*
X183275596Y-72452684D01*
X183499998Y-72472317D01*
X183500002Y-72472317D01*
X183724403Y-72452684D01*
X183724414Y-72452682D01*
X183941991Y-72394383D01*
X183942000Y-72394379D01*
X184146156Y-72299180D01*
X184216425Y-72249977D01*
X183656681Y-71690232D01*
X183705885Y-71677049D01*
X183827515Y-71606825D01*
X183926826Y-71507514D01*
X183997050Y-71385884D01*
X184010233Y-71336679D01*
X184569978Y-71896424D01*
X184619181Y-71826155D01*
X184714380Y-71621999D01*
X184714384Y-71621990D01*
X184772683Y-71404413D01*
X184772685Y-71404402D01*
X184792318Y-71180000D01*
X184792318Y-71179997D01*
X184772685Y-70955595D01*
X184772683Y-70955584D01*
X184714384Y-70738007D01*
X184714381Y-70737998D01*
X184619180Y-70533841D01*
X184619179Y-70533839D01*
X184569978Y-70463573D01*
X184569978Y-70463572D01*
X184010233Y-71023317D01*
X183997050Y-70974114D01*
X183926826Y-70852484D01*
X183827515Y-70753173D01*
X183705885Y-70682949D01*
X183656680Y-70669764D01*
X184216425Y-70110020D01*
X184216424Y-70110019D01*
X184146159Y-70060819D01*
X184146157Y-70060818D01*
X183942000Y-69965617D01*
X183941991Y-69965614D01*
X183724414Y-69907315D01*
X183724403Y-69907313D01*
X183500002Y-69887681D01*
X183499998Y-69887681D01*
X183275596Y-69907313D01*
X183275585Y-69907315D01*
X183058008Y-69965614D01*
X183057999Y-69965617D01*
X182853838Y-70060820D01*
X182783573Y-70110018D01*
X183343319Y-70669764D01*
X183294115Y-70682949D01*
X183172485Y-70753173D01*
X183073174Y-70852484D01*
X183002950Y-70974114D01*
X182989765Y-71023318D01*
X182430019Y-70463572D01*
X182380821Y-70533837D01*
X182285618Y-70737998D01*
X182285615Y-70738007D01*
X182227316Y-70955584D01*
X182227314Y-70955595D01*
X182207682Y-71179997D01*
X154882174Y-71179997D01*
X154864535Y-71142171D01*
X154806037Y-71058626D01*
X154728994Y-70948597D01*
X154561902Y-70781506D01*
X154561895Y-70781501D01*
X154368334Y-70645967D01*
X154368330Y-70645965D01*
X154346229Y-70635659D01*
X154154163Y-70546097D01*
X154154159Y-70546096D01*
X154154155Y-70546094D01*
X153925913Y-70484938D01*
X153925903Y-70484936D01*
X153690501Y-70464341D01*
X153690499Y-70464341D01*
X153455096Y-70484936D01*
X153455086Y-70484938D01*
X153226844Y-70546094D01*
X153226835Y-70546098D01*
X153012671Y-70645964D01*
X153012669Y-70645965D01*
X152819097Y-70781505D01*
X152652005Y-70948597D01*
X152516465Y-71142169D01*
X152516464Y-71142171D01*
X152416598Y-71356335D01*
X152416594Y-71356344D01*
X152355438Y-71584586D01*
X152355436Y-71584596D01*
X152334841Y-71819999D01*
X151545657Y-71819999D01*
X151545657Y-71819998D01*
X151525069Y-71584684D01*
X151525067Y-71584673D01*
X151463933Y-71356516D01*
X151463929Y-71356507D01*
X151364100Y-71142423D01*
X151364099Y-71142421D01*
X151305425Y-71058626D01*
X151305425Y-71058625D01*
X150673462Y-71690589D01*
X150656425Y-71627007D01*
X150590599Y-71512993D01*
X150497507Y-71419901D01*
X150383493Y-71354075D01*
X150319910Y-71337037D01*
X150951873Y-70705073D01*
X150951873Y-70705072D01*
X150868083Y-70646402D01*
X150868079Y-70646400D01*
X150653992Y-70546570D01*
X150653983Y-70546566D01*
X150425826Y-70485432D01*
X150425815Y-70485430D01*
X150190502Y-70464843D01*
X150190498Y-70464843D01*
X149955184Y-70485430D01*
X149955173Y-70485432D01*
X149727016Y-70546566D01*
X149727007Y-70546570D01*
X149512919Y-70646401D01*
X149429125Y-70705072D01*
X150061090Y-71337037D01*
X149997507Y-71354075D01*
X149883493Y-71419901D01*
X149790401Y-71512993D01*
X149724575Y-71627007D01*
X149707537Y-71690589D01*
X149075573Y-71058625D01*
X149075572Y-71058625D01*
X149016901Y-71142419D01*
X148917070Y-71356507D01*
X148917066Y-71356516D01*
X148855932Y-71584673D01*
X148855930Y-71584684D01*
X148835343Y-71819998D01*
X148046159Y-71819998D01*
X148025563Y-71584592D01*
X147964403Y-71356337D01*
X147864535Y-71142171D01*
X147806037Y-71058626D01*
X147728994Y-70948597D01*
X147561902Y-70781506D01*
X147561895Y-70781501D01*
X147368334Y-70645967D01*
X147368330Y-70645965D01*
X147346229Y-70635659D01*
X147154163Y-70546097D01*
X147154159Y-70546096D01*
X147154155Y-70546094D01*
X146925913Y-70484938D01*
X146925903Y-70484936D01*
X146690501Y-70464341D01*
X146690499Y-70464341D01*
X146455096Y-70484936D01*
X146455086Y-70484938D01*
X146226844Y-70546094D01*
X146226835Y-70546098D01*
X146012671Y-70645964D01*
X146012669Y-70645965D01*
X145819097Y-70781505D01*
X145652005Y-70948597D01*
X145516465Y-71142169D01*
X145516464Y-71142171D01*
X145416598Y-71356335D01*
X145416594Y-71356344D01*
X145355438Y-71584586D01*
X145355436Y-71584596D01*
X145334841Y-71819999D01*
X93050500Y-71819999D01*
X93050500Y-62025001D01*
X95892641Y-62025001D01*
X95892641Y-62025002D01*
X95911031Y-62223466D01*
X95911031Y-62223468D01*
X95911032Y-62223471D01*
X95948054Y-62353590D01*
X95965579Y-62415185D01*
X96054419Y-62593600D01*
X96054424Y-62593608D01*
X96174541Y-62752668D01*
X96263797Y-62834035D01*
X96321839Y-62886947D01*
X96491303Y-62991875D01*
X96677163Y-63063878D01*
X96873089Y-63100502D01*
X96873091Y-63100502D01*
X97072407Y-63100502D01*
X97072409Y-63100502D01*
X97268335Y-63063878D01*
X97454195Y-62991875D01*
X97623659Y-62886947D01*
X97770958Y-62752666D01*
X97891075Y-62593606D01*
X97979920Y-62415182D01*
X98034466Y-62223471D01*
X98052857Y-62025002D01*
X98034466Y-61826533D01*
X97979920Y-61634822D01*
X97978508Y-61631986D01*
X97891078Y-61456403D01*
X97891073Y-61456395D01*
X97770956Y-61297335D01*
X97623660Y-61163058D01*
X97623659Y-61163057D01*
X97559124Y-61123098D01*
X97454196Y-61058129D01*
X97454194Y-61058128D01*
X97372128Y-61026336D01*
X97268335Y-60986126D01*
X97268331Y-60986125D01*
X97189388Y-60971368D01*
X97072409Y-60949502D01*
X96873089Y-60949502D01*
X96783003Y-60966341D01*
X96677166Y-60986125D01*
X96677164Y-60986125D01*
X96677163Y-60986126D01*
X96625266Y-61006231D01*
X96491303Y-61058128D01*
X96491301Y-61058129D01*
X96321837Y-61163058D01*
X96174541Y-61297335D01*
X96054424Y-61456395D01*
X96054419Y-61456403D01*
X95965579Y-61634818D01*
X95911031Y-61826537D01*
X95892641Y-62025001D01*
X93050500Y-62025001D01*
X93050500Y-59525001D01*
X95893144Y-59525001D01*
X95893144Y-59525002D01*
X95911525Y-59723378D01*
X95911526Y-59723381D01*
X95966042Y-59914988D01*
X95966050Y-59915008D01*
X96053522Y-60090675D01*
X96572749Y-59571448D01*
X96572749Y-59577663D01*
X96600008Y-59679396D01*
X96652669Y-59770608D01*
X96727143Y-59845082D01*
X96818355Y-59897743D01*
X96920088Y-59925002D01*
X96926302Y-59925002D01*
X96410220Y-60441081D01*
X96410221Y-60441082D01*
X96491524Y-60491423D01*
X96491533Y-60491427D01*
X96677298Y-60563392D01*
X96677303Y-60563393D01*
X96873138Y-60600002D01*
X97072360Y-60600002D01*
X97268194Y-60563393D01*
X97268199Y-60563392D01*
X97453966Y-60491426D01*
X97453970Y-60491424D01*
X97535276Y-60441081D01*
X97019197Y-59925002D01*
X97025410Y-59925002D01*
X97127143Y-59897743D01*
X97218355Y-59845082D01*
X97292829Y-59770608D01*
X97345490Y-59679396D01*
X97372749Y-59577663D01*
X97372749Y-59571449D01*
X97891975Y-60090675D01*
X97979446Y-59915010D01*
X97979452Y-59914995D01*
X98033971Y-59723380D01*
X98033972Y-59723378D01*
X98052354Y-59525002D01*
X98052354Y-59525001D01*
X98033972Y-59326625D01*
X98033971Y-59326623D01*
X97979452Y-59135008D01*
X97979446Y-59134993D01*
X97891974Y-58959327D01*
X97372749Y-59478553D01*
X97372749Y-59472341D01*
X97345490Y-59370608D01*
X97292829Y-59279396D01*
X97218355Y-59204922D01*
X97127143Y-59152261D01*
X97025410Y-59125002D01*
X97019197Y-59125002D01*
X97535276Y-58608921D01*
X97535275Y-58608920D01*
X97453973Y-58558581D01*
X97453964Y-58558576D01*
X97268199Y-58486611D01*
X97268194Y-58486610D01*
X97072360Y-58450002D01*
X96873138Y-58450002D01*
X96677303Y-58486610D01*
X96677302Y-58486610D01*
X96491529Y-58558578D01*
X96491525Y-58558580D01*
X96410220Y-58608921D01*
X96926302Y-59125002D01*
X96920088Y-59125002D01*
X96818355Y-59152261D01*
X96727143Y-59204922D01*
X96652669Y-59279396D01*
X96600008Y-59370608D01*
X96572749Y-59472341D01*
X96572749Y-59478554D01*
X96053522Y-58959327D01*
X95966047Y-59135004D01*
X95966042Y-59135015D01*
X95911526Y-59326622D01*
X95911525Y-59326625D01*
X95893144Y-59525001D01*
X93050500Y-59525001D01*
X93050500Y-56402137D01*
X95897249Y-56402137D01*
X95897249Y-57647872D01*
X95897250Y-57647878D01*
X95903657Y-57707485D01*
X95953951Y-57842330D01*
X95953955Y-57842337D01*
X96040201Y-57957546D01*
X96040204Y-57957549D01*
X96155413Y-58043795D01*
X96155420Y-58043799D01*
X96290266Y-58094093D01*
X96290265Y-58094093D01*
X96297193Y-58094837D01*
X96349876Y-58100502D01*
X97595621Y-58100501D01*
X97655232Y-58094093D01*
X97790080Y-58043798D01*
X97905295Y-57957548D01*
X97991545Y-57842333D01*
X98041840Y-57707485D01*
X98048249Y-57647875D01*
X98048248Y-56402130D01*
X98041840Y-56342519D01*
X97991545Y-56207671D01*
X97991544Y-56207670D01*
X97991542Y-56207666D01*
X97905296Y-56092457D01*
X97905293Y-56092454D01*
X97790084Y-56006208D01*
X97790077Y-56006204D01*
X97655231Y-55955910D01*
X97655232Y-55955910D01*
X97595632Y-55949503D01*
X97595630Y-55949502D01*
X97595622Y-55949502D01*
X97595613Y-55949502D01*
X96349878Y-55949502D01*
X96349872Y-55949503D01*
X96290265Y-55955910D01*
X96155420Y-56006204D01*
X96155413Y-56006208D01*
X96040204Y-56092454D01*
X96040201Y-56092457D01*
X95953955Y-56207666D01*
X95953951Y-56207673D01*
X95903657Y-56342519D01*
X95897250Y-56402118D01*
X95897250Y-56402125D01*
X95897249Y-56402137D01*
X93050500Y-56402137D01*
X93050500Y-48504009D01*
X95869894Y-48504009D01*
X95869894Y-48504010D01*
X95888284Y-48702474D01*
X95942832Y-48894193D01*
X96031672Y-49072608D01*
X96031677Y-49072616D01*
X96151794Y-49231676D01*
X96278510Y-49347192D01*
X96299092Y-49365955D01*
X96468556Y-49470883D01*
X96654416Y-49542886D01*
X96850342Y-49579510D01*
X96850344Y-49579510D01*
X97049660Y-49579510D01*
X97049662Y-49579510D01*
X97245588Y-49542886D01*
X97431448Y-49470883D01*
X97600912Y-49365955D01*
X97748211Y-49231674D01*
X97868328Y-49072614D01*
X97957173Y-48894190D01*
X98011719Y-48702479D01*
X98030110Y-48504010D01*
X98011719Y-48305541D01*
X97957173Y-48113830D01*
X97944608Y-48088597D01*
X97868331Y-47935411D01*
X97868326Y-47935403D01*
X97748209Y-47776343D01*
X97600913Y-47642066D01*
X97600912Y-47642065D01*
X97514281Y-47588425D01*
X97431449Y-47537137D01*
X97431447Y-47537136D01*
X97349381Y-47505344D01*
X97245588Y-47465134D01*
X97245584Y-47465133D01*
X97166641Y-47450376D01*
X97049662Y-47428510D01*
X96850342Y-47428510D01*
X96760256Y-47445349D01*
X96654419Y-47465133D01*
X96654417Y-47465133D01*
X96654416Y-47465134D01*
X96602519Y-47485239D01*
X96468556Y-47537136D01*
X96468554Y-47537137D01*
X96299090Y-47642066D01*
X96151794Y-47776343D01*
X96031677Y-47935403D01*
X96031672Y-47935411D01*
X95942832Y-48113826D01*
X95888284Y-48305545D01*
X95869894Y-48504009D01*
X93050500Y-48504009D01*
X93050500Y-46004009D01*
X95870397Y-46004009D01*
X95870397Y-46004010D01*
X95888778Y-46202386D01*
X95888779Y-46202389D01*
X95943295Y-46393996D01*
X95943303Y-46394016D01*
X96030775Y-46569683D01*
X96550002Y-46050456D01*
X96550002Y-46056671D01*
X96577261Y-46158404D01*
X96629922Y-46249616D01*
X96704396Y-46324090D01*
X96795608Y-46376751D01*
X96897341Y-46404010D01*
X96903555Y-46404010D01*
X96387473Y-46920089D01*
X96387474Y-46920090D01*
X96468777Y-46970431D01*
X96468786Y-46970435D01*
X96654551Y-47042400D01*
X96654556Y-47042401D01*
X96850391Y-47079010D01*
X97049613Y-47079010D01*
X97245447Y-47042401D01*
X97245452Y-47042400D01*
X97431219Y-46970434D01*
X97431223Y-46970432D01*
X97512529Y-46920089D01*
X96996450Y-46404010D01*
X97002663Y-46404010D01*
X97104396Y-46376751D01*
X97195608Y-46324090D01*
X97270082Y-46249616D01*
X97322743Y-46158404D01*
X97350002Y-46056671D01*
X97350002Y-46050457D01*
X97869228Y-46569683D01*
X97956699Y-46394018D01*
X97956705Y-46394003D01*
X98011224Y-46202388D01*
X98011225Y-46202386D01*
X98029607Y-46004010D01*
X98029607Y-46004009D01*
X98011225Y-45805633D01*
X98011224Y-45805631D01*
X97956705Y-45614016D01*
X97956699Y-45614001D01*
X97869227Y-45438335D01*
X97350002Y-45957561D01*
X97350002Y-45951349D01*
X97322743Y-45849616D01*
X97270082Y-45758404D01*
X97195608Y-45683930D01*
X97104396Y-45631269D01*
X97002663Y-45604010D01*
X96996450Y-45604010D01*
X97512529Y-45087929D01*
X97512528Y-45087928D01*
X97431226Y-45037589D01*
X97431217Y-45037584D01*
X97245452Y-44965619D01*
X97245447Y-44965618D01*
X97049613Y-44929010D01*
X96850391Y-44929010D01*
X96654556Y-44965618D01*
X96654555Y-44965618D01*
X96468782Y-45037586D01*
X96468778Y-45037588D01*
X96387473Y-45087929D01*
X96903555Y-45604010D01*
X96897341Y-45604010D01*
X96795608Y-45631269D01*
X96704396Y-45683930D01*
X96629922Y-45758404D01*
X96577261Y-45849616D01*
X96550002Y-45951349D01*
X96550002Y-45957562D01*
X96030775Y-45438335D01*
X95943300Y-45614012D01*
X95943295Y-45614023D01*
X95888779Y-45805630D01*
X95888778Y-45805633D01*
X95870397Y-46004009D01*
X93050500Y-46004009D01*
X93050500Y-42881145D01*
X95874502Y-42881145D01*
X95874502Y-44126880D01*
X95874503Y-44126886D01*
X95880910Y-44186493D01*
X95931204Y-44321338D01*
X95931208Y-44321345D01*
X96017454Y-44436554D01*
X96017457Y-44436557D01*
X96132666Y-44522803D01*
X96132673Y-44522807D01*
X96267519Y-44573101D01*
X96267518Y-44573101D01*
X96274446Y-44573845D01*
X96327129Y-44579510D01*
X97572874Y-44579509D01*
X97632485Y-44573101D01*
X97767333Y-44522806D01*
X97882548Y-44436556D01*
X97968798Y-44321341D01*
X98019093Y-44186493D01*
X98025502Y-44126883D01*
X98025501Y-42881138D01*
X98019093Y-42821527D01*
X98016703Y-42815120D01*
X97968799Y-42686681D01*
X97968795Y-42686674D01*
X97882549Y-42571465D01*
X97882546Y-42571462D01*
X97767337Y-42485216D01*
X97767330Y-42485212D01*
X97632484Y-42434918D01*
X97632485Y-42434918D01*
X97572885Y-42428511D01*
X97572883Y-42428510D01*
X97572875Y-42428510D01*
X97572866Y-42428510D01*
X96327131Y-42428510D01*
X96327125Y-42428511D01*
X96267518Y-42434918D01*
X96132673Y-42485212D01*
X96132666Y-42485216D01*
X96017457Y-42571462D01*
X96017454Y-42571465D01*
X95931208Y-42686674D01*
X95931204Y-42686681D01*
X95880910Y-42821527D01*
X95874503Y-42881126D01*
X95874503Y-42881133D01*
X95874502Y-42881145D01*
X93050500Y-42881145D01*
X93050500Y-31179999D01*
X138420841Y-31179999D01*
X138420841Y-31180000D01*
X138441436Y-31415403D01*
X138441438Y-31415413D01*
X138502594Y-31643655D01*
X138502596Y-31643659D01*
X138502597Y-31643663D01*
X138563803Y-31774919D01*
X138602465Y-31857830D01*
X138602467Y-31857834D01*
X138738001Y-32051395D01*
X138738006Y-32051402D01*
X138905097Y-32218493D01*
X138905103Y-32218498D01*
X139090658Y-32348425D01*
X139134283Y-32403002D01*
X139141477Y-32472500D01*
X139109954Y-32534855D01*
X139090658Y-32551575D01*
X138905097Y-32681505D01*
X138738005Y-32848597D01*
X138602465Y-33042169D01*
X138602464Y-33042171D01*
X138502598Y-33256335D01*
X138502594Y-33256344D01*
X138441438Y-33484586D01*
X138441436Y-33484596D01*
X138420841Y-33719999D01*
X138420841Y-33720000D01*
X138441436Y-33955403D01*
X138441438Y-33955413D01*
X138502594Y-34183655D01*
X138502596Y-34183659D01*
X138502597Y-34183663D01*
X138539119Y-34261984D01*
X138602465Y-34397830D01*
X138602467Y-34397834D01*
X138738001Y-34591395D01*
X138738006Y-34591402D01*
X138905097Y-34758493D01*
X138905103Y-34758498D01*
X139090658Y-34888425D01*
X139134283Y-34943002D01*
X139141477Y-35012500D01*
X139109954Y-35074855D01*
X139090658Y-35091575D01*
X138905097Y-35221505D01*
X138738005Y-35388597D01*
X138602465Y-35582169D01*
X138602464Y-35582171D01*
X138502598Y-35796335D01*
X138502594Y-35796344D01*
X138441438Y-36024586D01*
X138441436Y-36024596D01*
X138420841Y-36259999D01*
X138420841Y-36260000D01*
X138441436Y-36495403D01*
X138441438Y-36495413D01*
X138502594Y-36723655D01*
X138502596Y-36723659D01*
X138502597Y-36723663D01*
X138547664Y-36820309D01*
X138602465Y-36937830D01*
X138602467Y-36937834D01*
X138631753Y-36979658D01*
X138738005Y-37131401D01*
X138905099Y-37298495D01*
X139091094Y-37428730D01*
X139134718Y-37483307D01*
X139141911Y-37552806D01*
X139110389Y-37615160D01*
X139091093Y-37631880D01*
X139015126Y-37685072D01*
X139015125Y-37685072D01*
X139647090Y-38317037D01*
X139583507Y-38334075D01*
X139469493Y-38399901D01*
X139376401Y-38492993D01*
X139310575Y-38607007D01*
X139293537Y-38670590D01*
X138661572Y-38038625D01*
X138602901Y-38122419D01*
X138503070Y-38336507D01*
X138503066Y-38336516D01*
X138441932Y-38564673D01*
X138441930Y-38564684D01*
X138421343Y-38799998D01*
X138421343Y-38800001D01*
X138441930Y-39035315D01*
X138441932Y-39035326D01*
X138503066Y-39263483D01*
X138503070Y-39263492D01*
X138602900Y-39477579D01*
X138602902Y-39477583D01*
X138661572Y-39561373D01*
X138661573Y-39561373D01*
X139293537Y-38929409D01*
X139310575Y-38992993D01*
X139376401Y-39107007D01*
X139469493Y-39200099D01*
X139583507Y-39265925D01*
X139647090Y-39282962D01*
X139015125Y-39914925D01*
X139091094Y-39968119D01*
X139134719Y-40022696D01*
X139141913Y-40092194D01*
X139110390Y-40154549D01*
X139091095Y-40171269D01*
X138905094Y-40301508D01*
X138738005Y-40468597D01*
X138602465Y-40662169D01*
X138602464Y-40662171D01*
X138502598Y-40876335D01*
X138502594Y-40876344D01*
X138441438Y-41104586D01*
X138441436Y-41104596D01*
X138420841Y-41339999D01*
X138420841Y-41340000D01*
X138441436Y-41575403D01*
X138441438Y-41575413D01*
X138502594Y-41803655D01*
X138502596Y-41803659D01*
X138502597Y-41803663D01*
X138593231Y-41998027D01*
X138602465Y-42017830D01*
X138602467Y-42017834D01*
X138738001Y-42211395D01*
X138738006Y-42211402D01*
X138905097Y-42378493D01*
X138905103Y-42378498D01*
X139090658Y-42508425D01*
X139134283Y-42563002D01*
X139141477Y-42632500D01*
X139109954Y-42694855D01*
X139090658Y-42711575D01*
X138905097Y-42841505D01*
X138738005Y-43008597D01*
X138602465Y-43202169D01*
X138602464Y-43202171D01*
X138502598Y-43416335D01*
X138502594Y-43416344D01*
X138441438Y-43644586D01*
X138441436Y-43644596D01*
X138420841Y-43879999D01*
X138420841Y-43880000D01*
X138441436Y-44115403D01*
X138441438Y-44115413D01*
X138502594Y-44343655D01*
X138502596Y-44343659D01*
X138502597Y-44343663D01*
X138602465Y-44557830D01*
X138602467Y-44557834D01*
X138738001Y-44751395D01*
X138738006Y-44751402D01*
X138905097Y-44918493D01*
X138905103Y-44918498D01*
X139090658Y-45048425D01*
X139134283Y-45103002D01*
X139141477Y-45172500D01*
X139109954Y-45234855D01*
X139090658Y-45251575D01*
X138905097Y-45381505D01*
X138738005Y-45548597D01*
X138602465Y-45742169D01*
X138602464Y-45742171D01*
X138502598Y-45956335D01*
X138502594Y-45956344D01*
X138441438Y-46184586D01*
X138441436Y-46184596D01*
X138420841Y-46419999D01*
X138420841Y-46420000D01*
X138441436Y-46655403D01*
X138441438Y-46655413D01*
X138502594Y-46883655D01*
X138502596Y-46883659D01*
X138502597Y-46883663D01*
X138576618Y-47042401D01*
X138602465Y-47097830D01*
X138602467Y-47097834D01*
X138738001Y-47291395D01*
X138738006Y-47291402D01*
X138905097Y-47458493D01*
X138905103Y-47458498D01*
X139090658Y-47588425D01*
X139134283Y-47643002D01*
X139141477Y-47712500D01*
X139109954Y-47774855D01*
X139090658Y-47791575D01*
X138905097Y-47921505D01*
X138738005Y-48088597D01*
X138602465Y-48282169D01*
X138602464Y-48282171D01*
X138502598Y-48496335D01*
X138502594Y-48496344D01*
X138441438Y-48724586D01*
X138441436Y-48724596D01*
X138420841Y-48959999D01*
X138420841Y-48960000D01*
X138441436Y-49195403D01*
X138441438Y-49195413D01*
X138502594Y-49423655D01*
X138502596Y-49423659D01*
X138502597Y-49423663D01*
X138575270Y-49579510D01*
X138602465Y-49637830D01*
X138602467Y-49637834D01*
X138738001Y-49831395D01*
X138738006Y-49831402D01*
X138905097Y-49998493D01*
X138905103Y-49998498D01*
X139090658Y-50128425D01*
X139134283Y-50183002D01*
X139141477Y-50252500D01*
X139109954Y-50314855D01*
X139090658Y-50331575D01*
X138905097Y-50461505D01*
X138738005Y-50628597D01*
X138602465Y-50822169D01*
X138602464Y-50822171D01*
X138502598Y-51036335D01*
X138502594Y-51036344D01*
X138441438Y-51264586D01*
X138441436Y-51264596D01*
X138420841Y-51499999D01*
X138420841Y-51500000D01*
X138441436Y-51735403D01*
X138441438Y-51735413D01*
X138502594Y-51963655D01*
X138502596Y-51963659D01*
X138502597Y-51963663D01*
X138602465Y-52177830D01*
X138602467Y-52177834D01*
X138738001Y-52371395D01*
X138738006Y-52371402D01*
X138905097Y-52538493D01*
X138905103Y-52538498D01*
X139090658Y-52668425D01*
X139134283Y-52723002D01*
X139141477Y-52792500D01*
X139109954Y-52854855D01*
X139090658Y-52871575D01*
X138905097Y-53001505D01*
X138738005Y-53168597D01*
X138602465Y-53362169D01*
X138602464Y-53362171D01*
X138502598Y-53576335D01*
X138502594Y-53576344D01*
X138441438Y-53804586D01*
X138441436Y-53804596D01*
X138420841Y-54039999D01*
X138420841Y-54040000D01*
X138441436Y-54275403D01*
X138441438Y-54275413D01*
X138502594Y-54503655D01*
X138502596Y-54503659D01*
X138502597Y-54503663D01*
X138602465Y-54717830D01*
X138602467Y-54717834D01*
X138738001Y-54911395D01*
X138738006Y-54911402D01*
X138905097Y-55078493D01*
X138905103Y-55078498D01*
X139090658Y-55208425D01*
X139134283Y-55263002D01*
X139141477Y-55332500D01*
X139109954Y-55394855D01*
X139090658Y-55411575D01*
X138905097Y-55541505D01*
X138738005Y-55708597D01*
X138602465Y-55902169D01*
X138602464Y-55902171D01*
X138502598Y-56116335D01*
X138502594Y-56116344D01*
X138441438Y-56344586D01*
X138441436Y-56344596D01*
X138420841Y-56579999D01*
X138420841Y-56580000D01*
X138441436Y-56815403D01*
X138441438Y-56815413D01*
X138502594Y-57043655D01*
X138502596Y-57043659D01*
X138502597Y-57043663D01*
X138602465Y-57257830D01*
X138602467Y-57257834D01*
X138738001Y-57451395D01*
X138738006Y-57451402D01*
X138905097Y-57618493D01*
X138905103Y-57618498D01*
X139090658Y-57748425D01*
X139134283Y-57803002D01*
X139141477Y-57872500D01*
X139109954Y-57934855D01*
X139090658Y-57951575D01*
X138905097Y-58081505D01*
X138738005Y-58248597D01*
X138602465Y-58442169D01*
X138602464Y-58442171D01*
X138502598Y-58656335D01*
X138502594Y-58656344D01*
X138441438Y-58884586D01*
X138441436Y-58884596D01*
X138420841Y-59119999D01*
X138420841Y-59120000D01*
X138441436Y-59355403D01*
X138441438Y-59355413D01*
X138502594Y-59583655D01*
X138502596Y-59583659D01*
X138502597Y-59583663D01*
X138567748Y-59723380D01*
X138602465Y-59797830D01*
X138602467Y-59797834D01*
X138738001Y-59991395D01*
X138738006Y-59991402D01*
X138905097Y-60158493D01*
X138905103Y-60158498D01*
X139090658Y-60288425D01*
X139134283Y-60343002D01*
X139141477Y-60412500D01*
X139109954Y-60474855D01*
X139090658Y-60491575D01*
X138905097Y-60621505D01*
X138738005Y-60788597D01*
X138602465Y-60982169D01*
X138602464Y-60982171D01*
X138502598Y-61196335D01*
X138502594Y-61196344D01*
X138441438Y-61424586D01*
X138441436Y-61424596D01*
X138420841Y-61659999D01*
X138420841Y-61660000D01*
X138441436Y-61895403D01*
X138441438Y-61895413D01*
X138502594Y-62123655D01*
X138502596Y-62123659D01*
X138502597Y-62123663D01*
X138602465Y-62337830D01*
X138602467Y-62337834D01*
X138738001Y-62531395D01*
X138738006Y-62531402D01*
X138905097Y-62698493D01*
X138905103Y-62698498D01*
X139090658Y-62828425D01*
X139134283Y-62883002D01*
X139141477Y-62952500D01*
X139109954Y-63014855D01*
X139090658Y-63031575D01*
X138905097Y-63161505D01*
X138738005Y-63328597D01*
X138602465Y-63522169D01*
X138602464Y-63522171D01*
X138502598Y-63736335D01*
X138502594Y-63736344D01*
X138441438Y-63964586D01*
X138441436Y-63964596D01*
X138420841Y-64199999D01*
X138420841Y-64200000D01*
X138441436Y-64435403D01*
X138441438Y-64435413D01*
X138502594Y-64663655D01*
X138502596Y-64663659D01*
X138502597Y-64663663D01*
X138602465Y-64877830D01*
X138602467Y-64877834D01*
X138738001Y-65071395D01*
X138738006Y-65071402D01*
X138905097Y-65238493D01*
X138905103Y-65238498D01*
X139090658Y-65368425D01*
X139134283Y-65423002D01*
X139141477Y-65492500D01*
X139109954Y-65554855D01*
X139090658Y-65571575D01*
X138905097Y-65701505D01*
X138738005Y-65868597D01*
X138602465Y-66062169D01*
X138602464Y-66062171D01*
X138502598Y-66276335D01*
X138502594Y-66276344D01*
X138441438Y-66504586D01*
X138441436Y-66504596D01*
X138420841Y-66739999D01*
X138420841Y-66740000D01*
X138441436Y-66975403D01*
X138441438Y-66975413D01*
X138502594Y-67203655D01*
X138502596Y-67203659D01*
X138502597Y-67203663D01*
X138602465Y-67417830D01*
X138602467Y-67417834D01*
X138738001Y-67611395D01*
X138738006Y-67611402D01*
X138905097Y-67778493D01*
X138905103Y-67778498D01*
X139090658Y-67908425D01*
X139134283Y-67963002D01*
X139141477Y-68032500D01*
X139109954Y-68094855D01*
X139090658Y-68111575D01*
X138905097Y-68241505D01*
X138738005Y-68408597D01*
X138602465Y-68602169D01*
X138602464Y-68602171D01*
X138502598Y-68816335D01*
X138502594Y-68816344D01*
X138441438Y-69044586D01*
X138441436Y-69044596D01*
X138420841Y-69279999D01*
X138420841Y-69280000D01*
X138441436Y-69515403D01*
X138441438Y-69515413D01*
X138502594Y-69743655D01*
X138502596Y-69743659D01*
X138502597Y-69743663D01*
X138602465Y-69957830D01*
X138602467Y-69957834D01*
X138674579Y-70060820D01*
X138738005Y-70151401D01*
X138905099Y-70318495D01*
X139001884Y-70386265D01*
X139098665Y-70454032D01*
X139098667Y-70454033D01*
X139098670Y-70454035D01*
X139312837Y-70553903D01*
X139541092Y-70615063D01*
X139729418Y-70631539D01*
X139776499Y-70635659D01*
X139776500Y-70635659D01*
X139776501Y-70635659D01*
X139815734Y-70632226D01*
X140011908Y-70615063D01*
X140240163Y-70553903D01*
X140454330Y-70454035D01*
X140647901Y-70318495D01*
X140814995Y-70151401D01*
X140950535Y-69957830D01*
X141050403Y-69743663D01*
X141111563Y-69515408D01*
X141132159Y-69280000D01*
X141111563Y-69044592D01*
X141050403Y-68816337D01*
X140950535Y-68602171D01*
X140814995Y-68408599D01*
X140814994Y-68408597D01*
X140647902Y-68241506D01*
X140647896Y-68241501D01*
X140462342Y-68111575D01*
X140418717Y-68056998D01*
X140411523Y-67987500D01*
X140443046Y-67925145D01*
X140462342Y-67908425D01*
X140484526Y-67892891D01*
X140647901Y-67778495D01*
X140814995Y-67611401D01*
X140950535Y-67417830D01*
X141050403Y-67203663D01*
X141111563Y-66975408D01*
X141132159Y-66740000D01*
X141111563Y-66504592D01*
X141050403Y-66276337D01*
X140950535Y-66062171D01*
X140814995Y-65868599D01*
X140814994Y-65868597D01*
X140647902Y-65701506D01*
X140647896Y-65701501D01*
X140462342Y-65571575D01*
X140418717Y-65516998D01*
X140411523Y-65447500D01*
X140443046Y-65385145D01*
X140462342Y-65368425D01*
X140484526Y-65352891D01*
X140647901Y-65238495D01*
X140814995Y-65071401D01*
X140950535Y-64877830D01*
X141050403Y-64663663D01*
X141111563Y-64435408D01*
X141132159Y-64200000D01*
X141129754Y-64172517D01*
X141113609Y-63987982D01*
X141111563Y-63964592D01*
X141050403Y-63736337D01*
X140950535Y-63522171D01*
X140894523Y-63442176D01*
X140814994Y-63328597D01*
X140647902Y-63161506D01*
X140647896Y-63161501D01*
X140462342Y-63031575D01*
X140418717Y-62976998D01*
X140411523Y-62907500D01*
X140443046Y-62845145D01*
X140462342Y-62828425D01*
X140570534Y-62752668D01*
X140647901Y-62698495D01*
X140814995Y-62531401D01*
X140950535Y-62337830D01*
X141050403Y-62123663D01*
X141111563Y-61895408D01*
X141132159Y-61660000D01*
X141111563Y-61424592D01*
X141050403Y-61196337D01*
X140950535Y-60982171D01*
X140814995Y-60788599D01*
X140814994Y-60788597D01*
X140647902Y-60621506D01*
X140647896Y-60621501D01*
X140462342Y-60491575D01*
X140418717Y-60436998D01*
X140411523Y-60367500D01*
X140443046Y-60305145D01*
X140462342Y-60288425D01*
X140484526Y-60272891D01*
X140647901Y-60158495D01*
X140814995Y-59991401D01*
X140950535Y-59797830D01*
X141050403Y-59583663D01*
X141111563Y-59355408D01*
X141132159Y-59120000D01*
X141111563Y-58884592D01*
X141050403Y-58656337D01*
X140950535Y-58442171D01*
X140814995Y-58248599D01*
X140814994Y-58248597D01*
X140647902Y-58081506D01*
X140647896Y-58081501D01*
X140462342Y-57951575D01*
X140418717Y-57896998D01*
X140411523Y-57827500D01*
X140443046Y-57765145D01*
X140462342Y-57748425D01*
X140520810Y-57707485D01*
X140647901Y-57618495D01*
X140814995Y-57451401D01*
X140950535Y-57257830D01*
X141050403Y-57043663D01*
X141111563Y-56815408D01*
X141132159Y-56580000D01*
X141111563Y-56344592D01*
X141050403Y-56116337D01*
X140950535Y-55902171D01*
X140814995Y-55708599D01*
X140814994Y-55708597D01*
X140647902Y-55541506D01*
X140647896Y-55541501D01*
X140462342Y-55411575D01*
X140418717Y-55356998D01*
X140411523Y-55287500D01*
X140443046Y-55225145D01*
X140462342Y-55208425D01*
X140484526Y-55192891D01*
X140647901Y-55078495D01*
X140814995Y-54911401D01*
X140950535Y-54717830D01*
X141050403Y-54503663D01*
X141111563Y-54275408D01*
X141132159Y-54040000D01*
X141111563Y-53804592D01*
X141050403Y-53576337D01*
X140950535Y-53362171D01*
X140814995Y-53168599D01*
X140814994Y-53168597D01*
X140647902Y-53001506D01*
X140647896Y-53001501D01*
X140462342Y-52871575D01*
X140418717Y-52816998D01*
X140411523Y-52747500D01*
X140443046Y-52685145D01*
X140462342Y-52668425D01*
X140484526Y-52652891D01*
X140647901Y-52538495D01*
X140814995Y-52371401D01*
X140950535Y-52177830D01*
X141050403Y-51963663D01*
X141111563Y-51735408D01*
X141132159Y-51500000D01*
X141111563Y-51264592D01*
X141050403Y-51036337D01*
X140950535Y-50822171D01*
X140814995Y-50628599D01*
X140814994Y-50628597D01*
X140647902Y-50461506D01*
X140647896Y-50461501D01*
X140462342Y-50331575D01*
X140418717Y-50276998D01*
X140411523Y-50207500D01*
X140443046Y-50145145D01*
X140462342Y-50128425D01*
X140484526Y-50112891D01*
X140647901Y-49998495D01*
X140814995Y-49831401D01*
X140950535Y-49637830D01*
X141050403Y-49423663D01*
X141111563Y-49195408D01*
X141132159Y-48960000D01*
X141111563Y-48724592D01*
X141050403Y-48496337D01*
X140950535Y-48282171D01*
X140814995Y-48088599D01*
X140814994Y-48088597D01*
X140647902Y-47921506D01*
X140647896Y-47921501D01*
X140462342Y-47791575D01*
X140418717Y-47736998D01*
X140411523Y-47667500D01*
X140443046Y-47605145D01*
X140462342Y-47588425D01*
X140484526Y-47572891D01*
X140647901Y-47458495D01*
X140814995Y-47291401D01*
X140950535Y-47097830D01*
X141050403Y-46883663D01*
X141111563Y-46655408D01*
X141132159Y-46420000D01*
X141111563Y-46184592D01*
X141050403Y-45956337D01*
X140950535Y-45742171D01*
X140909755Y-45683930D01*
X140814994Y-45548597D01*
X140647902Y-45381506D01*
X140647896Y-45381501D01*
X140462342Y-45251575D01*
X140418717Y-45196998D01*
X140411523Y-45127500D01*
X140443046Y-45065145D01*
X140462342Y-45048425D01*
X140534312Y-44998031D01*
X140647901Y-44918495D01*
X140814995Y-44751401D01*
X140950535Y-44557830D01*
X141050403Y-44343663D01*
X141111563Y-44115408D01*
X141132159Y-43880000D01*
X141111563Y-43644592D01*
X141050403Y-43416337D01*
X140950535Y-43202171D01*
X140823366Y-43020553D01*
X140814994Y-43008597D01*
X140647902Y-42841506D01*
X140647896Y-42841501D01*
X140462342Y-42711575D01*
X140418717Y-42656998D01*
X140411523Y-42587500D01*
X140443046Y-42525145D01*
X140462342Y-42508425D01*
X140567319Y-42434919D01*
X140647901Y-42378495D01*
X140814995Y-42211401D01*
X140950535Y-42017830D01*
X141050403Y-41803663D01*
X141111563Y-41575408D01*
X141132159Y-41340000D01*
X141132159Y-41339999D01*
X158804341Y-41339999D01*
X158804341Y-41340000D01*
X158824936Y-41575403D01*
X158824938Y-41575413D01*
X158886094Y-41803655D01*
X158886096Y-41803659D01*
X158886097Y-41803663D01*
X158976731Y-41998027D01*
X158985965Y-42017830D01*
X158985967Y-42017834D01*
X159121501Y-42211395D01*
X159121506Y-42211402D01*
X159288597Y-42378493D01*
X159288603Y-42378498D01*
X159474158Y-42508425D01*
X159517783Y-42563002D01*
X159524977Y-42632500D01*
X159493454Y-42694855D01*
X159474158Y-42711575D01*
X159288597Y-42841505D01*
X159121505Y-43008597D01*
X158985965Y-43202169D01*
X158985964Y-43202171D01*
X158886098Y-43416335D01*
X158886094Y-43416344D01*
X158824938Y-43644586D01*
X158824936Y-43644596D01*
X158804341Y-43879999D01*
X158804341Y-43880000D01*
X158824936Y-44115403D01*
X158824938Y-44115413D01*
X158886094Y-44343655D01*
X158886096Y-44343659D01*
X158886097Y-44343663D01*
X158985965Y-44557830D01*
X158985967Y-44557834D01*
X159121501Y-44751395D01*
X159121506Y-44751402D01*
X159288597Y-44918493D01*
X159288603Y-44918498D01*
X159474158Y-45048425D01*
X159517783Y-45103002D01*
X159524977Y-45172500D01*
X159493454Y-45234855D01*
X159474158Y-45251575D01*
X159288597Y-45381505D01*
X159121505Y-45548597D01*
X158985965Y-45742169D01*
X158985964Y-45742171D01*
X158886098Y-45956335D01*
X158886094Y-45956344D01*
X158824938Y-46184586D01*
X158824936Y-46184596D01*
X158804341Y-46419999D01*
X158804341Y-46420000D01*
X158824936Y-46655403D01*
X158824938Y-46655413D01*
X158886094Y-46883655D01*
X158886096Y-46883659D01*
X158886097Y-46883663D01*
X158960118Y-47042401D01*
X158985965Y-47097830D01*
X158985967Y-47097834D01*
X159121501Y-47291395D01*
X159121506Y-47291402D01*
X159288597Y-47458493D01*
X159288603Y-47458498D01*
X159474158Y-47588425D01*
X159517783Y-47643002D01*
X159524977Y-47712500D01*
X159493454Y-47774855D01*
X159474158Y-47791575D01*
X159288597Y-47921505D01*
X159121505Y-48088597D01*
X158985965Y-48282169D01*
X158985964Y-48282171D01*
X158886098Y-48496335D01*
X158886094Y-48496344D01*
X158824938Y-48724586D01*
X158824936Y-48724596D01*
X158804341Y-48959999D01*
X158804341Y-48960000D01*
X158824936Y-49195403D01*
X158824938Y-49195413D01*
X158886094Y-49423655D01*
X158886096Y-49423659D01*
X158886097Y-49423663D01*
X158958770Y-49579510D01*
X158985965Y-49637830D01*
X158985967Y-49637834D01*
X159121501Y-49831395D01*
X159121506Y-49831402D01*
X159288597Y-49998493D01*
X159288603Y-49998498D01*
X159474158Y-50128425D01*
X159517783Y-50183002D01*
X159524977Y-50252500D01*
X159493454Y-50314855D01*
X159474158Y-50331575D01*
X159288597Y-50461505D01*
X159121505Y-50628597D01*
X158985965Y-50822169D01*
X158985964Y-50822171D01*
X158886098Y-51036335D01*
X158886094Y-51036344D01*
X158824938Y-51264586D01*
X158824936Y-51264596D01*
X158804341Y-51499999D01*
X158804341Y-51500000D01*
X158824936Y-51735403D01*
X158824938Y-51735413D01*
X158886094Y-51963655D01*
X158886096Y-51963659D01*
X158886097Y-51963663D01*
X158985965Y-52177830D01*
X158985967Y-52177834D01*
X159121501Y-52371395D01*
X159121506Y-52371402D01*
X159288597Y-52538493D01*
X159288603Y-52538498D01*
X159474158Y-52668425D01*
X159517783Y-52723002D01*
X159524977Y-52792500D01*
X159493454Y-52854855D01*
X159474158Y-52871575D01*
X159288597Y-53001505D01*
X159121505Y-53168597D01*
X158985965Y-53362169D01*
X158985964Y-53362171D01*
X158886098Y-53576335D01*
X158886094Y-53576344D01*
X158824938Y-53804586D01*
X158824936Y-53804596D01*
X158804341Y-54039999D01*
X158804341Y-54040000D01*
X158824936Y-54275403D01*
X158824938Y-54275413D01*
X158886094Y-54503655D01*
X158886096Y-54503659D01*
X158886097Y-54503663D01*
X158985965Y-54717830D01*
X158985967Y-54717834D01*
X159121501Y-54911395D01*
X159121506Y-54911402D01*
X159288597Y-55078493D01*
X159288603Y-55078498D01*
X159474158Y-55208425D01*
X159517783Y-55263002D01*
X159524977Y-55332500D01*
X159493454Y-55394855D01*
X159474158Y-55411575D01*
X159288597Y-55541505D01*
X159121505Y-55708597D01*
X158985965Y-55902169D01*
X158985964Y-55902171D01*
X158886098Y-56116335D01*
X158886094Y-56116344D01*
X158824938Y-56344586D01*
X158824936Y-56344596D01*
X158804341Y-56579999D01*
X158804341Y-56580000D01*
X158824936Y-56815403D01*
X158824938Y-56815413D01*
X158886094Y-57043655D01*
X158886096Y-57043659D01*
X158886097Y-57043663D01*
X158985965Y-57257830D01*
X158985967Y-57257834D01*
X159121501Y-57451395D01*
X159121506Y-57451402D01*
X159288597Y-57618493D01*
X159288603Y-57618498D01*
X159474158Y-57748425D01*
X159517783Y-57803002D01*
X159524977Y-57872500D01*
X159493454Y-57934855D01*
X159474158Y-57951575D01*
X159288597Y-58081505D01*
X159121505Y-58248597D01*
X158985965Y-58442169D01*
X158985964Y-58442171D01*
X158886098Y-58656335D01*
X158886094Y-58656344D01*
X158824938Y-58884586D01*
X158824936Y-58884596D01*
X158804341Y-59119999D01*
X158804341Y-59120000D01*
X158824936Y-59355403D01*
X158824938Y-59355413D01*
X158886094Y-59583655D01*
X158886096Y-59583659D01*
X158886097Y-59583663D01*
X158951248Y-59723380D01*
X158985965Y-59797830D01*
X158985967Y-59797834D01*
X159121501Y-59991395D01*
X159121506Y-59991402D01*
X159288597Y-60158493D01*
X159288603Y-60158498D01*
X159474158Y-60288425D01*
X159517783Y-60343002D01*
X159524977Y-60412500D01*
X159493454Y-60474855D01*
X159474158Y-60491575D01*
X159288597Y-60621505D01*
X159121505Y-60788597D01*
X158985965Y-60982169D01*
X158985964Y-60982171D01*
X158886098Y-61196335D01*
X158886094Y-61196344D01*
X158824938Y-61424586D01*
X158824936Y-61424596D01*
X158804341Y-61659999D01*
X158804341Y-61660000D01*
X158824936Y-61895403D01*
X158824938Y-61895413D01*
X158886094Y-62123655D01*
X158886096Y-62123659D01*
X158886097Y-62123663D01*
X158985965Y-62337830D01*
X158985967Y-62337834D01*
X159121501Y-62531395D01*
X159121506Y-62531402D01*
X159288597Y-62698493D01*
X159288603Y-62698498D01*
X159474158Y-62828425D01*
X159517783Y-62883002D01*
X159524977Y-62952500D01*
X159493454Y-63014855D01*
X159474158Y-63031575D01*
X159288597Y-63161505D01*
X159121505Y-63328597D01*
X158985965Y-63522169D01*
X158985964Y-63522171D01*
X158886098Y-63736335D01*
X158886094Y-63736344D01*
X158824938Y-63964586D01*
X158824936Y-63964596D01*
X158804341Y-64199999D01*
X158804341Y-64200000D01*
X158824936Y-64435403D01*
X158824938Y-64435413D01*
X158886094Y-64663655D01*
X158886096Y-64663659D01*
X158886097Y-64663663D01*
X158985965Y-64877830D01*
X158985967Y-64877834D01*
X159121501Y-65071395D01*
X159121506Y-65071402D01*
X159288597Y-65238493D01*
X159288603Y-65238498D01*
X159474158Y-65368425D01*
X159517783Y-65423002D01*
X159524977Y-65492500D01*
X159493454Y-65554855D01*
X159474158Y-65571575D01*
X159288597Y-65701505D01*
X159121505Y-65868597D01*
X158985965Y-66062169D01*
X158985964Y-66062171D01*
X158886098Y-66276335D01*
X158886094Y-66276344D01*
X158824938Y-66504586D01*
X158824936Y-66504596D01*
X158804341Y-66739999D01*
X158804341Y-66740000D01*
X158824936Y-66975403D01*
X158824938Y-66975413D01*
X158886094Y-67203655D01*
X158886096Y-67203659D01*
X158886097Y-67203663D01*
X158985965Y-67417830D01*
X158985967Y-67417834D01*
X159121501Y-67611395D01*
X159121506Y-67611402D01*
X159288597Y-67778493D01*
X159288603Y-67778498D01*
X159474158Y-67908425D01*
X159517783Y-67963002D01*
X159524977Y-68032500D01*
X159493454Y-68094855D01*
X159474158Y-68111575D01*
X159288597Y-68241505D01*
X159121505Y-68408597D01*
X158985965Y-68602169D01*
X158985964Y-68602171D01*
X158886098Y-68816335D01*
X158886094Y-68816344D01*
X158824938Y-69044586D01*
X158824936Y-69044596D01*
X158804341Y-69279999D01*
X158804341Y-69280000D01*
X158824936Y-69515403D01*
X158824938Y-69515413D01*
X158886094Y-69743655D01*
X158886096Y-69743659D01*
X158886097Y-69743663D01*
X158985965Y-69957830D01*
X158985967Y-69957834D01*
X159058079Y-70060820D01*
X159121505Y-70151401D01*
X159288599Y-70318495D01*
X159385384Y-70386265D01*
X159482165Y-70454032D01*
X159482167Y-70454033D01*
X159482170Y-70454035D01*
X159696337Y-70553903D01*
X159924592Y-70615063D01*
X160112918Y-70631539D01*
X160159999Y-70635659D01*
X160160000Y-70635659D01*
X160160001Y-70635659D01*
X160199234Y-70632226D01*
X160395408Y-70615063D01*
X160623663Y-70553903D01*
X160837830Y-70454035D01*
X161031401Y-70318495D01*
X161198495Y-70151401D01*
X161334035Y-69957830D01*
X161433903Y-69743663D01*
X161495063Y-69515408D01*
X161515659Y-69280000D01*
X161495063Y-69044592D01*
X161433903Y-68816337D01*
X161334035Y-68602171D01*
X161198495Y-68408599D01*
X161198494Y-68408597D01*
X161031402Y-68241506D01*
X161031396Y-68241501D01*
X160845842Y-68111575D01*
X160802217Y-68056998D01*
X160795023Y-67987500D01*
X160826546Y-67925145D01*
X160845842Y-67908425D01*
X160868026Y-67892891D01*
X161031401Y-67778495D01*
X161198495Y-67611401D01*
X161334035Y-67417830D01*
X161433903Y-67203663D01*
X161495063Y-66975408D01*
X161515659Y-66740000D01*
X161495063Y-66504592D01*
X161433903Y-66276337D01*
X161334035Y-66062171D01*
X161198495Y-65868599D01*
X161198494Y-65868597D01*
X161031402Y-65701506D01*
X161031396Y-65701501D01*
X160845842Y-65571575D01*
X160802217Y-65516998D01*
X160795023Y-65447500D01*
X160826546Y-65385145D01*
X160845842Y-65368425D01*
X160868026Y-65352891D01*
X161031401Y-65238495D01*
X161198495Y-65071401D01*
X161334035Y-64877830D01*
X161433903Y-64663663D01*
X161495063Y-64435408D01*
X161515659Y-64200000D01*
X161513254Y-64172517D01*
X161497109Y-63987982D01*
X161495063Y-63964592D01*
X161433903Y-63736337D01*
X161334035Y-63522171D01*
X161278023Y-63442176D01*
X161198494Y-63328597D01*
X161031402Y-63161506D01*
X161031396Y-63161501D01*
X160845842Y-63031575D01*
X160820602Y-62999999D01*
X178287179Y-62999999D01*
X178287179Y-63000000D01*
X178306819Y-63224491D01*
X178306820Y-63224498D01*
X178365144Y-63442165D01*
X178365148Y-63442176D01*
X178460381Y-63646404D01*
X178460384Y-63646410D01*
X178589642Y-63831011D01*
X178748987Y-63990356D01*
X178748990Y-63990358D01*
X178933589Y-64119615D01*
X179047039Y-64172517D01*
X179137822Y-64214850D01*
X179137824Y-64214850D01*
X179137829Y-64214853D01*
X179355503Y-64273179D01*
X179535099Y-64288891D01*
X179579998Y-64292820D01*
X179579999Y-64292820D01*
X179580000Y-64292820D01*
X179617415Y-64289546D01*
X179804495Y-64273179D01*
X180022169Y-64214853D01*
X180226409Y-64119615D01*
X180411008Y-63990358D01*
X180570357Y-63831009D01*
X180699614Y-63646410D01*
X180794852Y-63442170D01*
X180853178Y-63224496D01*
X180872819Y-63000000D01*
X180872819Y-62999999D01*
X181287178Y-62999999D01*
X181287178Y-63000000D01*
X181306818Y-63224491D01*
X181306819Y-63224498D01*
X181365143Y-63442165D01*
X181365147Y-63442176D01*
X181460380Y-63646404D01*
X181460383Y-63646410D01*
X181589641Y-63831011D01*
X181748986Y-63990356D01*
X181748989Y-63990358D01*
X181933588Y-64119615D01*
X182047038Y-64172517D01*
X182137821Y-64214850D01*
X182137823Y-64214850D01*
X182137828Y-64214853D01*
X182355502Y-64273179D01*
X182535098Y-64288891D01*
X182579997Y-64292820D01*
X182579998Y-64292820D01*
X182579999Y-64292820D01*
X182617414Y-64289546D01*
X182804494Y-64273179D01*
X183022168Y-64214853D01*
X183226408Y-64119615D01*
X183411007Y-63990358D01*
X183570356Y-63831009D01*
X183699613Y-63646410D01*
X183794851Y-63442170D01*
X183853177Y-63224496D01*
X183872818Y-63000000D01*
X183862642Y-62883685D01*
X185125500Y-62883685D01*
X185125500Y-63116314D01*
X185139744Y-63224498D01*
X185155863Y-63346930D01*
X185181384Y-63442176D01*
X185216068Y-63571620D01*
X185305083Y-63786521D01*
X185305088Y-63786532D01*
X185421387Y-63987966D01*
X185421398Y-63987982D01*
X185562996Y-64172517D01*
X185563002Y-64172524D01*
X185727475Y-64336997D01*
X185727481Y-64337002D01*
X185912026Y-64478608D01*
X185912033Y-64478612D01*
X186113467Y-64594911D01*
X186113472Y-64594913D01*
X186113475Y-64594915D01*
X186220928Y-64639423D01*
X186328379Y-64683931D01*
X186328380Y-64683931D01*
X186328382Y-64683932D01*
X186553070Y-64744137D01*
X186783693Y-64774500D01*
X186783700Y-64774500D01*
X187016300Y-64774500D01*
X187016307Y-64774500D01*
X187246930Y-64744137D01*
X187471618Y-64683932D01*
X187686525Y-64594915D01*
X187887974Y-64478608D01*
X188072519Y-64337002D01*
X188237002Y-64172519D01*
X188378608Y-63987974D01*
X188494915Y-63786525D01*
X188583932Y-63571618D01*
X188644137Y-63346930D01*
X188674500Y-63116307D01*
X188674500Y-62883693D01*
X188644137Y-62653070D01*
X188583932Y-62428382D01*
X188578464Y-62415182D01*
X188494916Y-62213478D01*
X188494911Y-62213467D01*
X188378612Y-62012033D01*
X188378608Y-62012026D01*
X188237002Y-61827481D01*
X188236997Y-61827475D01*
X188072524Y-61663002D01*
X188072517Y-61662996D01*
X187887982Y-61521398D01*
X187887980Y-61521396D01*
X187887974Y-61521392D01*
X187887969Y-61521389D01*
X187887966Y-61521387D01*
X187686532Y-61405088D01*
X187686521Y-61405083D01*
X187471620Y-61316068D01*
X187359274Y-61285965D01*
X187246930Y-61255863D01*
X187195680Y-61249115D01*
X187016314Y-61225500D01*
X187016307Y-61225500D01*
X186783693Y-61225500D01*
X186783685Y-61225500D01*
X186578694Y-61252489D01*
X186553070Y-61255863D01*
X186496898Y-61270914D01*
X186328379Y-61316068D01*
X186113478Y-61405083D01*
X186113467Y-61405088D01*
X185912033Y-61521387D01*
X185912017Y-61521398D01*
X185727482Y-61662996D01*
X185727475Y-61663002D01*
X185563002Y-61827475D01*
X185562996Y-61827482D01*
X185421398Y-62012017D01*
X185421387Y-62012033D01*
X185305088Y-62213467D01*
X185305083Y-62213478D01*
X185216068Y-62428379D01*
X185155863Y-62653071D01*
X185125500Y-62883685D01*
X183862642Y-62883685D01*
X183853177Y-62775504D01*
X183794851Y-62557830D01*
X183699613Y-62353590D01*
X183570356Y-62168991D01*
X183570354Y-62168988D01*
X183411009Y-62009643D01*
X183226408Y-61880385D01*
X183226402Y-61880382D01*
X183022174Y-61785149D01*
X183022163Y-61785145D01*
X182804496Y-61726821D01*
X182804489Y-61726820D01*
X182579999Y-61707180D01*
X182579997Y-61707180D01*
X182355506Y-61726820D01*
X182355499Y-61726821D01*
X182137832Y-61785145D01*
X182137821Y-61785149D01*
X181933593Y-61880382D01*
X181933587Y-61880385D01*
X181748986Y-62009643D01*
X181589641Y-62168988D01*
X181460383Y-62353589D01*
X181460380Y-62353595D01*
X181365147Y-62557823D01*
X181365143Y-62557834D01*
X181306819Y-62775501D01*
X181306818Y-62775508D01*
X181287178Y-62999999D01*
X180872819Y-62999999D01*
X180853178Y-62775504D01*
X180794852Y-62557830D01*
X180699614Y-62353590D01*
X180570357Y-62168991D01*
X180570355Y-62168988D01*
X180411010Y-62009643D01*
X180226409Y-61880385D01*
X180226403Y-61880382D01*
X180022175Y-61785149D01*
X180022164Y-61785145D01*
X179804497Y-61726821D01*
X179804490Y-61726820D01*
X179580000Y-61707180D01*
X179579998Y-61707180D01*
X179355507Y-61726820D01*
X179355500Y-61726821D01*
X179137833Y-61785145D01*
X179137822Y-61785149D01*
X178933594Y-61880382D01*
X178933588Y-61880385D01*
X178748987Y-62009643D01*
X178589642Y-62168988D01*
X178460384Y-62353589D01*
X178460381Y-62353595D01*
X178365148Y-62557823D01*
X178365144Y-62557834D01*
X178306820Y-62775501D01*
X178306819Y-62775508D01*
X178287179Y-62999999D01*
X160820602Y-62999999D01*
X160802217Y-62976998D01*
X160795023Y-62907500D01*
X160826546Y-62845145D01*
X160845842Y-62828425D01*
X160954034Y-62752668D01*
X161031401Y-62698495D01*
X161198495Y-62531401D01*
X161334035Y-62337830D01*
X161433903Y-62123663D01*
X161495063Y-61895408D01*
X161515659Y-61660000D01*
X161495063Y-61424592D01*
X161433903Y-61196337D01*
X161334035Y-60982171D01*
X161198495Y-60788599D01*
X161198494Y-60788597D01*
X161031402Y-60621506D01*
X161031396Y-60621501D01*
X160845842Y-60491575D01*
X160802217Y-60436998D01*
X160795023Y-60367500D01*
X160826546Y-60305145D01*
X160845842Y-60288425D01*
X160868026Y-60272891D01*
X161031401Y-60158495D01*
X161198495Y-59991401D01*
X161334035Y-59797830D01*
X161433903Y-59583663D01*
X161495063Y-59355408D01*
X161515659Y-59120000D01*
X161495063Y-58884592D01*
X161433903Y-58656337D01*
X161334035Y-58442171D01*
X161198495Y-58248599D01*
X161198494Y-58248597D01*
X161031402Y-58081506D01*
X161031396Y-58081501D01*
X160845842Y-57951575D01*
X160802217Y-57896998D01*
X160795023Y-57827500D01*
X160826546Y-57765145D01*
X160845842Y-57748425D01*
X160904310Y-57707485D01*
X161031401Y-57618495D01*
X161198495Y-57451401D01*
X161334035Y-57257830D01*
X161433903Y-57043663D01*
X161495063Y-56815408D01*
X161515659Y-56580000D01*
X161495063Y-56344592D01*
X161433903Y-56116337D01*
X161334035Y-55902171D01*
X161198495Y-55708599D01*
X161198494Y-55708597D01*
X161031402Y-55541506D01*
X161031396Y-55541501D01*
X160845842Y-55411575D01*
X160802217Y-55356998D01*
X160795023Y-55287500D01*
X160826546Y-55225145D01*
X160845842Y-55208425D01*
X160868026Y-55192891D01*
X161031401Y-55078495D01*
X161198495Y-54911401D01*
X161334035Y-54717830D01*
X161433903Y-54503663D01*
X161495063Y-54275408D01*
X161515659Y-54040000D01*
X161495063Y-53804592D01*
X161433903Y-53576337D01*
X161334035Y-53362171D01*
X161198495Y-53168599D01*
X161198494Y-53168597D01*
X161031402Y-53001506D01*
X161031396Y-53001501D01*
X160845842Y-52871575D01*
X160802217Y-52816998D01*
X160795023Y-52747500D01*
X160826546Y-52685145D01*
X160845842Y-52668425D01*
X160868026Y-52652891D01*
X161031401Y-52538495D01*
X161198495Y-52371401D01*
X161334035Y-52177830D01*
X161433903Y-51963663D01*
X161495063Y-51735408D01*
X161515659Y-51500000D01*
X161495063Y-51264592D01*
X161433903Y-51036337D01*
X161334035Y-50822171D01*
X161198495Y-50628599D01*
X161198494Y-50628597D01*
X161031402Y-50461506D01*
X161031396Y-50461501D01*
X160845842Y-50331575D01*
X160802217Y-50276998D01*
X160795023Y-50207500D01*
X160826546Y-50145145D01*
X160845842Y-50128425D01*
X160868026Y-50112891D01*
X161031401Y-49998495D01*
X161198495Y-49831401D01*
X161334035Y-49637830D01*
X161433903Y-49423663D01*
X161495063Y-49195408D01*
X161515659Y-48960000D01*
X161495063Y-48724592D01*
X161433903Y-48496337D01*
X161334035Y-48282171D01*
X161198495Y-48088599D01*
X161198494Y-48088597D01*
X161031402Y-47921506D01*
X161031396Y-47921501D01*
X160845842Y-47791575D01*
X160802217Y-47736998D01*
X160795023Y-47667500D01*
X160826546Y-47605145D01*
X160845842Y-47588425D01*
X160868026Y-47572891D01*
X161031401Y-47458495D01*
X161198495Y-47291401D01*
X161334035Y-47097830D01*
X161433903Y-46883663D01*
X161495063Y-46655408D01*
X161515659Y-46420000D01*
X161495063Y-46184592D01*
X161445602Y-45999998D01*
X178372023Y-45999998D01*
X178372023Y-46000001D01*
X178391893Y-46227122D01*
X178391894Y-46227129D01*
X178450902Y-46447349D01*
X178450903Y-46447351D01*
X178450904Y-46447354D01*
X178507947Y-46569683D01*
X178547259Y-46653989D01*
X178547261Y-46653993D01*
X178678027Y-46840746D01*
X178678032Y-46840752D01*
X178839247Y-47001967D01*
X178839253Y-47001972D01*
X179026006Y-47132738D01*
X179026008Y-47132739D01*
X179026011Y-47132741D01*
X179232646Y-47229096D01*
X179452872Y-47288106D01*
X179615106Y-47302299D01*
X179679998Y-47307977D01*
X179680000Y-47307977D01*
X179680002Y-47307977D01*
X179736782Y-47303009D01*
X179907128Y-47288106D01*
X180127354Y-47229096D01*
X180333989Y-47132741D01*
X180520751Y-47001969D01*
X180681969Y-46840751D01*
X180812741Y-46653989D01*
X180909096Y-46447354D01*
X180968106Y-46227128D01*
X180987977Y-46000000D01*
X180987977Y-45999998D01*
X181372023Y-45999998D01*
X181372023Y-46000001D01*
X181391893Y-46227122D01*
X181391894Y-46227129D01*
X181450902Y-46447349D01*
X181450903Y-46447351D01*
X181450904Y-46447354D01*
X181507947Y-46569683D01*
X181547259Y-46653989D01*
X181547261Y-46653993D01*
X181678027Y-46840746D01*
X181678032Y-46840752D01*
X181839247Y-47001967D01*
X181839253Y-47001972D01*
X182026006Y-47132738D01*
X182026008Y-47132739D01*
X182026011Y-47132741D01*
X182232646Y-47229096D01*
X182452872Y-47288106D01*
X182615106Y-47302299D01*
X182679998Y-47307977D01*
X182680000Y-47307977D01*
X182680002Y-47307977D01*
X182736782Y-47303009D01*
X182907128Y-47288106D01*
X183127354Y-47229096D01*
X183333989Y-47132741D01*
X183520751Y-47001969D01*
X183681969Y-46840751D01*
X183812741Y-46653989D01*
X183909096Y-46447354D01*
X183968106Y-46227128D01*
X183987977Y-46000000D01*
X183986178Y-45979442D01*
X183974820Y-45849616D01*
X183968106Y-45772872D01*
X183909096Y-45552646D01*
X183812741Y-45346012D01*
X183708401Y-45196998D01*
X183681970Y-45159250D01*
X183610648Y-45087928D01*
X183520751Y-44998031D01*
X183520747Y-44998028D01*
X183520746Y-44998027D01*
X183333993Y-44867261D01*
X183333989Y-44867259D01*
X183290805Y-44847122D01*
X183127354Y-44770904D01*
X183127351Y-44770903D01*
X183127349Y-44770902D01*
X182907129Y-44711894D01*
X182907122Y-44711893D01*
X182680002Y-44692023D01*
X182679998Y-44692023D01*
X182452877Y-44711893D01*
X182452870Y-44711894D01*
X182232642Y-44770905D01*
X182026013Y-44867258D01*
X182026011Y-44867259D01*
X181839246Y-44998032D01*
X181678032Y-45159246D01*
X181547259Y-45346011D01*
X181547258Y-45346013D01*
X181450905Y-45552642D01*
X181391894Y-45772870D01*
X181391893Y-45772877D01*
X181372023Y-45999998D01*
X180987977Y-45999998D01*
X180986178Y-45979442D01*
X180974820Y-45849616D01*
X180968106Y-45772872D01*
X180909096Y-45552646D01*
X180812741Y-45346012D01*
X180708401Y-45196998D01*
X180681970Y-45159250D01*
X180610648Y-45087928D01*
X180520751Y-44998031D01*
X180520747Y-44998028D01*
X180520746Y-44998027D01*
X180333993Y-44867261D01*
X180333989Y-44867259D01*
X180290805Y-44847122D01*
X180127354Y-44770904D01*
X180127351Y-44770903D01*
X180127349Y-44770902D01*
X179907129Y-44711894D01*
X179907122Y-44711893D01*
X179680002Y-44692023D01*
X179679998Y-44692023D01*
X179452877Y-44711893D01*
X179452870Y-44711894D01*
X179232642Y-44770905D01*
X179026013Y-44867258D01*
X179026011Y-44867259D01*
X178839246Y-44998032D01*
X178678032Y-45159246D01*
X178547259Y-45346011D01*
X178547258Y-45346013D01*
X178450905Y-45552642D01*
X178391894Y-45772870D01*
X178391893Y-45772877D01*
X178372023Y-45999998D01*
X161445602Y-45999998D01*
X161433903Y-45956337D01*
X161334035Y-45742171D01*
X161293255Y-45683930D01*
X161198494Y-45548597D01*
X161031402Y-45381506D01*
X161031396Y-45381501D01*
X160845842Y-45251575D01*
X160802217Y-45196998D01*
X160795023Y-45127500D01*
X160826546Y-45065145D01*
X160845842Y-45048425D01*
X160917812Y-44998031D01*
X161031401Y-44918495D01*
X161198495Y-44751401D01*
X161334035Y-44557830D01*
X161415264Y-44383634D01*
X185224500Y-44383634D01*
X185224500Y-44616365D01*
X185224501Y-44616382D01*
X185254878Y-44847122D01*
X185315120Y-45071947D01*
X185404180Y-45286960D01*
X185404188Y-45286976D01*
X185520553Y-45488524D01*
X185520564Y-45488540D01*
X185662242Y-45673179D01*
X185662248Y-45673186D01*
X185826813Y-45837751D01*
X185826819Y-45837756D01*
X186011468Y-45979442D01*
X186011475Y-45979446D01*
X186213023Y-46095811D01*
X186213039Y-46095819D01*
X186428052Y-46184879D01*
X186428054Y-46184879D01*
X186428060Y-46184882D01*
X186652874Y-46245121D01*
X186883628Y-46275500D01*
X186883635Y-46275500D01*
X187116365Y-46275500D01*
X187116372Y-46275500D01*
X187347126Y-46245121D01*
X187571940Y-46184882D01*
X187635864Y-46158404D01*
X187786960Y-46095819D01*
X187786963Y-46095817D01*
X187786969Y-46095815D01*
X187988532Y-45979442D01*
X188173181Y-45837756D01*
X188337756Y-45673181D01*
X188479442Y-45488532D01*
X188595815Y-45286969D01*
X188684882Y-45071940D01*
X188745121Y-44847126D01*
X188775500Y-44616372D01*
X188775500Y-44383628D01*
X188745121Y-44152874D01*
X188684882Y-43928060D01*
X188684879Y-43928052D01*
X188595819Y-43713039D01*
X188595811Y-43713023D01*
X188479446Y-43511475D01*
X188479442Y-43511468D01*
X188406451Y-43416344D01*
X188337757Y-43326820D01*
X188337751Y-43326813D01*
X188173186Y-43162248D01*
X188173179Y-43162242D01*
X187988540Y-43020564D01*
X187988538Y-43020562D01*
X187988532Y-43020558D01*
X187988527Y-43020555D01*
X187988524Y-43020553D01*
X187786976Y-42904188D01*
X187786960Y-42904180D01*
X187571947Y-42815120D01*
X187347122Y-42754878D01*
X187116382Y-42724501D01*
X187116377Y-42724500D01*
X187116372Y-42724500D01*
X186883628Y-42724500D01*
X186883622Y-42724500D01*
X186883617Y-42724501D01*
X186652877Y-42754878D01*
X186428052Y-42815120D01*
X186213039Y-42904180D01*
X186213023Y-42904188D01*
X186011475Y-43020553D01*
X186011459Y-43020564D01*
X185826820Y-43162242D01*
X185826813Y-43162248D01*
X185662248Y-43326813D01*
X185662242Y-43326820D01*
X185520564Y-43511459D01*
X185520553Y-43511475D01*
X185404188Y-43713023D01*
X185404180Y-43713039D01*
X185315120Y-43928052D01*
X185254878Y-44152877D01*
X185224501Y-44383617D01*
X185224500Y-44383634D01*
X161415264Y-44383634D01*
X161433903Y-44343663D01*
X161495063Y-44115408D01*
X161515659Y-43880000D01*
X161495063Y-43644592D01*
X161433903Y-43416337D01*
X161334035Y-43202171D01*
X161206866Y-43020553D01*
X161198494Y-43008597D01*
X161189895Y-42999998D01*
X178372023Y-42999998D01*
X178372023Y-43000001D01*
X178391893Y-43227122D01*
X178391894Y-43227129D01*
X178450902Y-43447349D01*
X178450903Y-43447351D01*
X178450904Y-43447354D01*
X178480797Y-43511459D01*
X178547259Y-43653989D01*
X178547261Y-43653993D01*
X178678027Y-43840746D01*
X178678032Y-43840752D01*
X178839247Y-44001967D01*
X178839253Y-44001972D01*
X179026006Y-44132738D01*
X179026008Y-44132739D01*
X179026011Y-44132741D01*
X179232646Y-44229096D01*
X179452872Y-44288106D01*
X179615106Y-44302299D01*
X179679998Y-44307977D01*
X179680000Y-44307977D01*
X179680002Y-44307977D01*
X179736782Y-44303009D01*
X179907128Y-44288106D01*
X180127354Y-44229096D01*
X180333989Y-44132741D01*
X180520751Y-44001969D01*
X180681969Y-43840751D01*
X180812741Y-43653989D01*
X180909096Y-43447354D01*
X180968106Y-43227128D01*
X180987977Y-43000000D01*
X180987977Y-42999998D01*
X181372023Y-42999998D01*
X181372023Y-43000001D01*
X181391893Y-43227122D01*
X181391894Y-43227129D01*
X181450902Y-43447349D01*
X181450903Y-43447351D01*
X181450904Y-43447354D01*
X181480797Y-43511459D01*
X181547259Y-43653989D01*
X181547261Y-43653993D01*
X181678027Y-43840746D01*
X181678032Y-43840752D01*
X181839247Y-44001967D01*
X181839253Y-44001972D01*
X182026006Y-44132738D01*
X182026008Y-44132739D01*
X182026011Y-44132741D01*
X182232646Y-44229096D01*
X182452872Y-44288106D01*
X182615106Y-44302299D01*
X182679998Y-44307977D01*
X182680000Y-44307977D01*
X182680002Y-44307977D01*
X182736782Y-44303009D01*
X182907128Y-44288106D01*
X183127354Y-44229096D01*
X183333989Y-44132741D01*
X183520751Y-44001969D01*
X183681969Y-43840751D01*
X183812741Y-43653989D01*
X183909096Y-43447354D01*
X183968106Y-43227128D01*
X183987977Y-43000000D01*
X183968106Y-42772872D01*
X183909096Y-42552646D01*
X183812741Y-42346012D01*
X183681969Y-42159249D01*
X183520751Y-41998031D01*
X183520747Y-41998028D01*
X183520746Y-41998027D01*
X183333993Y-41867261D01*
X183333989Y-41867259D01*
X183197608Y-41803664D01*
X183127354Y-41770904D01*
X183127351Y-41770903D01*
X183127349Y-41770902D01*
X182907129Y-41711894D01*
X182907122Y-41711893D01*
X182680002Y-41692023D01*
X182679998Y-41692023D01*
X182452877Y-41711893D01*
X182452870Y-41711894D01*
X182232642Y-41770905D01*
X182026013Y-41867258D01*
X182026011Y-41867259D01*
X181839246Y-41998032D01*
X181678032Y-42159246D01*
X181547259Y-42346011D01*
X181547258Y-42346013D01*
X181450905Y-42552642D01*
X181391894Y-42772870D01*
X181391893Y-42772877D01*
X181372023Y-42999998D01*
X180987977Y-42999998D01*
X180968106Y-42772872D01*
X180909096Y-42552646D01*
X180812741Y-42346012D01*
X180681969Y-42159249D01*
X180520751Y-41998031D01*
X180520747Y-41998028D01*
X180520746Y-41998027D01*
X180333993Y-41867261D01*
X180333989Y-41867259D01*
X180197608Y-41803664D01*
X180127354Y-41770904D01*
X180127351Y-41770903D01*
X180127349Y-41770902D01*
X179907129Y-41711894D01*
X179907122Y-41711893D01*
X179680002Y-41692023D01*
X179679998Y-41692023D01*
X179452877Y-41711893D01*
X179452870Y-41711894D01*
X179232642Y-41770905D01*
X179026013Y-41867258D01*
X179026011Y-41867259D01*
X178839246Y-41998032D01*
X178678032Y-42159246D01*
X178547259Y-42346011D01*
X178547258Y-42346013D01*
X178450905Y-42552642D01*
X178391894Y-42772870D01*
X178391893Y-42772877D01*
X178372023Y-42999998D01*
X161189895Y-42999998D01*
X161031402Y-42841506D01*
X161031396Y-42841501D01*
X160845842Y-42711575D01*
X160802217Y-42656998D01*
X160795023Y-42587500D01*
X160826546Y-42525145D01*
X160845842Y-42508425D01*
X160950819Y-42434919D01*
X161031401Y-42378495D01*
X161198495Y-42211401D01*
X161334035Y-42017830D01*
X161433903Y-41803663D01*
X161495063Y-41575408D01*
X161515659Y-41340000D01*
X161495063Y-41104592D01*
X161433903Y-40876337D01*
X161334035Y-40662171D01*
X161198495Y-40468599D01*
X161198494Y-40468597D01*
X161031402Y-40301506D01*
X161031395Y-40301501D01*
X160837834Y-40165967D01*
X160837830Y-40165965D01*
X160813348Y-40154549D01*
X160623663Y-40066097D01*
X160623659Y-40066096D01*
X160623655Y-40066094D01*
X160395413Y-40004938D01*
X160395403Y-40004936D01*
X160160001Y-39984341D01*
X160159999Y-39984341D01*
X159924596Y-40004936D01*
X159924586Y-40004938D01*
X159696344Y-40066094D01*
X159696335Y-40066098D01*
X159482171Y-40165964D01*
X159482169Y-40165965D01*
X159288597Y-40301505D01*
X159121505Y-40468597D01*
X158985965Y-40662169D01*
X158985964Y-40662171D01*
X158886098Y-40876335D01*
X158886094Y-40876344D01*
X158824938Y-41104586D01*
X158824936Y-41104596D01*
X158804341Y-41339999D01*
X141132159Y-41339999D01*
X141111563Y-41104592D01*
X141050403Y-40876337D01*
X140950535Y-40662171D01*
X140814995Y-40468599D01*
X140814994Y-40468597D01*
X140647902Y-40301506D01*
X140647901Y-40301505D01*
X140461905Y-40171269D01*
X140418281Y-40116692D01*
X140411088Y-40047193D01*
X140442610Y-39984839D01*
X140461905Y-39968119D01*
X140537873Y-39914925D01*
X139905909Y-39282962D01*
X139969493Y-39265925D01*
X140083507Y-39200099D01*
X140176599Y-39107007D01*
X140242425Y-38992993D01*
X140259462Y-38929410D01*
X140891425Y-39561373D01*
X140891426Y-39561373D01*
X140950098Y-39477582D01*
X140950100Y-39477578D01*
X141049929Y-39263492D01*
X141049933Y-39263483D01*
X141111067Y-39035326D01*
X141111069Y-39035315D01*
X141131657Y-38800001D01*
X141131657Y-38799998D01*
X141111069Y-38564684D01*
X141111067Y-38564673D01*
X141049933Y-38336516D01*
X141049929Y-38336507D01*
X140950100Y-38122423D01*
X140950099Y-38122421D01*
X140891425Y-38038626D01*
X140891425Y-38038625D01*
X140259462Y-38670589D01*
X140242425Y-38607007D01*
X140176599Y-38492993D01*
X140083507Y-38399901D01*
X139969493Y-38334075D01*
X139905910Y-38317037D01*
X140537873Y-37685073D01*
X140537873Y-37685072D01*
X140461905Y-37631880D01*
X140418280Y-37577304D01*
X140411086Y-37507805D01*
X140442608Y-37445451D01*
X140461899Y-37428734D01*
X140647901Y-37298495D01*
X140814995Y-37131401D01*
X140950535Y-36937830D01*
X141050403Y-36723663D01*
X141111563Y-36495408D01*
X141132159Y-36260000D01*
X141111563Y-36024592D01*
X141102106Y-35989299D01*
X182207180Y-35989299D01*
X182207180Y-35989300D01*
X182226820Y-36213791D01*
X182226821Y-36213798D01*
X182285145Y-36431465D01*
X182285149Y-36431476D01*
X182380382Y-36635704D01*
X182380385Y-36635710D01*
X182509643Y-36820311D01*
X182668988Y-36979656D01*
X182668991Y-36979658D01*
X182853590Y-37108915D01*
X182901799Y-37131395D01*
X183057823Y-37204150D01*
X183057825Y-37204150D01*
X183057830Y-37204153D01*
X183275504Y-37262479D01*
X183455100Y-37278191D01*
X183499999Y-37282120D01*
X183500000Y-37282120D01*
X183500001Y-37282120D01*
X183537416Y-37278846D01*
X183724496Y-37262479D01*
X183942170Y-37204153D01*
X184146410Y-37108915D01*
X184331009Y-36979658D01*
X184490358Y-36820309D01*
X184619615Y-36635710D01*
X184714853Y-36431470D01*
X184773179Y-36213796D01*
X184792820Y-35989300D01*
X184773179Y-35764804D01*
X184714853Y-35547130D01*
X184619615Y-35342890D01*
X184490358Y-35158291D01*
X184490356Y-35158288D01*
X184331011Y-34998943D01*
X184146410Y-34869685D01*
X184146404Y-34869682D01*
X183942176Y-34774449D01*
X183942165Y-34774445D01*
X183724498Y-34716121D01*
X183724491Y-34716120D01*
X183500001Y-34696480D01*
X183499999Y-34696480D01*
X183275508Y-34716120D01*
X183275501Y-34716121D01*
X183057834Y-34774445D01*
X183057823Y-34774449D01*
X182853595Y-34869682D01*
X182853589Y-34869685D01*
X182668988Y-34998943D01*
X182509643Y-35158288D01*
X182380385Y-35342889D01*
X182380382Y-35342895D01*
X182285149Y-35547123D01*
X182285145Y-35547134D01*
X182226821Y-35764801D01*
X182226820Y-35764808D01*
X182207180Y-35989299D01*
X141102106Y-35989299D01*
X141050403Y-35796337D01*
X140950535Y-35582171D01*
X140926000Y-35547130D01*
X140814994Y-35388597D01*
X140647902Y-35221506D01*
X140647896Y-35221501D01*
X140462342Y-35091575D01*
X140418717Y-35036998D01*
X140411523Y-34967500D01*
X140443046Y-34905145D01*
X140462342Y-34888425D01*
X140625119Y-34774447D01*
X140647901Y-34758495D01*
X140814995Y-34591401D01*
X140950535Y-34397830D01*
X141050403Y-34183663D01*
X141111563Y-33955408D01*
X141132159Y-33720000D01*
X141111563Y-33484592D01*
X141050403Y-33256337D01*
X140950535Y-33042171D01*
X140913516Y-32989301D01*
X140913515Y-32989299D01*
X182207682Y-32989299D01*
X182207682Y-32989302D01*
X182227314Y-33213704D01*
X182227316Y-33213715D01*
X182285615Y-33431292D01*
X182285618Y-33431301D01*
X182380819Y-33635458D01*
X182380820Y-33635460D01*
X182430020Y-33705725D01*
X182430021Y-33705726D01*
X182989765Y-33145981D01*
X183002950Y-33195186D01*
X183073174Y-33316816D01*
X183172485Y-33416127D01*
X183294115Y-33486351D01*
X183343318Y-33499534D01*
X182783573Y-34059279D01*
X182853840Y-34108480D01*
X182853842Y-34108481D01*
X183057999Y-34203682D01*
X183058008Y-34203685D01*
X183275585Y-34261984D01*
X183275596Y-34261986D01*
X183499998Y-34281619D01*
X183500002Y-34281619D01*
X183724403Y-34261986D01*
X183724414Y-34261984D01*
X183941991Y-34203685D01*
X183942000Y-34203681D01*
X184146156Y-34108482D01*
X184216425Y-34059279D01*
X183656681Y-33499534D01*
X183705885Y-33486351D01*
X183827515Y-33416127D01*
X183926826Y-33316816D01*
X183997050Y-33195186D01*
X184010233Y-33145981D01*
X184569978Y-33705726D01*
X184619181Y-33635457D01*
X184714380Y-33431301D01*
X184714384Y-33431292D01*
X184772683Y-33213715D01*
X184772685Y-33213704D01*
X184792318Y-32989302D01*
X184792318Y-32989299D01*
X184772685Y-32764897D01*
X184772683Y-32764886D01*
X184714384Y-32547309D01*
X184714381Y-32547300D01*
X184619180Y-32343143D01*
X184619179Y-32343141D01*
X184569978Y-32272875D01*
X184569978Y-32272874D01*
X184010233Y-32832619D01*
X183997050Y-32783416D01*
X183926826Y-32661786D01*
X183827515Y-32562475D01*
X183705885Y-32492251D01*
X183656680Y-32479066D01*
X184216425Y-31919322D01*
X184216424Y-31919321D01*
X184146159Y-31870121D01*
X184146157Y-31870120D01*
X183942000Y-31774919D01*
X183941991Y-31774916D01*
X183724414Y-31716617D01*
X183724403Y-31716615D01*
X183500002Y-31696983D01*
X183499998Y-31696983D01*
X183275596Y-31716615D01*
X183275585Y-31716617D01*
X183058008Y-31774916D01*
X183057999Y-31774919D01*
X182853838Y-31870122D01*
X182783573Y-31919320D01*
X183343319Y-32479066D01*
X183294115Y-32492251D01*
X183172485Y-32562475D01*
X183073174Y-32661786D01*
X183002950Y-32783416D01*
X182989765Y-32832620D01*
X182430019Y-32272874D01*
X182380821Y-32343139D01*
X182285618Y-32547300D01*
X182285615Y-32547309D01*
X182227316Y-32764886D01*
X182227314Y-32764897D01*
X182207682Y-32989299D01*
X140913515Y-32989299D01*
X140814994Y-32848597D01*
X140647902Y-32681506D01*
X140647896Y-32681501D01*
X140462342Y-32551575D01*
X140418717Y-32496998D01*
X140411523Y-32427500D01*
X140443046Y-32365145D01*
X140462342Y-32348425D01*
X140570238Y-32272875D01*
X140647901Y-32218495D01*
X140814995Y-32051401D01*
X140950535Y-31857830D01*
X141050403Y-31643663D01*
X141111563Y-31415408D01*
X141132159Y-31180000D01*
X141111563Y-30944592D01*
X141050403Y-30716337D01*
X140950535Y-30502171D01*
X140888403Y-30413436D01*
X140814994Y-30308597D01*
X140647902Y-30141506D01*
X140647895Y-30141501D01*
X140454334Y-30005967D01*
X140454330Y-30005965D01*
X140454328Y-30005964D01*
X140240163Y-29906097D01*
X140240159Y-29906096D01*
X140240155Y-29906094D01*
X140011913Y-29844938D01*
X140011903Y-29844936D01*
X139776501Y-29824341D01*
X139776499Y-29824341D01*
X139541096Y-29844936D01*
X139541086Y-29844938D01*
X139312844Y-29906094D01*
X139312835Y-29906098D01*
X139098671Y-30005964D01*
X139098669Y-30005965D01*
X138905097Y-30141505D01*
X138738005Y-30308597D01*
X138602465Y-30502169D01*
X138602464Y-30502171D01*
X138502598Y-30716335D01*
X138502594Y-30716344D01*
X138441438Y-30944586D01*
X138441436Y-30944596D01*
X138420841Y-31179999D01*
X93050500Y-31179999D01*
X93050500Y-28552984D01*
X181725500Y-28552984D01*
X181725500Y-28785613D01*
X181749115Y-28964979D01*
X181755863Y-29016229D01*
X181785965Y-29128573D01*
X181816068Y-29240919D01*
X181905083Y-29455820D01*
X181905088Y-29455831D01*
X182021387Y-29657265D01*
X182021398Y-29657281D01*
X182162996Y-29841816D01*
X182163002Y-29841823D01*
X182327475Y-30006296D01*
X182327481Y-30006301D01*
X182512026Y-30147907D01*
X182512033Y-30147911D01*
X182713467Y-30264210D01*
X182713472Y-30264212D01*
X182713475Y-30264214D01*
X182820626Y-30308597D01*
X182928379Y-30353230D01*
X182928380Y-30353230D01*
X182928382Y-30353231D01*
X183153070Y-30413436D01*
X183383693Y-30443799D01*
X183383700Y-30443799D01*
X183616300Y-30443799D01*
X183616307Y-30443799D01*
X183846930Y-30413436D01*
X184071618Y-30353231D01*
X184286525Y-30264214D01*
X184487974Y-30147907D01*
X184672519Y-30006301D01*
X184837002Y-29841818D01*
X184978608Y-29657273D01*
X185094915Y-29455824D01*
X185183932Y-29240917D01*
X185244137Y-29016229D01*
X185274500Y-28785606D01*
X185274500Y-28552992D01*
X185244137Y-28322369D01*
X185183932Y-28097681D01*
X185094915Y-27882774D01*
X185094913Y-27882771D01*
X185094911Y-27882766D01*
X184978612Y-27681332D01*
X184978608Y-27681325D01*
X184868803Y-27538224D01*
X184837003Y-27496781D01*
X184836997Y-27496774D01*
X184672524Y-27332301D01*
X184672517Y-27332295D01*
X184487982Y-27190697D01*
X184487980Y-27190695D01*
X184487974Y-27190691D01*
X184487969Y-27190688D01*
X184487966Y-27190686D01*
X184286532Y-27074387D01*
X184286521Y-27074382D01*
X184071620Y-26985367D01*
X183959274Y-26955264D01*
X183846930Y-26925162D01*
X183795680Y-26918414D01*
X183616314Y-26894799D01*
X183616307Y-26894799D01*
X183383693Y-26894799D01*
X183383685Y-26894799D01*
X183178694Y-26921788D01*
X183153070Y-26925162D01*
X183096898Y-26940213D01*
X182928379Y-26985367D01*
X182713478Y-27074382D01*
X182713467Y-27074387D01*
X182512033Y-27190686D01*
X182512017Y-27190697D01*
X182327482Y-27332295D01*
X182327475Y-27332301D01*
X182163002Y-27496774D01*
X182162996Y-27496781D01*
X182021398Y-27681316D01*
X182021387Y-27681332D01*
X181905088Y-27882766D01*
X181905083Y-27882777D01*
X181816068Y-28097678D01*
X181755863Y-28322370D01*
X181725500Y-28552984D01*
X93050500Y-28552984D01*
X93050500Y-25778711D01*
X94424500Y-25778711D01*
X94424500Y-26021288D01*
X94456161Y-26261785D01*
X94518947Y-26496104D01*
X94611773Y-26720205D01*
X94611776Y-26720212D01*
X94733064Y-26930289D01*
X94733066Y-26930292D01*
X94733067Y-26930293D01*
X94880733Y-27122736D01*
X94880739Y-27122743D01*
X95052256Y-27294260D01*
X95052263Y-27294266D01*
X95165321Y-27381018D01*
X95244711Y-27441936D01*
X95454788Y-27563224D01*
X95678900Y-27656054D01*
X95913211Y-27718838D01*
X96093586Y-27742584D01*
X96153711Y-27750500D01*
X96153712Y-27750500D01*
X96396289Y-27750500D01*
X96444388Y-27744167D01*
X96636789Y-27718838D01*
X96871100Y-27656054D01*
X97095212Y-27563224D01*
X97305289Y-27441936D01*
X97497738Y-27294265D01*
X97669265Y-27122738D01*
X97816936Y-26930289D01*
X97938224Y-26720212D01*
X98031054Y-26496100D01*
X98093838Y-26261789D01*
X98125500Y-26021288D01*
X98125500Y-25778712D01*
X98122209Y-25753711D01*
X189274500Y-25753711D01*
X189274500Y-25996288D01*
X189306161Y-26236785D01*
X189368947Y-26471104D01*
X189461773Y-26695205D01*
X189461776Y-26695212D01*
X189583064Y-26905289D01*
X189583066Y-26905292D01*
X189583067Y-26905293D01*
X189730733Y-27097736D01*
X189730739Y-27097743D01*
X189902256Y-27269260D01*
X189902263Y-27269266D01*
X189934844Y-27294266D01*
X190094711Y-27416936D01*
X190304788Y-27538224D01*
X190528900Y-27631054D01*
X190763211Y-27693838D01*
X190943586Y-27717584D01*
X191003711Y-27725500D01*
X191003712Y-27725500D01*
X191246289Y-27725500D01*
X191296892Y-27718838D01*
X191486789Y-27693838D01*
X191721100Y-27631054D01*
X191945212Y-27538224D01*
X192155289Y-27416936D01*
X192347738Y-27269265D01*
X192519265Y-27097738D01*
X192666936Y-26905289D01*
X192788224Y-26695212D01*
X192881054Y-26471100D01*
X192943838Y-26236789D01*
X192975500Y-25996288D01*
X192975500Y-25753712D01*
X192943838Y-25513211D01*
X192881054Y-25278900D01*
X192788224Y-25054788D01*
X192666936Y-24844711D01*
X192519265Y-24652262D01*
X192519260Y-24652256D01*
X192347743Y-24480739D01*
X192347736Y-24480733D01*
X192155293Y-24333067D01*
X192155292Y-24333066D01*
X192155289Y-24333064D01*
X191945212Y-24211776D01*
X191945205Y-24211773D01*
X191721104Y-24118947D01*
X191486785Y-24056161D01*
X191246289Y-24024500D01*
X191246288Y-24024500D01*
X191003712Y-24024500D01*
X191003711Y-24024500D01*
X190763214Y-24056161D01*
X190528895Y-24118947D01*
X190304794Y-24211773D01*
X190304785Y-24211777D01*
X190094706Y-24333067D01*
X189902263Y-24480733D01*
X189902256Y-24480739D01*
X189730739Y-24652256D01*
X189730733Y-24652263D01*
X189583067Y-24844706D01*
X189461777Y-25054785D01*
X189461773Y-25054794D01*
X189368947Y-25278895D01*
X189306161Y-25513214D01*
X189274500Y-25753711D01*
X98122209Y-25753711D01*
X98093838Y-25538211D01*
X98031054Y-25303900D01*
X97938224Y-25079788D01*
X97816936Y-24869711D01*
X97669265Y-24677262D01*
X97669260Y-24677256D01*
X97497743Y-24505739D01*
X97497736Y-24505733D01*
X97305293Y-24358067D01*
X97305292Y-24358066D01*
X97305289Y-24358064D01*
X97095212Y-24236776D01*
X97095205Y-24236773D01*
X96871104Y-24143947D01*
X96636785Y-24081161D01*
X96396289Y-24049500D01*
X96396288Y-24049500D01*
X96153712Y-24049500D01*
X96153711Y-24049500D01*
X95913214Y-24081161D01*
X95678895Y-24143947D01*
X95454794Y-24236773D01*
X95454785Y-24236777D01*
X95244706Y-24358067D01*
X95052263Y-24505733D01*
X95052256Y-24505739D01*
X94880739Y-24677256D01*
X94880733Y-24677263D01*
X94733067Y-24869706D01*
X94611777Y-25079785D01*
X94611773Y-25079794D01*
X94518947Y-25303895D01*
X94456161Y-25538214D01*
X94424500Y-25778711D01*
X93050500Y-25778711D01*
X93050500Y-22824500D01*
X93070185Y-22757461D01*
X93122989Y-22711706D01*
X93174500Y-22700500D01*
X194200500Y-22700500D01*
X194267539Y-22720185D01*
G37*
%TD.AperFunction*%
%TD*%
M02*
