%TF.GenerationSoftware,KiCad,Pcbnew,8.0.6*%
%TF.CreationDate,2025-01-29T18:48:29-08:00*%
%TF.ProjectId,SMV H and S Board,534d5620-4820-4616-9e64-205320426f61,rev?*%
%TF.SameCoordinates,Original*%
%TF.FileFunction,Soldermask,Top*%
%TF.FilePolarity,Negative*%
%FSLAX46Y46*%
G04 Gerber Fmt 4.6, Leading zero omitted, Abs format (unit mm)*
G04 Created by KiCad (PCBNEW 8.0.6) date 2025-01-29 18:48:29*
%MOMM*%
%LPD*%
G01*
G04 APERTURE LIST*
G04 Aperture macros list*
%AMRoundRect*
0 Rectangle with rounded corners*
0 $1 Rounding radius*
0 $2 $3 $4 $5 $6 $7 $8 $9 X,Y pos of 4 corners*
0 Add a 4 corners polygon primitive as box body*
4,1,4,$2,$3,$4,$5,$6,$7,$8,$9,$2,$3,0*
0 Add four circle primitives for the rounded corners*
1,1,$1+$1,$2,$3*
1,1,$1+$1,$4,$5*
1,1,$1+$1,$6,$7*
1,1,$1+$1,$8,$9*
0 Add four rect primitives between the rounded corners*
20,1,$1+$1,$2,$3,$4,$5,0*
20,1,$1+$1,$4,$5,$6,$7,0*
20,1,$1+$1,$6,$7,$8,$9,0*
20,1,$1+$1,$8,$9,$2,$3,0*%
G04 Aperture macros list end*
%ADD10C,1.000000*%
%ADD11R,1.150000X1.450000*%
%ADD12RoundRect,0.102000X0.710000X-0.445000X0.710000X0.445000X-0.710000X0.445000X-0.710000X-0.445000X0*%
%ADD13RoundRect,0.102000X-0.445000X-0.710000X0.445000X-0.710000X0.445000X0.710000X-0.445000X0.710000X0*%
%ADD14R,0.558800X1.549400*%
%ADD15R,4.470400X4.800600*%
%ADD16C,1.500000*%
%ADD17R,0.990600X0.914400*%
%ADD18R,1.450000X1.150000*%
%ADD19C,3.200000*%
%ADD20C,1.700000*%
%ADD21C,3.000000*%
%ADD22RoundRect,0.102000X-0.710000X0.445000X-0.710000X-0.445000X0.710000X-0.445000X0.710000X0.445000X0*%
%ADD23RoundRect,0.102000X0.445000X0.710000X-0.445000X0.710000X-0.445000X-0.710000X0.445000X-0.710000X0*%
%ADD24RoundRect,0.102000X-0.400000X-0.400000X0.400000X-0.400000X0.400000X0.400000X-0.400000X0.400000X0*%
%ADD25R,1.150000X1.150000*%
%ADD26C,1.150000*%
%ADD27R,1.320800X0.508000*%
%ADD28R,0.508000X1.320800*%
%ADD29C,3.048000*%
%ADD30C,1.574800*%
%ADD31R,1.549400X0.558800*%
%ADD32R,4.800600X4.470400*%
%ADD33RoundRect,0.102000X0.400000X0.400000X-0.400000X0.400000X-0.400000X-0.400000X0.400000X-0.400000X0*%
%ADD34R,0.914400X0.990600*%
%ADD35C,3.050000*%
%ADD36C,1.605000*%
%ADD37R,1.409700X0.355600*%
%ADD38R,0.889000X1.765300*%
%ADD39R,3.149600X1.765300*%
G04 APERTURE END LIST*
D10*
%TO.C,G2*%
X167550000Y-54775000D03*
%TD*%
D11*
%TO.C,C4*%
X124002750Y-43000000D03*
X125802750Y-43000000D03*
%TD*%
D12*
%TO.C,R10*%
X112002750Y-51545001D03*
X112002750Y-49605001D03*
%TD*%
D13*
%TO.C,R15*%
X163910000Y-51500000D03*
X165850000Y-51500000D03*
%TD*%
D14*
%TO.C,Q2*%
X170905000Y-59200000D03*
X169635000Y-59200000D03*
X168365000Y-59200000D03*
X167095000Y-59200000D03*
D15*
X169000000Y-62933800D03*
%TD*%
D16*
%TO.C,D2*%
X174350000Y-63375000D03*
%TD*%
D17*
%TO.C,C11*%
X114100000Y-50399900D03*
X114100000Y-52000100D03*
%TD*%
D16*
%TO.C,MOSI*%
X136000000Y-47800000D03*
%TD*%
D18*
%TO.C,C2*%
X120502750Y-44725002D03*
X120502750Y-46525002D03*
%TD*%
D19*
%TO.C,REF\u002A\u002A*%
X96275000Y-81425000D03*
%TD*%
D20*
%TO.C,RP1*%
X160160000Y-41340000D03*
X160160000Y-43880000D03*
X160160000Y-46420000D03*
X160160000Y-48960000D03*
X160160000Y-51500000D03*
X160160000Y-54040000D03*
X160160000Y-56580000D03*
X160160000Y-59120000D03*
X160160000Y-61660000D03*
X160160000Y-64200000D03*
X160160000Y-66740000D03*
X160160000Y-69280000D03*
X139776500Y-69280000D03*
X139776500Y-66740000D03*
X139776500Y-64200000D03*
X139776500Y-61660000D03*
X139776500Y-59120000D03*
X139776500Y-56580000D03*
X139776500Y-54040000D03*
X139776500Y-51500000D03*
X139776500Y-48960000D03*
X139776500Y-46420000D03*
X139776500Y-43880000D03*
X139776500Y-41340000D03*
X139776500Y-38800000D03*
X139776500Y-36260000D03*
X139776500Y-33720000D03*
X139776500Y-31180000D03*
X153690500Y-71820000D03*
X150190500Y-71820000D03*
X146690500Y-71820000D03*
%TD*%
D10*
%TO.C,G1*%
X170500000Y-53750000D03*
%TD*%
D21*
%TO.C,TP1*%
X177500000Y-35000000D03*
%TD*%
D12*
%TO.C,R8*%
X112002750Y-55545001D03*
X112002750Y-53605001D03*
%TD*%
D22*
%TO.C,R7*%
X129500000Y-53130000D03*
X129500000Y-55070000D03*
%TD*%
D18*
%TO.C,C9*%
X129002750Y-43425002D03*
X129002750Y-41625002D03*
%TD*%
D22*
%TO.C,R9*%
X132800000Y-29130000D03*
X132800000Y-31070000D03*
%TD*%
D23*
%TO.C,R18*%
X169500000Y-56800000D03*
X167560000Y-56800000D03*
%TD*%
D18*
%TO.C,C3*%
X120502750Y-49575001D03*
X120502750Y-51375001D03*
%TD*%
D16*
%TO.C,TP5*%
X164700000Y-42000000D03*
%TD*%
D24*
%TO.C,D2*%
X131200000Y-27500000D03*
X132800000Y-27500000D03*
%TD*%
D12*
%TO.C,R5*%
X114002750Y-47545001D03*
X114002750Y-45605001D03*
%TD*%
D13*
%TO.C,R16*%
X163910000Y-56800000D03*
X165850000Y-56800000D03*
%TD*%
D12*
%TO.C,R3*%
X123300000Y-57070000D03*
X123300000Y-55130000D03*
%TD*%
D25*
%TO.C,Brake Pedal*%
X96950002Y-43504010D03*
D26*
X96950002Y-46004010D03*
X96950002Y-48504010D03*
%TD*%
D16*
%TO.C,H1*%
X105972749Y-55525002D03*
%TD*%
D12*
%TO.C,R17*%
X168000000Y-51770000D03*
X168000000Y-49830000D03*
%TD*%
D16*
%TO.C,Test*%
X125900000Y-57000000D03*
%TD*%
%TO.C,H2*%
X104402750Y-47525002D03*
%TD*%
D27*
%TO.C,U3*%
X109207551Y-43225001D03*
X109207551Y-44175002D03*
X109207551Y-45125003D03*
X111797949Y-45125003D03*
X111797949Y-43225001D03*
%TD*%
D16*
%TO.C,CAN_N1*%
X134327253Y-75295990D03*
%TD*%
D25*
%TO.C,CAN*%
X170200000Y-79100000D03*
D26*
X170200000Y-76600000D03*
X170200000Y-74100000D03*
%TD*%
D25*
%TO.C,Gas Pedal*%
X96972749Y-57025002D03*
D26*
X96972749Y-59525002D03*
X96972749Y-62025002D03*
%TD*%
D16*
%TO.C,CAN_P1*%
X134327253Y-77870990D03*
%TD*%
%TO.C,CS*%
X135200000Y-56200000D03*
%TD*%
D19*
%TO.C,REF\u002A\u002A*%
X96275000Y-25900000D03*
%TD*%
D28*
%TO.C,U4*%
X117452751Y-53779802D03*
X116502750Y-53779802D03*
X115552749Y-53779802D03*
X115552749Y-56370200D03*
X117452751Y-56370200D03*
%TD*%
D13*
%TO.C,R19*%
X116032750Y-51575001D03*
X117972750Y-51575001D03*
%TD*%
D23*
%TO.C,R2*%
X117972750Y-49375002D03*
X116032750Y-49375002D03*
%TD*%
D12*
%TO.C,R14*%
X163900000Y-61220000D03*
X163900000Y-59280000D03*
%TD*%
D29*
%TO.C,Horn*%
X186900000Y-63000000D03*
D30*
X182579998Y-63000000D03*
X179579999Y-63000000D03*
%TD*%
D31*
%TO.C,Q1*%
X170500000Y-48090000D03*
X170500000Y-49360000D03*
X170500000Y-50630000D03*
X170500000Y-51900000D03*
D32*
X174233800Y-49995000D03*
%TD*%
D21*
%TO.C,3.3V*%
X128500000Y-33775000D03*
%TD*%
D33*
%TO.C,D3*%
X165500000Y-68500000D03*
X163900000Y-68500000D03*
%TD*%
D34*
%TO.C,C6*%
X109899800Y-47075001D03*
X111500000Y-47075001D03*
%TD*%
D13*
%TO.C,R4*%
X123330000Y-53300000D03*
X125270000Y-53300000D03*
%TD*%
D18*
%TO.C,C5*%
X169500000Y-40400000D03*
X169500000Y-38600000D03*
%TD*%
D11*
%TO.C,C10*%
X117500000Y-59000000D03*
X119300000Y-59000000D03*
%TD*%
D33*
%TO.C,D4*%
X165500000Y-63100000D03*
X163900000Y-63100000D03*
%TD*%
D23*
%TO.C,R1*%
X117972750Y-46625001D03*
X116032750Y-46625001D03*
%TD*%
D12*
%TO.C,R12*%
X163900000Y-66770000D03*
X163900000Y-64830000D03*
%TD*%
D35*
%TO.C,Wipers*%
X187000000Y-44500000D03*
D36*
X182680000Y-43000000D03*
X182680000Y-46000000D03*
X179680000Y-43000000D03*
X179680000Y-46000000D03*
%TD*%
D18*
%TO.C,C8*%
X132402750Y-45925002D03*
X132402750Y-44125002D03*
%TD*%
D11*
%TO.C,C1*%
X114400000Y-43075001D03*
X116200000Y-43075001D03*
%TD*%
D16*
%TO.C,MISO*%
X136000000Y-50500000D03*
%TD*%
D19*
%TO.C,REF\u002A\u002A*%
X191125000Y-25875000D03*
%TD*%
D37*
%TO.C,U1*%
X123547250Y-45575000D03*
X123547250Y-46225001D03*
X123547250Y-46874999D03*
X123547250Y-47525001D03*
X123547250Y-48174999D03*
X123547250Y-48824998D03*
X123547250Y-49474999D03*
X123547250Y-50124998D03*
X123547250Y-50774999D03*
X123547250Y-51424998D03*
X129452750Y-51425000D03*
X129452750Y-50775002D03*
X129452750Y-50125001D03*
X129452750Y-49475002D03*
X129452750Y-48825001D03*
X129452750Y-48175002D03*
X129452750Y-47525001D03*
X129452750Y-46875002D03*
X129452750Y-46225001D03*
X129452750Y-45575002D03*
%TD*%
D33*
%TO.C,D1*%
X169300000Y-45000000D03*
X167700000Y-45000000D03*
%TD*%
D38*
%TO.C,U2*%
X164688600Y-35617850D03*
X167000000Y-35617850D03*
X169311400Y-35617850D03*
D39*
X167000000Y-29382150D03*
%TD*%
D29*
%TO.C,Power*%
X183500000Y-28669299D03*
D30*
X183500000Y-32989301D03*
X183500000Y-35989300D03*
%TD*%
D21*
%TO.C,GND*%
X133825000Y-66950000D03*
%TD*%
D25*
%TO.C,CAN*%
X123649999Y-79070990D03*
D26*
X123649999Y-76570990D03*
X123649999Y-74070990D03*
%TD*%
D23*
%TO.C,R6*%
X165920000Y-45000000D03*
X163980000Y-45000000D03*
%TD*%
D11*
%TO.C,C7*%
X164700000Y-38500000D03*
X166500000Y-38500000D03*
%TD*%
D16*
%TO.C,SCLK*%
X134750000Y-53000000D03*
%TD*%
%TO.C,CLKIN*%
X135500000Y-42500000D03*
%TD*%
D12*
%TO.C,R13*%
X107002750Y-43795001D03*
X107002750Y-41855001D03*
%TD*%
D22*
%TO.C,R11*%
X107002750Y-45205001D03*
X107002750Y-47145001D03*
%TD*%
D19*
%TO.C,REF\u002A\u002A*%
X191125000Y-81425000D03*
%TD*%
D16*
%TO.C,D1*%
X179500000Y-52300000D03*
%TD*%
D29*
%TO.C,Power*%
X183500000Y-78500000D03*
D30*
X183500000Y-74179998D03*
X183500000Y-71179999D03*
%TD*%
M02*
