%TF.GenerationSoftware,KiCad,Pcbnew,8.0.6*%
%TF.CreationDate,2025-01-29T18:58:57-08:00*%
%TF.ProjectId,SMV H and S Board,534d5620-4820-4616-9e64-205320426f61,rev?*%
%TF.SameCoordinates,Original*%
%TF.FileFunction,Drillmap*%
%TF.FilePolarity,Positive*%
%FSLAX45Y45*%
G04 Gerber Fmt 4.5, Leading zero omitted, Abs format (unit mm)*
G04 Created by KiCad (PCBNEW 8.0.6) date 2025-01-29 18:58:57*
%MOMM*%
%LPD*%
G01*
G04 APERTURE LIST*
%ADD10C,0.050000*%
%ADD11C,0.200000*%
%ADD12C,0.100000*%
%ADD13C,0.106680*%
%ADD14C,0.107000*%
G04 APERTURE END LIST*
D10*
X19482500Y-8520000D02*
X9255000Y-8520000D01*
X19482500Y-2220000D02*
X19482500Y-8520000D01*
X9255000Y-2220000D02*
X19482500Y-2220000D01*
X9255000Y-8520000D02*
X9255000Y-2220000D01*
D11*
D12*
X9535000Y-6985000D02*
X9565000Y-7015000D01*
X9565000Y-6985000D02*
X9535000Y-7015000D01*
X10485000Y-2485000D02*
X10515000Y-2515000D01*
X10515000Y-2485000D02*
X10485000Y-2515000D01*
X10555000Y-4170500D02*
X10585000Y-4200500D01*
X10585000Y-4170500D02*
X10555000Y-4200500D01*
X10735000Y-6985000D02*
X10765000Y-7015000D01*
X10765000Y-6985000D02*
X10735000Y-7015000D01*
X10735000Y-8235000D02*
X10765000Y-8265000D01*
X10765000Y-8235000D02*
X10735000Y-8265000D01*
X10895000Y-4695000D02*
X10925000Y-4725000D01*
X10925000Y-4695000D02*
X10895000Y-4725000D01*
X11035000Y-4485000D02*
X11065000Y-4515000D01*
X11065000Y-4485000D02*
X11035000Y-4515000D01*
X11035000Y-4945500D02*
X11065000Y-4975500D01*
X11065000Y-4945500D02*
X11035000Y-4975500D01*
X11395000Y-4915000D02*
X11425000Y-4945000D01*
X11425000Y-4915000D02*
X11395000Y-4945000D01*
X11535000Y-5495000D02*
X11565000Y-5525000D01*
X11565000Y-5495000D02*
X11535000Y-5525000D01*
X11605000Y-4155000D02*
X11635000Y-4185000D01*
X11635000Y-4155000D02*
X11605000Y-4185000D01*
X11915000Y-5735000D02*
X11945000Y-5765000D01*
X11945000Y-5735000D02*
X11915000Y-5765000D01*
X12035000Y-2485000D02*
X12065000Y-2515000D01*
X12065000Y-2485000D02*
X12035000Y-2515000D01*
X12035000Y-4355000D02*
X12065000Y-4385000D01*
X12065000Y-4355000D02*
X12035000Y-4385000D01*
X12035275Y-5242225D02*
X12065275Y-5272225D01*
X12065275Y-5242225D02*
X12035275Y-5272225D01*
X12360000Y-6985000D02*
X12390000Y-7015000D01*
X12390000Y-6985000D02*
X12360000Y-7015000D01*
X12360000Y-8235000D02*
X12390000Y-8265000D01*
X12390000Y-8235000D02*
X12360000Y-8265000D01*
X12485000Y-4607500D02*
X12515000Y-4637500D01*
X12515000Y-4607500D02*
X12485000Y-4637500D01*
X12485000Y-4735000D02*
X12515000Y-4765000D01*
X12515000Y-4735000D02*
X12485000Y-4765000D01*
X12485000Y-5065000D02*
X12515000Y-5095000D01*
X12515000Y-5065000D02*
X12485000Y-5095000D01*
X12512000Y-5442000D02*
X12542000Y-5472000D01*
X12542000Y-5442000D02*
X12512000Y-5472000D01*
X12565275Y-4145000D02*
X12595275Y-4175000D01*
X12595275Y-4145000D02*
X12565275Y-4175000D01*
X12775000Y-4605000D02*
X12805000Y-4635000D01*
X12805000Y-4605000D02*
X12775000Y-4635000D01*
X13110000Y-2485000D02*
X13140000Y-2515000D01*
X13140000Y-2485000D02*
X13110000Y-2515000D01*
X13985000Y-8235000D02*
X14015000Y-8265000D01*
X14015000Y-8235000D02*
X13985000Y-8265000D01*
X14422500Y-2485000D02*
X14452500Y-2515000D01*
X14452500Y-2485000D02*
X14422500Y-2515000D01*
X14485000Y-3985000D02*
X14515000Y-4015000D01*
X14515000Y-3985000D02*
X14485000Y-4015000D01*
X14485000Y-5235000D02*
X14515000Y-5265000D01*
X14515000Y-5235000D02*
X14485000Y-5265000D01*
X14485000Y-6485000D02*
X14515000Y-6515000D01*
X14515000Y-6485000D02*
X14485000Y-6515000D01*
X14855000Y-7155000D02*
X14885000Y-7185000D01*
X14885000Y-7155000D02*
X14855000Y-7185000D01*
X15155000Y-7155000D02*
X15185000Y-7185000D01*
X15185000Y-7155000D02*
X15155000Y-7185000D01*
X15610000Y-8235000D02*
X15640000Y-8265000D01*
X15640000Y-8235000D02*
X15610000Y-8265000D01*
X15735000Y-2485000D02*
X15765000Y-2515000D01*
X15765000Y-2485000D02*
X15735000Y-2515000D01*
X15735000Y-3985000D02*
X15765000Y-4015000D01*
X15765000Y-3985000D02*
X15735000Y-4015000D01*
X15735000Y-5235000D02*
X15765000Y-5265000D01*
X15765000Y-5235000D02*
X15735000Y-5265000D01*
X15735000Y-6485000D02*
X15765000Y-6515000D01*
X15765000Y-6485000D02*
X15735000Y-6515000D01*
X16535000Y-6185000D02*
X16565000Y-6215000D01*
X16565000Y-6185000D02*
X16535000Y-6215000D01*
X16635000Y-3235000D02*
X16665000Y-3265000D01*
X16665000Y-3235000D02*
X16635000Y-3265000D01*
X16635000Y-3985000D02*
X16665000Y-4015000D01*
X16665000Y-3985000D02*
X16635000Y-4015000D01*
X16645000Y-6835000D02*
X16675000Y-6865000D01*
X16675000Y-6835000D02*
X16645000Y-6865000D01*
X16685000Y-3695000D02*
X16715000Y-3725000D01*
X16715000Y-3695000D02*
X16685000Y-3725000D01*
X16745000Y-4765000D02*
X16775000Y-4795000D01*
X16775000Y-4765000D02*
X16745000Y-4795000D01*
X16745000Y-4895000D02*
X16775000Y-4925000D01*
X16775000Y-4895000D02*
X16745000Y-4925000D01*
X16835000Y-4765000D02*
X16865000Y-4795000D01*
X16865000Y-4765000D02*
X16835000Y-4795000D01*
X16835000Y-4895000D02*
X16865000Y-4925000D01*
X16865000Y-4895000D02*
X16835000Y-4925000D01*
X16875000Y-6775000D02*
X16905000Y-6805000D01*
X16905000Y-6775000D02*
X16875000Y-6805000D01*
X16925000Y-4895000D02*
X16955000Y-4925000D01*
X16955000Y-4895000D02*
X16925000Y-4925000D01*
X16926733Y-4762654D02*
X16956733Y-4792654D01*
X16956733Y-4762654D02*
X16926733Y-4792654D01*
X16930000Y-4140000D02*
X16960000Y-4170000D01*
X16960000Y-4140000D02*
X16930000Y-4170000D01*
X17020000Y-2892500D02*
X17050000Y-2922500D01*
X17050000Y-2892500D02*
X17020000Y-2922500D01*
X17075000Y-5625000D02*
X17105000Y-5655000D01*
X17105000Y-5625000D02*
X17075000Y-5655000D01*
X17085000Y-4485000D02*
X17115000Y-4515000D01*
X17115000Y-4485000D02*
X17085000Y-4515000D01*
X17225000Y-5765000D02*
X17255000Y-5795000D01*
X17255000Y-5765000D02*
X17225000Y-5795000D01*
X17227500Y-5892500D02*
X17257500Y-5922500D01*
X17257500Y-5892500D02*
X17227500Y-5922500D01*
X17235000Y-8235000D02*
X17265000Y-8265000D01*
X17265000Y-8235000D02*
X17235000Y-8265000D01*
X17415000Y-5765000D02*
X17445000Y-5795000D01*
X17445000Y-5765000D02*
X17415000Y-5795000D01*
X17415000Y-5895000D02*
X17445000Y-5925000D01*
X17445000Y-5895000D02*
X17415000Y-5925000D01*
X17585000Y-4335000D02*
X17615000Y-4365000D01*
X17615000Y-4335000D02*
X17585000Y-4365000D01*
X17595000Y-5765000D02*
X17625000Y-5795000D01*
X17625000Y-5765000D02*
X17595000Y-5795000D01*
X17595000Y-5895000D02*
X17625000Y-5925000D01*
X17625000Y-5895000D02*
X17595000Y-5925000D01*
X9735000Y-4350401D02*
G75*
G02*
X9655000Y-4350401I-40000J0D01*
G01*
X9655000Y-4350401D02*
G75*
G02*
X9735000Y-4350401I40000J0D01*
G01*
X9735000Y-4600401D02*
G75*
G02*
X9655000Y-4600401I-40000J0D01*
G01*
X9655000Y-4600401D02*
G75*
G02*
X9735000Y-4600401I40000J0D01*
G01*
X9735000Y-4850401D02*
G75*
G02*
X9655000Y-4850401I-40000J0D01*
G01*
X9655000Y-4850401D02*
G75*
G02*
X9735000Y-4850401I40000J0D01*
G01*
X9737275Y-5702500D02*
G75*
G02*
X9657275Y-5702500I-40000J0D01*
G01*
X9657275Y-5702500D02*
G75*
G02*
X9737275Y-5702500I40000J0D01*
G01*
X9737275Y-5952500D02*
G75*
G02*
X9657275Y-5952500I-40000J0D01*
G01*
X9657275Y-5952500D02*
G75*
G02*
X9737275Y-5952500I40000J0D01*
G01*
X9737275Y-6202500D02*
G75*
G02*
X9657275Y-6202500I-40000J0D01*
G01*
X9657275Y-6202500D02*
G75*
G02*
X9737275Y-6202500I40000J0D01*
G01*
X12405000Y-7407099D02*
G75*
G02*
X12325000Y-7407099I-40000J0D01*
G01*
X12325000Y-7407099D02*
G75*
G02*
X12405000Y-7407099I40000J0D01*
G01*
X12405000Y-7657099D02*
G75*
G02*
X12325000Y-7657099I-40000J0D01*
G01*
X12325000Y-7657099D02*
G75*
G02*
X12405000Y-7657099I40000J0D01*
G01*
X12405000Y-7907099D02*
G75*
G02*
X12325000Y-7907099I-40000J0D01*
G01*
X12325000Y-7907099D02*
G75*
G02*
X12405000Y-7907099I40000J0D01*
G01*
X17060000Y-7410000D02*
G75*
G02*
X16980000Y-7410000I-40000J0D01*
G01*
X16980000Y-7410000D02*
G75*
G02*
X17060000Y-7410000I40000J0D01*
G01*
X17060000Y-7660000D02*
G75*
G02*
X16980000Y-7660000I-40000J0D01*
G01*
X16980000Y-7660000D02*
G75*
G02*
X17060000Y-7660000I40000J0D01*
G01*
X17060000Y-7910000D02*
G75*
G02*
X16980000Y-7910000I-40000J0D01*
G01*
X16980000Y-7910000D02*
G75*
G02*
X17060000Y-7910000I40000J0D01*
G01*
X13977650Y-3068000D02*
X13977650Y-3168000D01*
X13927650Y-3118000D02*
X14027650Y-3118000D01*
X13977650Y-3322000D02*
X13977650Y-3422000D01*
X13927650Y-3372000D02*
X14027650Y-3372000D01*
X13977650Y-3576000D02*
X13977650Y-3676000D01*
X13927650Y-3626000D02*
X14027650Y-3626000D01*
X13977650Y-3830000D02*
X13977650Y-3930000D01*
X13927650Y-3880000D02*
X14027650Y-3880000D01*
X13977650Y-4084000D02*
X13977650Y-4184000D01*
X13927650Y-4134000D02*
X14027650Y-4134000D01*
X13977650Y-4338000D02*
X13977650Y-4438000D01*
X13927650Y-4388000D02*
X14027650Y-4388000D01*
X13977650Y-4592000D02*
X13977650Y-4692000D01*
X13927650Y-4642000D02*
X14027650Y-4642000D01*
X13977650Y-4846000D02*
X13977650Y-4946000D01*
X13927650Y-4896000D02*
X14027650Y-4896000D01*
X13977650Y-5100000D02*
X13977650Y-5200000D01*
X13927650Y-5150000D02*
X14027650Y-5150000D01*
X13977650Y-5354000D02*
X13977650Y-5454000D01*
X13927650Y-5404000D02*
X14027650Y-5404000D01*
X13977650Y-5608000D02*
X13977650Y-5708000D01*
X13927650Y-5658000D02*
X14027650Y-5658000D01*
X13977650Y-5862000D02*
X13977650Y-5962000D01*
X13927650Y-5912000D02*
X14027650Y-5912000D01*
X13977650Y-6116000D02*
X13977650Y-6216000D01*
X13927650Y-6166000D02*
X14027650Y-6166000D01*
X13977650Y-6370000D02*
X13977650Y-6470000D01*
X13927650Y-6420000D02*
X14027650Y-6420000D01*
X13977650Y-6624000D02*
X13977650Y-6724000D01*
X13927650Y-6674000D02*
X14027650Y-6674000D01*
X13977650Y-6878000D02*
X13977650Y-6978000D01*
X13927650Y-6928000D02*
X14027650Y-6928000D01*
X14669050Y-7132000D02*
X14669050Y-7232000D01*
X14619050Y-7182000D02*
X14719050Y-7182000D01*
X15019050Y-7132000D02*
X15019050Y-7232000D01*
X14969050Y-7182000D02*
X15069050Y-7182000D01*
X15369050Y-7132000D02*
X15369050Y-7232000D01*
X15319050Y-7182000D02*
X15419050Y-7182000D01*
X16016000Y-4084000D02*
X16016000Y-4184000D01*
X15966000Y-4134000D02*
X16066000Y-4134000D01*
X16016000Y-4338000D02*
X16016000Y-4438000D01*
X15966000Y-4388000D02*
X16066000Y-4388000D01*
X16016000Y-4592000D02*
X16016000Y-4692000D01*
X15966000Y-4642000D02*
X16066000Y-4642000D01*
X16016000Y-4846000D02*
X16016000Y-4946000D01*
X15966000Y-4896000D02*
X16066000Y-4896000D01*
X16016000Y-5100000D02*
X16016000Y-5200000D01*
X15966000Y-5150000D02*
X16066000Y-5150000D01*
X16016000Y-5354000D02*
X16016000Y-5454000D01*
X15966000Y-5404000D02*
X16066000Y-5404000D01*
X16016000Y-5608000D02*
X16016000Y-5708000D01*
X15966000Y-5658000D02*
X16066000Y-5658000D01*
X16016000Y-5862000D02*
X16016000Y-5962000D01*
X15966000Y-5912000D02*
X16066000Y-5912000D01*
X16016000Y-6116000D02*
X16016000Y-6216000D01*
X15966000Y-6166000D02*
X16066000Y-6166000D01*
X16016000Y-6370000D02*
X16016000Y-6470000D01*
X15966000Y-6420000D02*
X16066000Y-6420000D01*
X16016000Y-6624000D02*
X16016000Y-6724000D01*
X15966000Y-6674000D02*
X16066000Y-6674000D01*
X16016000Y-6878000D02*
X16016000Y-6978000D01*
X15966000Y-6928000D02*
X16066000Y-6928000D01*
D13*
X17995717Y-6337717D02*
X17995717Y-6262283D01*
X17920283Y-6262283D01*
X17920283Y-6337717D01*
X17995717Y-6337717D01*
X18295717Y-6337717D02*
X18295717Y-6262283D01*
X18220282Y-6262283D01*
X18220282Y-6337717D01*
X18295717Y-6337717D01*
X18387717Y-3336647D02*
X18387717Y-3261213D01*
X18312283Y-3261213D01*
X18312283Y-3336647D01*
X18387717Y-3336647D01*
X18387717Y-3636647D02*
X18387717Y-3561213D01*
X18312283Y-3561213D01*
X18312283Y-3636647D01*
X18387717Y-3636647D01*
X18387717Y-7155717D02*
X18387717Y-7080282D01*
X18312283Y-7080282D01*
X18312283Y-7155717D01*
X18387717Y-7155717D01*
X18387717Y-7455717D02*
X18387717Y-7380282D01*
X18312283Y-7380282D01*
X18312283Y-7455717D01*
X18387717Y-7455717D01*
D14*
X17968000Y-4353500D02*
X18021500Y-4300000D01*
X17968000Y-4246500D01*
X17914500Y-4300000D01*
X17968000Y-4353500D01*
X17968000Y-4653500D02*
X18021500Y-4600000D01*
X17968000Y-4546500D01*
X17914500Y-4600000D01*
X17968000Y-4653500D01*
X18268000Y-4353500D02*
X18321500Y-4300000D01*
X18268000Y-4246500D01*
X18214500Y-4300000D01*
X18268000Y-4353500D01*
X18268000Y-4653500D02*
X18321500Y-4600000D01*
X18268000Y-4546500D01*
X18214500Y-4600000D01*
X18268000Y-4653500D01*
D11*
X9513277Y-8833984D02*
X9513277Y-8633984D01*
X9513277Y-8633984D02*
X9560896Y-8633984D01*
X9560896Y-8633984D02*
X9589467Y-8643508D01*
X9589467Y-8643508D02*
X9608515Y-8662555D01*
X9608515Y-8662555D02*
X9618039Y-8681603D01*
X9618039Y-8681603D02*
X9627563Y-8719698D01*
X9627563Y-8719698D02*
X9627563Y-8748270D01*
X9627563Y-8748270D02*
X9618039Y-8786365D01*
X9618039Y-8786365D02*
X9608515Y-8805412D01*
X9608515Y-8805412D02*
X9589467Y-8824460D01*
X9589467Y-8824460D02*
X9560896Y-8833984D01*
X9560896Y-8833984D02*
X9513277Y-8833984D01*
X9713277Y-8833984D02*
X9713277Y-8700650D01*
X9713277Y-8738746D02*
X9722801Y-8719698D01*
X9722801Y-8719698D02*
X9732324Y-8710174D01*
X9732324Y-8710174D02*
X9751372Y-8700650D01*
X9751372Y-8700650D02*
X9770420Y-8700650D01*
X9837086Y-8833984D02*
X9837086Y-8700650D01*
X9837086Y-8633984D02*
X9827563Y-8643508D01*
X9827563Y-8643508D02*
X9837086Y-8653031D01*
X9837086Y-8653031D02*
X9846610Y-8643508D01*
X9846610Y-8643508D02*
X9837086Y-8633984D01*
X9837086Y-8633984D02*
X9837086Y-8653031D01*
X9960896Y-8833984D02*
X9941848Y-8824460D01*
X9941848Y-8824460D02*
X9932324Y-8805412D01*
X9932324Y-8805412D02*
X9932324Y-8633984D01*
X10065658Y-8833984D02*
X10046610Y-8824460D01*
X10046610Y-8824460D02*
X10037086Y-8805412D01*
X10037086Y-8805412D02*
X10037086Y-8633984D01*
X10294229Y-8833984D02*
X10294229Y-8633984D01*
X10294229Y-8633984D02*
X10360896Y-8776841D01*
X10360896Y-8776841D02*
X10427563Y-8633984D01*
X10427563Y-8633984D02*
X10427563Y-8833984D01*
X10608515Y-8833984D02*
X10608515Y-8729222D01*
X10608515Y-8729222D02*
X10598991Y-8710174D01*
X10598991Y-8710174D02*
X10579944Y-8700650D01*
X10579944Y-8700650D02*
X10541848Y-8700650D01*
X10541848Y-8700650D02*
X10522801Y-8710174D01*
X10608515Y-8824460D02*
X10589467Y-8833984D01*
X10589467Y-8833984D02*
X10541848Y-8833984D01*
X10541848Y-8833984D02*
X10522801Y-8824460D01*
X10522801Y-8824460D02*
X10513277Y-8805412D01*
X10513277Y-8805412D02*
X10513277Y-8786365D01*
X10513277Y-8786365D02*
X10522801Y-8767317D01*
X10522801Y-8767317D02*
X10541848Y-8757793D01*
X10541848Y-8757793D02*
X10589467Y-8757793D01*
X10589467Y-8757793D02*
X10608515Y-8748270D01*
X10703753Y-8700650D02*
X10703753Y-8900650D01*
X10703753Y-8710174D02*
X10722801Y-8700650D01*
X10722801Y-8700650D02*
X10760896Y-8700650D01*
X10760896Y-8700650D02*
X10779944Y-8710174D01*
X10779944Y-8710174D02*
X10789467Y-8719698D01*
X10789467Y-8719698D02*
X10798991Y-8738746D01*
X10798991Y-8738746D02*
X10798991Y-8795889D01*
X10798991Y-8795889D02*
X10789467Y-8814936D01*
X10789467Y-8814936D02*
X10779944Y-8824460D01*
X10779944Y-8824460D02*
X10760896Y-8833984D01*
X10760896Y-8833984D02*
X10722801Y-8833984D01*
X10722801Y-8833984D02*
X10703753Y-8824460D01*
X10884705Y-8814936D02*
X10894229Y-8824460D01*
X10894229Y-8824460D02*
X10884705Y-8833984D01*
X10884705Y-8833984D02*
X10875182Y-8824460D01*
X10875182Y-8824460D02*
X10884705Y-8814936D01*
X10884705Y-8814936D02*
X10884705Y-8833984D01*
X10884705Y-8710174D02*
X10894229Y-8719698D01*
X10894229Y-8719698D02*
X10884705Y-8729222D01*
X10884705Y-8729222D02*
X10875182Y-8719698D01*
X10875182Y-8719698D02*
X10884705Y-8710174D01*
X10884705Y-8710174D02*
X10884705Y-8729222D01*
D12*
X9222500Y-9147500D02*
X9252500Y-9177500D01*
X9252500Y-9147500D02*
X9222500Y-9177500D01*
D11*
X9551372Y-9053984D02*
X9570420Y-9053984D01*
X9570420Y-9053984D02*
X9589467Y-9063508D01*
X9589467Y-9063508D02*
X9598991Y-9073031D01*
X9598991Y-9073031D02*
X9608515Y-9092079D01*
X9608515Y-9092079D02*
X9618039Y-9130174D01*
X9618039Y-9130174D02*
X9618039Y-9177793D01*
X9618039Y-9177793D02*
X9608515Y-9215889D01*
X9608515Y-9215889D02*
X9598991Y-9234936D01*
X9598991Y-9234936D02*
X9589467Y-9244460D01*
X9589467Y-9244460D02*
X9570420Y-9253984D01*
X9570420Y-9253984D02*
X9551372Y-9253984D01*
X9551372Y-9253984D02*
X9532324Y-9244460D01*
X9532324Y-9244460D02*
X9522801Y-9234936D01*
X9522801Y-9234936D02*
X9513277Y-9215889D01*
X9513277Y-9215889D02*
X9503753Y-9177793D01*
X9503753Y-9177793D02*
X9503753Y-9130174D01*
X9503753Y-9130174D02*
X9513277Y-9092079D01*
X9513277Y-9092079D02*
X9522801Y-9073031D01*
X9522801Y-9073031D02*
X9532324Y-9063508D01*
X9532324Y-9063508D02*
X9551372Y-9053984D01*
X9703753Y-9234936D02*
X9713277Y-9244460D01*
X9713277Y-9244460D02*
X9703753Y-9253984D01*
X9703753Y-9253984D02*
X9694229Y-9244460D01*
X9694229Y-9244460D02*
X9703753Y-9234936D01*
X9703753Y-9234936D02*
X9703753Y-9253984D01*
X9779944Y-9053984D02*
X9903753Y-9053984D01*
X9903753Y-9053984D02*
X9837086Y-9130174D01*
X9837086Y-9130174D02*
X9865658Y-9130174D01*
X9865658Y-9130174D02*
X9884705Y-9139698D01*
X9884705Y-9139698D02*
X9894229Y-9149222D01*
X9894229Y-9149222D02*
X9903753Y-9168270D01*
X9903753Y-9168270D02*
X9903753Y-9215889D01*
X9903753Y-9215889D02*
X9894229Y-9234936D01*
X9894229Y-9234936D02*
X9884705Y-9244460D01*
X9884705Y-9244460D02*
X9865658Y-9253984D01*
X9865658Y-9253984D02*
X9808515Y-9253984D01*
X9808515Y-9253984D02*
X9789467Y-9244460D01*
X9789467Y-9244460D02*
X9779944Y-9234936D01*
X10027563Y-9053984D02*
X10046610Y-9053984D01*
X10046610Y-9053984D02*
X10065658Y-9063508D01*
X10065658Y-9063508D02*
X10075182Y-9073031D01*
X10075182Y-9073031D02*
X10084705Y-9092079D01*
X10084705Y-9092079D02*
X10094229Y-9130174D01*
X10094229Y-9130174D02*
X10094229Y-9177793D01*
X10094229Y-9177793D02*
X10084705Y-9215889D01*
X10084705Y-9215889D02*
X10075182Y-9234936D01*
X10075182Y-9234936D02*
X10065658Y-9244460D01*
X10065658Y-9244460D02*
X10046610Y-9253984D01*
X10046610Y-9253984D02*
X10027563Y-9253984D01*
X10027563Y-9253984D02*
X10008515Y-9244460D01*
X10008515Y-9244460D02*
X9998991Y-9234936D01*
X9998991Y-9234936D02*
X9989467Y-9215889D01*
X9989467Y-9215889D02*
X9979944Y-9177793D01*
X9979944Y-9177793D02*
X9979944Y-9130174D01*
X9979944Y-9130174D02*
X9989467Y-9092079D01*
X9989467Y-9092079D02*
X9998991Y-9073031D01*
X9998991Y-9073031D02*
X10008515Y-9063508D01*
X10008515Y-9063508D02*
X10027563Y-9053984D01*
X10218039Y-9053984D02*
X10237086Y-9053984D01*
X10237086Y-9053984D02*
X10256134Y-9063508D01*
X10256134Y-9063508D02*
X10265658Y-9073031D01*
X10265658Y-9073031D02*
X10275182Y-9092079D01*
X10275182Y-9092079D02*
X10284705Y-9130174D01*
X10284705Y-9130174D02*
X10284705Y-9177793D01*
X10284705Y-9177793D02*
X10275182Y-9215889D01*
X10275182Y-9215889D02*
X10265658Y-9234936D01*
X10265658Y-9234936D02*
X10256134Y-9244460D01*
X10256134Y-9244460D02*
X10237086Y-9253984D01*
X10237086Y-9253984D02*
X10218039Y-9253984D01*
X10218039Y-9253984D02*
X10198991Y-9244460D01*
X10198991Y-9244460D02*
X10189467Y-9234936D01*
X10189467Y-9234936D02*
X10179944Y-9215889D01*
X10179944Y-9215889D02*
X10170420Y-9177793D01*
X10170420Y-9177793D02*
X10170420Y-9130174D01*
X10170420Y-9130174D02*
X10179944Y-9092079D01*
X10179944Y-9092079D02*
X10189467Y-9073031D01*
X10189467Y-9073031D02*
X10198991Y-9063508D01*
X10198991Y-9063508D02*
X10218039Y-9053984D01*
X10370420Y-9253984D02*
X10370420Y-9120650D01*
X10370420Y-9139698D02*
X10379944Y-9130174D01*
X10379944Y-9130174D02*
X10398991Y-9120650D01*
X10398991Y-9120650D02*
X10427563Y-9120650D01*
X10427563Y-9120650D02*
X10446610Y-9130174D01*
X10446610Y-9130174D02*
X10456134Y-9149222D01*
X10456134Y-9149222D02*
X10456134Y-9253984D01*
X10456134Y-9149222D02*
X10465658Y-9130174D01*
X10465658Y-9130174D02*
X10484705Y-9120650D01*
X10484705Y-9120650D02*
X10513277Y-9120650D01*
X10513277Y-9120650D02*
X10532325Y-9130174D01*
X10532325Y-9130174D02*
X10541848Y-9149222D01*
X10541848Y-9149222D02*
X10541848Y-9253984D01*
X10637086Y-9253984D02*
X10637086Y-9120650D01*
X10637086Y-9139698D02*
X10646610Y-9130174D01*
X10646610Y-9130174D02*
X10665658Y-9120650D01*
X10665658Y-9120650D02*
X10694229Y-9120650D01*
X10694229Y-9120650D02*
X10713277Y-9130174D01*
X10713277Y-9130174D02*
X10722801Y-9149222D01*
X10722801Y-9149222D02*
X10722801Y-9253984D01*
X10722801Y-9149222D02*
X10732325Y-9130174D01*
X10732325Y-9130174D02*
X10751372Y-9120650D01*
X10751372Y-9120650D02*
X10779944Y-9120650D01*
X10779944Y-9120650D02*
X10798991Y-9130174D01*
X10798991Y-9130174D02*
X10808515Y-9149222D01*
X10808515Y-9149222D02*
X10808515Y-9253984D01*
X11198991Y-9044460D02*
X11027563Y-9301603D01*
X11456134Y-9053984D02*
X11475182Y-9053984D01*
X11475182Y-9053984D02*
X11494229Y-9063508D01*
X11494229Y-9063508D02*
X11503753Y-9073031D01*
X11503753Y-9073031D02*
X11513277Y-9092079D01*
X11513277Y-9092079D02*
X11522801Y-9130174D01*
X11522801Y-9130174D02*
X11522801Y-9177793D01*
X11522801Y-9177793D02*
X11513277Y-9215889D01*
X11513277Y-9215889D02*
X11503753Y-9234936D01*
X11503753Y-9234936D02*
X11494229Y-9244460D01*
X11494229Y-9244460D02*
X11475182Y-9253984D01*
X11475182Y-9253984D02*
X11456134Y-9253984D01*
X11456134Y-9253984D02*
X11437086Y-9244460D01*
X11437086Y-9244460D02*
X11427563Y-9234936D01*
X11427563Y-9234936D02*
X11418039Y-9215889D01*
X11418039Y-9215889D02*
X11408515Y-9177793D01*
X11408515Y-9177793D02*
X11408515Y-9130174D01*
X11408515Y-9130174D02*
X11418039Y-9092079D01*
X11418039Y-9092079D02*
X11427563Y-9073031D01*
X11427563Y-9073031D02*
X11437086Y-9063508D01*
X11437086Y-9063508D02*
X11456134Y-9053984D01*
X11608515Y-9234936D02*
X11618039Y-9244460D01*
X11618039Y-9244460D02*
X11608515Y-9253984D01*
X11608515Y-9253984D02*
X11598991Y-9244460D01*
X11598991Y-9244460D02*
X11608515Y-9234936D01*
X11608515Y-9234936D02*
X11608515Y-9253984D01*
X11741848Y-9053984D02*
X11760896Y-9053984D01*
X11760896Y-9053984D02*
X11779944Y-9063508D01*
X11779944Y-9063508D02*
X11789467Y-9073031D01*
X11789467Y-9073031D02*
X11798991Y-9092079D01*
X11798991Y-9092079D02*
X11808515Y-9130174D01*
X11808515Y-9130174D02*
X11808515Y-9177793D01*
X11808515Y-9177793D02*
X11798991Y-9215889D01*
X11798991Y-9215889D02*
X11789467Y-9234936D01*
X11789467Y-9234936D02*
X11779944Y-9244460D01*
X11779944Y-9244460D02*
X11760896Y-9253984D01*
X11760896Y-9253984D02*
X11741848Y-9253984D01*
X11741848Y-9253984D02*
X11722801Y-9244460D01*
X11722801Y-9244460D02*
X11713277Y-9234936D01*
X11713277Y-9234936D02*
X11703753Y-9215889D01*
X11703753Y-9215889D02*
X11694229Y-9177793D01*
X11694229Y-9177793D02*
X11694229Y-9130174D01*
X11694229Y-9130174D02*
X11703753Y-9092079D01*
X11703753Y-9092079D02*
X11713277Y-9073031D01*
X11713277Y-9073031D02*
X11722801Y-9063508D01*
X11722801Y-9063508D02*
X11741848Y-9053984D01*
X11998991Y-9253984D02*
X11884706Y-9253984D01*
X11941848Y-9253984D02*
X11941848Y-9053984D01*
X11941848Y-9053984D02*
X11922801Y-9082555D01*
X11922801Y-9082555D02*
X11903753Y-9101603D01*
X11903753Y-9101603D02*
X11884706Y-9111127D01*
X12189467Y-9253984D02*
X12075182Y-9253984D01*
X12132325Y-9253984D02*
X12132325Y-9053984D01*
X12132325Y-9053984D02*
X12113277Y-9082555D01*
X12113277Y-9082555D02*
X12094229Y-9101603D01*
X12094229Y-9101603D02*
X12075182Y-9111127D01*
X12303753Y-9139698D02*
X12284706Y-9130174D01*
X12284706Y-9130174D02*
X12275182Y-9120650D01*
X12275182Y-9120650D02*
X12265658Y-9101603D01*
X12265658Y-9101603D02*
X12265658Y-9092079D01*
X12265658Y-9092079D02*
X12275182Y-9073031D01*
X12275182Y-9073031D02*
X12284706Y-9063508D01*
X12284706Y-9063508D02*
X12303753Y-9053984D01*
X12303753Y-9053984D02*
X12341848Y-9053984D01*
X12341848Y-9053984D02*
X12360896Y-9063508D01*
X12360896Y-9063508D02*
X12370420Y-9073031D01*
X12370420Y-9073031D02*
X12379944Y-9092079D01*
X12379944Y-9092079D02*
X12379944Y-9101603D01*
X12379944Y-9101603D02*
X12370420Y-9120650D01*
X12370420Y-9120650D02*
X12360896Y-9130174D01*
X12360896Y-9130174D02*
X12341848Y-9139698D01*
X12341848Y-9139698D02*
X12303753Y-9139698D01*
X12303753Y-9139698D02*
X12284706Y-9149222D01*
X12284706Y-9149222D02*
X12275182Y-9158746D01*
X12275182Y-9158746D02*
X12265658Y-9177793D01*
X12265658Y-9177793D02*
X12265658Y-9215889D01*
X12265658Y-9215889D02*
X12275182Y-9234936D01*
X12275182Y-9234936D02*
X12284706Y-9244460D01*
X12284706Y-9244460D02*
X12303753Y-9253984D01*
X12303753Y-9253984D02*
X12341848Y-9253984D01*
X12341848Y-9253984D02*
X12360896Y-9244460D01*
X12360896Y-9244460D02*
X12370420Y-9234936D01*
X12370420Y-9234936D02*
X12379944Y-9215889D01*
X12379944Y-9215889D02*
X12379944Y-9177793D01*
X12379944Y-9177793D02*
X12370420Y-9158746D01*
X12370420Y-9158746D02*
X12360896Y-9149222D01*
X12360896Y-9149222D02*
X12341848Y-9139698D01*
X12456134Y-9053984D02*
X12456134Y-9092079D01*
X12532325Y-9053984D02*
X12532325Y-9092079D01*
X12827563Y-9330174D02*
X12818039Y-9320650D01*
X12818039Y-9320650D02*
X12798991Y-9292079D01*
X12798991Y-9292079D02*
X12789468Y-9273031D01*
X12789468Y-9273031D02*
X12779944Y-9244460D01*
X12779944Y-9244460D02*
X12770420Y-9196841D01*
X12770420Y-9196841D02*
X12770420Y-9158746D01*
X12770420Y-9158746D02*
X12779944Y-9111127D01*
X12779944Y-9111127D02*
X12789468Y-9082555D01*
X12789468Y-9082555D02*
X12798991Y-9063508D01*
X12798991Y-9063508D02*
X12818039Y-9034936D01*
X12818039Y-9034936D02*
X12827563Y-9025412D01*
X12989468Y-9053984D02*
X12951372Y-9053984D01*
X12951372Y-9053984D02*
X12932325Y-9063508D01*
X12932325Y-9063508D02*
X12922801Y-9073031D01*
X12922801Y-9073031D02*
X12903753Y-9101603D01*
X12903753Y-9101603D02*
X12894229Y-9139698D01*
X12894229Y-9139698D02*
X12894229Y-9215889D01*
X12894229Y-9215889D02*
X12903753Y-9234936D01*
X12903753Y-9234936D02*
X12913277Y-9244460D01*
X12913277Y-9244460D02*
X12932325Y-9253984D01*
X12932325Y-9253984D02*
X12970420Y-9253984D01*
X12970420Y-9253984D02*
X12989468Y-9244460D01*
X12989468Y-9244460D02*
X12998991Y-9234936D01*
X12998991Y-9234936D02*
X13008515Y-9215889D01*
X13008515Y-9215889D02*
X13008515Y-9168270D01*
X13008515Y-9168270D02*
X12998991Y-9149222D01*
X12998991Y-9149222D02*
X12989468Y-9139698D01*
X12989468Y-9139698D02*
X12970420Y-9130174D01*
X12970420Y-9130174D02*
X12932325Y-9130174D01*
X12932325Y-9130174D02*
X12913277Y-9139698D01*
X12913277Y-9139698D02*
X12903753Y-9149222D01*
X12903753Y-9149222D02*
X12894229Y-9168270D01*
X13132325Y-9053984D02*
X13151372Y-9053984D01*
X13151372Y-9053984D02*
X13170420Y-9063508D01*
X13170420Y-9063508D02*
X13179944Y-9073031D01*
X13179944Y-9073031D02*
X13189468Y-9092079D01*
X13189468Y-9092079D02*
X13198991Y-9130174D01*
X13198991Y-9130174D02*
X13198991Y-9177793D01*
X13198991Y-9177793D02*
X13189468Y-9215889D01*
X13189468Y-9215889D02*
X13179944Y-9234936D01*
X13179944Y-9234936D02*
X13170420Y-9244460D01*
X13170420Y-9244460D02*
X13151372Y-9253984D01*
X13151372Y-9253984D02*
X13132325Y-9253984D01*
X13132325Y-9253984D02*
X13113277Y-9244460D01*
X13113277Y-9244460D02*
X13103753Y-9234936D01*
X13103753Y-9234936D02*
X13094229Y-9215889D01*
X13094229Y-9215889D02*
X13084706Y-9177793D01*
X13084706Y-9177793D02*
X13084706Y-9130174D01*
X13084706Y-9130174D02*
X13094229Y-9092079D01*
X13094229Y-9092079D02*
X13103753Y-9073031D01*
X13103753Y-9073031D02*
X13113277Y-9063508D01*
X13113277Y-9063508D02*
X13132325Y-9053984D01*
X13437087Y-9253984D02*
X13437087Y-9053984D01*
X13522801Y-9253984D02*
X13522801Y-9149222D01*
X13522801Y-9149222D02*
X13513277Y-9130174D01*
X13513277Y-9130174D02*
X13494230Y-9120650D01*
X13494230Y-9120650D02*
X13465658Y-9120650D01*
X13465658Y-9120650D02*
X13446610Y-9130174D01*
X13446610Y-9130174D02*
X13437087Y-9139698D01*
X13646610Y-9253984D02*
X13627563Y-9244460D01*
X13627563Y-9244460D02*
X13618039Y-9234936D01*
X13618039Y-9234936D02*
X13608515Y-9215889D01*
X13608515Y-9215889D02*
X13608515Y-9158746D01*
X13608515Y-9158746D02*
X13618039Y-9139698D01*
X13618039Y-9139698D02*
X13627563Y-9130174D01*
X13627563Y-9130174D02*
X13646610Y-9120650D01*
X13646610Y-9120650D02*
X13675182Y-9120650D01*
X13675182Y-9120650D02*
X13694230Y-9130174D01*
X13694230Y-9130174D02*
X13703753Y-9139698D01*
X13703753Y-9139698D02*
X13713277Y-9158746D01*
X13713277Y-9158746D02*
X13713277Y-9215889D01*
X13713277Y-9215889D02*
X13703753Y-9234936D01*
X13703753Y-9234936D02*
X13694230Y-9244460D01*
X13694230Y-9244460D02*
X13675182Y-9253984D01*
X13675182Y-9253984D02*
X13646610Y-9253984D01*
X13827563Y-9253984D02*
X13808515Y-9244460D01*
X13808515Y-9244460D02*
X13798991Y-9225412D01*
X13798991Y-9225412D02*
X13798991Y-9053984D01*
X13979944Y-9244460D02*
X13960896Y-9253984D01*
X13960896Y-9253984D02*
X13922801Y-9253984D01*
X13922801Y-9253984D02*
X13903753Y-9244460D01*
X13903753Y-9244460D02*
X13894230Y-9225412D01*
X13894230Y-9225412D02*
X13894230Y-9149222D01*
X13894230Y-9149222D02*
X13903753Y-9130174D01*
X13903753Y-9130174D02*
X13922801Y-9120650D01*
X13922801Y-9120650D02*
X13960896Y-9120650D01*
X13960896Y-9120650D02*
X13979944Y-9130174D01*
X13979944Y-9130174D02*
X13989468Y-9149222D01*
X13989468Y-9149222D02*
X13989468Y-9168270D01*
X13989468Y-9168270D02*
X13894230Y-9187317D01*
X14065658Y-9244460D02*
X14084706Y-9253984D01*
X14084706Y-9253984D02*
X14122801Y-9253984D01*
X14122801Y-9253984D02*
X14141849Y-9244460D01*
X14141849Y-9244460D02*
X14151372Y-9225412D01*
X14151372Y-9225412D02*
X14151372Y-9215889D01*
X14151372Y-9215889D02*
X14141849Y-9196841D01*
X14141849Y-9196841D02*
X14122801Y-9187317D01*
X14122801Y-9187317D02*
X14094230Y-9187317D01*
X14094230Y-9187317D02*
X14075182Y-9177793D01*
X14075182Y-9177793D02*
X14065658Y-9158746D01*
X14065658Y-9158746D02*
X14065658Y-9149222D01*
X14065658Y-9149222D02*
X14075182Y-9130174D01*
X14075182Y-9130174D02*
X14094230Y-9120650D01*
X14094230Y-9120650D02*
X14122801Y-9120650D01*
X14122801Y-9120650D02*
X14141849Y-9130174D01*
X14218039Y-9330174D02*
X14227563Y-9320650D01*
X14227563Y-9320650D02*
X14246611Y-9292079D01*
X14246611Y-9292079D02*
X14256134Y-9273031D01*
X14256134Y-9273031D02*
X14265658Y-9244460D01*
X14265658Y-9244460D02*
X14275182Y-9196841D01*
X14275182Y-9196841D02*
X14275182Y-9158746D01*
X14275182Y-9158746D02*
X14265658Y-9111127D01*
X14265658Y-9111127D02*
X14256134Y-9082555D01*
X14256134Y-9082555D02*
X14246611Y-9063508D01*
X14246611Y-9063508D02*
X14227563Y-9034936D01*
X14227563Y-9034936D02*
X14218039Y-9025412D01*
D12*
X9252500Y-9426500D02*
G75*
G02*
X9172500Y-9426500I-40000J0D01*
G01*
X9172500Y-9426500D02*
G75*
G02*
X9252500Y-9426500I40000J0D01*
G01*
D11*
X9551372Y-9317984D02*
X9570420Y-9317984D01*
X9570420Y-9317984D02*
X9589467Y-9327508D01*
X9589467Y-9327508D02*
X9598991Y-9337031D01*
X9598991Y-9337031D02*
X9608515Y-9356079D01*
X9608515Y-9356079D02*
X9618039Y-9394174D01*
X9618039Y-9394174D02*
X9618039Y-9441793D01*
X9618039Y-9441793D02*
X9608515Y-9479889D01*
X9608515Y-9479889D02*
X9598991Y-9498936D01*
X9598991Y-9498936D02*
X9589467Y-9508460D01*
X9589467Y-9508460D02*
X9570420Y-9517984D01*
X9570420Y-9517984D02*
X9551372Y-9517984D01*
X9551372Y-9517984D02*
X9532324Y-9508460D01*
X9532324Y-9508460D02*
X9522801Y-9498936D01*
X9522801Y-9498936D02*
X9513277Y-9479889D01*
X9513277Y-9479889D02*
X9503753Y-9441793D01*
X9503753Y-9441793D02*
X9503753Y-9394174D01*
X9503753Y-9394174D02*
X9513277Y-9356079D01*
X9513277Y-9356079D02*
X9522801Y-9337031D01*
X9522801Y-9337031D02*
X9532324Y-9327508D01*
X9532324Y-9327508D02*
X9551372Y-9317984D01*
X9703753Y-9498936D02*
X9713277Y-9508460D01*
X9713277Y-9508460D02*
X9703753Y-9517984D01*
X9703753Y-9517984D02*
X9694229Y-9508460D01*
X9694229Y-9508460D02*
X9703753Y-9498936D01*
X9703753Y-9498936D02*
X9703753Y-9517984D01*
X9827563Y-9403698D02*
X9808515Y-9394174D01*
X9808515Y-9394174D02*
X9798991Y-9384650D01*
X9798991Y-9384650D02*
X9789467Y-9365603D01*
X9789467Y-9365603D02*
X9789467Y-9356079D01*
X9789467Y-9356079D02*
X9798991Y-9337031D01*
X9798991Y-9337031D02*
X9808515Y-9327508D01*
X9808515Y-9327508D02*
X9827563Y-9317984D01*
X9827563Y-9317984D02*
X9865658Y-9317984D01*
X9865658Y-9317984D02*
X9884705Y-9327508D01*
X9884705Y-9327508D02*
X9894229Y-9337031D01*
X9894229Y-9337031D02*
X9903753Y-9356079D01*
X9903753Y-9356079D02*
X9903753Y-9365603D01*
X9903753Y-9365603D02*
X9894229Y-9384650D01*
X9894229Y-9384650D02*
X9884705Y-9394174D01*
X9884705Y-9394174D02*
X9865658Y-9403698D01*
X9865658Y-9403698D02*
X9827563Y-9403698D01*
X9827563Y-9403698D02*
X9808515Y-9413222D01*
X9808515Y-9413222D02*
X9798991Y-9422746D01*
X9798991Y-9422746D02*
X9789467Y-9441793D01*
X9789467Y-9441793D02*
X9789467Y-9479889D01*
X9789467Y-9479889D02*
X9798991Y-9498936D01*
X9798991Y-9498936D02*
X9808515Y-9508460D01*
X9808515Y-9508460D02*
X9827563Y-9517984D01*
X9827563Y-9517984D02*
X9865658Y-9517984D01*
X9865658Y-9517984D02*
X9884705Y-9508460D01*
X9884705Y-9508460D02*
X9894229Y-9498936D01*
X9894229Y-9498936D02*
X9903753Y-9479889D01*
X9903753Y-9479889D02*
X9903753Y-9441793D01*
X9903753Y-9441793D02*
X9894229Y-9422746D01*
X9894229Y-9422746D02*
X9884705Y-9413222D01*
X9884705Y-9413222D02*
X9865658Y-9403698D01*
X10027563Y-9317984D02*
X10046610Y-9317984D01*
X10046610Y-9317984D02*
X10065658Y-9327508D01*
X10065658Y-9327508D02*
X10075182Y-9337031D01*
X10075182Y-9337031D02*
X10084705Y-9356079D01*
X10084705Y-9356079D02*
X10094229Y-9394174D01*
X10094229Y-9394174D02*
X10094229Y-9441793D01*
X10094229Y-9441793D02*
X10084705Y-9479889D01*
X10084705Y-9479889D02*
X10075182Y-9498936D01*
X10075182Y-9498936D02*
X10065658Y-9508460D01*
X10065658Y-9508460D02*
X10046610Y-9517984D01*
X10046610Y-9517984D02*
X10027563Y-9517984D01*
X10027563Y-9517984D02*
X10008515Y-9508460D01*
X10008515Y-9508460D02*
X9998991Y-9498936D01*
X9998991Y-9498936D02*
X9989467Y-9479889D01*
X9989467Y-9479889D02*
X9979944Y-9441793D01*
X9979944Y-9441793D02*
X9979944Y-9394174D01*
X9979944Y-9394174D02*
X9989467Y-9356079D01*
X9989467Y-9356079D02*
X9998991Y-9337031D01*
X9998991Y-9337031D02*
X10008515Y-9327508D01*
X10008515Y-9327508D02*
X10027563Y-9317984D01*
X10218039Y-9317984D02*
X10237086Y-9317984D01*
X10237086Y-9317984D02*
X10256134Y-9327508D01*
X10256134Y-9327508D02*
X10265658Y-9337031D01*
X10265658Y-9337031D02*
X10275182Y-9356079D01*
X10275182Y-9356079D02*
X10284705Y-9394174D01*
X10284705Y-9394174D02*
X10284705Y-9441793D01*
X10284705Y-9441793D02*
X10275182Y-9479889D01*
X10275182Y-9479889D02*
X10265658Y-9498936D01*
X10265658Y-9498936D02*
X10256134Y-9508460D01*
X10256134Y-9508460D02*
X10237086Y-9517984D01*
X10237086Y-9517984D02*
X10218039Y-9517984D01*
X10218039Y-9517984D02*
X10198991Y-9508460D01*
X10198991Y-9508460D02*
X10189467Y-9498936D01*
X10189467Y-9498936D02*
X10179944Y-9479889D01*
X10179944Y-9479889D02*
X10170420Y-9441793D01*
X10170420Y-9441793D02*
X10170420Y-9394174D01*
X10170420Y-9394174D02*
X10179944Y-9356079D01*
X10179944Y-9356079D02*
X10189467Y-9337031D01*
X10189467Y-9337031D02*
X10198991Y-9327508D01*
X10198991Y-9327508D02*
X10218039Y-9317984D01*
X10370420Y-9517984D02*
X10370420Y-9384650D01*
X10370420Y-9403698D02*
X10379944Y-9394174D01*
X10379944Y-9394174D02*
X10398991Y-9384650D01*
X10398991Y-9384650D02*
X10427563Y-9384650D01*
X10427563Y-9384650D02*
X10446610Y-9394174D01*
X10446610Y-9394174D02*
X10456134Y-9413222D01*
X10456134Y-9413222D02*
X10456134Y-9517984D01*
X10456134Y-9413222D02*
X10465658Y-9394174D01*
X10465658Y-9394174D02*
X10484705Y-9384650D01*
X10484705Y-9384650D02*
X10513277Y-9384650D01*
X10513277Y-9384650D02*
X10532325Y-9394174D01*
X10532325Y-9394174D02*
X10541848Y-9413222D01*
X10541848Y-9413222D02*
X10541848Y-9517984D01*
X10637086Y-9517984D02*
X10637086Y-9384650D01*
X10637086Y-9403698D02*
X10646610Y-9394174D01*
X10646610Y-9394174D02*
X10665658Y-9384650D01*
X10665658Y-9384650D02*
X10694229Y-9384650D01*
X10694229Y-9384650D02*
X10713277Y-9394174D01*
X10713277Y-9394174D02*
X10722801Y-9413222D01*
X10722801Y-9413222D02*
X10722801Y-9517984D01*
X10722801Y-9413222D02*
X10732325Y-9394174D01*
X10732325Y-9394174D02*
X10751372Y-9384650D01*
X10751372Y-9384650D02*
X10779944Y-9384650D01*
X10779944Y-9384650D02*
X10798991Y-9394174D01*
X10798991Y-9394174D02*
X10808515Y-9413222D01*
X10808515Y-9413222D02*
X10808515Y-9517984D01*
X11198991Y-9308460D02*
X11027563Y-9565603D01*
X11456134Y-9317984D02*
X11475182Y-9317984D01*
X11475182Y-9317984D02*
X11494229Y-9327508D01*
X11494229Y-9327508D02*
X11503753Y-9337031D01*
X11503753Y-9337031D02*
X11513277Y-9356079D01*
X11513277Y-9356079D02*
X11522801Y-9394174D01*
X11522801Y-9394174D02*
X11522801Y-9441793D01*
X11522801Y-9441793D02*
X11513277Y-9479889D01*
X11513277Y-9479889D02*
X11503753Y-9498936D01*
X11503753Y-9498936D02*
X11494229Y-9508460D01*
X11494229Y-9508460D02*
X11475182Y-9517984D01*
X11475182Y-9517984D02*
X11456134Y-9517984D01*
X11456134Y-9517984D02*
X11437086Y-9508460D01*
X11437086Y-9508460D02*
X11427563Y-9498936D01*
X11427563Y-9498936D02*
X11418039Y-9479889D01*
X11418039Y-9479889D02*
X11408515Y-9441793D01*
X11408515Y-9441793D02*
X11408515Y-9394174D01*
X11408515Y-9394174D02*
X11418039Y-9356079D01*
X11418039Y-9356079D02*
X11427563Y-9337031D01*
X11427563Y-9337031D02*
X11437086Y-9327508D01*
X11437086Y-9327508D02*
X11456134Y-9317984D01*
X11608515Y-9498936D02*
X11618039Y-9508460D01*
X11618039Y-9508460D02*
X11608515Y-9517984D01*
X11608515Y-9517984D02*
X11598991Y-9508460D01*
X11598991Y-9508460D02*
X11608515Y-9498936D01*
X11608515Y-9498936D02*
X11608515Y-9517984D01*
X11741848Y-9317984D02*
X11760896Y-9317984D01*
X11760896Y-9317984D02*
X11779944Y-9327508D01*
X11779944Y-9327508D02*
X11789467Y-9337031D01*
X11789467Y-9337031D02*
X11798991Y-9356079D01*
X11798991Y-9356079D02*
X11808515Y-9394174D01*
X11808515Y-9394174D02*
X11808515Y-9441793D01*
X11808515Y-9441793D02*
X11798991Y-9479889D01*
X11798991Y-9479889D02*
X11789467Y-9498936D01*
X11789467Y-9498936D02*
X11779944Y-9508460D01*
X11779944Y-9508460D02*
X11760896Y-9517984D01*
X11760896Y-9517984D02*
X11741848Y-9517984D01*
X11741848Y-9517984D02*
X11722801Y-9508460D01*
X11722801Y-9508460D02*
X11713277Y-9498936D01*
X11713277Y-9498936D02*
X11703753Y-9479889D01*
X11703753Y-9479889D02*
X11694229Y-9441793D01*
X11694229Y-9441793D02*
X11694229Y-9394174D01*
X11694229Y-9394174D02*
X11703753Y-9356079D01*
X11703753Y-9356079D02*
X11713277Y-9337031D01*
X11713277Y-9337031D02*
X11722801Y-9327508D01*
X11722801Y-9327508D02*
X11741848Y-9317984D01*
X11875182Y-9317984D02*
X11998991Y-9317984D01*
X11998991Y-9317984D02*
X11932325Y-9394174D01*
X11932325Y-9394174D02*
X11960896Y-9394174D01*
X11960896Y-9394174D02*
X11979944Y-9403698D01*
X11979944Y-9403698D02*
X11989467Y-9413222D01*
X11989467Y-9413222D02*
X11998991Y-9432270D01*
X11998991Y-9432270D02*
X11998991Y-9479889D01*
X11998991Y-9479889D02*
X11989467Y-9498936D01*
X11989467Y-9498936D02*
X11979944Y-9508460D01*
X11979944Y-9508460D02*
X11960896Y-9517984D01*
X11960896Y-9517984D02*
X11903753Y-9517984D01*
X11903753Y-9517984D02*
X11884706Y-9508460D01*
X11884706Y-9508460D02*
X11875182Y-9498936D01*
X12189467Y-9517984D02*
X12075182Y-9517984D01*
X12132325Y-9517984D02*
X12132325Y-9317984D01*
X12132325Y-9317984D02*
X12113277Y-9346555D01*
X12113277Y-9346555D02*
X12094229Y-9365603D01*
X12094229Y-9365603D02*
X12075182Y-9375127D01*
X12370420Y-9317984D02*
X12275182Y-9317984D01*
X12275182Y-9317984D02*
X12265658Y-9413222D01*
X12265658Y-9413222D02*
X12275182Y-9403698D01*
X12275182Y-9403698D02*
X12294229Y-9394174D01*
X12294229Y-9394174D02*
X12341848Y-9394174D01*
X12341848Y-9394174D02*
X12360896Y-9403698D01*
X12360896Y-9403698D02*
X12370420Y-9413222D01*
X12370420Y-9413222D02*
X12379944Y-9432270D01*
X12379944Y-9432270D02*
X12379944Y-9479889D01*
X12379944Y-9479889D02*
X12370420Y-9498936D01*
X12370420Y-9498936D02*
X12360896Y-9508460D01*
X12360896Y-9508460D02*
X12341848Y-9517984D01*
X12341848Y-9517984D02*
X12294229Y-9517984D01*
X12294229Y-9517984D02*
X12275182Y-9508460D01*
X12275182Y-9508460D02*
X12265658Y-9498936D01*
X12456134Y-9317984D02*
X12456134Y-9356079D01*
X12532325Y-9317984D02*
X12532325Y-9356079D01*
X12827563Y-9594174D02*
X12818039Y-9584650D01*
X12818039Y-9584650D02*
X12798991Y-9556079D01*
X12798991Y-9556079D02*
X12789468Y-9537031D01*
X12789468Y-9537031D02*
X12779944Y-9508460D01*
X12779944Y-9508460D02*
X12770420Y-9460841D01*
X12770420Y-9460841D02*
X12770420Y-9422746D01*
X12770420Y-9422746D02*
X12779944Y-9375127D01*
X12779944Y-9375127D02*
X12789468Y-9346555D01*
X12789468Y-9346555D02*
X12798991Y-9327508D01*
X12798991Y-9327508D02*
X12818039Y-9298936D01*
X12818039Y-9298936D02*
X12827563Y-9289412D01*
X13008515Y-9517984D02*
X12894229Y-9517984D01*
X12951372Y-9517984D02*
X12951372Y-9317984D01*
X12951372Y-9317984D02*
X12932325Y-9346555D01*
X12932325Y-9346555D02*
X12913277Y-9365603D01*
X12913277Y-9365603D02*
X12894229Y-9375127D01*
X13084706Y-9337031D02*
X13094229Y-9327508D01*
X13094229Y-9327508D02*
X13113277Y-9317984D01*
X13113277Y-9317984D02*
X13160896Y-9317984D01*
X13160896Y-9317984D02*
X13179944Y-9327508D01*
X13179944Y-9327508D02*
X13189468Y-9337031D01*
X13189468Y-9337031D02*
X13198991Y-9356079D01*
X13198991Y-9356079D02*
X13198991Y-9375127D01*
X13198991Y-9375127D02*
X13189468Y-9403698D01*
X13189468Y-9403698D02*
X13075182Y-9517984D01*
X13075182Y-9517984D02*
X13198991Y-9517984D01*
X13437087Y-9517984D02*
X13437087Y-9317984D01*
X13522801Y-9517984D02*
X13522801Y-9413222D01*
X13522801Y-9413222D02*
X13513277Y-9394174D01*
X13513277Y-9394174D02*
X13494230Y-9384650D01*
X13494230Y-9384650D02*
X13465658Y-9384650D01*
X13465658Y-9384650D02*
X13446610Y-9394174D01*
X13446610Y-9394174D02*
X13437087Y-9403698D01*
X13646610Y-9517984D02*
X13627563Y-9508460D01*
X13627563Y-9508460D02*
X13618039Y-9498936D01*
X13618039Y-9498936D02*
X13608515Y-9479889D01*
X13608515Y-9479889D02*
X13608515Y-9422746D01*
X13608515Y-9422746D02*
X13618039Y-9403698D01*
X13618039Y-9403698D02*
X13627563Y-9394174D01*
X13627563Y-9394174D02*
X13646610Y-9384650D01*
X13646610Y-9384650D02*
X13675182Y-9384650D01*
X13675182Y-9384650D02*
X13694230Y-9394174D01*
X13694230Y-9394174D02*
X13703753Y-9403698D01*
X13703753Y-9403698D02*
X13713277Y-9422746D01*
X13713277Y-9422746D02*
X13713277Y-9479889D01*
X13713277Y-9479889D02*
X13703753Y-9498936D01*
X13703753Y-9498936D02*
X13694230Y-9508460D01*
X13694230Y-9508460D02*
X13675182Y-9517984D01*
X13675182Y-9517984D02*
X13646610Y-9517984D01*
X13827563Y-9517984D02*
X13808515Y-9508460D01*
X13808515Y-9508460D02*
X13798991Y-9489412D01*
X13798991Y-9489412D02*
X13798991Y-9317984D01*
X13979944Y-9508460D02*
X13960896Y-9517984D01*
X13960896Y-9517984D02*
X13922801Y-9517984D01*
X13922801Y-9517984D02*
X13903753Y-9508460D01*
X13903753Y-9508460D02*
X13894230Y-9489412D01*
X13894230Y-9489412D02*
X13894230Y-9413222D01*
X13894230Y-9413222D02*
X13903753Y-9394174D01*
X13903753Y-9394174D02*
X13922801Y-9384650D01*
X13922801Y-9384650D02*
X13960896Y-9384650D01*
X13960896Y-9384650D02*
X13979944Y-9394174D01*
X13979944Y-9394174D02*
X13989468Y-9413222D01*
X13989468Y-9413222D02*
X13989468Y-9432270D01*
X13989468Y-9432270D02*
X13894230Y-9451317D01*
X14065658Y-9508460D02*
X14084706Y-9517984D01*
X14084706Y-9517984D02*
X14122801Y-9517984D01*
X14122801Y-9517984D02*
X14141849Y-9508460D01*
X14141849Y-9508460D02*
X14151372Y-9489412D01*
X14151372Y-9489412D02*
X14151372Y-9479889D01*
X14151372Y-9479889D02*
X14141849Y-9460841D01*
X14141849Y-9460841D02*
X14122801Y-9451317D01*
X14122801Y-9451317D02*
X14094230Y-9451317D01*
X14094230Y-9451317D02*
X14075182Y-9441793D01*
X14075182Y-9441793D02*
X14065658Y-9422746D01*
X14065658Y-9422746D02*
X14065658Y-9413222D01*
X14065658Y-9413222D02*
X14075182Y-9394174D01*
X14075182Y-9394174D02*
X14094230Y-9384650D01*
X14094230Y-9384650D02*
X14122801Y-9384650D01*
X14122801Y-9384650D02*
X14141849Y-9394174D01*
X14218039Y-9594174D02*
X14227563Y-9584650D01*
X14227563Y-9584650D02*
X14246611Y-9556079D01*
X14246611Y-9556079D02*
X14256134Y-9537031D01*
X14256134Y-9537031D02*
X14265658Y-9508460D01*
X14265658Y-9508460D02*
X14275182Y-9460841D01*
X14275182Y-9460841D02*
X14275182Y-9422746D01*
X14275182Y-9422746D02*
X14265658Y-9375127D01*
X14265658Y-9375127D02*
X14256134Y-9346555D01*
X14256134Y-9346555D02*
X14246611Y-9327508D01*
X14246611Y-9327508D02*
X14227563Y-9298936D01*
X14227563Y-9298936D02*
X14218039Y-9289412D01*
D12*
X9202500Y-9640500D02*
X9202500Y-9740500D01*
X9152500Y-9690500D02*
X9252500Y-9690500D01*
D11*
X9618039Y-9781984D02*
X9503753Y-9781984D01*
X9560896Y-9781984D02*
X9560896Y-9581984D01*
X9560896Y-9581984D02*
X9541848Y-9610555D01*
X9541848Y-9610555D02*
X9522801Y-9629603D01*
X9522801Y-9629603D02*
X9503753Y-9639127D01*
X9703753Y-9762936D02*
X9713277Y-9772460D01*
X9713277Y-9772460D02*
X9703753Y-9781984D01*
X9703753Y-9781984D02*
X9694229Y-9772460D01*
X9694229Y-9772460D02*
X9703753Y-9762936D01*
X9703753Y-9762936D02*
X9703753Y-9781984D01*
X9837086Y-9581984D02*
X9856134Y-9581984D01*
X9856134Y-9581984D02*
X9875182Y-9591508D01*
X9875182Y-9591508D02*
X9884705Y-9601031D01*
X9884705Y-9601031D02*
X9894229Y-9620079D01*
X9894229Y-9620079D02*
X9903753Y-9658174D01*
X9903753Y-9658174D02*
X9903753Y-9705793D01*
X9903753Y-9705793D02*
X9894229Y-9743889D01*
X9894229Y-9743889D02*
X9884705Y-9762936D01*
X9884705Y-9762936D02*
X9875182Y-9772460D01*
X9875182Y-9772460D02*
X9856134Y-9781984D01*
X9856134Y-9781984D02*
X9837086Y-9781984D01*
X9837086Y-9781984D02*
X9818039Y-9772460D01*
X9818039Y-9772460D02*
X9808515Y-9762936D01*
X9808515Y-9762936D02*
X9798991Y-9743889D01*
X9798991Y-9743889D02*
X9789467Y-9705793D01*
X9789467Y-9705793D02*
X9789467Y-9658174D01*
X9789467Y-9658174D02*
X9798991Y-9620079D01*
X9798991Y-9620079D02*
X9808515Y-9601031D01*
X9808515Y-9601031D02*
X9818039Y-9591508D01*
X9818039Y-9591508D02*
X9837086Y-9581984D01*
X10027563Y-9581984D02*
X10046610Y-9581984D01*
X10046610Y-9581984D02*
X10065658Y-9591508D01*
X10065658Y-9591508D02*
X10075182Y-9601031D01*
X10075182Y-9601031D02*
X10084705Y-9620079D01*
X10084705Y-9620079D02*
X10094229Y-9658174D01*
X10094229Y-9658174D02*
X10094229Y-9705793D01*
X10094229Y-9705793D02*
X10084705Y-9743889D01*
X10084705Y-9743889D02*
X10075182Y-9762936D01*
X10075182Y-9762936D02*
X10065658Y-9772460D01*
X10065658Y-9772460D02*
X10046610Y-9781984D01*
X10046610Y-9781984D02*
X10027563Y-9781984D01*
X10027563Y-9781984D02*
X10008515Y-9772460D01*
X10008515Y-9772460D02*
X9998991Y-9762936D01*
X9998991Y-9762936D02*
X9989467Y-9743889D01*
X9989467Y-9743889D02*
X9979944Y-9705793D01*
X9979944Y-9705793D02*
X9979944Y-9658174D01*
X9979944Y-9658174D02*
X9989467Y-9620079D01*
X9989467Y-9620079D02*
X9998991Y-9601031D01*
X9998991Y-9601031D02*
X10008515Y-9591508D01*
X10008515Y-9591508D02*
X10027563Y-9581984D01*
X10218039Y-9581984D02*
X10237086Y-9581984D01*
X10237086Y-9581984D02*
X10256134Y-9591508D01*
X10256134Y-9591508D02*
X10265658Y-9601031D01*
X10265658Y-9601031D02*
X10275182Y-9620079D01*
X10275182Y-9620079D02*
X10284705Y-9658174D01*
X10284705Y-9658174D02*
X10284705Y-9705793D01*
X10284705Y-9705793D02*
X10275182Y-9743889D01*
X10275182Y-9743889D02*
X10265658Y-9762936D01*
X10265658Y-9762936D02*
X10256134Y-9772460D01*
X10256134Y-9772460D02*
X10237086Y-9781984D01*
X10237086Y-9781984D02*
X10218039Y-9781984D01*
X10218039Y-9781984D02*
X10198991Y-9772460D01*
X10198991Y-9772460D02*
X10189467Y-9762936D01*
X10189467Y-9762936D02*
X10179944Y-9743889D01*
X10179944Y-9743889D02*
X10170420Y-9705793D01*
X10170420Y-9705793D02*
X10170420Y-9658174D01*
X10170420Y-9658174D02*
X10179944Y-9620079D01*
X10179944Y-9620079D02*
X10189467Y-9601031D01*
X10189467Y-9601031D02*
X10198991Y-9591508D01*
X10198991Y-9591508D02*
X10218039Y-9581984D01*
X10370420Y-9781984D02*
X10370420Y-9648650D01*
X10370420Y-9667698D02*
X10379944Y-9658174D01*
X10379944Y-9658174D02*
X10398991Y-9648650D01*
X10398991Y-9648650D02*
X10427563Y-9648650D01*
X10427563Y-9648650D02*
X10446610Y-9658174D01*
X10446610Y-9658174D02*
X10456134Y-9677222D01*
X10456134Y-9677222D02*
X10456134Y-9781984D01*
X10456134Y-9677222D02*
X10465658Y-9658174D01*
X10465658Y-9658174D02*
X10484705Y-9648650D01*
X10484705Y-9648650D02*
X10513277Y-9648650D01*
X10513277Y-9648650D02*
X10532325Y-9658174D01*
X10532325Y-9658174D02*
X10541848Y-9677222D01*
X10541848Y-9677222D02*
X10541848Y-9781984D01*
X10637086Y-9781984D02*
X10637086Y-9648650D01*
X10637086Y-9667698D02*
X10646610Y-9658174D01*
X10646610Y-9658174D02*
X10665658Y-9648650D01*
X10665658Y-9648650D02*
X10694229Y-9648650D01*
X10694229Y-9648650D02*
X10713277Y-9658174D01*
X10713277Y-9658174D02*
X10722801Y-9677222D01*
X10722801Y-9677222D02*
X10722801Y-9781984D01*
X10722801Y-9677222D02*
X10732325Y-9658174D01*
X10732325Y-9658174D02*
X10751372Y-9648650D01*
X10751372Y-9648650D02*
X10779944Y-9648650D01*
X10779944Y-9648650D02*
X10798991Y-9658174D01*
X10798991Y-9658174D02*
X10808515Y-9677222D01*
X10808515Y-9677222D02*
X10808515Y-9781984D01*
X11198991Y-9572460D02*
X11027563Y-9829603D01*
X11456134Y-9581984D02*
X11475182Y-9581984D01*
X11475182Y-9581984D02*
X11494229Y-9591508D01*
X11494229Y-9591508D02*
X11503753Y-9601031D01*
X11503753Y-9601031D02*
X11513277Y-9620079D01*
X11513277Y-9620079D02*
X11522801Y-9658174D01*
X11522801Y-9658174D02*
X11522801Y-9705793D01*
X11522801Y-9705793D02*
X11513277Y-9743889D01*
X11513277Y-9743889D02*
X11503753Y-9762936D01*
X11503753Y-9762936D02*
X11494229Y-9772460D01*
X11494229Y-9772460D02*
X11475182Y-9781984D01*
X11475182Y-9781984D02*
X11456134Y-9781984D01*
X11456134Y-9781984D02*
X11437086Y-9772460D01*
X11437086Y-9772460D02*
X11427563Y-9762936D01*
X11427563Y-9762936D02*
X11418039Y-9743889D01*
X11418039Y-9743889D02*
X11408515Y-9705793D01*
X11408515Y-9705793D02*
X11408515Y-9658174D01*
X11408515Y-9658174D02*
X11418039Y-9620079D01*
X11418039Y-9620079D02*
X11427563Y-9601031D01*
X11427563Y-9601031D02*
X11437086Y-9591508D01*
X11437086Y-9591508D02*
X11456134Y-9581984D01*
X11608515Y-9762936D02*
X11618039Y-9772460D01*
X11618039Y-9772460D02*
X11608515Y-9781984D01*
X11608515Y-9781984D02*
X11598991Y-9772460D01*
X11598991Y-9772460D02*
X11608515Y-9762936D01*
X11608515Y-9762936D02*
X11608515Y-9781984D01*
X11741848Y-9581984D02*
X11760896Y-9581984D01*
X11760896Y-9581984D02*
X11779944Y-9591508D01*
X11779944Y-9591508D02*
X11789467Y-9601031D01*
X11789467Y-9601031D02*
X11798991Y-9620079D01*
X11798991Y-9620079D02*
X11808515Y-9658174D01*
X11808515Y-9658174D02*
X11808515Y-9705793D01*
X11808515Y-9705793D02*
X11798991Y-9743889D01*
X11798991Y-9743889D02*
X11789467Y-9762936D01*
X11789467Y-9762936D02*
X11779944Y-9772460D01*
X11779944Y-9772460D02*
X11760896Y-9781984D01*
X11760896Y-9781984D02*
X11741848Y-9781984D01*
X11741848Y-9781984D02*
X11722801Y-9772460D01*
X11722801Y-9772460D02*
X11713277Y-9762936D01*
X11713277Y-9762936D02*
X11703753Y-9743889D01*
X11703753Y-9743889D02*
X11694229Y-9705793D01*
X11694229Y-9705793D02*
X11694229Y-9658174D01*
X11694229Y-9658174D02*
X11703753Y-9620079D01*
X11703753Y-9620079D02*
X11713277Y-9601031D01*
X11713277Y-9601031D02*
X11722801Y-9591508D01*
X11722801Y-9591508D02*
X11741848Y-9581984D01*
X11875182Y-9581984D02*
X11998991Y-9581984D01*
X11998991Y-9581984D02*
X11932325Y-9658174D01*
X11932325Y-9658174D02*
X11960896Y-9658174D01*
X11960896Y-9658174D02*
X11979944Y-9667698D01*
X11979944Y-9667698D02*
X11989467Y-9677222D01*
X11989467Y-9677222D02*
X11998991Y-9696270D01*
X11998991Y-9696270D02*
X11998991Y-9743889D01*
X11998991Y-9743889D02*
X11989467Y-9762936D01*
X11989467Y-9762936D02*
X11979944Y-9772460D01*
X11979944Y-9772460D02*
X11960896Y-9781984D01*
X11960896Y-9781984D02*
X11903753Y-9781984D01*
X11903753Y-9781984D02*
X11884706Y-9772460D01*
X11884706Y-9772460D02*
X11875182Y-9762936D01*
X12094229Y-9781984D02*
X12132325Y-9781984D01*
X12132325Y-9781984D02*
X12151372Y-9772460D01*
X12151372Y-9772460D02*
X12160896Y-9762936D01*
X12160896Y-9762936D02*
X12179944Y-9734365D01*
X12179944Y-9734365D02*
X12189467Y-9696270D01*
X12189467Y-9696270D02*
X12189467Y-9620079D01*
X12189467Y-9620079D02*
X12179944Y-9601031D01*
X12179944Y-9601031D02*
X12170420Y-9591508D01*
X12170420Y-9591508D02*
X12151372Y-9581984D01*
X12151372Y-9581984D02*
X12113277Y-9581984D01*
X12113277Y-9581984D02*
X12094229Y-9591508D01*
X12094229Y-9591508D02*
X12084706Y-9601031D01*
X12084706Y-9601031D02*
X12075182Y-9620079D01*
X12075182Y-9620079D02*
X12075182Y-9667698D01*
X12075182Y-9667698D02*
X12084706Y-9686746D01*
X12084706Y-9686746D02*
X12094229Y-9696270D01*
X12094229Y-9696270D02*
X12113277Y-9705793D01*
X12113277Y-9705793D02*
X12151372Y-9705793D01*
X12151372Y-9705793D02*
X12170420Y-9696270D01*
X12170420Y-9696270D02*
X12179944Y-9686746D01*
X12179944Y-9686746D02*
X12189467Y-9667698D01*
X12360896Y-9648650D02*
X12360896Y-9781984D01*
X12313277Y-9572460D02*
X12265658Y-9715317D01*
X12265658Y-9715317D02*
X12389467Y-9715317D01*
X12456134Y-9581984D02*
X12456134Y-9620079D01*
X12532325Y-9581984D02*
X12532325Y-9620079D01*
X12827563Y-9858174D02*
X12818039Y-9848650D01*
X12818039Y-9848650D02*
X12798991Y-9820079D01*
X12798991Y-9820079D02*
X12789468Y-9801031D01*
X12789468Y-9801031D02*
X12779944Y-9772460D01*
X12779944Y-9772460D02*
X12770420Y-9724841D01*
X12770420Y-9724841D02*
X12770420Y-9686746D01*
X12770420Y-9686746D02*
X12779944Y-9639127D01*
X12779944Y-9639127D02*
X12789468Y-9610555D01*
X12789468Y-9610555D02*
X12798991Y-9591508D01*
X12798991Y-9591508D02*
X12818039Y-9562936D01*
X12818039Y-9562936D02*
X12827563Y-9553412D01*
X12884706Y-9581984D02*
X13008515Y-9581984D01*
X13008515Y-9581984D02*
X12941848Y-9658174D01*
X12941848Y-9658174D02*
X12970420Y-9658174D01*
X12970420Y-9658174D02*
X12989468Y-9667698D01*
X12989468Y-9667698D02*
X12998991Y-9677222D01*
X12998991Y-9677222D02*
X13008515Y-9696270D01*
X13008515Y-9696270D02*
X13008515Y-9743889D01*
X13008515Y-9743889D02*
X12998991Y-9762936D01*
X12998991Y-9762936D02*
X12989468Y-9772460D01*
X12989468Y-9772460D02*
X12970420Y-9781984D01*
X12970420Y-9781984D02*
X12913277Y-9781984D01*
X12913277Y-9781984D02*
X12894229Y-9772460D01*
X12894229Y-9772460D02*
X12884706Y-9762936D01*
X13198991Y-9781984D02*
X13084706Y-9781984D01*
X13141848Y-9781984D02*
X13141848Y-9581984D01*
X13141848Y-9581984D02*
X13122801Y-9610555D01*
X13122801Y-9610555D02*
X13103753Y-9629603D01*
X13103753Y-9629603D02*
X13084706Y-9639127D01*
X13437087Y-9781984D02*
X13437087Y-9581984D01*
X13522801Y-9781984D02*
X13522801Y-9677222D01*
X13522801Y-9677222D02*
X13513277Y-9658174D01*
X13513277Y-9658174D02*
X13494230Y-9648650D01*
X13494230Y-9648650D02*
X13465658Y-9648650D01*
X13465658Y-9648650D02*
X13446610Y-9658174D01*
X13446610Y-9658174D02*
X13437087Y-9667698D01*
X13646610Y-9781984D02*
X13627563Y-9772460D01*
X13627563Y-9772460D02*
X13618039Y-9762936D01*
X13618039Y-9762936D02*
X13608515Y-9743889D01*
X13608515Y-9743889D02*
X13608515Y-9686746D01*
X13608515Y-9686746D02*
X13618039Y-9667698D01*
X13618039Y-9667698D02*
X13627563Y-9658174D01*
X13627563Y-9658174D02*
X13646610Y-9648650D01*
X13646610Y-9648650D02*
X13675182Y-9648650D01*
X13675182Y-9648650D02*
X13694230Y-9658174D01*
X13694230Y-9658174D02*
X13703753Y-9667698D01*
X13703753Y-9667698D02*
X13713277Y-9686746D01*
X13713277Y-9686746D02*
X13713277Y-9743889D01*
X13713277Y-9743889D02*
X13703753Y-9762936D01*
X13703753Y-9762936D02*
X13694230Y-9772460D01*
X13694230Y-9772460D02*
X13675182Y-9781984D01*
X13675182Y-9781984D02*
X13646610Y-9781984D01*
X13827563Y-9781984D02*
X13808515Y-9772460D01*
X13808515Y-9772460D02*
X13798991Y-9753412D01*
X13798991Y-9753412D02*
X13798991Y-9581984D01*
X13979944Y-9772460D02*
X13960896Y-9781984D01*
X13960896Y-9781984D02*
X13922801Y-9781984D01*
X13922801Y-9781984D02*
X13903753Y-9772460D01*
X13903753Y-9772460D02*
X13894230Y-9753412D01*
X13894230Y-9753412D02*
X13894230Y-9677222D01*
X13894230Y-9677222D02*
X13903753Y-9658174D01*
X13903753Y-9658174D02*
X13922801Y-9648650D01*
X13922801Y-9648650D02*
X13960896Y-9648650D01*
X13960896Y-9648650D02*
X13979944Y-9658174D01*
X13979944Y-9658174D02*
X13989468Y-9677222D01*
X13989468Y-9677222D02*
X13989468Y-9696270D01*
X13989468Y-9696270D02*
X13894230Y-9715317D01*
X14065658Y-9772460D02*
X14084706Y-9781984D01*
X14084706Y-9781984D02*
X14122801Y-9781984D01*
X14122801Y-9781984D02*
X14141849Y-9772460D01*
X14141849Y-9772460D02*
X14151372Y-9753412D01*
X14151372Y-9753412D02*
X14151372Y-9743889D01*
X14151372Y-9743889D02*
X14141849Y-9724841D01*
X14141849Y-9724841D02*
X14122801Y-9715317D01*
X14122801Y-9715317D02*
X14094230Y-9715317D01*
X14094230Y-9715317D02*
X14075182Y-9705793D01*
X14075182Y-9705793D02*
X14065658Y-9686746D01*
X14065658Y-9686746D02*
X14065658Y-9677222D01*
X14065658Y-9677222D02*
X14075182Y-9658174D01*
X14075182Y-9658174D02*
X14094230Y-9648650D01*
X14094230Y-9648650D02*
X14122801Y-9648650D01*
X14122801Y-9648650D02*
X14141849Y-9658174D01*
X14218039Y-9858174D02*
X14227563Y-9848650D01*
X14227563Y-9848650D02*
X14246611Y-9820079D01*
X14246611Y-9820079D02*
X14256134Y-9801031D01*
X14256134Y-9801031D02*
X14265658Y-9772460D01*
X14265658Y-9772460D02*
X14275182Y-9724841D01*
X14275182Y-9724841D02*
X14275182Y-9686746D01*
X14275182Y-9686746D02*
X14265658Y-9639127D01*
X14265658Y-9639127D02*
X14256134Y-9610555D01*
X14256134Y-9610555D02*
X14246611Y-9591508D01*
X14246611Y-9591508D02*
X14227563Y-9562936D01*
X14227563Y-9562936D02*
X14218039Y-9553412D01*
D13*
X9236877Y-9992217D02*
X9236877Y-9916783D01*
X9161443Y-9916783D01*
X9161443Y-9992217D01*
X9236877Y-9992217D01*
D11*
X9618039Y-10045984D02*
X9503753Y-10045984D01*
X9560896Y-10045984D02*
X9560896Y-9845984D01*
X9560896Y-9845984D02*
X9541848Y-9874555D01*
X9541848Y-9874555D02*
X9522801Y-9893603D01*
X9522801Y-9893603D02*
X9503753Y-9903127D01*
X9703753Y-10026936D02*
X9713277Y-10036460D01*
X9713277Y-10036460D02*
X9703753Y-10045984D01*
X9703753Y-10045984D02*
X9694229Y-10036460D01*
X9694229Y-10036460D02*
X9703753Y-10026936D01*
X9703753Y-10026936D02*
X9703753Y-10045984D01*
X9837086Y-9845984D02*
X9856134Y-9845984D01*
X9856134Y-9845984D02*
X9875182Y-9855508D01*
X9875182Y-9855508D02*
X9884705Y-9865031D01*
X9884705Y-9865031D02*
X9894229Y-9884079D01*
X9894229Y-9884079D02*
X9903753Y-9922174D01*
X9903753Y-9922174D02*
X9903753Y-9969793D01*
X9903753Y-9969793D02*
X9894229Y-10007889D01*
X9894229Y-10007889D02*
X9884705Y-10026936D01*
X9884705Y-10026936D02*
X9875182Y-10036460D01*
X9875182Y-10036460D02*
X9856134Y-10045984D01*
X9856134Y-10045984D02*
X9837086Y-10045984D01*
X9837086Y-10045984D02*
X9818039Y-10036460D01*
X9818039Y-10036460D02*
X9808515Y-10026936D01*
X9808515Y-10026936D02*
X9798991Y-10007889D01*
X9798991Y-10007889D02*
X9789467Y-9969793D01*
X9789467Y-9969793D02*
X9789467Y-9922174D01*
X9789467Y-9922174D02*
X9798991Y-9884079D01*
X9798991Y-9884079D02*
X9808515Y-9865031D01*
X9808515Y-9865031D02*
X9818039Y-9855508D01*
X9818039Y-9855508D02*
X9837086Y-9845984D01*
X10075182Y-9845984D02*
X10037086Y-9845984D01*
X10037086Y-9845984D02*
X10018039Y-9855508D01*
X10018039Y-9855508D02*
X10008515Y-9865031D01*
X10008515Y-9865031D02*
X9989467Y-9893603D01*
X9989467Y-9893603D02*
X9979944Y-9931698D01*
X9979944Y-9931698D02*
X9979944Y-10007889D01*
X9979944Y-10007889D02*
X9989467Y-10026936D01*
X9989467Y-10026936D02*
X9998991Y-10036460D01*
X9998991Y-10036460D02*
X10018039Y-10045984D01*
X10018039Y-10045984D02*
X10056134Y-10045984D01*
X10056134Y-10045984D02*
X10075182Y-10036460D01*
X10075182Y-10036460D02*
X10084705Y-10026936D01*
X10084705Y-10026936D02*
X10094229Y-10007889D01*
X10094229Y-10007889D02*
X10094229Y-9960270D01*
X10094229Y-9960270D02*
X10084705Y-9941222D01*
X10084705Y-9941222D02*
X10075182Y-9931698D01*
X10075182Y-9931698D02*
X10056134Y-9922174D01*
X10056134Y-9922174D02*
X10018039Y-9922174D01*
X10018039Y-9922174D02*
X9998991Y-9931698D01*
X9998991Y-9931698D02*
X9989467Y-9941222D01*
X9989467Y-9941222D02*
X9979944Y-9960270D01*
X10160896Y-9845984D02*
X10294229Y-9845984D01*
X10294229Y-9845984D02*
X10208515Y-10045984D01*
X10370420Y-10045984D02*
X10370420Y-9912650D01*
X10370420Y-9931698D02*
X10379944Y-9922174D01*
X10379944Y-9922174D02*
X10398991Y-9912650D01*
X10398991Y-9912650D02*
X10427563Y-9912650D01*
X10427563Y-9912650D02*
X10446610Y-9922174D01*
X10446610Y-9922174D02*
X10456134Y-9941222D01*
X10456134Y-9941222D02*
X10456134Y-10045984D01*
X10456134Y-9941222D02*
X10465658Y-9922174D01*
X10465658Y-9922174D02*
X10484705Y-9912650D01*
X10484705Y-9912650D02*
X10513277Y-9912650D01*
X10513277Y-9912650D02*
X10532325Y-9922174D01*
X10532325Y-9922174D02*
X10541848Y-9941222D01*
X10541848Y-9941222D02*
X10541848Y-10045984D01*
X10637086Y-10045984D02*
X10637086Y-9912650D01*
X10637086Y-9931698D02*
X10646610Y-9922174D01*
X10646610Y-9922174D02*
X10665658Y-9912650D01*
X10665658Y-9912650D02*
X10694229Y-9912650D01*
X10694229Y-9912650D02*
X10713277Y-9922174D01*
X10713277Y-9922174D02*
X10722801Y-9941222D01*
X10722801Y-9941222D02*
X10722801Y-10045984D01*
X10722801Y-9941222D02*
X10732325Y-9922174D01*
X10732325Y-9922174D02*
X10751372Y-9912650D01*
X10751372Y-9912650D02*
X10779944Y-9912650D01*
X10779944Y-9912650D02*
X10798991Y-9922174D01*
X10798991Y-9922174D02*
X10808515Y-9941222D01*
X10808515Y-9941222D02*
X10808515Y-10045984D01*
X11198991Y-9836460D02*
X11027563Y-10093603D01*
X11456134Y-9845984D02*
X11475182Y-9845984D01*
X11475182Y-9845984D02*
X11494229Y-9855508D01*
X11494229Y-9855508D02*
X11503753Y-9865031D01*
X11503753Y-9865031D02*
X11513277Y-9884079D01*
X11513277Y-9884079D02*
X11522801Y-9922174D01*
X11522801Y-9922174D02*
X11522801Y-9969793D01*
X11522801Y-9969793D02*
X11513277Y-10007889D01*
X11513277Y-10007889D02*
X11503753Y-10026936D01*
X11503753Y-10026936D02*
X11494229Y-10036460D01*
X11494229Y-10036460D02*
X11475182Y-10045984D01*
X11475182Y-10045984D02*
X11456134Y-10045984D01*
X11456134Y-10045984D02*
X11437086Y-10036460D01*
X11437086Y-10036460D02*
X11427563Y-10026936D01*
X11427563Y-10026936D02*
X11418039Y-10007889D01*
X11418039Y-10007889D02*
X11408515Y-9969793D01*
X11408515Y-9969793D02*
X11408515Y-9922174D01*
X11408515Y-9922174D02*
X11418039Y-9884079D01*
X11418039Y-9884079D02*
X11427563Y-9865031D01*
X11427563Y-9865031D02*
X11437086Y-9855508D01*
X11437086Y-9855508D02*
X11456134Y-9845984D01*
X11608515Y-10026936D02*
X11618039Y-10036460D01*
X11618039Y-10036460D02*
X11608515Y-10045984D01*
X11608515Y-10045984D02*
X11598991Y-10036460D01*
X11598991Y-10036460D02*
X11608515Y-10026936D01*
X11608515Y-10026936D02*
X11608515Y-10045984D01*
X11741848Y-9845984D02*
X11760896Y-9845984D01*
X11760896Y-9845984D02*
X11779944Y-9855508D01*
X11779944Y-9855508D02*
X11789467Y-9865031D01*
X11789467Y-9865031D02*
X11798991Y-9884079D01*
X11798991Y-9884079D02*
X11808515Y-9922174D01*
X11808515Y-9922174D02*
X11808515Y-9969793D01*
X11808515Y-9969793D02*
X11798991Y-10007889D01*
X11798991Y-10007889D02*
X11789467Y-10026936D01*
X11789467Y-10026936D02*
X11779944Y-10036460D01*
X11779944Y-10036460D02*
X11760896Y-10045984D01*
X11760896Y-10045984D02*
X11741848Y-10045984D01*
X11741848Y-10045984D02*
X11722801Y-10036460D01*
X11722801Y-10036460D02*
X11713277Y-10026936D01*
X11713277Y-10026936D02*
X11703753Y-10007889D01*
X11703753Y-10007889D02*
X11694229Y-9969793D01*
X11694229Y-9969793D02*
X11694229Y-9922174D01*
X11694229Y-9922174D02*
X11703753Y-9884079D01*
X11703753Y-9884079D02*
X11713277Y-9865031D01*
X11713277Y-9865031D02*
X11722801Y-9855508D01*
X11722801Y-9855508D02*
X11741848Y-9845984D01*
X11979944Y-9912650D02*
X11979944Y-10045984D01*
X11932325Y-9836460D02*
X11884706Y-9979317D01*
X11884706Y-9979317D02*
X12008515Y-9979317D01*
X12075182Y-9865031D02*
X12084706Y-9855508D01*
X12084706Y-9855508D02*
X12103753Y-9845984D01*
X12103753Y-9845984D02*
X12151372Y-9845984D01*
X12151372Y-9845984D02*
X12170420Y-9855508D01*
X12170420Y-9855508D02*
X12179944Y-9865031D01*
X12179944Y-9865031D02*
X12189467Y-9884079D01*
X12189467Y-9884079D02*
X12189467Y-9903127D01*
X12189467Y-9903127D02*
X12179944Y-9931698D01*
X12179944Y-9931698D02*
X12065658Y-10045984D01*
X12065658Y-10045984D02*
X12189467Y-10045984D01*
X12313277Y-9845984D02*
X12332325Y-9845984D01*
X12332325Y-9845984D02*
X12351372Y-9855508D01*
X12351372Y-9855508D02*
X12360896Y-9865031D01*
X12360896Y-9865031D02*
X12370420Y-9884079D01*
X12370420Y-9884079D02*
X12379944Y-9922174D01*
X12379944Y-9922174D02*
X12379944Y-9969793D01*
X12379944Y-9969793D02*
X12370420Y-10007889D01*
X12370420Y-10007889D02*
X12360896Y-10026936D01*
X12360896Y-10026936D02*
X12351372Y-10036460D01*
X12351372Y-10036460D02*
X12332325Y-10045984D01*
X12332325Y-10045984D02*
X12313277Y-10045984D01*
X12313277Y-10045984D02*
X12294229Y-10036460D01*
X12294229Y-10036460D02*
X12284706Y-10026936D01*
X12284706Y-10026936D02*
X12275182Y-10007889D01*
X12275182Y-10007889D02*
X12265658Y-9969793D01*
X12265658Y-9969793D02*
X12265658Y-9922174D01*
X12265658Y-9922174D02*
X12275182Y-9884079D01*
X12275182Y-9884079D02*
X12284706Y-9865031D01*
X12284706Y-9865031D02*
X12294229Y-9855508D01*
X12294229Y-9855508D02*
X12313277Y-9845984D01*
X12456134Y-9845984D02*
X12456134Y-9884079D01*
X12532325Y-9845984D02*
X12532325Y-9884079D01*
X12827563Y-10122174D02*
X12818039Y-10112650D01*
X12818039Y-10112650D02*
X12798991Y-10084079D01*
X12798991Y-10084079D02*
X12789468Y-10065031D01*
X12789468Y-10065031D02*
X12779944Y-10036460D01*
X12779944Y-10036460D02*
X12770420Y-9988841D01*
X12770420Y-9988841D02*
X12770420Y-9950746D01*
X12770420Y-9950746D02*
X12779944Y-9903127D01*
X12779944Y-9903127D02*
X12789468Y-9874555D01*
X12789468Y-9874555D02*
X12798991Y-9855508D01*
X12798991Y-9855508D02*
X12818039Y-9826936D01*
X12818039Y-9826936D02*
X12827563Y-9817412D01*
X12989468Y-9845984D02*
X12951372Y-9845984D01*
X12951372Y-9845984D02*
X12932325Y-9855508D01*
X12932325Y-9855508D02*
X12922801Y-9865031D01*
X12922801Y-9865031D02*
X12903753Y-9893603D01*
X12903753Y-9893603D02*
X12894229Y-9931698D01*
X12894229Y-9931698D02*
X12894229Y-10007889D01*
X12894229Y-10007889D02*
X12903753Y-10026936D01*
X12903753Y-10026936D02*
X12913277Y-10036460D01*
X12913277Y-10036460D02*
X12932325Y-10045984D01*
X12932325Y-10045984D02*
X12970420Y-10045984D01*
X12970420Y-10045984D02*
X12989468Y-10036460D01*
X12989468Y-10036460D02*
X12998991Y-10026936D01*
X12998991Y-10026936D02*
X13008515Y-10007889D01*
X13008515Y-10007889D02*
X13008515Y-9960270D01*
X13008515Y-9960270D02*
X12998991Y-9941222D01*
X12998991Y-9941222D02*
X12989468Y-9931698D01*
X12989468Y-9931698D02*
X12970420Y-9922174D01*
X12970420Y-9922174D02*
X12932325Y-9922174D01*
X12932325Y-9922174D02*
X12913277Y-9931698D01*
X12913277Y-9931698D02*
X12903753Y-9941222D01*
X12903753Y-9941222D02*
X12894229Y-9960270D01*
X13246610Y-10045984D02*
X13246610Y-9845984D01*
X13332325Y-10045984D02*
X13332325Y-9941222D01*
X13332325Y-9941222D02*
X13322801Y-9922174D01*
X13322801Y-9922174D02*
X13303753Y-9912650D01*
X13303753Y-9912650D02*
X13275182Y-9912650D01*
X13275182Y-9912650D02*
X13256134Y-9922174D01*
X13256134Y-9922174D02*
X13246610Y-9931698D01*
X13456134Y-10045984D02*
X13437087Y-10036460D01*
X13437087Y-10036460D02*
X13427563Y-10026936D01*
X13427563Y-10026936D02*
X13418039Y-10007889D01*
X13418039Y-10007889D02*
X13418039Y-9950746D01*
X13418039Y-9950746D02*
X13427563Y-9931698D01*
X13427563Y-9931698D02*
X13437087Y-9922174D01*
X13437087Y-9922174D02*
X13456134Y-9912650D01*
X13456134Y-9912650D02*
X13484706Y-9912650D01*
X13484706Y-9912650D02*
X13503753Y-9922174D01*
X13503753Y-9922174D02*
X13513277Y-9931698D01*
X13513277Y-9931698D02*
X13522801Y-9950746D01*
X13522801Y-9950746D02*
X13522801Y-10007889D01*
X13522801Y-10007889D02*
X13513277Y-10026936D01*
X13513277Y-10026936D02*
X13503753Y-10036460D01*
X13503753Y-10036460D02*
X13484706Y-10045984D01*
X13484706Y-10045984D02*
X13456134Y-10045984D01*
X13637087Y-10045984D02*
X13618039Y-10036460D01*
X13618039Y-10036460D02*
X13608515Y-10017412D01*
X13608515Y-10017412D02*
X13608515Y-9845984D01*
X13789468Y-10036460D02*
X13770420Y-10045984D01*
X13770420Y-10045984D02*
X13732325Y-10045984D01*
X13732325Y-10045984D02*
X13713277Y-10036460D01*
X13713277Y-10036460D02*
X13703753Y-10017412D01*
X13703753Y-10017412D02*
X13703753Y-9941222D01*
X13703753Y-9941222D02*
X13713277Y-9922174D01*
X13713277Y-9922174D02*
X13732325Y-9912650D01*
X13732325Y-9912650D02*
X13770420Y-9912650D01*
X13770420Y-9912650D02*
X13789468Y-9922174D01*
X13789468Y-9922174D02*
X13798991Y-9941222D01*
X13798991Y-9941222D02*
X13798991Y-9960270D01*
X13798991Y-9960270D02*
X13703753Y-9979317D01*
X13875182Y-10036460D02*
X13894230Y-10045984D01*
X13894230Y-10045984D02*
X13932325Y-10045984D01*
X13932325Y-10045984D02*
X13951372Y-10036460D01*
X13951372Y-10036460D02*
X13960896Y-10017412D01*
X13960896Y-10017412D02*
X13960896Y-10007889D01*
X13960896Y-10007889D02*
X13951372Y-9988841D01*
X13951372Y-9988841D02*
X13932325Y-9979317D01*
X13932325Y-9979317D02*
X13903753Y-9979317D01*
X13903753Y-9979317D02*
X13884706Y-9969793D01*
X13884706Y-9969793D02*
X13875182Y-9950746D01*
X13875182Y-9950746D02*
X13875182Y-9941222D01*
X13875182Y-9941222D02*
X13884706Y-9922174D01*
X13884706Y-9922174D02*
X13903753Y-9912650D01*
X13903753Y-9912650D02*
X13932325Y-9912650D01*
X13932325Y-9912650D02*
X13951372Y-9922174D01*
X14027563Y-10122174D02*
X14037087Y-10112650D01*
X14037087Y-10112650D02*
X14056134Y-10084079D01*
X14056134Y-10084079D02*
X14065658Y-10065031D01*
X14065658Y-10065031D02*
X14075182Y-10036460D01*
X14075182Y-10036460D02*
X14084706Y-9988841D01*
X14084706Y-9988841D02*
X14084706Y-9950746D01*
X14084706Y-9950746D02*
X14075182Y-9903127D01*
X14075182Y-9903127D02*
X14065658Y-9874555D01*
X14065658Y-9874555D02*
X14056134Y-9855508D01*
X14056134Y-9855508D02*
X14037087Y-9826936D01*
X14037087Y-9826936D02*
X14027563Y-9817412D01*
D14*
X9199000Y-10272000D02*
X9252500Y-10218500D01*
X9199000Y-10165000D01*
X9145500Y-10218500D01*
X9199000Y-10272000D01*
D11*
X9618039Y-10309984D02*
X9503753Y-10309984D01*
X9560896Y-10309984D02*
X9560896Y-10109984D01*
X9560896Y-10109984D02*
X9541848Y-10138555D01*
X9541848Y-10138555D02*
X9522801Y-10157603D01*
X9522801Y-10157603D02*
X9503753Y-10167127D01*
X9703753Y-10290936D02*
X9713277Y-10300460D01*
X9713277Y-10300460D02*
X9703753Y-10309984D01*
X9703753Y-10309984D02*
X9694229Y-10300460D01*
X9694229Y-10300460D02*
X9703753Y-10290936D01*
X9703753Y-10290936D02*
X9703753Y-10309984D01*
X9837086Y-10109984D02*
X9856134Y-10109984D01*
X9856134Y-10109984D02*
X9875182Y-10119508D01*
X9875182Y-10119508D02*
X9884705Y-10129031D01*
X9884705Y-10129031D02*
X9894229Y-10148079D01*
X9894229Y-10148079D02*
X9903753Y-10186174D01*
X9903753Y-10186174D02*
X9903753Y-10233793D01*
X9903753Y-10233793D02*
X9894229Y-10271889D01*
X9894229Y-10271889D02*
X9884705Y-10290936D01*
X9884705Y-10290936D02*
X9875182Y-10300460D01*
X9875182Y-10300460D02*
X9856134Y-10309984D01*
X9856134Y-10309984D02*
X9837086Y-10309984D01*
X9837086Y-10309984D02*
X9818039Y-10300460D01*
X9818039Y-10300460D02*
X9808515Y-10290936D01*
X9808515Y-10290936D02*
X9798991Y-10271889D01*
X9798991Y-10271889D02*
X9789467Y-10233793D01*
X9789467Y-10233793D02*
X9789467Y-10186174D01*
X9789467Y-10186174D02*
X9798991Y-10148079D01*
X9798991Y-10148079D02*
X9808515Y-10129031D01*
X9808515Y-10129031D02*
X9818039Y-10119508D01*
X9818039Y-10119508D02*
X9837086Y-10109984D01*
X9970420Y-10109984D02*
X10103753Y-10109984D01*
X10103753Y-10109984D02*
X10018039Y-10309984D01*
X10218039Y-10109984D02*
X10237086Y-10109984D01*
X10237086Y-10109984D02*
X10256134Y-10119508D01*
X10256134Y-10119508D02*
X10265658Y-10129031D01*
X10265658Y-10129031D02*
X10275182Y-10148079D01*
X10275182Y-10148079D02*
X10284705Y-10186174D01*
X10284705Y-10186174D02*
X10284705Y-10233793D01*
X10284705Y-10233793D02*
X10275182Y-10271889D01*
X10275182Y-10271889D02*
X10265658Y-10290936D01*
X10265658Y-10290936D02*
X10256134Y-10300460D01*
X10256134Y-10300460D02*
X10237086Y-10309984D01*
X10237086Y-10309984D02*
X10218039Y-10309984D01*
X10218039Y-10309984D02*
X10198991Y-10300460D01*
X10198991Y-10300460D02*
X10189467Y-10290936D01*
X10189467Y-10290936D02*
X10179944Y-10271889D01*
X10179944Y-10271889D02*
X10170420Y-10233793D01*
X10170420Y-10233793D02*
X10170420Y-10186174D01*
X10170420Y-10186174D02*
X10179944Y-10148079D01*
X10179944Y-10148079D02*
X10189467Y-10129031D01*
X10189467Y-10129031D02*
X10198991Y-10119508D01*
X10198991Y-10119508D02*
X10218039Y-10109984D01*
X10370420Y-10309984D02*
X10370420Y-10176650D01*
X10370420Y-10195698D02*
X10379944Y-10186174D01*
X10379944Y-10186174D02*
X10398991Y-10176650D01*
X10398991Y-10176650D02*
X10427563Y-10176650D01*
X10427563Y-10176650D02*
X10446610Y-10186174D01*
X10446610Y-10186174D02*
X10456134Y-10205222D01*
X10456134Y-10205222D02*
X10456134Y-10309984D01*
X10456134Y-10205222D02*
X10465658Y-10186174D01*
X10465658Y-10186174D02*
X10484705Y-10176650D01*
X10484705Y-10176650D02*
X10513277Y-10176650D01*
X10513277Y-10176650D02*
X10532325Y-10186174D01*
X10532325Y-10186174D02*
X10541848Y-10205222D01*
X10541848Y-10205222D02*
X10541848Y-10309984D01*
X10637086Y-10309984D02*
X10637086Y-10176650D01*
X10637086Y-10195698D02*
X10646610Y-10186174D01*
X10646610Y-10186174D02*
X10665658Y-10176650D01*
X10665658Y-10176650D02*
X10694229Y-10176650D01*
X10694229Y-10176650D02*
X10713277Y-10186174D01*
X10713277Y-10186174D02*
X10722801Y-10205222D01*
X10722801Y-10205222D02*
X10722801Y-10309984D01*
X10722801Y-10205222D02*
X10732325Y-10186174D01*
X10732325Y-10186174D02*
X10751372Y-10176650D01*
X10751372Y-10176650D02*
X10779944Y-10176650D01*
X10779944Y-10176650D02*
X10798991Y-10186174D01*
X10798991Y-10186174D02*
X10808515Y-10205222D01*
X10808515Y-10205222D02*
X10808515Y-10309984D01*
X11198991Y-10100460D02*
X11027563Y-10357603D01*
X11456134Y-10109984D02*
X11475182Y-10109984D01*
X11475182Y-10109984D02*
X11494229Y-10119508D01*
X11494229Y-10119508D02*
X11503753Y-10129031D01*
X11503753Y-10129031D02*
X11513277Y-10148079D01*
X11513277Y-10148079D02*
X11522801Y-10186174D01*
X11522801Y-10186174D02*
X11522801Y-10233793D01*
X11522801Y-10233793D02*
X11513277Y-10271889D01*
X11513277Y-10271889D02*
X11503753Y-10290936D01*
X11503753Y-10290936D02*
X11494229Y-10300460D01*
X11494229Y-10300460D02*
X11475182Y-10309984D01*
X11475182Y-10309984D02*
X11456134Y-10309984D01*
X11456134Y-10309984D02*
X11437086Y-10300460D01*
X11437086Y-10300460D02*
X11427563Y-10290936D01*
X11427563Y-10290936D02*
X11418039Y-10271889D01*
X11418039Y-10271889D02*
X11408515Y-10233793D01*
X11408515Y-10233793D02*
X11408515Y-10186174D01*
X11408515Y-10186174D02*
X11418039Y-10148079D01*
X11418039Y-10148079D02*
X11427563Y-10129031D01*
X11427563Y-10129031D02*
X11437086Y-10119508D01*
X11437086Y-10119508D02*
X11456134Y-10109984D01*
X11608515Y-10290936D02*
X11618039Y-10300460D01*
X11618039Y-10300460D02*
X11608515Y-10309984D01*
X11608515Y-10309984D02*
X11598991Y-10300460D01*
X11598991Y-10300460D02*
X11608515Y-10290936D01*
X11608515Y-10290936D02*
X11608515Y-10309984D01*
X11741848Y-10109984D02*
X11760896Y-10109984D01*
X11760896Y-10109984D02*
X11779944Y-10119508D01*
X11779944Y-10119508D02*
X11789467Y-10129031D01*
X11789467Y-10129031D02*
X11798991Y-10148079D01*
X11798991Y-10148079D02*
X11808515Y-10186174D01*
X11808515Y-10186174D02*
X11808515Y-10233793D01*
X11808515Y-10233793D02*
X11798991Y-10271889D01*
X11798991Y-10271889D02*
X11789467Y-10290936D01*
X11789467Y-10290936D02*
X11779944Y-10300460D01*
X11779944Y-10300460D02*
X11760896Y-10309984D01*
X11760896Y-10309984D02*
X11741848Y-10309984D01*
X11741848Y-10309984D02*
X11722801Y-10300460D01*
X11722801Y-10300460D02*
X11713277Y-10290936D01*
X11713277Y-10290936D02*
X11703753Y-10271889D01*
X11703753Y-10271889D02*
X11694229Y-10233793D01*
X11694229Y-10233793D02*
X11694229Y-10186174D01*
X11694229Y-10186174D02*
X11703753Y-10148079D01*
X11703753Y-10148079D02*
X11713277Y-10129031D01*
X11713277Y-10129031D02*
X11722801Y-10119508D01*
X11722801Y-10119508D02*
X11741848Y-10109984D01*
X11979944Y-10176650D02*
X11979944Y-10309984D01*
X11932325Y-10100460D02*
X11884706Y-10243317D01*
X11884706Y-10243317D02*
X12008515Y-10243317D01*
X12075182Y-10129031D02*
X12084706Y-10119508D01*
X12084706Y-10119508D02*
X12103753Y-10109984D01*
X12103753Y-10109984D02*
X12151372Y-10109984D01*
X12151372Y-10109984D02*
X12170420Y-10119508D01*
X12170420Y-10119508D02*
X12179944Y-10129031D01*
X12179944Y-10129031D02*
X12189467Y-10148079D01*
X12189467Y-10148079D02*
X12189467Y-10167127D01*
X12189467Y-10167127D02*
X12179944Y-10195698D01*
X12179944Y-10195698D02*
X12065658Y-10309984D01*
X12065658Y-10309984D02*
X12189467Y-10309984D01*
X12379944Y-10309984D02*
X12265658Y-10309984D01*
X12322801Y-10309984D02*
X12322801Y-10109984D01*
X12322801Y-10109984D02*
X12303753Y-10138555D01*
X12303753Y-10138555D02*
X12284706Y-10157603D01*
X12284706Y-10157603D02*
X12265658Y-10167127D01*
X12456134Y-10109984D02*
X12456134Y-10148079D01*
X12532325Y-10109984D02*
X12532325Y-10148079D01*
X12827563Y-10386174D02*
X12818039Y-10376650D01*
X12818039Y-10376650D02*
X12798991Y-10348079D01*
X12798991Y-10348079D02*
X12789468Y-10329031D01*
X12789468Y-10329031D02*
X12779944Y-10300460D01*
X12779944Y-10300460D02*
X12770420Y-10252841D01*
X12770420Y-10252841D02*
X12770420Y-10214746D01*
X12770420Y-10214746D02*
X12779944Y-10167127D01*
X12779944Y-10167127D02*
X12789468Y-10138555D01*
X12789468Y-10138555D02*
X12798991Y-10119508D01*
X12798991Y-10119508D02*
X12818039Y-10090936D01*
X12818039Y-10090936D02*
X12827563Y-10081412D01*
X12989468Y-10176650D02*
X12989468Y-10309984D01*
X12941848Y-10100460D02*
X12894229Y-10243317D01*
X12894229Y-10243317D02*
X13018039Y-10243317D01*
X13246610Y-10309984D02*
X13246610Y-10109984D01*
X13332325Y-10309984D02*
X13332325Y-10205222D01*
X13332325Y-10205222D02*
X13322801Y-10186174D01*
X13322801Y-10186174D02*
X13303753Y-10176650D01*
X13303753Y-10176650D02*
X13275182Y-10176650D01*
X13275182Y-10176650D02*
X13256134Y-10186174D01*
X13256134Y-10186174D02*
X13246610Y-10195698D01*
X13456134Y-10309984D02*
X13437087Y-10300460D01*
X13437087Y-10300460D02*
X13427563Y-10290936D01*
X13427563Y-10290936D02*
X13418039Y-10271889D01*
X13418039Y-10271889D02*
X13418039Y-10214746D01*
X13418039Y-10214746D02*
X13427563Y-10195698D01*
X13427563Y-10195698D02*
X13437087Y-10186174D01*
X13437087Y-10186174D02*
X13456134Y-10176650D01*
X13456134Y-10176650D02*
X13484706Y-10176650D01*
X13484706Y-10176650D02*
X13503753Y-10186174D01*
X13503753Y-10186174D02*
X13513277Y-10195698D01*
X13513277Y-10195698D02*
X13522801Y-10214746D01*
X13522801Y-10214746D02*
X13522801Y-10271889D01*
X13522801Y-10271889D02*
X13513277Y-10290936D01*
X13513277Y-10290936D02*
X13503753Y-10300460D01*
X13503753Y-10300460D02*
X13484706Y-10309984D01*
X13484706Y-10309984D02*
X13456134Y-10309984D01*
X13637087Y-10309984D02*
X13618039Y-10300460D01*
X13618039Y-10300460D02*
X13608515Y-10281412D01*
X13608515Y-10281412D02*
X13608515Y-10109984D01*
X13789468Y-10300460D02*
X13770420Y-10309984D01*
X13770420Y-10309984D02*
X13732325Y-10309984D01*
X13732325Y-10309984D02*
X13713277Y-10300460D01*
X13713277Y-10300460D02*
X13703753Y-10281412D01*
X13703753Y-10281412D02*
X13703753Y-10205222D01*
X13703753Y-10205222D02*
X13713277Y-10186174D01*
X13713277Y-10186174D02*
X13732325Y-10176650D01*
X13732325Y-10176650D02*
X13770420Y-10176650D01*
X13770420Y-10176650D02*
X13789468Y-10186174D01*
X13789468Y-10186174D02*
X13798991Y-10205222D01*
X13798991Y-10205222D02*
X13798991Y-10224270D01*
X13798991Y-10224270D02*
X13703753Y-10243317D01*
X13875182Y-10300460D02*
X13894230Y-10309984D01*
X13894230Y-10309984D02*
X13932325Y-10309984D01*
X13932325Y-10309984D02*
X13951372Y-10300460D01*
X13951372Y-10300460D02*
X13960896Y-10281412D01*
X13960896Y-10281412D02*
X13960896Y-10271889D01*
X13960896Y-10271889D02*
X13951372Y-10252841D01*
X13951372Y-10252841D02*
X13932325Y-10243317D01*
X13932325Y-10243317D02*
X13903753Y-10243317D01*
X13903753Y-10243317D02*
X13884706Y-10233793D01*
X13884706Y-10233793D02*
X13875182Y-10214746D01*
X13875182Y-10214746D02*
X13875182Y-10205222D01*
X13875182Y-10205222D02*
X13884706Y-10186174D01*
X13884706Y-10186174D02*
X13903753Y-10176650D01*
X13903753Y-10176650D02*
X13932325Y-10176650D01*
X13932325Y-10176650D02*
X13951372Y-10186174D01*
X14027563Y-10386174D02*
X14037087Y-10376650D01*
X14037087Y-10376650D02*
X14056134Y-10348079D01*
X14056134Y-10348079D02*
X14065658Y-10329031D01*
X14065658Y-10329031D02*
X14075182Y-10300460D01*
X14075182Y-10300460D02*
X14084706Y-10252841D01*
X14084706Y-10252841D02*
X14084706Y-10214746D01*
X14084706Y-10214746D02*
X14075182Y-10167127D01*
X14075182Y-10167127D02*
X14065658Y-10138555D01*
X14065658Y-10138555D02*
X14056134Y-10119508D01*
X14056134Y-10119508D02*
X14037087Y-10090936D01*
X14037087Y-10090936D02*
X14027563Y-10081412D01*
M02*
