%TF.GenerationSoftware,KiCad,Pcbnew,8.0.6*%
%TF.CreationDate,2025-01-29T18:48:29-08:00*%
%TF.ProjectId,SMV H and S Board,534d5620-4820-4616-9e64-205320426f61,rev?*%
%TF.SameCoordinates,Original*%
%TF.FileFunction,Soldermask,Bot*%
%TF.FilePolarity,Negative*%
%FSLAX46Y46*%
G04 Gerber Fmt 4.6, Leading zero omitted, Abs format (unit mm)*
G04 Created by KiCad (PCBNEW 8.0.6) date 2025-01-29 18:48:29*
%MOMM*%
%LPD*%
G01*
G04 APERTURE LIST*
%ADD10C,3.200000*%
%ADD11C,1.700000*%
%ADD12R,1.150000X1.150000*%
%ADD13C,1.150000*%
%ADD14C,3.048000*%
%ADD15C,1.574800*%
%ADD16C,3.050000*%
%ADD17C,1.605000*%
G04 APERTURE END LIST*
D10*
%TO.C,REF\u002A\u002A*%
X96275000Y-81425000D03*
%TD*%
D11*
%TO.C,RP1*%
X160160000Y-41340000D03*
X160160000Y-43880000D03*
X160160000Y-46420000D03*
X160160000Y-48960000D03*
X160160000Y-51500000D03*
X160160000Y-54040000D03*
X160160000Y-56580000D03*
X160160000Y-59120000D03*
X160160000Y-61660000D03*
X160160000Y-64200000D03*
X160160000Y-66740000D03*
X160160000Y-69280000D03*
X139776500Y-69280000D03*
X139776500Y-66740000D03*
X139776500Y-64200000D03*
X139776500Y-61660000D03*
X139776500Y-59120000D03*
X139776500Y-56580000D03*
X139776500Y-54040000D03*
X139776500Y-51500000D03*
X139776500Y-48960000D03*
X139776500Y-46420000D03*
X139776500Y-43880000D03*
X139776500Y-41340000D03*
X139776500Y-38800000D03*
X139776500Y-36260000D03*
X139776500Y-33720000D03*
X139776500Y-31180000D03*
X153690500Y-71820000D03*
X150190500Y-71820000D03*
X146690500Y-71820000D03*
%TD*%
D12*
%TO.C,Brake Pedal*%
X96950002Y-43504010D03*
D13*
X96950002Y-46004010D03*
X96950002Y-48504010D03*
%TD*%
D12*
%TO.C,CAN*%
X170200000Y-79100000D03*
D13*
X170200000Y-76600000D03*
X170200000Y-74100000D03*
%TD*%
D12*
%TO.C,Gas Pedal*%
X96972749Y-57025002D03*
D13*
X96972749Y-59525002D03*
X96972749Y-62025002D03*
%TD*%
D10*
%TO.C,REF\u002A\u002A*%
X96275000Y-25900000D03*
%TD*%
D14*
%TO.C,Horn*%
X186900000Y-63000000D03*
D15*
X182579998Y-63000000D03*
X179579999Y-63000000D03*
%TD*%
D16*
%TO.C,Wipers*%
X187000000Y-44500000D03*
D17*
X182680000Y-43000000D03*
X182680000Y-46000000D03*
X179680000Y-43000000D03*
X179680000Y-46000000D03*
%TD*%
D10*
%TO.C,REF\u002A\u002A*%
X191125000Y-25875000D03*
%TD*%
D14*
%TO.C,Power*%
X183500000Y-28669299D03*
D15*
X183500000Y-32989301D03*
X183500000Y-35989300D03*
%TD*%
D12*
%TO.C,CAN*%
X123649999Y-79070990D03*
D13*
X123649999Y-76570990D03*
X123649999Y-74070990D03*
%TD*%
D10*
%TO.C,REF\u002A\u002A*%
X191125000Y-81425000D03*
%TD*%
D14*
%TO.C,Power*%
X183500000Y-78500000D03*
D15*
X183500000Y-74179998D03*
X183500000Y-71179999D03*
%TD*%
M02*
