M48
; DRILL file {KiCad 8.0.6} date 2025-01-29T18:58:11-0800
; FORMAT={-:-/ absolute / inch / decimal}
; #@! TF.CreationDate,2025-01-29T18:58:11-08:00
; #@! TF.GenerationSoftware,Kicad,Pcbnew,8.0.6
; #@! TF.FileFunction,Plated,1,2,PTH
FMAT,2
INCH
; #@! TA.AperFunction,Plated,PTH,ViaDrill
T1C0.0118
; #@! TA.AperFunction,Plated,PTH,ComponentDrill
T2C0.0315
; #@! TA.AperFunction,Plated,PTH,ComponentDrill
T3C0.0394
; #@! TA.AperFunction,Plated,PTH,ComponentDrill
T4C0.0420
; #@! TA.AperFunction,Plated,PTH,ComponentDrill
T5C0.0421
%
G90
G05
T1
X3.7598Y-2.7559
X4.1339Y-0.9843
X4.1614Y-1.6478
X4.2323Y-2.7559
X4.2323Y-3.248
X4.2953Y-1.8543
X4.3504Y-1.7717
X4.3504Y-1.953
X4.4921Y-1.9409
X4.5472Y-2.1693
X4.5748Y-1.6417
X4.6969Y-2.2638
X4.7441Y-0.9843
X4.7441Y-1.7205
X4.7442Y-2.0698
X4.872Y-2.7559
X4.872Y-3.248
X4.9213Y-1.8199
X4.9213Y-1.8701
X4.9213Y-2.0
X4.9319Y-2.1484
X4.9529Y-1.6378
X5.0354Y-1.8189
X5.1673Y-0.9843
X5.5118Y-3.248
X5.6841Y-0.9843
X5.7087Y-1.5748
X5.7087Y-2.0669
X5.7087Y-2.5591
X5.8543Y-2.8228
X5.9724Y-2.8228
X6.1516Y-3.248
X6.2008Y-0.9843
X6.2008Y-1.5748
X6.2008Y-2.0669
X6.2008Y-2.5591
X6.5157Y-2.4409
X6.5551Y-1.2795
X6.5551Y-1.5748
X6.5591Y-2.6969
X6.5748Y-1.4606
X6.5984Y-1.8819
X6.5984Y-1.9331
X6.6339Y-1.8819
X6.6339Y-1.9331
X6.6496Y-2.6732
X6.6693Y-1.9331
X6.67Y-1.881
X6.6713Y-1.6358
X6.7067Y-1.1447
X6.7283Y-2.2205
X6.7323Y-1.7717
X6.7874Y-2.2756
X6.7884Y-2.3258
X6.7913Y-3.248
X6.8622Y-2.2756
X6.8622Y-2.3268
X6.9291Y-1.7126
X6.9331Y-2.2756
X6.9331Y-2.3268
T2
X3.8169Y-1.7128
X3.8169Y-1.8112
X3.8169Y-1.9096
X3.8178Y-2.2451
X3.8178Y-2.3435
X3.8178Y-2.4419
X4.8681Y-2.9162
X4.8681Y-3.0146
X4.8681Y-3.113
X6.7008Y-2.9173
X6.7008Y-3.0157
X6.7008Y-3.1142
T3
X5.503Y-1.2276
X5.503Y-1.3276
X5.503Y-1.4276
X5.503Y-1.5276
X5.503Y-1.6276
X5.503Y-1.7276
X5.503Y-1.8276
X5.503Y-1.9276
X5.503Y-2.0276
X5.503Y-2.1276
X5.503Y-2.2276
X5.503Y-2.3276
X5.503Y-2.4276
X5.503Y-2.5276
X5.503Y-2.6276
X5.503Y-2.7276
X5.7752Y-2.8276
X5.913Y-2.8276
X6.0508Y-2.8276
X6.3055Y-1.6276
X6.3055Y-1.7276
X6.3055Y-1.8276
X6.3055Y-1.9276
X6.3055Y-2.0276
X6.3055Y-2.1276
X6.3055Y-2.2276
X6.3055Y-2.3276
X6.3055Y-2.4276
X6.3055Y-2.5276
X6.3055Y-2.6276
X6.3055Y-2.7276
T4
X7.0701Y-2.4803
X7.1882Y-2.4803
X7.2244Y-1.2988
X7.2244Y-1.4169
X7.2244Y-2.8024
X7.2244Y-2.9205
T5
X7.074Y-1.6929
X7.074Y-1.811
X7.1921Y-1.6929
X7.1921Y-1.811
M30
