%TF.GenerationSoftware,KiCad,Pcbnew,8.0.6*%
%TF.CreationDate,2025-01-29T18:58:57-08:00*%
%TF.ProjectId,SMV H and S Board,534d5620-4820-4616-9e64-205320426f61,rev?*%
%TF.SameCoordinates,Original*%
%TF.FileFunction,Drillmap*%
%TF.FilePolarity,Positive*%
%FSLAX45Y45*%
G04 Gerber Fmt 4.5, Leading zero omitted, Abs format (unit mm)*
G04 Created by KiCad (PCBNEW 8.0.6) date 2025-01-29 18:58:57*
%MOMM*%
%LPD*%
G01*
G04 APERTURE LIST*
%ADD10C,0.050000*%
%ADD11C,0.200000*%
%ADD12C,0.304800*%
%ADD13C,0.305000*%
%ADD14C,0.320000*%
G04 APERTURE END LIST*
D10*
X19482500Y-8520000D02*
X9255000Y-8520000D01*
X19482500Y-2220000D02*
X19482500Y-8520000D01*
X9255000Y-2220000D02*
X19482500Y-2220000D01*
X9255000Y-8520000D02*
X9255000Y-2220000D01*
D11*
D12*
X18197600Y-2714530D02*
X18502400Y-3019330D01*
X18502400Y-2714530D02*
X18197600Y-3019330D01*
X18197600Y-7697600D02*
X18502400Y-8002400D01*
X18502400Y-7697600D02*
X18197600Y-8002400D01*
X18537600Y-6147600D02*
X18842400Y-6452400D01*
X18842400Y-6147600D02*
X18537600Y-6452400D01*
D13*
X18852500Y-4450000D02*
G75*
G02*
X18547500Y-4450000I-152500J0D01*
G01*
X18547500Y-4450000D02*
G75*
G02*
X18852500Y-4450000I152500J0D01*
G01*
D14*
X9627500Y-2430000D02*
X9627500Y-2750000D01*
X9467500Y-2590000D02*
X9787500Y-2590000D01*
X9627500Y-7982500D02*
X9627500Y-8302500D01*
X9467500Y-8142500D02*
X9787500Y-8142500D01*
X19112500Y-2427500D02*
X19112500Y-2747500D01*
X18952500Y-2587500D02*
X19272500Y-2587500D01*
X19112500Y-7982500D02*
X19112500Y-8302500D01*
X18952500Y-8142500D02*
X19272500Y-8142500D01*
D11*
X9513277Y-8833984D02*
X9513277Y-8633984D01*
X9513277Y-8633984D02*
X9560896Y-8633984D01*
X9560896Y-8633984D02*
X9589467Y-8643508D01*
X9589467Y-8643508D02*
X9608515Y-8662555D01*
X9608515Y-8662555D02*
X9618039Y-8681603D01*
X9618039Y-8681603D02*
X9627563Y-8719698D01*
X9627563Y-8719698D02*
X9627563Y-8748270D01*
X9627563Y-8748270D02*
X9618039Y-8786365D01*
X9618039Y-8786365D02*
X9608515Y-8805412D01*
X9608515Y-8805412D02*
X9589467Y-8824460D01*
X9589467Y-8824460D02*
X9560896Y-8833984D01*
X9560896Y-8833984D02*
X9513277Y-8833984D01*
X9713277Y-8833984D02*
X9713277Y-8700650D01*
X9713277Y-8738746D02*
X9722801Y-8719698D01*
X9722801Y-8719698D02*
X9732324Y-8710174D01*
X9732324Y-8710174D02*
X9751372Y-8700650D01*
X9751372Y-8700650D02*
X9770420Y-8700650D01*
X9837086Y-8833984D02*
X9837086Y-8700650D01*
X9837086Y-8633984D02*
X9827563Y-8643508D01*
X9827563Y-8643508D02*
X9837086Y-8653031D01*
X9837086Y-8653031D02*
X9846610Y-8643508D01*
X9846610Y-8643508D02*
X9837086Y-8633984D01*
X9837086Y-8633984D02*
X9837086Y-8653031D01*
X9960896Y-8833984D02*
X9941848Y-8824460D01*
X9941848Y-8824460D02*
X9932324Y-8805412D01*
X9932324Y-8805412D02*
X9932324Y-8633984D01*
X10065658Y-8833984D02*
X10046610Y-8824460D01*
X10046610Y-8824460D02*
X10037086Y-8805412D01*
X10037086Y-8805412D02*
X10037086Y-8633984D01*
X10294229Y-8833984D02*
X10294229Y-8633984D01*
X10294229Y-8633984D02*
X10360896Y-8776841D01*
X10360896Y-8776841D02*
X10427563Y-8633984D01*
X10427563Y-8633984D02*
X10427563Y-8833984D01*
X10608515Y-8833984D02*
X10608515Y-8729222D01*
X10608515Y-8729222D02*
X10598991Y-8710174D01*
X10598991Y-8710174D02*
X10579944Y-8700650D01*
X10579944Y-8700650D02*
X10541848Y-8700650D01*
X10541848Y-8700650D02*
X10522801Y-8710174D01*
X10608515Y-8824460D02*
X10589467Y-8833984D01*
X10589467Y-8833984D02*
X10541848Y-8833984D01*
X10541848Y-8833984D02*
X10522801Y-8824460D01*
X10522801Y-8824460D02*
X10513277Y-8805412D01*
X10513277Y-8805412D02*
X10513277Y-8786365D01*
X10513277Y-8786365D02*
X10522801Y-8767317D01*
X10522801Y-8767317D02*
X10541848Y-8757793D01*
X10541848Y-8757793D02*
X10589467Y-8757793D01*
X10589467Y-8757793D02*
X10608515Y-8748270D01*
X10703753Y-8700650D02*
X10703753Y-8900650D01*
X10703753Y-8710174D02*
X10722801Y-8700650D01*
X10722801Y-8700650D02*
X10760896Y-8700650D01*
X10760896Y-8700650D02*
X10779944Y-8710174D01*
X10779944Y-8710174D02*
X10789467Y-8719698D01*
X10789467Y-8719698D02*
X10798991Y-8738746D01*
X10798991Y-8738746D02*
X10798991Y-8795889D01*
X10798991Y-8795889D02*
X10789467Y-8814936D01*
X10789467Y-8814936D02*
X10779944Y-8824460D01*
X10779944Y-8824460D02*
X10760896Y-8833984D01*
X10760896Y-8833984D02*
X10722801Y-8833984D01*
X10722801Y-8833984D02*
X10703753Y-8824460D01*
X10884705Y-8814936D02*
X10894229Y-8824460D01*
X10894229Y-8824460D02*
X10884705Y-8833984D01*
X10884705Y-8833984D02*
X10875182Y-8824460D01*
X10875182Y-8824460D02*
X10884705Y-8814936D01*
X10884705Y-8814936D02*
X10884705Y-8833984D01*
X10884705Y-8710174D02*
X10894229Y-8719698D01*
X10894229Y-8719698D02*
X10884705Y-8729222D01*
X10884705Y-8729222D02*
X10875182Y-8719698D01*
X10875182Y-8719698D02*
X10884705Y-8710174D01*
X10884705Y-8710174D02*
X10884705Y-8729222D01*
X9052500Y-9062500D02*
X9252500Y-9262500D01*
X9252500Y-9062500D02*
X9052500Y-9262500D01*
X9494229Y-9053984D02*
X9618039Y-9053984D01*
X9618039Y-9053984D02*
X9551372Y-9130174D01*
X9551372Y-9130174D02*
X9579944Y-9130174D01*
X9579944Y-9130174D02*
X9598991Y-9139698D01*
X9598991Y-9139698D02*
X9608515Y-9149222D01*
X9608515Y-9149222D02*
X9618039Y-9168270D01*
X9618039Y-9168270D02*
X9618039Y-9215889D01*
X9618039Y-9215889D02*
X9608515Y-9234936D01*
X9608515Y-9234936D02*
X9598991Y-9244460D01*
X9598991Y-9244460D02*
X9579944Y-9253984D01*
X9579944Y-9253984D02*
X9522801Y-9253984D01*
X9522801Y-9253984D02*
X9503753Y-9244460D01*
X9503753Y-9244460D02*
X9494229Y-9234936D01*
X9703753Y-9234936D02*
X9713277Y-9244460D01*
X9713277Y-9244460D02*
X9703753Y-9253984D01*
X9703753Y-9253984D02*
X9694229Y-9244460D01*
X9694229Y-9244460D02*
X9703753Y-9234936D01*
X9703753Y-9234936D02*
X9703753Y-9253984D01*
X9837086Y-9053984D02*
X9856134Y-9053984D01*
X9856134Y-9053984D02*
X9875182Y-9063508D01*
X9875182Y-9063508D02*
X9884705Y-9073031D01*
X9884705Y-9073031D02*
X9894229Y-9092079D01*
X9894229Y-9092079D02*
X9903753Y-9130174D01*
X9903753Y-9130174D02*
X9903753Y-9177793D01*
X9903753Y-9177793D02*
X9894229Y-9215889D01*
X9894229Y-9215889D02*
X9884705Y-9234936D01*
X9884705Y-9234936D02*
X9875182Y-9244460D01*
X9875182Y-9244460D02*
X9856134Y-9253984D01*
X9856134Y-9253984D02*
X9837086Y-9253984D01*
X9837086Y-9253984D02*
X9818039Y-9244460D01*
X9818039Y-9244460D02*
X9808515Y-9234936D01*
X9808515Y-9234936D02*
X9798991Y-9215889D01*
X9798991Y-9215889D02*
X9789467Y-9177793D01*
X9789467Y-9177793D02*
X9789467Y-9130174D01*
X9789467Y-9130174D02*
X9798991Y-9092079D01*
X9798991Y-9092079D02*
X9808515Y-9073031D01*
X9808515Y-9073031D02*
X9818039Y-9063508D01*
X9818039Y-9063508D02*
X9837086Y-9053984D01*
X10075182Y-9120650D02*
X10075182Y-9253984D01*
X10027563Y-9044460D02*
X9979944Y-9187317D01*
X9979944Y-9187317D02*
X10103753Y-9187317D01*
X10208515Y-9139698D02*
X10189467Y-9130174D01*
X10189467Y-9130174D02*
X10179944Y-9120650D01*
X10179944Y-9120650D02*
X10170420Y-9101603D01*
X10170420Y-9101603D02*
X10170420Y-9092079D01*
X10170420Y-9092079D02*
X10179944Y-9073031D01*
X10179944Y-9073031D02*
X10189467Y-9063508D01*
X10189467Y-9063508D02*
X10208515Y-9053984D01*
X10208515Y-9053984D02*
X10246610Y-9053984D01*
X10246610Y-9053984D02*
X10265658Y-9063508D01*
X10265658Y-9063508D02*
X10275182Y-9073031D01*
X10275182Y-9073031D02*
X10284705Y-9092079D01*
X10284705Y-9092079D02*
X10284705Y-9101603D01*
X10284705Y-9101603D02*
X10275182Y-9120650D01*
X10275182Y-9120650D02*
X10265658Y-9130174D01*
X10265658Y-9130174D02*
X10246610Y-9139698D01*
X10246610Y-9139698D02*
X10208515Y-9139698D01*
X10208515Y-9139698D02*
X10189467Y-9149222D01*
X10189467Y-9149222D02*
X10179944Y-9158746D01*
X10179944Y-9158746D02*
X10170420Y-9177793D01*
X10170420Y-9177793D02*
X10170420Y-9215889D01*
X10170420Y-9215889D02*
X10179944Y-9234936D01*
X10179944Y-9234936D02*
X10189467Y-9244460D01*
X10189467Y-9244460D02*
X10208515Y-9253984D01*
X10208515Y-9253984D02*
X10246610Y-9253984D01*
X10246610Y-9253984D02*
X10265658Y-9244460D01*
X10265658Y-9244460D02*
X10275182Y-9234936D01*
X10275182Y-9234936D02*
X10284705Y-9215889D01*
X10284705Y-9215889D02*
X10284705Y-9177793D01*
X10284705Y-9177793D02*
X10275182Y-9158746D01*
X10275182Y-9158746D02*
X10265658Y-9149222D01*
X10265658Y-9149222D02*
X10246610Y-9139698D01*
X10370420Y-9253984D02*
X10370420Y-9120650D01*
X10370420Y-9139698D02*
X10379944Y-9130174D01*
X10379944Y-9130174D02*
X10398991Y-9120650D01*
X10398991Y-9120650D02*
X10427563Y-9120650D01*
X10427563Y-9120650D02*
X10446610Y-9130174D01*
X10446610Y-9130174D02*
X10456134Y-9149222D01*
X10456134Y-9149222D02*
X10456134Y-9253984D01*
X10456134Y-9149222D02*
X10465658Y-9130174D01*
X10465658Y-9130174D02*
X10484705Y-9120650D01*
X10484705Y-9120650D02*
X10513277Y-9120650D01*
X10513277Y-9120650D02*
X10532325Y-9130174D01*
X10532325Y-9130174D02*
X10541848Y-9149222D01*
X10541848Y-9149222D02*
X10541848Y-9253984D01*
X10637086Y-9253984D02*
X10637086Y-9120650D01*
X10637086Y-9139698D02*
X10646610Y-9130174D01*
X10646610Y-9130174D02*
X10665658Y-9120650D01*
X10665658Y-9120650D02*
X10694229Y-9120650D01*
X10694229Y-9120650D02*
X10713277Y-9130174D01*
X10713277Y-9130174D02*
X10722801Y-9149222D01*
X10722801Y-9149222D02*
X10722801Y-9253984D01*
X10722801Y-9149222D02*
X10732325Y-9130174D01*
X10732325Y-9130174D02*
X10751372Y-9120650D01*
X10751372Y-9120650D02*
X10779944Y-9120650D01*
X10779944Y-9120650D02*
X10798991Y-9130174D01*
X10798991Y-9130174D02*
X10808515Y-9149222D01*
X10808515Y-9149222D02*
X10808515Y-9253984D01*
X11198991Y-9044460D02*
X11027563Y-9301603D01*
X11456134Y-9053984D02*
X11475182Y-9053984D01*
X11475182Y-9053984D02*
X11494229Y-9063508D01*
X11494229Y-9063508D02*
X11503753Y-9073031D01*
X11503753Y-9073031D02*
X11513277Y-9092079D01*
X11513277Y-9092079D02*
X11522801Y-9130174D01*
X11522801Y-9130174D02*
X11522801Y-9177793D01*
X11522801Y-9177793D02*
X11513277Y-9215889D01*
X11513277Y-9215889D02*
X11503753Y-9234936D01*
X11503753Y-9234936D02*
X11494229Y-9244460D01*
X11494229Y-9244460D02*
X11475182Y-9253984D01*
X11475182Y-9253984D02*
X11456134Y-9253984D01*
X11456134Y-9253984D02*
X11437086Y-9244460D01*
X11437086Y-9244460D02*
X11427563Y-9234936D01*
X11427563Y-9234936D02*
X11418039Y-9215889D01*
X11418039Y-9215889D02*
X11408515Y-9177793D01*
X11408515Y-9177793D02*
X11408515Y-9130174D01*
X11408515Y-9130174D02*
X11418039Y-9092079D01*
X11418039Y-9092079D02*
X11427563Y-9073031D01*
X11427563Y-9073031D02*
X11437086Y-9063508D01*
X11437086Y-9063508D02*
X11456134Y-9053984D01*
X11608515Y-9234936D02*
X11618039Y-9244460D01*
X11618039Y-9244460D02*
X11608515Y-9253984D01*
X11608515Y-9253984D02*
X11598991Y-9244460D01*
X11598991Y-9244460D02*
X11608515Y-9234936D01*
X11608515Y-9234936D02*
X11608515Y-9253984D01*
X11808515Y-9253984D02*
X11694229Y-9253984D01*
X11751372Y-9253984D02*
X11751372Y-9053984D01*
X11751372Y-9053984D02*
X11732325Y-9082555D01*
X11732325Y-9082555D02*
X11713277Y-9101603D01*
X11713277Y-9101603D02*
X11694229Y-9111127D01*
X11884706Y-9073031D02*
X11894229Y-9063508D01*
X11894229Y-9063508D02*
X11913277Y-9053984D01*
X11913277Y-9053984D02*
X11960896Y-9053984D01*
X11960896Y-9053984D02*
X11979944Y-9063508D01*
X11979944Y-9063508D02*
X11989467Y-9073031D01*
X11989467Y-9073031D02*
X11998991Y-9092079D01*
X11998991Y-9092079D02*
X11998991Y-9111127D01*
X11998991Y-9111127D02*
X11989467Y-9139698D01*
X11989467Y-9139698D02*
X11875182Y-9253984D01*
X11875182Y-9253984D02*
X11998991Y-9253984D01*
X12122801Y-9053984D02*
X12141848Y-9053984D01*
X12141848Y-9053984D02*
X12160896Y-9063508D01*
X12160896Y-9063508D02*
X12170420Y-9073031D01*
X12170420Y-9073031D02*
X12179944Y-9092079D01*
X12179944Y-9092079D02*
X12189467Y-9130174D01*
X12189467Y-9130174D02*
X12189467Y-9177793D01*
X12189467Y-9177793D02*
X12179944Y-9215889D01*
X12179944Y-9215889D02*
X12170420Y-9234936D01*
X12170420Y-9234936D02*
X12160896Y-9244460D01*
X12160896Y-9244460D02*
X12141848Y-9253984D01*
X12141848Y-9253984D02*
X12122801Y-9253984D01*
X12122801Y-9253984D02*
X12103753Y-9244460D01*
X12103753Y-9244460D02*
X12094229Y-9234936D01*
X12094229Y-9234936D02*
X12084706Y-9215889D01*
X12084706Y-9215889D02*
X12075182Y-9177793D01*
X12075182Y-9177793D02*
X12075182Y-9130174D01*
X12075182Y-9130174D02*
X12084706Y-9092079D01*
X12084706Y-9092079D02*
X12094229Y-9073031D01*
X12094229Y-9073031D02*
X12103753Y-9063508D01*
X12103753Y-9063508D02*
X12122801Y-9053984D01*
X12313277Y-9053984D02*
X12332325Y-9053984D01*
X12332325Y-9053984D02*
X12351372Y-9063508D01*
X12351372Y-9063508D02*
X12360896Y-9073031D01*
X12360896Y-9073031D02*
X12370420Y-9092079D01*
X12370420Y-9092079D02*
X12379944Y-9130174D01*
X12379944Y-9130174D02*
X12379944Y-9177793D01*
X12379944Y-9177793D02*
X12370420Y-9215889D01*
X12370420Y-9215889D02*
X12360896Y-9234936D01*
X12360896Y-9234936D02*
X12351372Y-9244460D01*
X12351372Y-9244460D02*
X12332325Y-9253984D01*
X12332325Y-9253984D02*
X12313277Y-9253984D01*
X12313277Y-9253984D02*
X12294229Y-9244460D01*
X12294229Y-9244460D02*
X12284706Y-9234936D01*
X12284706Y-9234936D02*
X12275182Y-9215889D01*
X12275182Y-9215889D02*
X12265658Y-9177793D01*
X12265658Y-9177793D02*
X12265658Y-9130174D01*
X12265658Y-9130174D02*
X12275182Y-9092079D01*
X12275182Y-9092079D02*
X12284706Y-9073031D01*
X12284706Y-9073031D02*
X12294229Y-9063508D01*
X12294229Y-9063508D02*
X12313277Y-9053984D01*
X12456134Y-9053984D02*
X12456134Y-9092079D01*
X12532325Y-9053984D02*
X12532325Y-9092079D01*
X12827563Y-9330174D02*
X12818039Y-9320650D01*
X12818039Y-9320650D02*
X12798991Y-9292079D01*
X12798991Y-9292079D02*
X12789468Y-9273031D01*
X12789468Y-9273031D02*
X12779944Y-9244460D01*
X12779944Y-9244460D02*
X12770420Y-9196841D01*
X12770420Y-9196841D02*
X12770420Y-9158746D01*
X12770420Y-9158746D02*
X12779944Y-9111127D01*
X12779944Y-9111127D02*
X12789468Y-9082555D01*
X12789468Y-9082555D02*
X12798991Y-9063508D01*
X12798991Y-9063508D02*
X12818039Y-9034936D01*
X12818039Y-9034936D02*
X12827563Y-9025412D01*
X12884706Y-9053984D02*
X13008515Y-9053984D01*
X13008515Y-9053984D02*
X12941848Y-9130174D01*
X12941848Y-9130174D02*
X12970420Y-9130174D01*
X12970420Y-9130174D02*
X12989468Y-9139698D01*
X12989468Y-9139698D02*
X12998991Y-9149222D01*
X12998991Y-9149222D02*
X13008515Y-9168270D01*
X13008515Y-9168270D02*
X13008515Y-9215889D01*
X13008515Y-9215889D02*
X12998991Y-9234936D01*
X12998991Y-9234936D02*
X12989468Y-9244460D01*
X12989468Y-9244460D02*
X12970420Y-9253984D01*
X12970420Y-9253984D02*
X12913277Y-9253984D01*
X12913277Y-9253984D02*
X12894229Y-9244460D01*
X12894229Y-9244460D02*
X12884706Y-9234936D01*
X13246610Y-9253984D02*
X13246610Y-9053984D01*
X13332325Y-9253984D02*
X13332325Y-9149222D01*
X13332325Y-9149222D02*
X13322801Y-9130174D01*
X13322801Y-9130174D02*
X13303753Y-9120650D01*
X13303753Y-9120650D02*
X13275182Y-9120650D01*
X13275182Y-9120650D02*
X13256134Y-9130174D01*
X13256134Y-9130174D02*
X13246610Y-9139698D01*
X13456134Y-9253984D02*
X13437087Y-9244460D01*
X13437087Y-9244460D02*
X13427563Y-9234936D01*
X13427563Y-9234936D02*
X13418039Y-9215889D01*
X13418039Y-9215889D02*
X13418039Y-9158746D01*
X13418039Y-9158746D02*
X13427563Y-9139698D01*
X13427563Y-9139698D02*
X13437087Y-9130174D01*
X13437087Y-9130174D02*
X13456134Y-9120650D01*
X13456134Y-9120650D02*
X13484706Y-9120650D01*
X13484706Y-9120650D02*
X13503753Y-9130174D01*
X13503753Y-9130174D02*
X13513277Y-9139698D01*
X13513277Y-9139698D02*
X13522801Y-9158746D01*
X13522801Y-9158746D02*
X13522801Y-9215889D01*
X13522801Y-9215889D02*
X13513277Y-9234936D01*
X13513277Y-9234936D02*
X13503753Y-9244460D01*
X13503753Y-9244460D02*
X13484706Y-9253984D01*
X13484706Y-9253984D02*
X13456134Y-9253984D01*
X13637087Y-9253984D02*
X13618039Y-9244460D01*
X13618039Y-9244460D02*
X13608515Y-9225412D01*
X13608515Y-9225412D02*
X13608515Y-9053984D01*
X13789468Y-9244460D02*
X13770420Y-9253984D01*
X13770420Y-9253984D02*
X13732325Y-9253984D01*
X13732325Y-9253984D02*
X13713277Y-9244460D01*
X13713277Y-9244460D02*
X13703753Y-9225412D01*
X13703753Y-9225412D02*
X13703753Y-9149222D01*
X13703753Y-9149222D02*
X13713277Y-9130174D01*
X13713277Y-9130174D02*
X13732325Y-9120650D01*
X13732325Y-9120650D02*
X13770420Y-9120650D01*
X13770420Y-9120650D02*
X13789468Y-9130174D01*
X13789468Y-9130174D02*
X13798991Y-9149222D01*
X13798991Y-9149222D02*
X13798991Y-9168270D01*
X13798991Y-9168270D02*
X13703753Y-9187317D01*
X13875182Y-9244460D02*
X13894230Y-9253984D01*
X13894230Y-9253984D02*
X13932325Y-9253984D01*
X13932325Y-9253984D02*
X13951372Y-9244460D01*
X13951372Y-9244460D02*
X13960896Y-9225412D01*
X13960896Y-9225412D02*
X13960896Y-9215889D01*
X13960896Y-9215889D02*
X13951372Y-9196841D01*
X13951372Y-9196841D02*
X13932325Y-9187317D01*
X13932325Y-9187317D02*
X13903753Y-9187317D01*
X13903753Y-9187317D02*
X13884706Y-9177793D01*
X13884706Y-9177793D02*
X13875182Y-9158746D01*
X13875182Y-9158746D02*
X13875182Y-9149222D01*
X13875182Y-9149222D02*
X13884706Y-9130174D01*
X13884706Y-9130174D02*
X13903753Y-9120650D01*
X13903753Y-9120650D02*
X13932325Y-9120650D01*
X13932325Y-9120650D02*
X13951372Y-9130174D01*
X14027563Y-9330174D02*
X14037087Y-9320650D01*
X14037087Y-9320650D02*
X14056134Y-9292079D01*
X14056134Y-9292079D02*
X14065658Y-9273031D01*
X14065658Y-9273031D02*
X14075182Y-9244460D01*
X14075182Y-9244460D02*
X14084706Y-9196841D01*
X14084706Y-9196841D02*
X14084706Y-9158746D01*
X14084706Y-9158746D02*
X14075182Y-9111127D01*
X14075182Y-9111127D02*
X14065658Y-9082555D01*
X14065658Y-9082555D02*
X14056134Y-9063508D01*
X14056134Y-9063508D02*
X14037087Y-9034936D01*
X14037087Y-9034936D02*
X14027563Y-9025412D01*
X14389468Y-9330174D02*
X14379944Y-9320650D01*
X14379944Y-9320650D02*
X14360896Y-9292079D01*
X14360896Y-9292079D02*
X14351372Y-9273031D01*
X14351372Y-9273031D02*
X14341849Y-9244460D01*
X14341849Y-9244460D02*
X14332325Y-9196841D01*
X14332325Y-9196841D02*
X14332325Y-9158746D01*
X14332325Y-9158746D02*
X14341849Y-9111127D01*
X14341849Y-9111127D02*
X14351372Y-9082555D01*
X14351372Y-9082555D02*
X14360896Y-9063508D01*
X14360896Y-9063508D02*
X14379944Y-9034936D01*
X14379944Y-9034936D02*
X14389468Y-9025412D01*
X14465658Y-9120650D02*
X14465658Y-9253984D01*
X14465658Y-9139698D02*
X14475182Y-9130174D01*
X14475182Y-9130174D02*
X14494230Y-9120650D01*
X14494230Y-9120650D02*
X14522801Y-9120650D01*
X14522801Y-9120650D02*
X14541849Y-9130174D01*
X14541849Y-9130174D02*
X14551372Y-9149222D01*
X14551372Y-9149222D02*
X14551372Y-9253984D01*
X14675182Y-9253984D02*
X14656134Y-9244460D01*
X14656134Y-9244460D02*
X14646611Y-9234936D01*
X14646611Y-9234936D02*
X14637087Y-9215889D01*
X14637087Y-9215889D02*
X14637087Y-9158746D01*
X14637087Y-9158746D02*
X14646611Y-9139698D01*
X14646611Y-9139698D02*
X14656134Y-9130174D01*
X14656134Y-9130174D02*
X14675182Y-9120650D01*
X14675182Y-9120650D02*
X14703753Y-9120650D01*
X14703753Y-9120650D02*
X14722801Y-9130174D01*
X14722801Y-9130174D02*
X14732325Y-9139698D01*
X14732325Y-9139698D02*
X14741849Y-9158746D01*
X14741849Y-9158746D02*
X14741849Y-9215889D01*
X14741849Y-9215889D02*
X14732325Y-9234936D01*
X14732325Y-9234936D02*
X14722801Y-9244460D01*
X14722801Y-9244460D02*
X14703753Y-9253984D01*
X14703753Y-9253984D02*
X14675182Y-9253984D01*
X14798992Y-9120650D02*
X14875182Y-9120650D01*
X14827563Y-9053984D02*
X14827563Y-9225412D01*
X14827563Y-9225412D02*
X14837087Y-9244460D01*
X14837087Y-9244460D02*
X14856134Y-9253984D01*
X14856134Y-9253984D02*
X14875182Y-9253984D01*
X15094230Y-9120650D02*
X15094230Y-9320650D01*
X15094230Y-9130174D02*
X15113277Y-9120650D01*
X15113277Y-9120650D02*
X15151373Y-9120650D01*
X15151373Y-9120650D02*
X15170420Y-9130174D01*
X15170420Y-9130174D02*
X15179944Y-9139698D01*
X15179944Y-9139698D02*
X15189468Y-9158746D01*
X15189468Y-9158746D02*
X15189468Y-9215889D01*
X15189468Y-9215889D02*
X15179944Y-9234936D01*
X15179944Y-9234936D02*
X15170420Y-9244460D01*
X15170420Y-9244460D02*
X15151373Y-9253984D01*
X15151373Y-9253984D02*
X15113277Y-9253984D01*
X15113277Y-9253984D02*
X15094230Y-9244460D01*
X15303753Y-9253984D02*
X15284706Y-9244460D01*
X15284706Y-9244460D02*
X15275182Y-9225412D01*
X15275182Y-9225412D02*
X15275182Y-9053984D01*
X15465658Y-9253984D02*
X15465658Y-9149222D01*
X15465658Y-9149222D02*
X15456134Y-9130174D01*
X15456134Y-9130174D02*
X15437087Y-9120650D01*
X15437087Y-9120650D02*
X15398992Y-9120650D01*
X15398992Y-9120650D02*
X15379944Y-9130174D01*
X15465658Y-9244460D02*
X15446611Y-9253984D01*
X15446611Y-9253984D02*
X15398992Y-9253984D01*
X15398992Y-9253984D02*
X15379944Y-9244460D01*
X15379944Y-9244460D02*
X15370420Y-9225412D01*
X15370420Y-9225412D02*
X15370420Y-9206365D01*
X15370420Y-9206365D02*
X15379944Y-9187317D01*
X15379944Y-9187317D02*
X15398992Y-9177793D01*
X15398992Y-9177793D02*
X15446611Y-9177793D01*
X15446611Y-9177793D02*
X15465658Y-9168270D01*
X15532325Y-9120650D02*
X15608515Y-9120650D01*
X15560896Y-9053984D02*
X15560896Y-9225412D01*
X15560896Y-9225412D02*
X15570420Y-9244460D01*
X15570420Y-9244460D02*
X15589468Y-9253984D01*
X15589468Y-9253984D02*
X15608515Y-9253984D01*
X15751373Y-9244460D02*
X15732325Y-9253984D01*
X15732325Y-9253984D02*
X15694230Y-9253984D01*
X15694230Y-9253984D02*
X15675182Y-9244460D01*
X15675182Y-9244460D02*
X15665658Y-9225412D01*
X15665658Y-9225412D02*
X15665658Y-9149222D01*
X15665658Y-9149222D02*
X15675182Y-9130174D01*
X15675182Y-9130174D02*
X15694230Y-9120650D01*
X15694230Y-9120650D02*
X15732325Y-9120650D01*
X15732325Y-9120650D02*
X15751373Y-9130174D01*
X15751373Y-9130174D02*
X15760896Y-9149222D01*
X15760896Y-9149222D02*
X15760896Y-9168270D01*
X15760896Y-9168270D02*
X15665658Y-9187317D01*
X15932325Y-9253984D02*
X15932325Y-9053984D01*
X15932325Y-9244460D02*
X15913277Y-9253984D01*
X15913277Y-9253984D02*
X15875182Y-9253984D01*
X15875182Y-9253984D02*
X15856134Y-9244460D01*
X15856134Y-9244460D02*
X15846611Y-9234936D01*
X15846611Y-9234936D02*
X15837087Y-9215889D01*
X15837087Y-9215889D02*
X15837087Y-9158746D01*
X15837087Y-9158746D02*
X15846611Y-9139698D01*
X15846611Y-9139698D02*
X15856134Y-9130174D01*
X15856134Y-9130174D02*
X15875182Y-9120650D01*
X15875182Y-9120650D02*
X15913277Y-9120650D01*
X15913277Y-9120650D02*
X15932325Y-9130174D01*
X16008515Y-9330174D02*
X16018039Y-9320650D01*
X16018039Y-9320650D02*
X16037087Y-9292079D01*
X16037087Y-9292079D02*
X16046611Y-9273031D01*
X16046611Y-9273031D02*
X16056134Y-9244460D01*
X16056134Y-9244460D02*
X16065658Y-9196841D01*
X16065658Y-9196841D02*
X16065658Y-9158746D01*
X16065658Y-9158746D02*
X16056134Y-9111127D01*
X16056134Y-9111127D02*
X16046611Y-9082555D01*
X16046611Y-9082555D02*
X16037087Y-9063508D01*
X16037087Y-9063508D02*
X16018039Y-9034936D01*
X16018039Y-9034936D02*
X16008515Y-9025412D01*
X9252500Y-9482500D02*
G75*
G02*
X9052500Y-9482500I-100000J0D01*
G01*
X9052500Y-9482500D02*
G75*
G02*
X9252500Y-9482500I100000J0D01*
G01*
X9494229Y-9373984D02*
X9618039Y-9373984D01*
X9618039Y-9373984D02*
X9551372Y-9450174D01*
X9551372Y-9450174D02*
X9579944Y-9450174D01*
X9579944Y-9450174D02*
X9598991Y-9459698D01*
X9598991Y-9459698D02*
X9608515Y-9469222D01*
X9608515Y-9469222D02*
X9618039Y-9488270D01*
X9618039Y-9488270D02*
X9618039Y-9535889D01*
X9618039Y-9535889D02*
X9608515Y-9554936D01*
X9608515Y-9554936D02*
X9598991Y-9564460D01*
X9598991Y-9564460D02*
X9579944Y-9573984D01*
X9579944Y-9573984D02*
X9522801Y-9573984D01*
X9522801Y-9573984D02*
X9503753Y-9564460D01*
X9503753Y-9564460D02*
X9494229Y-9554936D01*
X9703753Y-9554936D02*
X9713277Y-9564460D01*
X9713277Y-9564460D02*
X9703753Y-9573984D01*
X9703753Y-9573984D02*
X9694229Y-9564460D01*
X9694229Y-9564460D02*
X9703753Y-9554936D01*
X9703753Y-9554936D02*
X9703753Y-9573984D01*
X9837086Y-9373984D02*
X9856134Y-9373984D01*
X9856134Y-9373984D02*
X9875182Y-9383508D01*
X9875182Y-9383508D02*
X9884705Y-9393031D01*
X9884705Y-9393031D02*
X9894229Y-9412079D01*
X9894229Y-9412079D02*
X9903753Y-9450174D01*
X9903753Y-9450174D02*
X9903753Y-9497793D01*
X9903753Y-9497793D02*
X9894229Y-9535889D01*
X9894229Y-9535889D02*
X9884705Y-9554936D01*
X9884705Y-9554936D02*
X9875182Y-9564460D01*
X9875182Y-9564460D02*
X9856134Y-9573984D01*
X9856134Y-9573984D02*
X9837086Y-9573984D01*
X9837086Y-9573984D02*
X9818039Y-9564460D01*
X9818039Y-9564460D02*
X9808515Y-9554936D01*
X9808515Y-9554936D02*
X9798991Y-9535889D01*
X9798991Y-9535889D02*
X9789467Y-9497793D01*
X9789467Y-9497793D02*
X9789467Y-9450174D01*
X9789467Y-9450174D02*
X9798991Y-9412079D01*
X9798991Y-9412079D02*
X9808515Y-9393031D01*
X9808515Y-9393031D02*
X9818039Y-9383508D01*
X9818039Y-9383508D02*
X9837086Y-9373984D01*
X10084705Y-9373984D02*
X9989467Y-9373984D01*
X9989467Y-9373984D02*
X9979944Y-9469222D01*
X9979944Y-9469222D02*
X9989467Y-9459698D01*
X9989467Y-9459698D02*
X10008515Y-9450174D01*
X10008515Y-9450174D02*
X10056134Y-9450174D01*
X10056134Y-9450174D02*
X10075182Y-9459698D01*
X10075182Y-9459698D02*
X10084705Y-9469222D01*
X10084705Y-9469222D02*
X10094229Y-9488270D01*
X10094229Y-9488270D02*
X10094229Y-9535889D01*
X10094229Y-9535889D02*
X10084705Y-9554936D01*
X10084705Y-9554936D02*
X10075182Y-9564460D01*
X10075182Y-9564460D02*
X10056134Y-9573984D01*
X10056134Y-9573984D02*
X10008515Y-9573984D01*
X10008515Y-9573984D02*
X9989467Y-9564460D01*
X9989467Y-9564460D02*
X9979944Y-9554936D01*
X10218039Y-9373984D02*
X10237086Y-9373984D01*
X10237086Y-9373984D02*
X10256134Y-9383508D01*
X10256134Y-9383508D02*
X10265658Y-9393031D01*
X10265658Y-9393031D02*
X10275182Y-9412079D01*
X10275182Y-9412079D02*
X10284705Y-9450174D01*
X10284705Y-9450174D02*
X10284705Y-9497793D01*
X10284705Y-9497793D02*
X10275182Y-9535889D01*
X10275182Y-9535889D02*
X10265658Y-9554936D01*
X10265658Y-9554936D02*
X10256134Y-9564460D01*
X10256134Y-9564460D02*
X10237086Y-9573984D01*
X10237086Y-9573984D02*
X10218039Y-9573984D01*
X10218039Y-9573984D02*
X10198991Y-9564460D01*
X10198991Y-9564460D02*
X10189467Y-9554936D01*
X10189467Y-9554936D02*
X10179944Y-9535889D01*
X10179944Y-9535889D02*
X10170420Y-9497793D01*
X10170420Y-9497793D02*
X10170420Y-9450174D01*
X10170420Y-9450174D02*
X10179944Y-9412079D01*
X10179944Y-9412079D02*
X10189467Y-9393031D01*
X10189467Y-9393031D02*
X10198991Y-9383508D01*
X10198991Y-9383508D02*
X10218039Y-9373984D01*
X10370420Y-9573984D02*
X10370420Y-9440650D01*
X10370420Y-9459698D02*
X10379944Y-9450174D01*
X10379944Y-9450174D02*
X10398991Y-9440650D01*
X10398991Y-9440650D02*
X10427563Y-9440650D01*
X10427563Y-9440650D02*
X10446610Y-9450174D01*
X10446610Y-9450174D02*
X10456134Y-9469222D01*
X10456134Y-9469222D02*
X10456134Y-9573984D01*
X10456134Y-9469222D02*
X10465658Y-9450174D01*
X10465658Y-9450174D02*
X10484705Y-9440650D01*
X10484705Y-9440650D02*
X10513277Y-9440650D01*
X10513277Y-9440650D02*
X10532325Y-9450174D01*
X10532325Y-9450174D02*
X10541848Y-9469222D01*
X10541848Y-9469222D02*
X10541848Y-9573984D01*
X10637086Y-9573984D02*
X10637086Y-9440650D01*
X10637086Y-9459698D02*
X10646610Y-9450174D01*
X10646610Y-9450174D02*
X10665658Y-9440650D01*
X10665658Y-9440650D02*
X10694229Y-9440650D01*
X10694229Y-9440650D02*
X10713277Y-9450174D01*
X10713277Y-9450174D02*
X10722801Y-9469222D01*
X10722801Y-9469222D02*
X10722801Y-9573984D01*
X10722801Y-9469222D02*
X10732325Y-9450174D01*
X10732325Y-9450174D02*
X10751372Y-9440650D01*
X10751372Y-9440650D02*
X10779944Y-9440650D01*
X10779944Y-9440650D02*
X10798991Y-9450174D01*
X10798991Y-9450174D02*
X10808515Y-9469222D01*
X10808515Y-9469222D02*
X10808515Y-9573984D01*
X11198991Y-9364460D02*
X11027563Y-9621603D01*
X11456134Y-9373984D02*
X11475182Y-9373984D01*
X11475182Y-9373984D02*
X11494229Y-9383508D01*
X11494229Y-9383508D02*
X11503753Y-9393031D01*
X11503753Y-9393031D02*
X11513277Y-9412079D01*
X11513277Y-9412079D02*
X11522801Y-9450174D01*
X11522801Y-9450174D02*
X11522801Y-9497793D01*
X11522801Y-9497793D02*
X11513277Y-9535889D01*
X11513277Y-9535889D02*
X11503753Y-9554936D01*
X11503753Y-9554936D02*
X11494229Y-9564460D01*
X11494229Y-9564460D02*
X11475182Y-9573984D01*
X11475182Y-9573984D02*
X11456134Y-9573984D01*
X11456134Y-9573984D02*
X11437086Y-9564460D01*
X11437086Y-9564460D02*
X11427563Y-9554936D01*
X11427563Y-9554936D02*
X11418039Y-9535889D01*
X11418039Y-9535889D02*
X11408515Y-9497793D01*
X11408515Y-9497793D02*
X11408515Y-9450174D01*
X11408515Y-9450174D02*
X11418039Y-9412079D01*
X11418039Y-9412079D02*
X11427563Y-9393031D01*
X11427563Y-9393031D02*
X11437086Y-9383508D01*
X11437086Y-9383508D02*
X11456134Y-9373984D01*
X11608515Y-9554936D02*
X11618039Y-9564460D01*
X11618039Y-9564460D02*
X11608515Y-9573984D01*
X11608515Y-9573984D02*
X11598991Y-9564460D01*
X11598991Y-9564460D02*
X11608515Y-9554936D01*
X11608515Y-9554936D02*
X11608515Y-9573984D01*
X11808515Y-9573984D02*
X11694229Y-9573984D01*
X11751372Y-9573984D02*
X11751372Y-9373984D01*
X11751372Y-9373984D02*
X11732325Y-9402555D01*
X11732325Y-9402555D02*
X11713277Y-9421603D01*
X11713277Y-9421603D02*
X11694229Y-9431127D01*
X11884706Y-9393031D02*
X11894229Y-9383508D01*
X11894229Y-9383508D02*
X11913277Y-9373984D01*
X11913277Y-9373984D02*
X11960896Y-9373984D01*
X11960896Y-9373984D02*
X11979944Y-9383508D01*
X11979944Y-9383508D02*
X11989467Y-9393031D01*
X11989467Y-9393031D02*
X11998991Y-9412079D01*
X11998991Y-9412079D02*
X11998991Y-9431127D01*
X11998991Y-9431127D02*
X11989467Y-9459698D01*
X11989467Y-9459698D02*
X11875182Y-9573984D01*
X11875182Y-9573984D02*
X11998991Y-9573984D01*
X12122801Y-9373984D02*
X12141848Y-9373984D01*
X12141848Y-9373984D02*
X12160896Y-9383508D01*
X12160896Y-9383508D02*
X12170420Y-9393031D01*
X12170420Y-9393031D02*
X12179944Y-9412079D01*
X12179944Y-9412079D02*
X12189467Y-9450174D01*
X12189467Y-9450174D02*
X12189467Y-9497793D01*
X12189467Y-9497793D02*
X12179944Y-9535889D01*
X12179944Y-9535889D02*
X12170420Y-9554936D01*
X12170420Y-9554936D02*
X12160896Y-9564460D01*
X12160896Y-9564460D02*
X12141848Y-9573984D01*
X12141848Y-9573984D02*
X12122801Y-9573984D01*
X12122801Y-9573984D02*
X12103753Y-9564460D01*
X12103753Y-9564460D02*
X12094229Y-9554936D01*
X12094229Y-9554936D02*
X12084706Y-9535889D01*
X12084706Y-9535889D02*
X12075182Y-9497793D01*
X12075182Y-9497793D02*
X12075182Y-9450174D01*
X12075182Y-9450174D02*
X12084706Y-9412079D01*
X12084706Y-9412079D02*
X12094229Y-9393031D01*
X12094229Y-9393031D02*
X12103753Y-9383508D01*
X12103753Y-9383508D02*
X12122801Y-9373984D01*
X12379944Y-9573984D02*
X12265658Y-9573984D01*
X12322801Y-9573984D02*
X12322801Y-9373984D01*
X12322801Y-9373984D02*
X12303753Y-9402555D01*
X12303753Y-9402555D02*
X12284706Y-9421603D01*
X12284706Y-9421603D02*
X12265658Y-9431127D01*
X12456134Y-9373984D02*
X12456134Y-9412079D01*
X12532325Y-9373984D02*
X12532325Y-9412079D01*
X12827563Y-9650174D02*
X12818039Y-9640650D01*
X12818039Y-9640650D02*
X12798991Y-9612079D01*
X12798991Y-9612079D02*
X12789468Y-9593031D01*
X12789468Y-9593031D02*
X12779944Y-9564460D01*
X12779944Y-9564460D02*
X12770420Y-9516841D01*
X12770420Y-9516841D02*
X12770420Y-9478746D01*
X12770420Y-9478746D02*
X12779944Y-9431127D01*
X12779944Y-9431127D02*
X12789468Y-9402555D01*
X12789468Y-9402555D02*
X12798991Y-9383508D01*
X12798991Y-9383508D02*
X12818039Y-9354936D01*
X12818039Y-9354936D02*
X12827563Y-9345412D01*
X13008515Y-9573984D02*
X12894229Y-9573984D01*
X12951372Y-9573984D02*
X12951372Y-9373984D01*
X12951372Y-9373984D02*
X12932325Y-9402555D01*
X12932325Y-9402555D02*
X12913277Y-9421603D01*
X12913277Y-9421603D02*
X12894229Y-9431127D01*
X13246610Y-9573984D02*
X13246610Y-9373984D01*
X13332325Y-9573984D02*
X13332325Y-9469222D01*
X13332325Y-9469222D02*
X13322801Y-9450174D01*
X13322801Y-9450174D02*
X13303753Y-9440650D01*
X13303753Y-9440650D02*
X13275182Y-9440650D01*
X13275182Y-9440650D02*
X13256134Y-9450174D01*
X13256134Y-9450174D02*
X13246610Y-9459698D01*
X13456134Y-9573984D02*
X13437087Y-9564460D01*
X13437087Y-9564460D02*
X13427563Y-9554936D01*
X13427563Y-9554936D02*
X13418039Y-9535889D01*
X13418039Y-9535889D02*
X13418039Y-9478746D01*
X13418039Y-9478746D02*
X13427563Y-9459698D01*
X13427563Y-9459698D02*
X13437087Y-9450174D01*
X13437087Y-9450174D02*
X13456134Y-9440650D01*
X13456134Y-9440650D02*
X13484706Y-9440650D01*
X13484706Y-9440650D02*
X13503753Y-9450174D01*
X13503753Y-9450174D02*
X13513277Y-9459698D01*
X13513277Y-9459698D02*
X13522801Y-9478746D01*
X13522801Y-9478746D02*
X13522801Y-9535889D01*
X13522801Y-9535889D02*
X13513277Y-9554936D01*
X13513277Y-9554936D02*
X13503753Y-9564460D01*
X13503753Y-9564460D02*
X13484706Y-9573984D01*
X13484706Y-9573984D02*
X13456134Y-9573984D01*
X13637087Y-9573984D02*
X13618039Y-9564460D01*
X13618039Y-9564460D02*
X13608515Y-9545412D01*
X13608515Y-9545412D02*
X13608515Y-9373984D01*
X13789468Y-9564460D02*
X13770420Y-9573984D01*
X13770420Y-9573984D02*
X13732325Y-9573984D01*
X13732325Y-9573984D02*
X13713277Y-9564460D01*
X13713277Y-9564460D02*
X13703753Y-9545412D01*
X13703753Y-9545412D02*
X13703753Y-9469222D01*
X13703753Y-9469222D02*
X13713277Y-9450174D01*
X13713277Y-9450174D02*
X13732325Y-9440650D01*
X13732325Y-9440650D02*
X13770420Y-9440650D01*
X13770420Y-9440650D02*
X13789468Y-9450174D01*
X13789468Y-9450174D02*
X13798991Y-9469222D01*
X13798991Y-9469222D02*
X13798991Y-9488270D01*
X13798991Y-9488270D02*
X13703753Y-9507317D01*
X13865658Y-9650174D02*
X13875182Y-9640650D01*
X13875182Y-9640650D02*
X13894230Y-9612079D01*
X13894230Y-9612079D02*
X13903753Y-9593031D01*
X13903753Y-9593031D02*
X13913277Y-9564460D01*
X13913277Y-9564460D02*
X13922801Y-9516841D01*
X13922801Y-9516841D02*
X13922801Y-9478746D01*
X13922801Y-9478746D02*
X13913277Y-9431127D01*
X13913277Y-9431127D02*
X13903753Y-9402555D01*
X13903753Y-9402555D02*
X13894230Y-9383508D01*
X13894230Y-9383508D02*
X13875182Y-9354936D01*
X13875182Y-9354936D02*
X13865658Y-9345412D01*
X14227563Y-9650174D02*
X14218039Y-9640650D01*
X14218039Y-9640650D02*
X14198991Y-9612079D01*
X14198991Y-9612079D02*
X14189468Y-9593031D01*
X14189468Y-9593031D02*
X14179944Y-9564460D01*
X14179944Y-9564460D02*
X14170420Y-9516841D01*
X14170420Y-9516841D02*
X14170420Y-9478746D01*
X14170420Y-9478746D02*
X14179944Y-9431127D01*
X14179944Y-9431127D02*
X14189468Y-9402555D01*
X14189468Y-9402555D02*
X14198991Y-9383508D01*
X14198991Y-9383508D02*
X14218039Y-9354936D01*
X14218039Y-9354936D02*
X14227563Y-9345412D01*
X14303753Y-9440650D02*
X14303753Y-9573984D01*
X14303753Y-9459698D02*
X14313277Y-9450174D01*
X14313277Y-9450174D02*
X14332325Y-9440650D01*
X14332325Y-9440650D02*
X14360896Y-9440650D01*
X14360896Y-9440650D02*
X14379944Y-9450174D01*
X14379944Y-9450174D02*
X14389468Y-9469222D01*
X14389468Y-9469222D02*
X14389468Y-9573984D01*
X14513277Y-9573984D02*
X14494230Y-9564460D01*
X14494230Y-9564460D02*
X14484706Y-9554936D01*
X14484706Y-9554936D02*
X14475182Y-9535889D01*
X14475182Y-9535889D02*
X14475182Y-9478746D01*
X14475182Y-9478746D02*
X14484706Y-9459698D01*
X14484706Y-9459698D02*
X14494230Y-9450174D01*
X14494230Y-9450174D02*
X14513277Y-9440650D01*
X14513277Y-9440650D02*
X14541849Y-9440650D01*
X14541849Y-9440650D02*
X14560896Y-9450174D01*
X14560896Y-9450174D02*
X14570420Y-9459698D01*
X14570420Y-9459698D02*
X14579944Y-9478746D01*
X14579944Y-9478746D02*
X14579944Y-9535889D01*
X14579944Y-9535889D02*
X14570420Y-9554936D01*
X14570420Y-9554936D02*
X14560896Y-9564460D01*
X14560896Y-9564460D02*
X14541849Y-9573984D01*
X14541849Y-9573984D02*
X14513277Y-9573984D01*
X14637087Y-9440650D02*
X14713277Y-9440650D01*
X14665658Y-9373984D02*
X14665658Y-9545412D01*
X14665658Y-9545412D02*
X14675182Y-9564460D01*
X14675182Y-9564460D02*
X14694230Y-9573984D01*
X14694230Y-9573984D02*
X14713277Y-9573984D01*
X14932325Y-9440650D02*
X14932325Y-9640650D01*
X14932325Y-9450174D02*
X14951372Y-9440650D01*
X14951372Y-9440650D02*
X14989468Y-9440650D01*
X14989468Y-9440650D02*
X15008515Y-9450174D01*
X15008515Y-9450174D02*
X15018039Y-9459698D01*
X15018039Y-9459698D02*
X15027563Y-9478746D01*
X15027563Y-9478746D02*
X15027563Y-9535889D01*
X15027563Y-9535889D02*
X15018039Y-9554936D01*
X15018039Y-9554936D02*
X15008515Y-9564460D01*
X15008515Y-9564460D02*
X14989468Y-9573984D01*
X14989468Y-9573984D02*
X14951372Y-9573984D01*
X14951372Y-9573984D02*
X14932325Y-9564460D01*
X15141849Y-9573984D02*
X15122801Y-9564460D01*
X15122801Y-9564460D02*
X15113277Y-9545412D01*
X15113277Y-9545412D02*
X15113277Y-9373984D01*
X15303753Y-9573984D02*
X15303753Y-9469222D01*
X15303753Y-9469222D02*
X15294230Y-9450174D01*
X15294230Y-9450174D02*
X15275182Y-9440650D01*
X15275182Y-9440650D02*
X15237087Y-9440650D01*
X15237087Y-9440650D02*
X15218039Y-9450174D01*
X15303753Y-9564460D02*
X15284706Y-9573984D01*
X15284706Y-9573984D02*
X15237087Y-9573984D01*
X15237087Y-9573984D02*
X15218039Y-9564460D01*
X15218039Y-9564460D02*
X15208515Y-9545412D01*
X15208515Y-9545412D02*
X15208515Y-9526365D01*
X15208515Y-9526365D02*
X15218039Y-9507317D01*
X15218039Y-9507317D02*
X15237087Y-9497793D01*
X15237087Y-9497793D02*
X15284706Y-9497793D01*
X15284706Y-9497793D02*
X15303753Y-9488270D01*
X15370420Y-9440650D02*
X15446611Y-9440650D01*
X15398992Y-9373984D02*
X15398992Y-9545412D01*
X15398992Y-9545412D02*
X15408515Y-9564460D01*
X15408515Y-9564460D02*
X15427563Y-9573984D01*
X15427563Y-9573984D02*
X15446611Y-9573984D01*
X15589468Y-9564460D02*
X15570420Y-9573984D01*
X15570420Y-9573984D02*
X15532325Y-9573984D01*
X15532325Y-9573984D02*
X15513277Y-9564460D01*
X15513277Y-9564460D02*
X15503753Y-9545412D01*
X15503753Y-9545412D02*
X15503753Y-9469222D01*
X15503753Y-9469222D02*
X15513277Y-9450174D01*
X15513277Y-9450174D02*
X15532325Y-9440650D01*
X15532325Y-9440650D02*
X15570420Y-9440650D01*
X15570420Y-9440650D02*
X15589468Y-9450174D01*
X15589468Y-9450174D02*
X15598992Y-9469222D01*
X15598992Y-9469222D02*
X15598992Y-9488270D01*
X15598992Y-9488270D02*
X15503753Y-9507317D01*
X15770420Y-9573984D02*
X15770420Y-9373984D01*
X15770420Y-9564460D02*
X15751373Y-9573984D01*
X15751373Y-9573984D02*
X15713277Y-9573984D01*
X15713277Y-9573984D02*
X15694230Y-9564460D01*
X15694230Y-9564460D02*
X15684706Y-9554936D01*
X15684706Y-9554936D02*
X15675182Y-9535889D01*
X15675182Y-9535889D02*
X15675182Y-9478746D01*
X15675182Y-9478746D02*
X15684706Y-9459698D01*
X15684706Y-9459698D02*
X15694230Y-9450174D01*
X15694230Y-9450174D02*
X15713277Y-9440650D01*
X15713277Y-9440650D02*
X15751373Y-9440650D01*
X15751373Y-9440650D02*
X15770420Y-9450174D01*
X15846611Y-9650174D02*
X15856134Y-9640650D01*
X15856134Y-9640650D02*
X15875182Y-9612079D01*
X15875182Y-9612079D02*
X15884706Y-9593031D01*
X15884706Y-9593031D02*
X15894230Y-9564460D01*
X15894230Y-9564460D02*
X15903753Y-9516841D01*
X15903753Y-9516841D02*
X15903753Y-9478746D01*
X15903753Y-9478746D02*
X15894230Y-9431127D01*
X15894230Y-9431127D02*
X15884706Y-9402555D01*
X15884706Y-9402555D02*
X15875182Y-9383508D01*
X15875182Y-9383508D02*
X15856134Y-9354936D01*
X15856134Y-9354936D02*
X15846611Y-9345412D01*
X9152500Y-9702500D02*
X9152500Y-9902500D01*
X9052500Y-9802500D02*
X9252500Y-9802500D01*
X9494229Y-9693984D02*
X9618039Y-9693984D01*
X9618039Y-9693984D02*
X9551372Y-9770174D01*
X9551372Y-9770174D02*
X9579944Y-9770174D01*
X9579944Y-9770174D02*
X9598991Y-9779698D01*
X9598991Y-9779698D02*
X9608515Y-9789222D01*
X9608515Y-9789222D02*
X9618039Y-9808270D01*
X9618039Y-9808270D02*
X9618039Y-9855889D01*
X9618039Y-9855889D02*
X9608515Y-9874936D01*
X9608515Y-9874936D02*
X9598991Y-9884460D01*
X9598991Y-9884460D02*
X9579944Y-9893984D01*
X9579944Y-9893984D02*
X9522801Y-9893984D01*
X9522801Y-9893984D02*
X9503753Y-9884460D01*
X9503753Y-9884460D02*
X9494229Y-9874936D01*
X9703753Y-9874936D02*
X9713277Y-9884460D01*
X9713277Y-9884460D02*
X9703753Y-9893984D01*
X9703753Y-9893984D02*
X9694229Y-9884460D01*
X9694229Y-9884460D02*
X9703753Y-9874936D01*
X9703753Y-9874936D02*
X9703753Y-9893984D01*
X9789467Y-9713031D02*
X9798991Y-9703508D01*
X9798991Y-9703508D02*
X9818039Y-9693984D01*
X9818039Y-9693984D02*
X9865658Y-9693984D01*
X9865658Y-9693984D02*
X9884705Y-9703508D01*
X9884705Y-9703508D02*
X9894229Y-9713031D01*
X9894229Y-9713031D02*
X9903753Y-9732079D01*
X9903753Y-9732079D02*
X9903753Y-9751127D01*
X9903753Y-9751127D02*
X9894229Y-9779698D01*
X9894229Y-9779698D02*
X9779944Y-9893984D01*
X9779944Y-9893984D02*
X9903753Y-9893984D01*
X10027563Y-9693984D02*
X10046610Y-9693984D01*
X10046610Y-9693984D02*
X10065658Y-9703508D01*
X10065658Y-9703508D02*
X10075182Y-9713031D01*
X10075182Y-9713031D02*
X10084705Y-9732079D01*
X10084705Y-9732079D02*
X10094229Y-9770174D01*
X10094229Y-9770174D02*
X10094229Y-9817793D01*
X10094229Y-9817793D02*
X10084705Y-9855889D01*
X10084705Y-9855889D02*
X10075182Y-9874936D01*
X10075182Y-9874936D02*
X10065658Y-9884460D01*
X10065658Y-9884460D02*
X10046610Y-9893984D01*
X10046610Y-9893984D02*
X10027563Y-9893984D01*
X10027563Y-9893984D02*
X10008515Y-9884460D01*
X10008515Y-9884460D02*
X9998991Y-9874936D01*
X9998991Y-9874936D02*
X9989467Y-9855889D01*
X9989467Y-9855889D02*
X9979944Y-9817793D01*
X9979944Y-9817793D02*
X9979944Y-9770174D01*
X9979944Y-9770174D02*
X9989467Y-9732079D01*
X9989467Y-9732079D02*
X9998991Y-9713031D01*
X9998991Y-9713031D02*
X10008515Y-9703508D01*
X10008515Y-9703508D02*
X10027563Y-9693984D01*
X10218039Y-9693984D02*
X10237086Y-9693984D01*
X10237086Y-9693984D02*
X10256134Y-9703508D01*
X10256134Y-9703508D02*
X10265658Y-9713031D01*
X10265658Y-9713031D02*
X10275182Y-9732079D01*
X10275182Y-9732079D02*
X10284705Y-9770174D01*
X10284705Y-9770174D02*
X10284705Y-9817793D01*
X10284705Y-9817793D02*
X10275182Y-9855889D01*
X10275182Y-9855889D02*
X10265658Y-9874936D01*
X10265658Y-9874936D02*
X10256134Y-9884460D01*
X10256134Y-9884460D02*
X10237086Y-9893984D01*
X10237086Y-9893984D02*
X10218039Y-9893984D01*
X10218039Y-9893984D02*
X10198991Y-9884460D01*
X10198991Y-9884460D02*
X10189467Y-9874936D01*
X10189467Y-9874936D02*
X10179944Y-9855889D01*
X10179944Y-9855889D02*
X10170420Y-9817793D01*
X10170420Y-9817793D02*
X10170420Y-9770174D01*
X10170420Y-9770174D02*
X10179944Y-9732079D01*
X10179944Y-9732079D02*
X10189467Y-9713031D01*
X10189467Y-9713031D02*
X10198991Y-9703508D01*
X10198991Y-9703508D02*
X10218039Y-9693984D01*
X10370420Y-9893984D02*
X10370420Y-9760650D01*
X10370420Y-9779698D02*
X10379944Y-9770174D01*
X10379944Y-9770174D02*
X10398991Y-9760650D01*
X10398991Y-9760650D02*
X10427563Y-9760650D01*
X10427563Y-9760650D02*
X10446610Y-9770174D01*
X10446610Y-9770174D02*
X10456134Y-9789222D01*
X10456134Y-9789222D02*
X10456134Y-9893984D01*
X10456134Y-9789222D02*
X10465658Y-9770174D01*
X10465658Y-9770174D02*
X10484705Y-9760650D01*
X10484705Y-9760650D02*
X10513277Y-9760650D01*
X10513277Y-9760650D02*
X10532325Y-9770174D01*
X10532325Y-9770174D02*
X10541848Y-9789222D01*
X10541848Y-9789222D02*
X10541848Y-9893984D01*
X10637086Y-9893984D02*
X10637086Y-9760650D01*
X10637086Y-9779698D02*
X10646610Y-9770174D01*
X10646610Y-9770174D02*
X10665658Y-9760650D01*
X10665658Y-9760650D02*
X10694229Y-9760650D01*
X10694229Y-9760650D02*
X10713277Y-9770174D01*
X10713277Y-9770174D02*
X10722801Y-9789222D01*
X10722801Y-9789222D02*
X10722801Y-9893984D01*
X10722801Y-9789222D02*
X10732325Y-9770174D01*
X10732325Y-9770174D02*
X10751372Y-9760650D01*
X10751372Y-9760650D02*
X10779944Y-9760650D01*
X10779944Y-9760650D02*
X10798991Y-9770174D01*
X10798991Y-9770174D02*
X10808515Y-9789222D01*
X10808515Y-9789222D02*
X10808515Y-9893984D01*
X11198991Y-9684460D02*
X11027563Y-9941603D01*
X11456134Y-9693984D02*
X11475182Y-9693984D01*
X11475182Y-9693984D02*
X11494229Y-9703508D01*
X11494229Y-9703508D02*
X11503753Y-9713031D01*
X11503753Y-9713031D02*
X11513277Y-9732079D01*
X11513277Y-9732079D02*
X11522801Y-9770174D01*
X11522801Y-9770174D02*
X11522801Y-9817793D01*
X11522801Y-9817793D02*
X11513277Y-9855889D01*
X11513277Y-9855889D02*
X11503753Y-9874936D01*
X11503753Y-9874936D02*
X11494229Y-9884460D01*
X11494229Y-9884460D02*
X11475182Y-9893984D01*
X11475182Y-9893984D02*
X11456134Y-9893984D01*
X11456134Y-9893984D02*
X11437086Y-9884460D01*
X11437086Y-9884460D02*
X11427563Y-9874936D01*
X11427563Y-9874936D02*
X11418039Y-9855889D01*
X11418039Y-9855889D02*
X11408515Y-9817793D01*
X11408515Y-9817793D02*
X11408515Y-9770174D01*
X11408515Y-9770174D02*
X11418039Y-9732079D01*
X11418039Y-9732079D02*
X11427563Y-9713031D01*
X11427563Y-9713031D02*
X11437086Y-9703508D01*
X11437086Y-9703508D02*
X11456134Y-9693984D01*
X11608515Y-9874936D02*
X11618039Y-9884460D01*
X11618039Y-9884460D02*
X11608515Y-9893984D01*
X11608515Y-9893984D02*
X11598991Y-9884460D01*
X11598991Y-9884460D02*
X11608515Y-9874936D01*
X11608515Y-9874936D02*
X11608515Y-9893984D01*
X11808515Y-9893984D02*
X11694229Y-9893984D01*
X11751372Y-9893984D02*
X11751372Y-9693984D01*
X11751372Y-9693984D02*
X11732325Y-9722555D01*
X11732325Y-9722555D02*
X11713277Y-9741603D01*
X11713277Y-9741603D02*
X11694229Y-9751127D01*
X11884706Y-9713031D02*
X11894229Y-9703508D01*
X11894229Y-9703508D02*
X11913277Y-9693984D01*
X11913277Y-9693984D02*
X11960896Y-9693984D01*
X11960896Y-9693984D02*
X11979944Y-9703508D01*
X11979944Y-9703508D02*
X11989467Y-9713031D01*
X11989467Y-9713031D02*
X11998991Y-9732079D01*
X11998991Y-9732079D02*
X11998991Y-9751127D01*
X11998991Y-9751127D02*
X11989467Y-9779698D01*
X11989467Y-9779698D02*
X11875182Y-9893984D01*
X11875182Y-9893984D02*
X11998991Y-9893984D01*
X12170420Y-9693984D02*
X12132325Y-9693984D01*
X12132325Y-9693984D02*
X12113277Y-9703508D01*
X12113277Y-9703508D02*
X12103753Y-9713031D01*
X12103753Y-9713031D02*
X12084706Y-9741603D01*
X12084706Y-9741603D02*
X12075182Y-9779698D01*
X12075182Y-9779698D02*
X12075182Y-9855889D01*
X12075182Y-9855889D02*
X12084706Y-9874936D01*
X12084706Y-9874936D02*
X12094229Y-9884460D01*
X12094229Y-9884460D02*
X12113277Y-9893984D01*
X12113277Y-9893984D02*
X12151372Y-9893984D01*
X12151372Y-9893984D02*
X12170420Y-9884460D01*
X12170420Y-9884460D02*
X12179944Y-9874936D01*
X12179944Y-9874936D02*
X12189467Y-9855889D01*
X12189467Y-9855889D02*
X12189467Y-9808270D01*
X12189467Y-9808270D02*
X12179944Y-9789222D01*
X12179944Y-9789222D02*
X12170420Y-9779698D01*
X12170420Y-9779698D02*
X12151372Y-9770174D01*
X12151372Y-9770174D02*
X12113277Y-9770174D01*
X12113277Y-9770174D02*
X12094229Y-9779698D01*
X12094229Y-9779698D02*
X12084706Y-9789222D01*
X12084706Y-9789222D02*
X12075182Y-9808270D01*
X12313277Y-9693984D02*
X12332325Y-9693984D01*
X12332325Y-9693984D02*
X12351372Y-9703508D01*
X12351372Y-9703508D02*
X12360896Y-9713031D01*
X12360896Y-9713031D02*
X12370420Y-9732079D01*
X12370420Y-9732079D02*
X12379944Y-9770174D01*
X12379944Y-9770174D02*
X12379944Y-9817793D01*
X12379944Y-9817793D02*
X12370420Y-9855889D01*
X12370420Y-9855889D02*
X12360896Y-9874936D01*
X12360896Y-9874936D02*
X12351372Y-9884460D01*
X12351372Y-9884460D02*
X12332325Y-9893984D01*
X12332325Y-9893984D02*
X12313277Y-9893984D01*
X12313277Y-9893984D02*
X12294229Y-9884460D01*
X12294229Y-9884460D02*
X12284706Y-9874936D01*
X12284706Y-9874936D02*
X12275182Y-9855889D01*
X12275182Y-9855889D02*
X12265658Y-9817793D01*
X12265658Y-9817793D02*
X12265658Y-9770174D01*
X12265658Y-9770174D02*
X12275182Y-9732079D01*
X12275182Y-9732079D02*
X12284706Y-9713031D01*
X12284706Y-9713031D02*
X12294229Y-9703508D01*
X12294229Y-9703508D02*
X12313277Y-9693984D01*
X12456134Y-9693984D02*
X12456134Y-9732079D01*
X12532325Y-9693984D02*
X12532325Y-9732079D01*
X12827563Y-9970174D02*
X12818039Y-9960650D01*
X12818039Y-9960650D02*
X12798991Y-9932079D01*
X12798991Y-9932079D02*
X12789468Y-9913031D01*
X12789468Y-9913031D02*
X12779944Y-9884460D01*
X12779944Y-9884460D02*
X12770420Y-9836841D01*
X12770420Y-9836841D02*
X12770420Y-9798746D01*
X12770420Y-9798746D02*
X12779944Y-9751127D01*
X12779944Y-9751127D02*
X12789468Y-9722555D01*
X12789468Y-9722555D02*
X12798991Y-9703508D01*
X12798991Y-9703508D02*
X12818039Y-9674936D01*
X12818039Y-9674936D02*
X12827563Y-9665412D01*
X12989468Y-9760650D02*
X12989468Y-9893984D01*
X12941848Y-9684460D02*
X12894229Y-9827317D01*
X12894229Y-9827317D02*
X13018039Y-9827317D01*
X13246610Y-9893984D02*
X13246610Y-9693984D01*
X13332325Y-9893984D02*
X13332325Y-9789222D01*
X13332325Y-9789222D02*
X13322801Y-9770174D01*
X13322801Y-9770174D02*
X13303753Y-9760650D01*
X13303753Y-9760650D02*
X13275182Y-9760650D01*
X13275182Y-9760650D02*
X13256134Y-9770174D01*
X13256134Y-9770174D02*
X13246610Y-9779698D01*
X13456134Y-9893984D02*
X13437087Y-9884460D01*
X13437087Y-9884460D02*
X13427563Y-9874936D01*
X13427563Y-9874936D02*
X13418039Y-9855889D01*
X13418039Y-9855889D02*
X13418039Y-9798746D01*
X13418039Y-9798746D02*
X13427563Y-9779698D01*
X13427563Y-9779698D02*
X13437087Y-9770174D01*
X13437087Y-9770174D02*
X13456134Y-9760650D01*
X13456134Y-9760650D02*
X13484706Y-9760650D01*
X13484706Y-9760650D02*
X13503753Y-9770174D01*
X13503753Y-9770174D02*
X13513277Y-9779698D01*
X13513277Y-9779698D02*
X13522801Y-9798746D01*
X13522801Y-9798746D02*
X13522801Y-9855889D01*
X13522801Y-9855889D02*
X13513277Y-9874936D01*
X13513277Y-9874936D02*
X13503753Y-9884460D01*
X13503753Y-9884460D02*
X13484706Y-9893984D01*
X13484706Y-9893984D02*
X13456134Y-9893984D01*
X13637087Y-9893984D02*
X13618039Y-9884460D01*
X13618039Y-9884460D02*
X13608515Y-9865412D01*
X13608515Y-9865412D02*
X13608515Y-9693984D01*
X13789468Y-9884460D02*
X13770420Y-9893984D01*
X13770420Y-9893984D02*
X13732325Y-9893984D01*
X13732325Y-9893984D02*
X13713277Y-9884460D01*
X13713277Y-9884460D02*
X13703753Y-9865412D01*
X13703753Y-9865412D02*
X13703753Y-9789222D01*
X13703753Y-9789222D02*
X13713277Y-9770174D01*
X13713277Y-9770174D02*
X13732325Y-9760650D01*
X13732325Y-9760650D02*
X13770420Y-9760650D01*
X13770420Y-9760650D02*
X13789468Y-9770174D01*
X13789468Y-9770174D02*
X13798991Y-9789222D01*
X13798991Y-9789222D02*
X13798991Y-9808270D01*
X13798991Y-9808270D02*
X13703753Y-9827317D01*
X13875182Y-9884460D02*
X13894230Y-9893984D01*
X13894230Y-9893984D02*
X13932325Y-9893984D01*
X13932325Y-9893984D02*
X13951372Y-9884460D01*
X13951372Y-9884460D02*
X13960896Y-9865412D01*
X13960896Y-9865412D02*
X13960896Y-9855889D01*
X13960896Y-9855889D02*
X13951372Y-9836841D01*
X13951372Y-9836841D02*
X13932325Y-9827317D01*
X13932325Y-9827317D02*
X13903753Y-9827317D01*
X13903753Y-9827317D02*
X13884706Y-9817793D01*
X13884706Y-9817793D02*
X13875182Y-9798746D01*
X13875182Y-9798746D02*
X13875182Y-9789222D01*
X13875182Y-9789222D02*
X13884706Y-9770174D01*
X13884706Y-9770174D02*
X13903753Y-9760650D01*
X13903753Y-9760650D02*
X13932325Y-9760650D01*
X13932325Y-9760650D02*
X13951372Y-9770174D01*
X14027563Y-9970174D02*
X14037087Y-9960650D01*
X14037087Y-9960650D02*
X14056134Y-9932079D01*
X14056134Y-9932079D02*
X14065658Y-9913031D01*
X14065658Y-9913031D02*
X14075182Y-9884460D01*
X14075182Y-9884460D02*
X14084706Y-9836841D01*
X14084706Y-9836841D02*
X14084706Y-9798746D01*
X14084706Y-9798746D02*
X14075182Y-9751127D01*
X14075182Y-9751127D02*
X14065658Y-9722555D01*
X14065658Y-9722555D02*
X14056134Y-9703508D01*
X14056134Y-9703508D02*
X14037087Y-9674936D01*
X14037087Y-9674936D02*
X14027563Y-9665412D01*
X14389468Y-9970174D02*
X14379944Y-9960650D01*
X14379944Y-9960650D02*
X14360896Y-9932079D01*
X14360896Y-9932079D02*
X14351372Y-9913031D01*
X14351372Y-9913031D02*
X14341849Y-9884460D01*
X14341849Y-9884460D02*
X14332325Y-9836841D01*
X14332325Y-9836841D02*
X14332325Y-9798746D01*
X14332325Y-9798746D02*
X14341849Y-9751127D01*
X14341849Y-9751127D02*
X14351372Y-9722555D01*
X14351372Y-9722555D02*
X14360896Y-9703508D01*
X14360896Y-9703508D02*
X14379944Y-9674936D01*
X14379944Y-9674936D02*
X14389468Y-9665412D01*
X14465658Y-9760650D02*
X14465658Y-9893984D01*
X14465658Y-9779698D02*
X14475182Y-9770174D01*
X14475182Y-9770174D02*
X14494230Y-9760650D01*
X14494230Y-9760650D02*
X14522801Y-9760650D01*
X14522801Y-9760650D02*
X14541849Y-9770174D01*
X14541849Y-9770174D02*
X14551372Y-9789222D01*
X14551372Y-9789222D02*
X14551372Y-9893984D01*
X14675182Y-9893984D02*
X14656134Y-9884460D01*
X14656134Y-9884460D02*
X14646611Y-9874936D01*
X14646611Y-9874936D02*
X14637087Y-9855889D01*
X14637087Y-9855889D02*
X14637087Y-9798746D01*
X14637087Y-9798746D02*
X14646611Y-9779698D01*
X14646611Y-9779698D02*
X14656134Y-9770174D01*
X14656134Y-9770174D02*
X14675182Y-9760650D01*
X14675182Y-9760650D02*
X14703753Y-9760650D01*
X14703753Y-9760650D02*
X14722801Y-9770174D01*
X14722801Y-9770174D02*
X14732325Y-9779698D01*
X14732325Y-9779698D02*
X14741849Y-9798746D01*
X14741849Y-9798746D02*
X14741849Y-9855889D01*
X14741849Y-9855889D02*
X14732325Y-9874936D01*
X14732325Y-9874936D02*
X14722801Y-9884460D01*
X14722801Y-9884460D02*
X14703753Y-9893984D01*
X14703753Y-9893984D02*
X14675182Y-9893984D01*
X14798992Y-9760650D02*
X14875182Y-9760650D01*
X14827563Y-9693984D02*
X14827563Y-9865412D01*
X14827563Y-9865412D02*
X14837087Y-9884460D01*
X14837087Y-9884460D02*
X14856134Y-9893984D01*
X14856134Y-9893984D02*
X14875182Y-9893984D01*
X15094230Y-9760650D02*
X15094230Y-9960650D01*
X15094230Y-9770174D02*
X15113277Y-9760650D01*
X15113277Y-9760650D02*
X15151373Y-9760650D01*
X15151373Y-9760650D02*
X15170420Y-9770174D01*
X15170420Y-9770174D02*
X15179944Y-9779698D01*
X15179944Y-9779698D02*
X15189468Y-9798746D01*
X15189468Y-9798746D02*
X15189468Y-9855889D01*
X15189468Y-9855889D02*
X15179944Y-9874936D01*
X15179944Y-9874936D02*
X15170420Y-9884460D01*
X15170420Y-9884460D02*
X15151373Y-9893984D01*
X15151373Y-9893984D02*
X15113277Y-9893984D01*
X15113277Y-9893984D02*
X15094230Y-9884460D01*
X15303753Y-9893984D02*
X15284706Y-9884460D01*
X15284706Y-9884460D02*
X15275182Y-9865412D01*
X15275182Y-9865412D02*
X15275182Y-9693984D01*
X15465658Y-9893984D02*
X15465658Y-9789222D01*
X15465658Y-9789222D02*
X15456134Y-9770174D01*
X15456134Y-9770174D02*
X15437087Y-9760650D01*
X15437087Y-9760650D02*
X15398992Y-9760650D01*
X15398992Y-9760650D02*
X15379944Y-9770174D01*
X15465658Y-9884460D02*
X15446611Y-9893984D01*
X15446611Y-9893984D02*
X15398992Y-9893984D01*
X15398992Y-9893984D02*
X15379944Y-9884460D01*
X15379944Y-9884460D02*
X15370420Y-9865412D01*
X15370420Y-9865412D02*
X15370420Y-9846365D01*
X15370420Y-9846365D02*
X15379944Y-9827317D01*
X15379944Y-9827317D02*
X15398992Y-9817793D01*
X15398992Y-9817793D02*
X15446611Y-9817793D01*
X15446611Y-9817793D02*
X15465658Y-9808270D01*
X15532325Y-9760650D02*
X15608515Y-9760650D01*
X15560896Y-9693984D02*
X15560896Y-9865412D01*
X15560896Y-9865412D02*
X15570420Y-9884460D01*
X15570420Y-9884460D02*
X15589468Y-9893984D01*
X15589468Y-9893984D02*
X15608515Y-9893984D01*
X15751373Y-9884460D02*
X15732325Y-9893984D01*
X15732325Y-9893984D02*
X15694230Y-9893984D01*
X15694230Y-9893984D02*
X15675182Y-9884460D01*
X15675182Y-9884460D02*
X15665658Y-9865412D01*
X15665658Y-9865412D02*
X15665658Y-9789222D01*
X15665658Y-9789222D02*
X15675182Y-9770174D01*
X15675182Y-9770174D02*
X15694230Y-9760650D01*
X15694230Y-9760650D02*
X15732325Y-9760650D01*
X15732325Y-9760650D02*
X15751373Y-9770174D01*
X15751373Y-9770174D02*
X15760896Y-9789222D01*
X15760896Y-9789222D02*
X15760896Y-9808270D01*
X15760896Y-9808270D02*
X15665658Y-9827317D01*
X15932325Y-9893984D02*
X15932325Y-9693984D01*
X15932325Y-9884460D02*
X15913277Y-9893984D01*
X15913277Y-9893984D02*
X15875182Y-9893984D01*
X15875182Y-9893984D02*
X15856134Y-9884460D01*
X15856134Y-9884460D02*
X15846611Y-9874936D01*
X15846611Y-9874936D02*
X15837087Y-9855889D01*
X15837087Y-9855889D02*
X15837087Y-9798746D01*
X15837087Y-9798746D02*
X15846611Y-9779698D01*
X15846611Y-9779698D02*
X15856134Y-9770174D01*
X15856134Y-9770174D02*
X15875182Y-9760650D01*
X15875182Y-9760650D02*
X15913277Y-9760650D01*
X15913277Y-9760650D02*
X15932325Y-9770174D01*
X16008515Y-9970174D02*
X16018039Y-9960650D01*
X16018039Y-9960650D02*
X16037087Y-9932079D01*
X16037087Y-9932079D02*
X16046611Y-9913031D01*
X16046611Y-9913031D02*
X16056134Y-9884460D01*
X16056134Y-9884460D02*
X16065658Y-9836841D01*
X16065658Y-9836841D02*
X16065658Y-9798746D01*
X16065658Y-9798746D02*
X16056134Y-9751127D01*
X16056134Y-9751127D02*
X16046611Y-9722555D01*
X16046611Y-9722555D02*
X16037087Y-9703508D01*
X16037087Y-9703508D02*
X16018039Y-9674936D01*
X16018039Y-9674936D02*
X16008515Y-9665412D01*
M02*
