%TF.GenerationSoftware,KiCad,Pcbnew,8.0.6*%
%TF.CreationDate,2025-02-01T23:36:04-08:00*%
%TF.ProjectId,Joulemeter,4a6f756c-656d-4657-9465-722e6b696361,rev?*%
%TF.SameCoordinates,Original*%
%TF.FileFunction,Paste,Top*%
%TF.FilePolarity,Positive*%
%FSLAX46Y46*%
G04 Gerber Fmt 4.6, Leading zero omitted, Abs format (unit mm)*
G04 Created by KiCad (PCBNEW 8.0.6) date 2025-02-01 23:36:04*
%MOMM*%
%LPD*%
G01*
G04 APERTURE LIST*
G04 Aperture macros list*
%AMRoundRect*
0 Rectangle with rounded corners*
0 $1 Rounding radius*
0 $2 $3 $4 $5 $6 $7 $8 $9 X,Y pos of 4 corners*
0 Add a 4 corners polygon primitive as box body*
4,1,4,$2,$3,$4,$5,$6,$7,$8,$9,$2,$3,0*
0 Add four circle primitives for the rounded corners*
1,1,$1+$1,$2,$3*
1,1,$1+$1,$4,$5*
1,1,$1+$1,$6,$7*
1,1,$1+$1,$8,$9*
0 Add four rect primitives between the rounded corners*
20,1,$1+$1,$2,$3,$4,$5,0*
20,1,$1+$1,$4,$5,$6,$7,0*
20,1,$1+$1,$6,$7,$8,$9,0*
20,1,$1+$1,$8,$9,$2,$3,0*%
G04 Aperture macros list end*
%ADD10C,0.010000*%
%ADD11R,1.150000X1.450000*%
%ADD12R,0.890000X1.420000*%
%ADD13R,0.800000X0.800000*%
%ADD14R,1.420000X0.890000*%
%ADD15R,1.799996X1.305598*%
%ADD16R,1.040000X1.020000*%
%ADD17R,1.305598X1.799996*%
%ADD18R,1.450000X1.150000*%
%ADD19R,1.320800X0.508000*%
%ADD20R,0.949998X1.005599*%
%ADD21R,0.965200X1.397000*%
%ADD22R,1.200000X0.600000*%
%ADD23R,1.409700X0.355600*%
%ADD24R,2.463800X5.461000*%
%ADD25R,0.457200X1.498600*%
%ADD26R,1.447800X1.117600*%
%ADD27RoundRect,0.040000X-0.320000X-0.120000X0.320000X-0.120000X0.320000X0.120000X-0.320000X0.120000X0*%
G04 APERTURE END LIST*
D10*
%TO.C,LDO1*%
X159660000Y-63720000D02*
X159060000Y-63720000D01*
X159060000Y-62680000D01*
X159660000Y-62680000D01*
X159660000Y-63720000D01*
G36*
X159660000Y-63720000D02*
G01*
X159060000Y-63720000D01*
X159060000Y-62680000D01*
X159660000Y-62680000D01*
X159660000Y-63720000D01*
G37*
%TD*%
D11*
%TO.C,C4*%
X104030000Y-61550000D03*
X102230000Y-61550000D03*
%TD*%
D12*
%TO.C,R4*%
X110850000Y-62550000D03*
X112790000Y-62550000D03*
%TD*%
D13*
%TO.C,D2*%
X125010000Y-52170000D03*
X126610000Y-52170000D03*
%TD*%
D14*
%TO.C,R11*%
X128640000Y-53960000D03*
X128640000Y-52020000D03*
%TD*%
D13*
%TO.C,D3*%
X162950000Y-70975000D03*
X161350000Y-70975000D03*
%TD*%
D15*
%TO.C,C8*%
X162410000Y-62550000D03*
X162410000Y-65355596D03*
%TD*%
D12*
%TO.C,R6*%
X157830500Y-70280000D03*
X155890500Y-70280000D03*
%TD*%
D16*
%TO.C,R2*%
X107148900Y-64290000D03*
X108618900Y-64290000D03*
%TD*%
D17*
%TO.C,C10*%
X121877202Y-87670000D03*
X124682798Y-87670000D03*
%TD*%
%TO.C,C13*%
X113232798Y-87740000D03*
X110427202Y-87740000D03*
%TD*%
D18*
%TO.C,C1*%
X115870000Y-72270000D03*
X115870000Y-74070000D03*
%TD*%
D19*
%TO.C,U3*%
X106590000Y-60649998D03*
X106590000Y-61599999D03*
X106590000Y-62550000D03*
X109180398Y-62550000D03*
X109180398Y-60649998D03*
%TD*%
D12*
%TO.C,R7*%
X155890500Y-67740000D03*
X157830500Y-67740000D03*
%TD*%
D20*
%TO.C,C6*%
X116010000Y-62585598D03*
X116010000Y-61130000D03*
%TD*%
D14*
%TO.C,R3*%
X116410000Y-69140000D03*
X116410000Y-67200000D03*
%TD*%
D21*
%TO.C,R1*%
X103582900Y-64270000D03*
X105437100Y-64270000D03*
%TD*%
D22*
%TO.C,REF35160QDBVR1*%
X110625000Y-72300000D03*
X110625000Y-73250000D03*
X110625000Y-74200000D03*
X113125000Y-74200000D03*
X113125000Y-73250000D03*
X113125000Y-72300000D03*
%TD*%
D18*
%TO.C,C7*%
X118494000Y-57330002D03*
X118494000Y-59130002D03*
%TD*%
D23*
%TO.C,U4*%
X118494000Y-61300000D03*
X118494000Y-61950001D03*
X118494000Y-62599999D03*
X118494000Y-63250001D03*
X118494000Y-63899999D03*
X118494000Y-64549998D03*
X118494000Y-65199999D03*
X118494000Y-65849998D03*
X118494000Y-66499999D03*
X118494000Y-67149998D03*
X124399500Y-67150000D03*
X124399500Y-66500002D03*
X124399500Y-65850001D03*
X124399500Y-65200002D03*
X124399500Y-64550001D03*
X124399500Y-63900002D03*
X124399500Y-63250001D03*
X124399500Y-62600002D03*
X124399500Y-61950001D03*
X124399500Y-61300002D03*
%TD*%
D24*
%TO.C,R5*%
X113622900Y-80475000D03*
X121827100Y-80475000D03*
%TD*%
D20*
%TO.C,C3*%
X113810000Y-67270000D03*
X113810000Y-68725598D03*
%TD*%
D18*
%TO.C,C2*%
X122960000Y-71760000D03*
X122960000Y-69960000D03*
%TD*%
D14*
%TO.C,R10*%
X125800000Y-70870000D03*
X125800000Y-72810000D03*
%TD*%
D18*
%TO.C,C9*%
X125520000Y-59120000D03*
X125520000Y-57320000D03*
%TD*%
%TO.C,C15*%
X107800000Y-72375000D03*
X107800000Y-74175000D03*
%TD*%
D25*
%TO.C,U1*%
X118480002Y-74749999D03*
X119130000Y-74749999D03*
X119780002Y-74749999D03*
X120430000Y-74749999D03*
X120430000Y-68950001D03*
X119780002Y-68950001D03*
X119130000Y-68950001D03*
X118480002Y-68950001D03*
%TD*%
D18*
%TO.C,C12*%
X122060000Y-59160000D03*
X122060000Y-57360000D03*
%TD*%
D26*
%TO.C,C5*%
X156560500Y-64353400D03*
X156560500Y-62550000D03*
%TD*%
D13*
%TO.C,D1*%
X162925000Y-75325000D03*
X161325000Y-75325000D03*
%TD*%
D27*
%TO.C,LDO1*%
X158360000Y-62550000D03*
X158360000Y-63200000D03*
X158360000Y-63850000D03*
X160360000Y-63850000D03*
X160360000Y-63200000D03*
X160360000Y-62550000D03*
%TD*%
M02*
