%TF.GenerationSoftware,KiCad,Pcbnew,8.0.6*%
%TF.CreationDate,2025-02-01T23:36:04-08:00*%
%TF.ProjectId,Joulemeter,4a6f756c-656d-4657-9465-722e6b696361,rev?*%
%TF.SameCoordinates,Original*%
%TF.FileFunction,Copper,L2,Bot*%
%TF.FilePolarity,Positive*%
%FSLAX46Y46*%
G04 Gerber Fmt 4.6, Leading zero omitted, Abs format (unit mm)*
G04 Created by KiCad (PCBNEW 8.0.6) date 2025-02-01 23:36:04*
%MOMM*%
%LPD*%
G01*
G04 APERTURE LIST*
%TA.AperFunction,ComponentPad*%
%ADD10C,3.000000*%
%TD*%
%TA.AperFunction,ComponentPad*%
%ADD11C,6.000000*%
%TD*%
%TA.AperFunction,ComponentPad*%
%ADD12R,6.000000X6.000000*%
%TD*%
%TA.AperFunction,ComponentPad*%
%ADD13C,1.700000*%
%TD*%
%TA.AperFunction,ComponentPad*%
%ADD14C,1.400000*%
%TD*%
%TA.AperFunction,ComponentPad*%
%ADD15O,1.400000X1.400000*%
%TD*%
%TA.AperFunction,ComponentPad*%
%ADD16R,1.150000X1.150000*%
%TD*%
%TA.AperFunction,ComponentPad*%
%ADD17C,1.150000*%
%TD*%
%TA.AperFunction,ViaPad*%
%ADD18C,0.600000*%
%TD*%
G04 APERTURE END LIST*
D10*
%TO.P,J8,1,Pin_1*%
%TO.N,unconnected-(J8-Pin_1-Pad1)*%
X5025000Y-32225000D03*
%TD*%
%TO.P,J5,1,Pin_1*%
%TO.N,unconnected-(J5-Pin_1-Pad1)*%
X5025000Y-4175000D03*
%TD*%
D11*
%TO.P,J4,N,NEG*%
%TO.N,GND*%
X150050000Y-111160000D03*
D12*
%TO.P,J4,P,POS*%
%TO.N,/SHUNT_OUT*%
X142850000Y-111160000D03*
%TD*%
D13*
%TO.P,C11,3*%
%TO.N,Net-(C11-Pad2)*%
X124940000Y-100178250D03*
%TO.P,C11,4*%
%TO.N,/SHUNT_OUT*%
X124940000Y-95161750D03*
%TD*%
D10*
%TO.P,J6,1,Pin_1*%
%TO.N,unconnected-(J6-Pin_1-Pad1)*%
X5025000Y-13525000D03*
%TD*%
D13*
%TO.P,C12,3*%
%TO.N,Net-(C12-Pad2)*%
X111910000Y-100226500D03*
%TO.P,C12,4*%
%TO.N,+48V*%
X111910000Y-95210000D03*
%TD*%
D14*
%TO.P,R8,1*%
%TO.N,GND*%
X126850000Y-105280000D03*
D15*
%TO.P,R8,2*%
%TO.N,Net-(C11-Pad2)*%
X124950000Y-105280000D03*
%TD*%
D10*
%TO.P,J7,1,Pin_1*%
%TO.N,unconnected-(J7-Pin_1-Pad1)*%
X5025000Y-22875000D03*
%TD*%
D13*
%TO.P,RP2,1,VBAT*%
%TO.N,unconnected-(RP2-VBAT-Pad1)*%
X152730000Y-60120000D03*
%TO.P,RP2,2,EN*%
%TO.N,+5V*%
X152730000Y-62660000D03*
%TO.P,RP2,3,VBUS*%
%TO.N,unconnected-(RP2-VBUS-Pad3)*%
X152730000Y-65200000D03*
%TO.P,RP2,4,D13*%
%TO.N,Net-(RP2-D13)*%
X152730000Y-67740000D03*
%TO.P,RP2,5,D12*%
%TO.N,Net-(RP2-D12)*%
X152730000Y-70280000D03*
%TO.P,RP2,6,D11*%
%TO.N,unconnected-(RP2-D11-Pad6)*%
X152730000Y-72820000D03*
%TO.P,RP2,7,D10*%
%TO.N,unconnected-(RP2-D10-Pad7)*%
X152730000Y-75360000D03*
%TO.P,RP2,8,D9*%
%TO.N,unconnected-(RP2-D9-Pad8)*%
X152730000Y-77900000D03*
%TO.P,RP2,9,D6*%
%TO.N,unconnected-(RP2-D6-Pad9)*%
X152730000Y-80440000D03*
%TO.P,RP2,10,D5*%
%TO.N,unconnected-(RP2-D5-Pad10)*%
X152730000Y-82980000D03*
%TO.P,RP2,11,SCL*%
%TO.N,unconnected-(RP2-SCL-Pad11)*%
X152730000Y-85520000D03*
%TO.P,RP2,12,SDA*%
%TO.N,unconnected-(RP2-SDA-Pad12)*%
X152730000Y-88060000D03*
%TO.P,RP2,13,D4*%
%TO.N,unconnected-(RP2-D4-Pad13)*%
X132346500Y-88060000D03*
%TO.P,RP2,14,TX*%
%TO.N,unconnected-(RP2-TX-Pad14)*%
X132346500Y-85520000D03*
%TO.P,RP2,15,RX*%
%TO.N,unconnected-(RP2-RX-Pad15)*%
X132346500Y-82980000D03*
%TO.P,RP2,16,MISO*%
%TO.N,unconnected-(RP2-MISO-Pad16)*%
X132346500Y-80440000D03*
%TO.P,RP2,17,MOSI*%
%TO.N,unconnected-(RP2-MOSI-Pad17)*%
X132346500Y-77900000D03*
%TO.P,RP2,18,SCK*%
%TO.N,/SCK*%
X132346500Y-75360000D03*
%TO.P,RP2,19,D25*%
%TO.N,unconnected-(RP2-D25-Pad19)*%
X132346500Y-72820000D03*
%TO.P,RP2,20,D24*%
%TO.N,/GPIO_RESET*%
X132346500Y-70280000D03*
%TO.P,RP2,21,A3*%
%TO.N,/CS*%
X132346500Y-67740000D03*
%TO.P,RP2,22,A2*%
%TO.N,/MISO*%
X132346500Y-65200000D03*
%TO.P,RP2,23,A1*%
%TO.N,/MOSI*%
X132346500Y-62660000D03*
%TO.P,RP2,24,A0*%
%TO.N,/GPIO_CLKIN*%
X132346500Y-60120000D03*
%TO.P,RP2,25,GND*%
%TO.N,GND*%
X132346500Y-57580000D03*
%TO.P,RP2,26,3.3V*%
%TO.N,+3V3*%
X132346500Y-55040000D03*
%TO.P,RP2,27,3.3V*%
X132346500Y-52500000D03*
%TO.P,RP2,28,RESET*%
%TO.N,unconnected-(RP2-RESET-Pad28)*%
X132346500Y-49960000D03*
%TO.P,RP2,29,CAN_L*%
%TO.N,/CAN_L*%
X146260500Y-90600000D03*
%TO.P,RP2,30,GND*%
%TO.N,GND*%
X142760500Y-90600000D03*
%TO.P,RP2,31,CAN_H*%
%TO.N,/CAN_H*%
X139260500Y-90600000D03*
%TD*%
D16*
%TO.P,J3,1,1*%
%TO.N,/CAN_H*%
X140260500Y-100550000D03*
D17*
%TO.P,J3,2,2*%
%TO.N,GND*%
X142760500Y-100550000D03*
%TO.P,J3,3,3*%
%TO.N,/CAN_L*%
X145260500Y-100550000D03*
%TD*%
D16*
%TO.P,J2,1,1*%
%TO.N,/CAN_H*%
X140260500Y-41060000D03*
D17*
%TO.P,J2,2,2*%
%TO.N,GND*%
X142760500Y-41060000D03*
%TO.P,J2,3,3*%
%TO.N,/CAN_L*%
X145260500Y-41060000D03*
%TD*%
D14*
%TO.P,R9,1*%
%TO.N,GND*%
X112080000Y-107230000D03*
D15*
%TO.P,R9,2*%
%TO.N,Net-(C12-Pad2)*%
X112080000Y-105330000D03*
%TD*%
D11*
%TO.P,J1,N,NEG*%
%TO.N,GND*%
X128990000Y-111060000D03*
D12*
%TO.P,J1,P,POS*%
%TO.N,+48V*%
X121790000Y-111060000D03*
%TD*%
D18*
%TO.N,GND*%
X117125000Y-63775000D03*
X159700000Y-82150000D03*
X152780000Y-98640000D03*
X164300000Y-56650000D03*
X115600000Y-40450000D03*
X105600000Y-47200000D03*
X125000000Y-40450000D03*
X112400000Y-116000000D03*
X160575000Y-66125000D03*
X129400000Y-57580000D03*
X113160000Y-60750000D03*
X164100000Y-71000000D03*
X159530000Y-98590000D03*
X107680000Y-85620000D03*
X105725000Y-70825000D03*
X125100000Y-45600000D03*
X126929199Y-87849198D03*
X109460000Y-63590000D03*
X126200000Y-61425000D03*
X115800000Y-46200000D03*
X159350000Y-91650000D03*
X107680000Y-89940000D03*
X164450000Y-49600000D03*
X126929199Y-85799198D03*
X113940000Y-70020000D03*
X102800000Y-92800000D03*
X102230000Y-59340000D03*
X122090000Y-64330000D03*
X112400000Y-111400000D03*
X105750000Y-52050000D03*
X103400000Y-80400000D03*
X117000000Y-66200000D03*
X115800000Y-51800000D03*
X102800000Y-107000000D03*
X123924500Y-52155000D03*
X126929199Y-89999198D03*
X121850000Y-75300000D03*
X157750000Y-49550000D03*
X102800000Y-100400000D03*
X122120000Y-56310000D03*
X107680000Y-87760000D03*
X121990000Y-68000000D03*
X157920000Y-65200000D03*
X152800000Y-104825000D03*
X126425000Y-56075000D03*
X164175000Y-75375000D03*
X116450000Y-56750000D03*
X110635000Y-60205000D03*
%TO.N,+3V3*%
X114175000Y-74200000D03*
X123000000Y-71750000D03*
%TD*%
%TA.AperFunction,Conductor*%
%TO.N,+3V3*%
G36*
X124091390Y-70269813D02*
G01*
X124137260Y-70322517D01*
X124148571Y-70375684D01*
X124101386Y-74527944D01*
X124080941Y-74594755D01*
X124027620Y-74639907D01*
X123977937Y-74650534D01*
X122368467Y-74657577D01*
X122301952Y-74638572D01*
X122199522Y-74574210D01*
X122199518Y-74574209D01*
X122029262Y-74514633D01*
X122029249Y-74514630D01*
X121850004Y-74494435D01*
X121849996Y-74494435D01*
X121670750Y-74514630D01*
X121670737Y-74514633D01*
X121500479Y-74574209D01*
X121390780Y-74643137D01*
X121325352Y-74662142D01*
X112800958Y-74699448D01*
X112733833Y-74680057D01*
X112687847Y-74627454D01*
X112676423Y-74574048D01*
X112676944Y-74527944D01*
X112723617Y-70397328D01*
X112744058Y-70330518D01*
X112797375Y-70285363D01*
X112847336Y-70274732D01*
X113092602Y-70274195D01*
X113159682Y-70293733D01*
X113205552Y-70346437D01*
X113209912Y-70357238D01*
X113214210Y-70369521D01*
X113310184Y-70522262D01*
X113437738Y-70649816D01*
X113590478Y-70745789D01*
X113760745Y-70805368D01*
X113760750Y-70805369D01*
X113939996Y-70825565D01*
X113940000Y-70825565D01*
X113940004Y-70825565D01*
X114119249Y-70805369D01*
X114119252Y-70805368D01*
X114119255Y-70805368D01*
X114289522Y-70745789D01*
X114442262Y-70649816D01*
X114569816Y-70522262D01*
X114665789Y-70369522D01*
X114671384Y-70353530D01*
X114712103Y-70296756D01*
X114777055Y-70271006D01*
X114788122Y-70270485D01*
X124024308Y-70250275D01*
X124091390Y-70269813D01*
G37*
%TD.AperFunction*%
%TD*%
%TA.AperFunction,Conductor*%
%TO.N,GND*%
G36*
X166597539Y-36260185D02*
G01*
X166643294Y-36312989D01*
X166654500Y-36364500D01*
X166654500Y-117575500D01*
X166634815Y-117642539D01*
X166582011Y-117688294D01*
X166530500Y-117699500D01*
X97414500Y-117699500D01*
X97347461Y-117679815D01*
X97301706Y-117627011D01*
X97290500Y-117575500D01*
X97290500Y-113868711D01*
X99139500Y-113868711D01*
X99139500Y-114111288D01*
X99164650Y-114302331D01*
X99171162Y-114351789D01*
X99173842Y-114361789D01*
X99233947Y-114586104D01*
X99326773Y-114810205D01*
X99326777Y-114810214D01*
X99332551Y-114820214D01*
X99448064Y-115020289D01*
X99448066Y-115020292D01*
X99448067Y-115020293D01*
X99595733Y-115212736D01*
X99595739Y-115212743D01*
X99767256Y-115384260D01*
X99767263Y-115384266D01*
X99880321Y-115471018D01*
X99959711Y-115531936D01*
X100169788Y-115653224D01*
X100393900Y-115746054D01*
X100628211Y-115808838D01*
X100808586Y-115832584D01*
X100868711Y-115840500D01*
X100868712Y-115840500D01*
X101111289Y-115840500D01*
X101159388Y-115834167D01*
X101351789Y-115808838D01*
X101586100Y-115746054D01*
X101810212Y-115653224D01*
X102020289Y-115531936D01*
X102212738Y-115384265D01*
X102384265Y-115212738D01*
X102531936Y-115020289D01*
X102653224Y-114810212D01*
X102746054Y-114586100D01*
X102808838Y-114351789D01*
X102840500Y-114111288D01*
X102840500Y-113868712D01*
X102808838Y-113628211D01*
X102746054Y-113393900D01*
X102653224Y-113169788D01*
X102531936Y-112959711D01*
X102384265Y-112767262D01*
X102384260Y-112767256D01*
X102212743Y-112595739D01*
X102212736Y-112595733D01*
X102020293Y-112448067D01*
X102020292Y-112448066D01*
X102020289Y-112448064D01*
X101810212Y-112326776D01*
X101809869Y-112326634D01*
X101586104Y-112233947D01*
X101351785Y-112171161D01*
X101111289Y-112139500D01*
X101111288Y-112139500D01*
X100868712Y-112139500D01*
X100868711Y-112139500D01*
X100628214Y-112171161D01*
X100393895Y-112233947D01*
X100169794Y-112326773D01*
X100169785Y-112326777D01*
X99959706Y-112448067D01*
X99767263Y-112595733D01*
X99767256Y-112595739D01*
X99595739Y-112767256D01*
X99595733Y-112767263D01*
X99448067Y-112959706D01*
X99448064Y-112959710D01*
X99448064Y-112959711D01*
X99431817Y-112987851D01*
X99326777Y-113169785D01*
X99326773Y-113169794D01*
X99233947Y-113393895D01*
X99171161Y-113628214D01*
X99139500Y-113868711D01*
X97290500Y-113868711D01*
X97290500Y-108236879D01*
X111426672Y-108236879D01*
X111426672Y-108236880D01*
X111542821Y-108308797D01*
X111542822Y-108308798D01*
X111750195Y-108389134D01*
X111968807Y-108430000D01*
X112191193Y-108430000D01*
X112409809Y-108389133D01*
X112617168Y-108308801D01*
X112617181Y-108308795D01*
X112733326Y-108236879D01*
X112508582Y-108012135D01*
X118289500Y-108012135D01*
X118289500Y-114107870D01*
X118289501Y-114107876D01*
X118295908Y-114167483D01*
X118346202Y-114302328D01*
X118346206Y-114302335D01*
X118432452Y-114417544D01*
X118432455Y-114417547D01*
X118547664Y-114503793D01*
X118547671Y-114503797D01*
X118682517Y-114554091D01*
X118682516Y-114554091D01*
X118689444Y-114554835D01*
X118742127Y-114560500D01*
X124837872Y-114560499D01*
X124897483Y-114554091D01*
X125032331Y-114503796D01*
X125147546Y-114417546D01*
X125233796Y-114302331D01*
X125284091Y-114167483D01*
X125290500Y-114107873D01*
X125290499Y-111651423D01*
X125310184Y-111584387D01*
X125362987Y-111538632D01*
X125432146Y-111528688D01*
X125495702Y-111557713D01*
X125533476Y-111616491D01*
X125536972Y-111632028D01*
X125561784Y-111788684D01*
X125561784Y-111788686D01*
X125656736Y-112143051D01*
X125788204Y-112485535D01*
X125954754Y-112812406D01*
X126154553Y-113120070D01*
X126343297Y-113353148D01*
X127213947Y-112482498D01*
X127275895Y-112563230D01*
X127486770Y-112774105D01*
X127567500Y-112836051D01*
X126696850Y-113706701D01*
X126929929Y-113895446D01*
X127237593Y-114095245D01*
X127564464Y-114261795D01*
X127906948Y-114393263D01*
X128261314Y-114488215D01*
X128623646Y-114545602D01*
X128989999Y-114564803D01*
X128990001Y-114564803D01*
X129356353Y-114545602D01*
X129718684Y-114488215D01*
X129718686Y-114488215D01*
X130073051Y-114393263D01*
X130415535Y-114261795D01*
X130742406Y-114095245D01*
X131050064Y-113895450D01*
X131283148Y-113706701D01*
X130412499Y-112836052D01*
X130493230Y-112774105D01*
X130704105Y-112563230D01*
X130766052Y-112482499D01*
X131636701Y-113353148D01*
X131825450Y-113120064D01*
X132025245Y-112812406D01*
X132191795Y-112485535D01*
X132323263Y-112143051D01*
X132418215Y-111788686D01*
X132418215Y-111788684D01*
X132475602Y-111426353D01*
X132494803Y-111060000D01*
X132494803Y-111059999D01*
X132475602Y-110693646D01*
X132418215Y-110331315D01*
X132418215Y-110331313D01*
X132323263Y-109976948D01*
X132191795Y-109634464D01*
X132025245Y-109307594D01*
X131825446Y-108999929D01*
X131636701Y-108766850D01*
X130766051Y-109637499D01*
X130704105Y-109556770D01*
X130493230Y-109345895D01*
X130412499Y-109283947D01*
X131283149Y-108413297D01*
X131050070Y-108224553D01*
X130876961Y-108112135D01*
X139349500Y-108112135D01*
X139349500Y-114207870D01*
X139349501Y-114207876D01*
X139355908Y-114267483D01*
X139406202Y-114402328D01*
X139406206Y-114402335D01*
X139492452Y-114517544D01*
X139492455Y-114517547D01*
X139607664Y-114603793D01*
X139607671Y-114603797D01*
X139742517Y-114654091D01*
X139742516Y-114654091D01*
X139749444Y-114654835D01*
X139802127Y-114660500D01*
X145897872Y-114660499D01*
X145957483Y-114654091D01*
X146092331Y-114603796D01*
X146207546Y-114517546D01*
X146293796Y-114402331D01*
X146344091Y-114267483D01*
X146350500Y-114207873D01*
X146350499Y-111751423D01*
X146370184Y-111684387D01*
X146422987Y-111638632D01*
X146492146Y-111628688D01*
X146555702Y-111657713D01*
X146593476Y-111716491D01*
X146596972Y-111732028D01*
X146621784Y-111888684D01*
X146621784Y-111888686D01*
X146716736Y-112243051D01*
X146848204Y-112585535D01*
X147014754Y-112912406D01*
X147214553Y-113220070D01*
X147403297Y-113453148D01*
X148273947Y-112582498D01*
X148335895Y-112663230D01*
X148546770Y-112874105D01*
X148627500Y-112936051D01*
X147756850Y-113806701D01*
X147989929Y-113995446D01*
X148297593Y-114195245D01*
X148624464Y-114361795D01*
X148966948Y-114493263D01*
X149321314Y-114588215D01*
X149683646Y-114645602D01*
X150049999Y-114664803D01*
X150050001Y-114664803D01*
X150416353Y-114645602D01*
X150778684Y-114588215D01*
X150778686Y-114588215D01*
X151133051Y-114493263D01*
X151475535Y-114361795D01*
X151802406Y-114195245D01*
X152110064Y-113995450D01*
X152254224Y-113878711D01*
X161149500Y-113878711D01*
X161149500Y-114121288D01*
X161168746Y-114267483D01*
X161181162Y-114361789D01*
X161192025Y-114402331D01*
X161243947Y-114596104D01*
X161332631Y-114810205D01*
X161336776Y-114820212D01*
X161458064Y-115030289D01*
X161458066Y-115030292D01*
X161458067Y-115030293D01*
X161605733Y-115222736D01*
X161605739Y-115222743D01*
X161777256Y-115394260D01*
X161777262Y-115394265D01*
X161969711Y-115541936D01*
X162179788Y-115663224D01*
X162403900Y-115756054D01*
X162638211Y-115818838D01*
X162802753Y-115840500D01*
X162878711Y-115850500D01*
X162878712Y-115850500D01*
X163121289Y-115850500D01*
X163169388Y-115844167D01*
X163361789Y-115818838D01*
X163596100Y-115756054D01*
X163820212Y-115663224D01*
X164030289Y-115541936D01*
X164222738Y-115394265D01*
X164394265Y-115222738D01*
X164541936Y-115030289D01*
X164663224Y-114820212D01*
X164756054Y-114596100D01*
X164818838Y-114361789D01*
X164850500Y-114121288D01*
X164850500Y-113878712D01*
X164849183Y-113868712D01*
X164841020Y-113806701D01*
X164818838Y-113638211D01*
X164756054Y-113403900D01*
X164663224Y-113179788D01*
X164541936Y-112969711D01*
X164394265Y-112777262D01*
X164394260Y-112777256D01*
X164222743Y-112605739D01*
X164222736Y-112605733D01*
X164030293Y-112458067D01*
X164030292Y-112458066D01*
X164030289Y-112458064D01*
X163820212Y-112336776D01*
X163820205Y-112336773D01*
X163596104Y-112243947D01*
X163361785Y-112181161D01*
X163121289Y-112149500D01*
X163121288Y-112149500D01*
X162878712Y-112149500D01*
X162878711Y-112149500D01*
X162638214Y-112181161D01*
X162403895Y-112243947D01*
X162179794Y-112336773D01*
X162179785Y-112336777D01*
X161969706Y-112458067D01*
X161777263Y-112605733D01*
X161777256Y-112605739D01*
X161605739Y-112777256D01*
X161605733Y-112777263D01*
X161458067Y-112969706D01*
X161336777Y-113179785D01*
X161336773Y-113179794D01*
X161243947Y-113403895D01*
X161181161Y-113638214D01*
X161149500Y-113878711D01*
X152254224Y-113878711D01*
X152343148Y-113806701D01*
X151472499Y-112936052D01*
X151553230Y-112874105D01*
X151764105Y-112663230D01*
X151826052Y-112582499D01*
X152696701Y-113453148D01*
X152885450Y-113220064D01*
X153085245Y-112912406D01*
X153251795Y-112585535D01*
X153383263Y-112243051D01*
X153478215Y-111888686D01*
X153478215Y-111888684D01*
X153535602Y-111526353D01*
X153554803Y-111160000D01*
X153554803Y-111159999D01*
X153535602Y-110793646D01*
X153478215Y-110431315D01*
X153478215Y-110431313D01*
X153383263Y-110076948D01*
X153251795Y-109734464D01*
X153085245Y-109407594D01*
X152885446Y-109099929D01*
X152696701Y-108866850D01*
X151826051Y-109737499D01*
X151764105Y-109656770D01*
X151553230Y-109445895D01*
X151472499Y-109383947D01*
X152343149Y-108513297D01*
X152110070Y-108324553D01*
X151802406Y-108124754D01*
X151475535Y-107958204D01*
X151133051Y-107826736D01*
X150778685Y-107731784D01*
X150416353Y-107674397D01*
X150050001Y-107655197D01*
X150049999Y-107655197D01*
X149683646Y-107674397D01*
X149321315Y-107731784D01*
X149321313Y-107731784D01*
X148966948Y-107826736D01*
X148624464Y-107958204D01*
X148297594Y-108124754D01*
X147989924Y-108324557D01*
X147756849Y-108513296D01*
X147756849Y-108513297D01*
X148627500Y-109383948D01*
X148546770Y-109445895D01*
X148335895Y-109656770D01*
X148273948Y-109737500D01*
X147403297Y-108866849D01*
X147403296Y-108866849D01*
X147214557Y-109099924D01*
X147014754Y-109407594D01*
X146848204Y-109734464D01*
X146716736Y-110076948D01*
X146621784Y-110431313D01*
X146621784Y-110431315D01*
X146596972Y-110587972D01*
X146567043Y-110651107D01*
X146507731Y-110688038D01*
X146437869Y-110687040D01*
X146379636Y-110648430D01*
X146351522Y-110584466D01*
X146350499Y-110568574D01*
X146350499Y-108112129D01*
X146350498Y-108112123D01*
X146350497Y-108112116D01*
X146344091Y-108052517D01*
X146329027Y-108012129D01*
X146293797Y-107917671D01*
X146293793Y-107917664D01*
X146207547Y-107802455D01*
X146207544Y-107802452D01*
X146092335Y-107716206D01*
X146092328Y-107716202D01*
X145957482Y-107665908D01*
X145957483Y-107665908D01*
X145897883Y-107659501D01*
X145897881Y-107659500D01*
X145897873Y-107659500D01*
X145897864Y-107659500D01*
X139802129Y-107659500D01*
X139802123Y-107659501D01*
X139742516Y-107665908D01*
X139607671Y-107716202D01*
X139607664Y-107716206D01*
X139492455Y-107802452D01*
X139492452Y-107802455D01*
X139406206Y-107917664D01*
X139406202Y-107917671D01*
X139355908Y-108052517D01*
X139349501Y-108112116D01*
X139349501Y-108112123D01*
X139349500Y-108112135D01*
X130876961Y-108112135D01*
X130742406Y-108024754D01*
X130415535Y-107858204D01*
X130073051Y-107726736D01*
X129718685Y-107631784D01*
X129356353Y-107574397D01*
X128990001Y-107555197D01*
X128989999Y-107555197D01*
X128623646Y-107574397D01*
X128261315Y-107631784D01*
X128261313Y-107631784D01*
X127906948Y-107726736D01*
X127564464Y-107858204D01*
X127237594Y-108024754D01*
X126929924Y-108224557D01*
X126696849Y-108413296D01*
X126696849Y-108413297D01*
X127567500Y-109283948D01*
X127486770Y-109345895D01*
X127275895Y-109556770D01*
X127213948Y-109637500D01*
X126343297Y-108766849D01*
X126343296Y-108766849D01*
X126154557Y-108999924D01*
X125954754Y-109307594D01*
X125788204Y-109634464D01*
X125656736Y-109976948D01*
X125561784Y-110331313D01*
X125561784Y-110331315D01*
X125536972Y-110487972D01*
X125507043Y-110551107D01*
X125447731Y-110588038D01*
X125377869Y-110587040D01*
X125319636Y-110548430D01*
X125291522Y-110484466D01*
X125290499Y-110468574D01*
X125290499Y-108012129D01*
X125290498Y-108012123D01*
X125290497Y-108012116D01*
X125284091Y-107952517D01*
X125271094Y-107917671D01*
X125233797Y-107817671D01*
X125233793Y-107817664D01*
X125147547Y-107702455D01*
X125147544Y-107702452D01*
X125032335Y-107616206D01*
X125032328Y-107616202D01*
X124897482Y-107565908D01*
X124897483Y-107565908D01*
X124837883Y-107559501D01*
X124837881Y-107559500D01*
X124837873Y-107559500D01*
X124837864Y-107559500D01*
X118742129Y-107559500D01*
X118742123Y-107559501D01*
X118682516Y-107565908D01*
X118547671Y-107616202D01*
X118547664Y-107616206D01*
X118432455Y-107702452D01*
X118432452Y-107702455D01*
X118346206Y-107817664D01*
X118346202Y-107817671D01*
X118295908Y-107952517D01*
X118289501Y-108012116D01*
X118289501Y-108012123D01*
X118289500Y-108012135D01*
X112508582Y-108012135D01*
X112080001Y-107583553D01*
X112080000Y-107583553D01*
X111426672Y-108236879D01*
X97290500Y-108236879D01*
X97290500Y-107229999D01*
X110874859Y-107229999D01*
X110874859Y-107230000D01*
X110895378Y-107451439D01*
X110956240Y-107665350D01*
X111055369Y-107864428D01*
X111071137Y-107885308D01*
X111071138Y-107885308D01*
X111726447Y-107230000D01*
X111680369Y-107183922D01*
X111730000Y-107183922D01*
X111730000Y-107276078D01*
X111753852Y-107365095D01*
X111799930Y-107444905D01*
X111865095Y-107510070D01*
X111944905Y-107556148D01*
X112033922Y-107580000D01*
X112126078Y-107580000D01*
X112215095Y-107556148D01*
X112294905Y-107510070D01*
X112360070Y-107444905D01*
X112406148Y-107365095D01*
X112430000Y-107276078D01*
X112430000Y-107229999D01*
X112433553Y-107229999D01*
X112433553Y-107230000D01*
X113088861Y-107885308D01*
X113104631Y-107864425D01*
X113104633Y-107864422D01*
X113203759Y-107665350D01*
X113264621Y-107451439D01*
X113285141Y-107230000D01*
X113285141Y-107229999D01*
X113264621Y-107008560D01*
X113203759Y-106794649D01*
X113104635Y-106595580D01*
X113104630Y-106595572D01*
X113088860Y-106574690D01*
X112433553Y-107229999D01*
X112430000Y-107229999D01*
X112430000Y-107183922D01*
X112406148Y-107094905D01*
X112360070Y-107015095D01*
X112294905Y-106949930D01*
X112215095Y-106903852D01*
X112126078Y-106880000D01*
X112033922Y-106880000D01*
X111944905Y-106903852D01*
X111865095Y-106949930D01*
X111799930Y-107015095D01*
X111753852Y-107094905D01*
X111730000Y-107183922D01*
X111680369Y-107183922D01*
X111071138Y-106574691D01*
X111071137Y-106574691D01*
X111055368Y-106595574D01*
X110956240Y-106794649D01*
X110895378Y-107008560D01*
X110874859Y-107229999D01*
X97290500Y-107229999D01*
X97290500Y-105329999D01*
X110874357Y-105329999D01*
X110874357Y-105330000D01*
X110894884Y-105551535D01*
X110894885Y-105551537D01*
X110955769Y-105765523D01*
X110955775Y-105765538D01*
X111054938Y-105964683D01*
X111054943Y-105964691D01*
X111189020Y-106142238D01*
X111353437Y-106292123D01*
X111353439Y-106292125D01*
X111461116Y-106358795D01*
X111542599Y-106409247D01*
X111632806Y-106444193D01*
X111675691Y-106472138D01*
X112080000Y-106876447D01*
X112080001Y-106876447D01*
X112484308Y-106472138D01*
X112527193Y-106444193D01*
X112617401Y-106409247D01*
X112806562Y-106292124D01*
X112970981Y-106142236D01*
X113105058Y-105964689D01*
X113204229Y-105765528D01*
X113265115Y-105551536D01*
X113285643Y-105330000D01*
X113281010Y-105279999D01*
X123744357Y-105279999D01*
X123744357Y-105280000D01*
X123764884Y-105501535D01*
X123764885Y-105501537D01*
X123825769Y-105715523D01*
X123825775Y-105715538D01*
X123924938Y-105914683D01*
X123924943Y-105914691D01*
X124059020Y-106092238D01*
X124223437Y-106242123D01*
X124223439Y-106242125D01*
X124412595Y-106359245D01*
X124412596Y-106359245D01*
X124412599Y-106359247D01*
X124620060Y-106439618D01*
X124838757Y-106480500D01*
X124838759Y-106480500D01*
X125061241Y-106480500D01*
X125061243Y-106480500D01*
X125279940Y-106439618D01*
X125487401Y-106359247D01*
X125604280Y-106286879D01*
X126196672Y-106286879D01*
X126196672Y-106286880D01*
X126312821Y-106358797D01*
X126312822Y-106358798D01*
X126520195Y-106439134D01*
X126738807Y-106480000D01*
X126961193Y-106480000D01*
X127179809Y-106439133D01*
X127387168Y-106358801D01*
X127387181Y-106358795D01*
X127503326Y-106286879D01*
X126850001Y-105633553D01*
X126850000Y-105633553D01*
X126196672Y-106286879D01*
X125604280Y-106286879D01*
X125676562Y-106242124D01*
X125840981Y-106092236D01*
X125975058Y-105914689D01*
X126049332Y-105765528D01*
X126076785Y-105710396D01*
X126077912Y-105710957D01*
X126101144Y-105675302D01*
X126496447Y-105280000D01*
X126450369Y-105233922D01*
X126500000Y-105233922D01*
X126500000Y-105326078D01*
X126523852Y-105415095D01*
X126569930Y-105494905D01*
X126635095Y-105560070D01*
X126714905Y-105606148D01*
X126803922Y-105630000D01*
X126896078Y-105630000D01*
X126985095Y-105606148D01*
X127064905Y-105560070D01*
X127130070Y-105494905D01*
X127176148Y-105415095D01*
X127200000Y-105326078D01*
X127200000Y-105279999D01*
X127203553Y-105279999D01*
X127203553Y-105280000D01*
X127858861Y-105935308D01*
X127874631Y-105914425D01*
X127874633Y-105914422D01*
X127973759Y-105715350D01*
X128034621Y-105501439D01*
X128055141Y-105280000D01*
X128055141Y-105279999D01*
X128034621Y-105058560D01*
X127973759Y-104844649D01*
X127874635Y-104645580D01*
X127874630Y-104645572D01*
X127858860Y-104624690D01*
X127203553Y-105279999D01*
X127200000Y-105279999D01*
X127200000Y-105233922D01*
X127176148Y-105144905D01*
X127130070Y-105065095D01*
X127064905Y-104999930D01*
X126985095Y-104953852D01*
X126896078Y-104930000D01*
X126803922Y-104930000D01*
X126714905Y-104953852D01*
X126635095Y-104999930D01*
X126569930Y-105065095D01*
X126523852Y-105144905D01*
X126500000Y-105233922D01*
X126450369Y-105233922D01*
X126101143Y-104884696D01*
X126077914Y-104849041D01*
X126076785Y-104849604D01*
X125975061Y-104645316D01*
X125975056Y-104645308D01*
X125840979Y-104467761D01*
X125676562Y-104317876D01*
X125676560Y-104317874D01*
X125604278Y-104273119D01*
X126196671Y-104273119D01*
X126850000Y-104926447D01*
X126850001Y-104926447D01*
X127503327Y-104273119D01*
X127387178Y-104201202D01*
X127387177Y-104201201D01*
X127179804Y-104120865D01*
X126961193Y-104080000D01*
X126738807Y-104080000D01*
X126520195Y-104120865D01*
X126312824Y-104201200D01*
X126312823Y-104201201D01*
X126196671Y-104273119D01*
X125604278Y-104273119D01*
X125487404Y-104200754D01*
X125487398Y-104200752D01*
X125279940Y-104120382D01*
X125061243Y-104079500D01*
X124838757Y-104079500D01*
X124620060Y-104120382D01*
X124490995Y-104170382D01*
X124412601Y-104200752D01*
X124412595Y-104200754D01*
X124223439Y-104317874D01*
X124223437Y-104317876D01*
X124059020Y-104467761D01*
X123924943Y-104645308D01*
X123924938Y-104645316D01*
X123825775Y-104844461D01*
X123825769Y-104844476D01*
X123764885Y-105058462D01*
X123764884Y-105058464D01*
X123744357Y-105279999D01*
X113281010Y-105279999D01*
X113265115Y-105108464D01*
X113204229Y-104894472D01*
X113204224Y-104894461D01*
X113105061Y-104695316D01*
X113105056Y-104695308D01*
X112970979Y-104517761D01*
X112806562Y-104367876D01*
X112806560Y-104367874D01*
X112617404Y-104250754D01*
X112617398Y-104250752D01*
X112409940Y-104170382D01*
X112191243Y-104129500D01*
X111968757Y-104129500D01*
X111750060Y-104170382D01*
X111670505Y-104201202D01*
X111542601Y-104250752D01*
X111542595Y-104250754D01*
X111353439Y-104367874D01*
X111353437Y-104367876D01*
X111189020Y-104517761D01*
X111054943Y-104695308D01*
X111054938Y-104695316D01*
X110955775Y-104894461D01*
X110955769Y-104894476D01*
X110894885Y-105108462D01*
X110894884Y-105108464D01*
X110874357Y-105329999D01*
X97290500Y-105329999D01*
X97290500Y-100226499D01*
X110554341Y-100226499D01*
X110554341Y-100226500D01*
X110574936Y-100461903D01*
X110574938Y-100461913D01*
X110636094Y-100690155D01*
X110636096Y-100690159D01*
X110636097Y-100690163D01*
X110719994Y-100870080D01*
X110735965Y-100904330D01*
X110735967Y-100904334D01*
X110837716Y-101049645D01*
X110871505Y-101097901D01*
X111038599Y-101264995D01*
X111135384Y-101332765D01*
X111232165Y-101400532D01*
X111232167Y-101400533D01*
X111232170Y-101400535D01*
X111446337Y-101500403D01*
X111674592Y-101561563D01*
X111862918Y-101578039D01*
X111909999Y-101582159D01*
X111910000Y-101582159D01*
X111910001Y-101582159D01*
X111949234Y-101578726D01*
X112145408Y-101561563D01*
X112373663Y-101500403D01*
X112587830Y-101400535D01*
X112781401Y-101264995D01*
X112948495Y-101097901D01*
X113084035Y-100904330D01*
X113183903Y-100690163D01*
X113245063Y-100461908D01*
X113265659Y-100226500D01*
X113261437Y-100178249D01*
X123584341Y-100178249D01*
X123584341Y-100178250D01*
X123604936Y-100413653D01*
X123604938Y-100413663D01*
X123666094Y-100641905D01*
X123666096Y-100641909D01*
X123666097Y-100641913D01*
X123765965Y-100856080D01*
X123765967Y-100856084D01*
X123874281Y-101010771D01*
X123901505Y-101049651D01*
X124068599Y-101216745D01*
X124155600Y-101277664D01*
X124262165Y-101352282D01*
X124262167Y-101352283D01*
X124262170Y-101352285D01*
X124476337Y-101452153D01*
X124704592Y-101513313D01*
X124892918Y-101529789D01*
X124939999Y-101533909D01*
X124940000Y-101533909D01*
X124940001Y-101533909D01*
X124979234Y-101530476D01*
X125175408Y-101513313D01*
X125403663Y-101452153D01*
X125617830Y-101352285D01*
X125811401Y-101216745D01*
X125978495Y-101049651D01*
X126114035Y-100856080D01*
X126213903Y-100641913D01*
X126275063Y-100413658D01*
X126295659Y-100178250D01*
X126294062Y-100160002D01*
X126278692Y-99984325D01*
X126275063Y-99942842D01*
X126270854Y-99927135D01*
X139185000Y-99927135D01*
X139185000Y-101172870D01*
X139185001Y-101172876D01*
X139191408Y-101232483D01*
X139241702Y-101367328D01*
X139241706Y-101367335D01*
X139327952Y-101482544D01*
X139327955Y-101482547D01*
X139443164Y-101568793D01*
X139443171Y-101568797D01*
X139578017Y-101619091D01*
X139578016Y-101619091D01*
X139584944Y-101619835D01*
X139637627Y-101625500D01*
X140883372Y-101625499D01*
X140942983Y-101619091D01*
X141077831Y-101568796D01*
X141193046Y-101482546D01*
X141279296Y-101367331D01*
X141329591Y-101232483D01*
X141336000Y-101172873D01*
X141335999Y-100549999D01*
X141680895Y-100549999D01*
X141680895Y-100550000D01*
X141699276Y-100748376D01*
X141699277Y-100748379D01*
X141753793Y-100939986D01*
X141753801Y-100940006D01*
X141841273Y-101115673D01*
X142360500Y-100596446D01*
X142360500Y-100602661D01*
X142387759Y-100704394D01*
X142440420Y-100795606D01*
X142514894Y-100870080D01*
X142606106Y-100922741D01*
X142707839Y-100950000D01*
X142714053Y-100950000D01*
X142197971Y-101466079D01*
X142197972Y-101466080D01*
X142279275Y-101516421D01*
X142279284Y-101516425D01*
X142465049Y-101588390D01*
X142465054Y-101588391D01*
X142660889Y-101625000D01*
X142860111Y-101625000D01*
X143055945Y-101588391D01*
X143055950Y-101588390D01*
X143241717Y-101516424D01*
X143241721Y-101516422D01*
X143323027Y-101466079D01*
X142806948Y-100950000D01*
X142813161Y-100950000D01*
X142914894Y-100922741D01*
X143006106Y-100870080D01*
X143080580Y-100795606D01*
X143133241Y-100704394D01*
X143160500Y-100602661D01*
X143160500Y-100596447D01*
X143679726Y-101115673D01*
X143767197Y-100940008D01*
X143767203Y-100939993D01*
X143821722Y-100748378D01*
X143821723Y-100748376D01*
X143840105Y-100550000D01*
X143840105Y-100549999D01*
X144180392Y-100549999D01*
X144180392Y-100550000D01*
X144198782Y-100748464D01*
X144198782Y-100748466D01*
X144198783Y-100748469D01*
X144253280Y-100940008D01*
X144253330Y-100940183D01*
X144342170Y-101118598D01*
X144342175Y-101118606D01*
X144462292Y-101277666D01*
X144560651Y-101367331D01*
X144609590Y-101411945D01*
X144697021Y-101466080D01*
X144778328Y-101516424D01*
X144779054Y-101516873D01*
X144964914Y-101588876D01*
X145160840Y-101625500D01*
X145160842Y-101625500D01*
X145360158Y-101625500D01*
X145360160Y-101625500D01*
X145556086Y-101588876D01*
X145741946Y-101516873D01*
X145911410Y-101411945D01*
X146058709Y-101277664D01*
X146178826Y-101118604D01*
X146267671Y-100940180D01*
X146322217Y-100748469D01*
X146340608Y-100550000D01*
X146322217Y-100351531D01*
X146267671Y-100159820D01*
X146262781Y-100150000D01*
X146178829Y-99981401D01*
X146178824Y-99981393D01*
X146058707Y-99822333D01*
X145911411Y-99688056D01*
X145911410Y-99688055D01*
X145823976Y-99633918D01*
X145741947Y-99583127D01*
X145741945Y-99583126D01*
X145653000Y-99548669D01*
X145556086Y-99511124D01*
X145556082Y-99511123D01*
X145477139Y-99496366D01*
X145360160Y-99474500D01*
X145160840Y-99474500D01*
X145070754Y-99491339D01*
X144964917Y-99511123D01*
X144964915Y-99511123D01*
X144964914Y-99511124D01*
X144913087Y-99531202D01*
X144779054Y-99583126D01*
X144779052Y-99583127D01*
X144609588Y-99688056D01*
X144462292Y-99822333D01*
X144342175Y-99981393D01*
X144342170Y-99981401D01*
X144253330Y-100159816D01*
X144198782Y-100351535D01*
X144180392Y-100549999D01*
X143840105Y-100549999D01*
X143821723Y-100351623D01*
X143821722Y-100351621D01*
X143767203Y-100160006D01*
X143767197Y-100159991D01*
X143679725Y-99984325D01*
X143160500Y-100503551D01*
X143160500Y-100497339D01*
X143133241Y-100395606D01*
X143080580Y-100304394D01*
X143006106Y-100229920D01*
X142914894Y-100177259D01*
X142813161Y-100150000D01*
X142806948Y-100150000D01*
X143323027Y-99633919D01*
X143323026Y-99633918D01*
X143241724Y-99583579D01*
X143241715Y-99583574D01*
X143055950Y-99511609D01*
X143055945Y-99511608D01*
X142860111Y-99475000D01*
X142660889Y-99475000D01*
X142465054Y-99511608D01*
X142465053Y-99511608D01*
X142279280Y-99583576D01*
X142279276Y-99583578D01*
X142197971Y-99633919D01*
X142714053Y-100150000D01*
X142707839Y-100150000D01*
X142606106Y-100177259D01*
X142514894Y-100229920D01*
X142440420Y-100304394D01*
X142387759Y-100395606D01*
X142360500Y-100497339D01*
X142360500Y-100503552D01*
X141841273Y-99984325D01*
X141753798Y-100160002D01*
X141753793Y-100160013D01*
X141699277Y-100351620D01*
X141699276Y-100351623D01*
X141680895Y-100549999D01*
X141335999Y-100549999D01*
X141335999Y-99927128D01*
X141329591Y-99867517D01*
X141312738Y-99822333D01*
X141279297Y-99732671D01*
X141279293Y-99732664D01*
X141193047Y-99617455D01*
X141193044Y-99617452D01*
X141077835Y-99531206D01*
X141077828Y-99531202D01*
X140942982Y-99480908D01*
X140942983Y-99480908D01*
X140883383Y-99474501D01*
X140883381Y-99474500D01*
X140883373Y-99474500D01*
X140883364Y-99474500D01*
X139637629Y-99474500D01*
X139637623Y-99474501D01*
X139578016Y-99480908D01*
X139443171Y-99531202D01*
X139443164Y-99531206D01*
X139327955Y-99617452D01*
X139327952Y-99617455D01*
X139241706Y-99732664D01*
X139241702Y-99732671D01*
X139191408Y-99867517D01*
X139185001Y-99927116D01*
X139185001Y-99927123D01*
X139185000Y-99927135D01*
X126270854Y-99927135D01*
X126213903Y-99714587D01*
X126114035Y-99500421D01*
X126012279Y-99355097D01*
X125978494Y-99306847D01*
X125811402Y-99139756D01*
X125811395Y-99139751D01*
X125617834Y-99004217D01*
X125617830Y-99004215D01*
X125507135Y-98952597D01*
X125403663Y-98904347D01*
X125403659Y-98904346D01*
X125403655Y-98904344D01*
X125175413Y-98843188D01*
X125175403Y-98843186D01*
X124940001Y-98822591D01*
X124939999Y-98822591D01*
X124704596Y-98843186D01*
X124704586Y-98843188D01*
X124476344Y-98904344D01*
X124476335Y-98904348D01*
X124262171Y-99004214D01*
X124262169Y-99004215D01*
X124068597Y-99139755D01*
X123901505Y-99306847D01*
X123765965Y-99500419D01*
X123765964Y-99500421D01*
X123666098Y-99714585D01*
X123666094Y-99714594D01*
X123604938Y-99942836D01*
X123604936Y-99942846D01*
X123584341Y-100178249D01*
X113261437Y-100178249D01*
X113245063Y-99991092D01*
X113183903Y-99762837D01*
X113084035Y-99548671D01*
X113071804Y-99531202D01*
X112948494Y-99355097D01*
X112781402Y-99188006D01*
X112781395Y-99188001D01*
X112587834Y-99052467D01*
X112587830Y-99052465D01*
X112484362Y-99004217D01*
X112373663Y-98952597D01*
X112373659Y-98952596D01*
X112373655Y-98952594D01*
X112145413Y-98891438D01*
X112145403Y-98891436D01*
X111910001Y-98870841D01*
X111909999Y-98870841D01*
X111674596Y-98891436D01*
X111674586Y-98891438D01*
X111446344Y-98952594D01*
X111446335Y-98952598D01*
X111232171Y-99052464D01*
X111232169Y-99052465D01*
X111038597Y-99188005D01*
X110871505Y-99355097D01*
X110735965Y-99548669D01*
X110735964Y-99548671D01*
X110636098Y-99762835D01*
X110636094Y-99762844D01*
X110574938Y-99991086D01*
X110574936Y-99991096D01*
X110554341Y-100226499D01*
X97290500Y-100226499D01*
X97290500Y-95209999D01*
X110554341Y-95209999D01*
X110554341Y-95210000D01*
X110574936Y-95445403D01*
X110574938Y-95445413D01*
X110636094Y-95673655D01*
X110636096Y-95673659D01*
X110636097Y-95673663D01*
X110735965Y-95887830D01*
X110735967Y-95887834D01*
X110837716Y-96033145D01*
X110871505Y-96081401D01*
X111038599Y-96248495D01*
X111135384Y-96316265D01*
X111232165Y-96384032D01*
X111232167Y-96384033D01*
X111232170Y-96384035D01*
X111446337Y-96483903D01*
X111674592Y-96545063D01*
X111862918Y-96561539D01*
X111909999Y-96565659D01*
X111910000Y-96565659D01*
X111910001Y-96565659D01*
X111949234Y-96562226D01*
X112145408Y-96545063D01*
X112373663Y-96483903D01*
X112587830Y-96384035D01*
X112781401Y-96248495D01*
X112948495Y-96081401D01*
X113084035Y-95887830D01*
X113183903Y-95673663D01*
X113245063Y-95445408D01*
X113265659Y-95210000D01*
X113261437Y-95161749D01*
X123584341Y-95161749D01*
X123584341Y-95161750D01*
X123604936Y-95397153D01*
X123604938Y-95397163D01*
X123666094Y-95625405D01*
X123666096Y-95625409D01*
X123666097Y-95625413D01*
X123688597Y-95673664D01*
X123765965Y-95839580D01*
X123765967Y-95839584D01*
X123874281Y-95994271D01*
X123901505Y-96033151D01*
X124068599Y-96200245D01*
X124165384Y-96268015D01*
X124262165Y-96335782D01*
X124262167Y-96335783D01*
X124262170Y-96335785D01*
X124476337Y-96435653D01*
X124704592Y-96496813D01*
X124892918Y-96513289D01*
X124939999Y-96517409D01*
X124940000Y-96517409D01*
X124940001Y-96517409D01*
X124979234Y-96513976D01*
X125175408Y-96496813D01*
X125403663Y-96435653D01*
X125617830Y-96335785D01*
X125811401Y-96200245D01*
X125978495Y-96033151D01*
X126114035Y-95839580D01*
X126213903Y-95625413D01*
X126275063Y-95397158D01*
X126295659Y-95161750D01*
X126275063Y-94926342D01*
X126213903Y-94698087D01*
X126114035Y-94483921D01*
X126012279Y-94338597D01*
X125978494Y-94290347D01*
X125811402Y-94123256D01*
X125811395Y-94123251D01*
X125617834Y-93987717D01*
X125617830Y-93987715D01*
X125507135Y-93936097D01*
X125403663Y-93887847D01*
X125403659Y-93887846D01*
X125403655Y-93887844D01*
X125175413Y-93826688D01*
X125175403Y-93826686D01*
X124940001Y-93806091D01*
X124939999Y-93806091D01*
X124704596Y-93826686D01*
X124704586Y-93826688D01*
X124476344Y-93887844D01*
X124476335Y-93887848D01*
X124262171Y-93987714D01*
X124262169Y-93987715D01*
X124068597Y-94123255D01*
X123901505Y-94290347D01*
X123765965Y-94483919D01*
X123765964Y-94483921D01*
X123666098Y-94698085D01*
X123666094Y-94698094D01*
X123604938Y-94926336D01*
X123604936Y-94926346D01*
X123584341Y-95161749D01*
X113261437Y-95161749D01*
X113245063Y-94974592D01*
X113183903Y-94746337D01*
X113084035Y-94532171D01*
X113050251Y-94483921D01*
X112948494Y-94338597D01*
X112781402Y-94171506D01*
X112781395Y-94171501D01*
X112587834Y-94035967D01*
X112587830Y-94035965D01*
X112484362Y-93987717D01*
X112373663Y-93936097D01*
X112373659Y-93936096D01*
X112373655Y-93936094D01*
X112145413Y-93874938D01*
X112145403Y-93874936D01*
X111910001Y-93854341D01*
X111909999Y-93854341D01*
X111674596Y-93874936D01*
X111674586Y-93874938D01*
X111446344Y-93936094D01*
X111446335Y-93936098D01*
X111232171Y-94035964D01*
X111232169Y-94035965D01*
X111038597Y-94171505D01*
X110871505Y-94338597D01*
X110735965Y-94532169D01*
X110735964Y-94532171D01*
X110636098Y-94746335D01*
X110636094Y-94746344D01*
X110574938Y-94974586D01*
X110574936Y-94974596D01*
X110554341Y-95209999D01*
X97290500Y-95209999D01*
X97290500Y-90599999D01*
X137904841Y-90599999D01*
X137904841Y-90600000D01*
X137925436Y-90835403D01*
X137925438Y-90835413D01*
X137986594Y-91063655D01*
X137986596Y-91063659D01*
X137986597Y-91063663D01*
X138086347Y-91277578D01*
X138086465Y-91277830D01*
X138086467Y-91277834D01*
X138144962Y-91361373D01*
X138222005Y-91471401D01*
X138389099Y-91638495D01*
X138485884Y-91706265D01*
X138582665Y-91774032D01*
X138582667Y-91774033D01*
X138582670Y-91774035D01*
X138796837Y-91873903D01*
X139025092Y-91935063D01*
X139213418Y-91951539D01*
X139260499Y-91955659D01*
X139260500Y-91955659D01*
X139260501Y-91955659D01*
X139299734Y-91952226D01*
X139495908Y-91935063D01*
X139724163Y-91873903D01*
X139938330Y-91774035D01*
X140131901Y-91638495D01*
X140298995Y-91471401D01*
X140434535Y-91277830D01*
X140534403Y-91063663D01*
X140595563Y-90835408D01*
X140616159Y-90600000D01*
X140616159Y-90599998D01*
X141405343Y-90599998D01*
X141405343Y-90600001D01*
X141425930Y-90835315D01*
X141425932Y-90835326D01*
X141487066Y-91063483D01*
X141487070Y-91063492D01*
X141586900Y-91277579D01*
X141586902Y-91277583D01*
X141645572Y-91361373D01*
X141645573Y-91361373D01*
X142277537Y-90729409D01*
X142294575Y-90792993D01*
X142360401Y-90907007D01*
X142453493Y-91000099D01*
X142567507Y-91065925D01*
X142631090Y-91082962D01*
X141999125Y-91714925D01*
X142082921Y-91773599D01*
X142297007Y-91873429D01*
X142297016Y-91873433D01*
X142525173Y-91934567D01*
X142525184Y-91934569D01*
X142760498Y-91955157D01*
X142760502Y-91955157D01*
X142995815Y-91934569D01*
X142995826Y-91934567D01*
X143223983Y-91873433D01*
X143223992Y-91873429D01*
X143438078Y-91773600D01*
X143438082Y-91773598D01*
X143521873Y-91714926D01*
X143521873Y-91714925D01*
X142889909Y-91082962D01*
X142953493Y-91065925D01*
X143067507Y-91000099D01*
X143160599Y-90907007D01*
X143226425Y-90792993D01*
X143243462Y-90729410D01*
X143875425Y-91361373D01*
X143875426Y-91361373D01*
X143934098Y-91277582D01*
X143934100Y-91277578D01*
X144033929Y-91063492D01*
X144033933Y-91063483D01*
X144095067Y-90835326D01*
X144095069Y-90835315D01*
X144115657Y-90600001D01*
X144115657Y-90599999D01*
X144904841Y-90599999D01*
X144904841Y-90600000D01*
X144925436Y-90835403D01*
X144925438Y-90835413D01*
X144986594Y-91063655D01*
X144986596Y-91063659D01*
X144986597Y-91063663D01*
X145086347Y-91277578D01*
X145086465Y-91277830D01*
X145086467Y-91277834D01*
X145144962Y-91361373D01*
X145222005Y-91471401D01*
X145389099Y-91638495D01*
X145485884Y-91706265D01*
X145582665Y-91774032D01*
X145582667Y-91774033D01*
X145582670Y-91774035D01*
X145796837Y-91873903D01*
X146025092Y-91935063D01*
X146213418Y-91951539D01*
X146260499Y-91955659D01*
X146260500Y-91955659D01*
X146260501Y-91955659D01*
X146299734Y-91952226D01*
X146495908Y-91935063D01*
X146724163Y-91873903D01*
X146938330Y-91774035D01*
X147131901Y-91638495D01*
X147298995Y-91471401D01*
X147434535Y-91277830D01*
X147534403Y-91063663D01*
X147595563Y-90835408D01*
X147616159Y-90600000D01*
X147595563Y-90364592D01*
X147534403Y-90136337D01*
X147434535Y-89922171D01*
X147376037Y-89838626D01*
X147298994Y-89728597D01*
X147131902Y-89561506D01*
X147131895Y-89561501D01*
X146938334Y-89425967D01*
X146938330Y-89425965D01*
X146916229Y-89415659D01*
X146724163Y-89326097D01*
X146724159Y-89326096D01*
X146724155Y-89326094D01*
X146495913Y-89264938D01*
X146495903Y-89264936D01*
X146260501Y-89244341D01*
X146260499Y-89244341D01*
X146025096Y-89264936D01*
X146025086Y-89264938D01*
X145796844Y-89326094D01*
X145796835Y-89326098D01*
X145582671Y-89425964D01*
X145582669Y-89425965D01*
X145389097Y-89561505D01*
X145222005Y-89728597D01*
X145086465Y-89922169D01*
X145086464Y-89922171D01*
X144986598Y-90136335D01*
X144986594Y-90136344D01*
X144925438Y-90364586D01*
X144925436Y-90364596D01*
X144904841Y-90599999D01*
X144115657Y-90599999D01*
X144115657Y-90599998D01*
X144095069Y-90364684D01*
X144095067Y-90364673D01*
X144033933Y-90136516D01*
X144033929Y-90136507D01*
X143934100Y-89922423D01*
X143934099Y-89922421D01*
X143875425Y-89838626D01*
X143875425Y-89838625D01*
X143243462Y-90470589D01*
X143226425Y-90407007D01*
X143160599Y-90292993D01*
X143067507Y-90199901D01*
X142953493Y-90134075D01*
X142889910Y-90117037D01*
X143521873Y-89485073D01*
X143521873Y-89485072D01*
X143438083Y-89426402D01*
X143438079Y-89426400D01*
X143223992Y-89326570D01*
X143223983Y-89326566D01*
X142995826Y-89265432D01*
X142995815Y-89265430D01*
X142760502Y-89244843D01*
X142760498Y-89244843D01*
X142525184Y-89265430D01*
X142525173Y-89265432D01*
X142297016Y-89326566D01*
X142297007Y-89326570D01*
X142082919Y-89426401D01*
X141999125Y-89485072D01*
X142631090Y-90117037D01*
X142567507Y-90134075D01*
X142453493Y-90199901D01*
X142360401Y-90292993D01*
X142294575Y-90407007D01*
X142277537Y-90470590D01*
X141645572Y-89838625D01*
X141586901Y-89922419D01*
X141487070Y-90136507D01*
X141487066Y-90136516D01*
X141425932Y-90364673D01*
X141425930Y-90364684D01*
X141405343Y-90599998D01*
X140616159Y-90599998D01*
X140595563Y-90364592D01*
X140534403Y-90136337D01*
X140434535Y-89922171D01*
X140376037Y-89838626D01*
X140298994Y-89728597D01*
X140131902Y-89561506D01*
X140131895Y-89561501D01*
X139938334Y-89425967D01*
X139938330Y-89425965D01*
X139916229Y-89415659D01*
X139724163Y-89326097D01*
X139724159Y-89326096D01*
X139724155Y-89326094D01*
X139495913Y-89264938D01*
X139495903Y-89264936D01*
X139260501Y-89244341D01*
X139260499Y-89244341D01*
X139025096Y-89264936D01*
X139025086Y-89264938D01*
X138796844Y-89326094D01*
X138796835Y-89326098D01*
X138582671Y-89425964D01*
X138582669Y-89425965D01*
X138389097Y-89561505D01*
X138222005Y-89728597D01*
X138086465Y-89922169D01*
X138086464Y-89922171D01*
X137986598Y-90136335D01*
X137986594Y-90136344D01*
X137925438Y-90364586D01*
X137925436Y-90364596D01*
X137904841Y-90599999D01*
X97290500Y-90599999D01*
X97290500Y-74568336D01*
X112170954Y-74568336D01*
X112182106Y-74679789D01*
X112193528Y-74733187D01*
X112193529Y-74733192D01*
X112193530Y-74733193D01*
X112228953Y-74839460D01*
X112307270Y-74960157D01*
X112307272Y-74960160D01*
X112353257Y-75012761D01*
X112370899Y-75027913D01*
X112462403Y-75106503D01*
X112593541Y-75165699D01*
X112660666Y-75185090D01*
X112803170Y-75204943D01*
X121327564Y-75167637D01*
X121466357Y-75147578D01*
X121531785Y-75128573D01*
X121531796Y-75128567D01*
X121531802Y-75128566D01*
X121623986Y-75087193D01*
X121659721Y-75071157D01*
X121709367Y-75039961D01*
X121734377Y-75027916D01*
X121770755Y-75015187D01*
X121797811Y-75009011D01*
X121836126Y-75004695D01*
X121863872Y-75004695D01*
X121902186Y-75009011D01*
X121929238Y-75015186D01*
X121965625Y-75027918D01*
X121990627Y-75039959D01*
X122033007Y-75066589D01*
X122163076Y-75124621D01*
X122229591Y-75143626D01*
X122370679Y-75163072D01*
X123980149Y-75156029D01*
X124083670Y-75144853D01*
X124133353Y-75134226D01*
X124232372Y-75102083D01*
X124354288Y-75025677D01*
X124396224Y-74990165D01*
X124407606Y-74980528D01*
X124407607Y-74980526D01*
X124407609Y-74980525D01*
X124407610Y-74980524D01*
X124503061Y-74872864D01*
X124564315Y-74742673D01*
X124584760Y-74675862D01*
X124606853Y-74533688D01*
X124654038Y-70381428D01*
X124643006Y-70270496D01*
X124631695Y-70217329D01*
X124596620Y-70111522D01*
X124518568Y-69990652D01*
X124507390Y-69977809D01*
X124472702Y-69937952D01*
X124472697Y-69937947D01*
X124363753Y-69843962D01*
X124232755Y-69784482D01*
X124232737Y-69784475D01*
X124165667Y-69764941D01*
X124157149Y-69763726D01*
X124157015Y-69763717D01*
X124023211Y-69744777D01*
X124023205Y-69744776D01*
X124023202Y-69744776D01*
X123157309Y-69746670D01*
X114786987Y-69764986D01*
X114764360Y-69765543D01*
X114753279Y-69766064D01*
X114730698Y-69767635D01*
X114730689Y-69767636D01*
X114590765Y-69801084D01*
X114590757Y-69801086D01*
X114525803Y-69826837D01*
X114400973Y-69898348D01*
X114301337Y-70002137D01*
X114301326Y-70002150D01*
X114261818Y-70057236D01*
X114260862Y-70058522D01*
X114260600Y-70058933D01*
X114246945Y-70085203D01*
X114241915Y-70093983D01*
X114179530Y-70193266D01*
X114162218Y-70214974D01*
X114134975Y-70242217D01*
X114113266Y-70259529D01*
X114080636Y-70280032D01*
X114055618Y-70292081D01*
X114019243Y-70304809D01*
X113992172Y-70310987D01*
X113953882Y-70315301D01*
X113926116Y-70315301D01*
X113887826Y-70310987D01*
X113860755Y-70304809D01*
X113824380Y-70292081D01*
X113799362Y-70280032D01*
X113766732Y-70259529D01*
X113745023Y-70242217D01*
X113717780Y-70214974D01*
X113700467Y-70193264D01*
X113671629Y-70147368D01*
X113667230Y-70139786D01*
X113664916Y-70135451D01*
X113664912Y-70135442D01*
X113586860Y-70014572D01*
X113540990Y-69961868D01*
X113432050Y-69867886D01*
X113432048Y-69867885D01*
X113432047Y-69867884D01*
X113301048Y-69808403D01*
X113301043Y-69808401D01*
X113301042Y-69808401D01*
X113291499Y-69805621D01*
X113236245Y-69789527D01*
X113234584Y-69789008D01*
X113233951Y-69788859D01*
X113091505Y-69768697D01*
X113091498Y-69768696D01*
X113091495Y-69768696D01*
X113089894Y-69768699D01*
X112846230Y-69769232D01*
X112742137Y-69780299D01*
X112742108Y-69780304D01*
X112692183Y-69790928D01*
X112692159Y-69790934D01*
X112592592Y-69823200D01*
X112470677Y-69899617D01*
X112417369Y-69944765D01*
X112417349Y-69944785D01*
X112321923Y-70052427D01*
X112321922Y-70052429D01*
X112260679Y-70182618D01*
X112260671Y-70182638D01*
X112242198Y-70243020D01*
X112241629Y-70244571D01*
X112240233Y-70249437D01*
X112218149Y-70391620D01*
X112218148Y-70391623D01*
X112171476Y-74522232D01*
X112170954Y-74568336D01*
X97290500Y-74568336D01*
X97290500Y-49959999D01*
X130990841Y-49959999D01*
X130990841Y-49960000D01*
X131011436Y-50195403D01*
X131011438Y-50195413D01*
X131072594Y-50423655D01*
X131072596Y-50423659D01*
X131072597Y-50423663D01*
X131172465Y-50637830D01*
X131172467Y-50637834D01*
X131308001Y-50831395D01*
X131308006Y-50831402D01*
X131475097Y-50998493D01*
X131475103Y-50998498D01*
X131660658Y-51128425D01*
X131704283Y-51183002D01*
X131711477Y-51252500D01*
X131679954Y-51314855D01*
X131660658Y-51331575D01*
X131475097Y-51461505D01*
X131308005Y-51628597D01*
X131172465Y-51822169D01*
X131172464Y-51822171D01*
X131072598Y-52036335D01*
X131072594Y-52036344D01*
X131011438Y-52264586D01*
X131011436Y-52264596D01*
X130990841Y-52499999D01*
X130990841Y-52500000D01*
X131011436Y-52735403D01*
X131011438Y-52735413D01*
X131072594Y-52963655D01*
X131072596Y-52963659D01*
X131072597Y-52963663D01*
X131172465Y-53177830D01*
X131172467Y-53177834D01*
X131308001Y-53371395D01*
X131308006Y-53371402D01*
X131475097Y-53538493D01*
X131475103Y-53538498D01*
X131660658Y-53668425D01*
X131704283Y-53723002D01*
X131711477Y-53792500D01*
X131679954Y-53854855D01*
X131660658Y-53871575D01*
X131475097Y-54001505D01*
X131308005Y-54168597D01*
X131172465Y-54362169D01*
X131172464Y-54362171D01*
X131072598Y-54576335D01*
X131072594Y-54576344D01*
X131011438Y-54804586D01*
X131011436Y-54804596D01*
X130990841Y-55039999D01*
X130990841Y-55040000D01*
X131011436Y-55275403D01*
X131011438Y-55275413D01*
X131072594Y-55503655D01*
X131072596Y-55503659D01*
X131072597Y-55503663D01*
X131172465Y-55717830D01*
X131172467Y-55717834D01*
X131280781Y-55872521D01*
X131308005Y-55911401D01*
X131475099Y-56078495D01*
X131661094Y-56208730D01*
X131704718Y-56263307D01*
X131711911Y-56332806D01*
X131680389Y-56395160D01*
X131661093Y-56411880D01*
X131585126Y-56465072D01*
X131585125Y-56465072D01*
X132217090Y-57097037D01*
X132153507Y-57114075D01*
X132039493Y-57179901D01*
X131946401Y-57272993D01*
X131880575Y-57387007D01*
X131863537Y-57450590D01*
X131231572Y-56818625D01*
X131172901Y-56902419D01*
X131073070Y-57116507D01*
X131073066Y-57116516D01*
X131011932Y-57344673D01*
X131011930Y-57344684D01*
X130991343Y-57579998D01*
X130991343Y-57580001D01*
X131011930Y-57815315D01*
X131011932Y-57815326D01*
X131073066Y-58043483D01*
X131073070Y-58043492D01*
X131172900Y-58257579D01*
X131172902Y-58257583D01*
X131231572Y-58341373D01*
X131231573Y-58341373D01*
X131863537Y-57709409D01*
X131880575Y-57772993D01*
X131946401Y-57887007D01*
X132039493Y-57980099D01*
X132153507Y-58045925D01*
X132217090Y-58062962D01*
X131585125Y-58694925D01*
X131661094Y-58748119D01*
X131704719Y-58802696D01*
X131711913Y-58872194D01*
X131680390Y-58934549D01*
X131661095Y-58951269D01*
X131475094Y-59081508D01*
X131308005Y-59248597D01*
X131172465Y-59442169D01*
X131172464Y-59442171D01*
X131072598Y-59656335D01*
X131072594Y-59656344D01*
X131011438Y-59884586D01*
X131011436Y-59884596D01*
X130990841Y-60119999D01*
X130990841Y-60120000D01*
X131011436Y-60355403D01*
X131011438Y-60355413D01*
X131072594Y-60583655D01*
X131072596Y-60583659D01*
X131072597Y-60583663D01*
X131172465Y-60797830D01*
X131172467Y-60797834D01*
X131308001Y-60991395D01*
X131308006Y-60991402D01*
X131475097Y-61158493D01*
X131475103Y-61158498D01*
X131660658Y-61288425D01*
X131704283Y-61343002D01*
X131711477Y-61412500D01*
X131679954Y-61474855D01*
X131660658Y-61491575D01*
X131475097Y-61621505D01*
X131308005Y-61788597D01*
X131172465Y-61982169D01*
X131172464Y-61982171D01*
X131072598Y-62196335D01*
X131072594Y-62196344D01*
X131011438Y-62424586D01*
X131011436Y-62424596D01*
X130990841Y-62659999D01*
X130990841Y-62660000D01*
X131011436Y-62895403D01*
X131011438Y-62895413D01*
X131072594Y-63123655D01*
X131072596Y-63123659D01*
X131072597Y-63123663D01*
X131172465Y-63337830D01*
X131172467Y-63337834D01*
X131308001Y-63531395D01*
X131308006Y-63531402D01*
X131475097Y-63698493D01*
X131475103Y-63698498D01*
X131660658Y-63828425D01*
X131704283Y-63883002D01*
X131711477Y-63952500D01*
X131679954Y-64014855D01*
X131660658Y-64031575D01*
X131475097Y-64161505D01*
X131308005Y-64328597D01*
X131172465Y-64522169D01*
X131172464Y-64522171D01*
X131072598Y-64736335D01*
X131072594Y-64736344D01*
X131011438Y-64964586D01*
X131011436Y-64964596D01*
X130990841Y-65199999D01*
X130990841Y-65200000D01*
X131011436Y-65435403D01*
X131011438Y-65435413D01*
X131072594Y-65663655D01*
X131072596Y-65663659D01*
X131072597Y-65663663D01*
X131172465Y-65877830D01*
X131172467Y-65877834D01*
X131308001Y-66071395D01*
X131308006Y-66071402D01*
X131475097Y-66238493D01*
X131475103Y-66238498D01*
X131660658Y-66368425D01*
X131704283Y-66423002D01*
X131711477Y-66492500D01*
X131679954Y-66554855D01*
X131660658Y-66571575D01*
X131475097Y-66701505D01*
X131308005Y-66868597D01*
X131172465Y-67062169D01*
X131172464Y-67062171D01*
X131072598Y-67276335D01*
X131072594Y-67276344D01*
X131011438Y-67504586D01*
X131011436Y-67504596D01*
X130990841Y-67739999D01*
X130990841Y-67740000D01*
X131011436Y-67975403D01*
X131011438Y-67975413D01*
X131072594Y-68203655D01*
X131072596Y-68203659D01*
X131072597Y-68203663D01*
X131172465Y-68417830D01*
X131172467Y-68417834D01*
X131308001Y-68611395D01*
X131308006Y-68611402D01*
X131475097Y-68778493D01*
X131475103Y-68778498D01*
X131660658Y-68908425D01*
X131704283Y-68963002D01*
X131711477Y-69032500D01*
X131679954Y-69094855D01*
X131660658Y-69111575D01*
X131475097Y-69241505D01*
X131308005Y-69408597D01*
X131172465Y-69602169D01*
X131172464Y-69602171D01*
X131072598Y-69816335D01*
X131072594Y-69816344D01*
X131011438Y-70044586D01*
X131011436Y-70044596D01*
X130990841Y-70279999D01*
X130990841Y-70280000D01*
X131011436Y-70515403D01*
X131011438Y-70515413D01*
X131072594Y-70743655D01*
X131072596Y-70743659D01*
X131072597Y-70743663D01*
X131172465Y-70957830D01*
X131172467Y-70957834D01*
X131308001Y-71151395D01*
X131308006Y-71151402D01*
X131475097Y-71318493D01*
X131475103Y-71318498D01*
X131660658Y-71448425D01*
X131704283Y-71503002D01*
X131711477Y-71572500D01*
X131679954Y-71634855D01*
X131660658Y-71651575D01*
X131475097Y-71781505D01*
X131308005Y-71948597D01*
X131172465Y-72142169D01*
X131172464Y-72142171D01*
X131072598Y-72356335D01*
X131072594Y-72356344D01*
X131011438Y-72584586D01*
X131011436Y-72584596D01*
X130990841Y-72819999D01*
X130990841Y-72820000D01*
X131011436Y-73055403D01*
X131011438Y-73055413D01*
X131072594Y-73283655D01*
X131072596Y-73283659D01*
X131072597Y-73283663D01*
X131172465Y-73497830D01*
X131172467Y-73497834D01*
X131308001Y-73691395D01*
X131308006Y-73691402D01*
X131475097Y-73858493D01*
X131475103Y-73858498D01*
X131660658Y-73988425D01*
X131704283Y-74043002D01*
X131711477Y-74112500D01*
X131679954Y-74174855D01*
X131660658Y-74191575D01*
X131475097Y-74321505D01*
X131308005Y-74488597D01*
X131172465Y-74682169D01*
X131172464Y-74682171D01*
X131072598Y-74896335D01*
X131072594Y-74896344D01*
X131011438Y-75124586D01*
X131011436Y-75124596D01*
X130990841Y-75359999D01*
X130990841Y-75360000D01*
X131011436Y-75595403D01*
X131011438Y-75595413D01*
X131072594Y-75823655D01*
X131072596Y-75823659D01*
X131072597Y-75823663D01*
X131172465Y-76037830D01*
X131172467Y-76037834D01*
X131308001Y-76231395D01*
X131308006Y-76231402D01*
X131475097Y-76398493D01*
X131475103Y-76398498D01*
X131660658Y-76528425D01*
X131704283Y-76583002D01*
X131711477Y-76652500D01*
X131679954Y-76714855D01*
X131660658Y-76731575D01*
X131475097Y-76861505D01*
X131308005Y-77028597D01*
X131172465Y-77222169D01*
X131172464Y-77222171D01*
X131072598Y-77436335D01*
X131072594Y-77436344D01*
X131011438Y-77664586D01*
X131011436Y-77664596D01*
X130990841Y-77899999D01*
X130990841Y-77900000D01*
X131011436Y-78135403D01*
X131011438Y-78135413D01*
X131072594Y-78363655D01*
X131072596Y-78363659D01*
X131072597Y-78363663D01*
X131172465Y-78577830D01*
X131172467Y-78577834D01*
X131308001Y-78771395D01*
X131308006Y-78771402D01*
X131475097Y-78938493D01*
X131475103Y-78938498D01*
X131660658Y-79068425D01*
X131704283Y-79123002D01*
X131711477Y-79192500D01*
X131679954Y-79254855D01*
X131660658Y-79271575D01*
X131475097Y-79401505D01*
X131308005Y-79568597D01*
X131172465Y-79762169D01*
X131172464Y-79762171D01*
X131072598Y-79976335D01*
X131072594Y-79976344D01*
X131011438Y-80204586D01*
X131011436Y-80204596D01*
X130990841Y-80439999D01*
X130990841Y-80440000D01*
X131011436Y-80675403D01*
X131011438Y-80675413D01*
X131072594Y-80903655D01*
X131072596Y-80903659D01*
X131072597Y-80903663D01*
X131172465Y-81117830D01*
X131172467Y-81117834D01*
X131308001Y-81311395D01*
X131308006Y-81311402D01*
X131475097Y-81478493D01*
X131475103Y-81478498D01*
X131660658Y-81608425D01*
X131704283Y-81663002D01*
X131711477Y-81732500D01*
X131679954Y-81794855D01*
X131660658Y-81811575D01*
X131475097Y-81941505D01*
X131308005Y-82108597D01*
X131172465Y-82302169D01*
X131172464Y-82302171D01*
X131072598Y-82516335D01*
X131072594Y-82516344D01*
X131011438Y-82744586D01*
X131011436Y-82744596D01*
X130990841Y-82979999D01*
X130990841Y-82980000D01*
X131011436Y-83215403D01*
X131011438Y-83215413D01*
X131072594Y-83443655D01*
X131072596Y-83443659D01*
X131072597Y-83443663D01*
X131172465Y-83657830D01*
X131172467Y-83657834D01*
X131308001Y-83851395D01*
X131308006Y-83851402D01*
X131475097Y-84018493D01*
X131475103Y-84018498D01*
X131660658Y-84148425D01*
X131704283Y-84203002D01*
X131711477Y-84272500D01*
X131679954Y-84334855D01*
X131660658Y-84351575D01*
X131475097Y-84481505D01*
X131308005Y-84648597D01*
X131172465Y-84842169D01*
X131172464Y-84842171D01*
X131072598Y-85056335D01*
X131072594Y-85056344D01*
X131011438Y-85284586D01*
X131011436Y-85284596D01*
X130990841Y-85519999D01*
X130990841Y-85520000D01*
X131011436Y-85755403D01*
X131011438Y-85755413D01*
X131072594Y-85983655D01*
X131072596Y-85983659D01*
X131072597Y-85983663D01*
X131172465Y-86197830D01*
X131172467Y-86197834D01*
X131308001Y-86391395D01*
X131308006Y-86391402D01*
X131475097Y-86558493D01*
X131475103Y-86558498D01*
X131660658Y-86688425D01*
X131704283Y-86743002D01*
X131711477Y-86812500D01*
X131679954Y-86874855D01*
X131660658Y-86891575D01*
X131475097Y-87021505D01*
X131308005Y-87188597D01*
X131172465Y-87382169D01*
X131172464Y-87382171D01*
X131072598Y-87596335D01*
X131072594Y-87596344D01*
X131011438Y-87824586D01*
X131011436Y-87824596D01*
X130990841Y-88059999D01*
X130990841Y-88060000D01*
X131011436Y-88295403D01*
X131011438Y-88295413D01*
X131072594Y-88523655D01*
X131072596Y-88523659D01*
X131072597Y-88523663D01*
X131172465Y-88737830D01*
X131172467Y-88737834D01*
X131280781Y-88892521D01*
X131308005Y-88931401D01*
X131475099Y-89098495D01*
X131571884Y-89166265D01*
X131668665Y-89234032D01*
X131668667Y-89234033D01*
X131668670Y-89234035D01*
X131882837Y-89333903D01*
X132111092Y-89395063D01*
X132299418Y-89411539D01*
X132346499Y-89415659D01*
X132346500Y-89415659D01*
X132346501Y-89415659D01*
X132385734Y-89412226D01*
X132581908Y-89395063D01*
X132810163Y-89333903D01*
X133024330Y-89234035D01*
X133217901Y-89098495D01*
X133384995Y-88931401D01*
X133520535Y-88737830D01*
X133620403Y-88523663D01*
X133681563Y-88295408D01*
X133702159Y-88060000D01*
X133681563Y-87824592D01*
X133620403Y-87596337D01*
X133520535Y-87382171D01*
X133384995Y-87188599D01*
X133384994Y-87188597D01*
X133217902Y-87021506D01*
X133217896Y-87021501D01*
X133032342Y-86891575D01*
X132988717Y-86836998D01*
X132981523Y-86767500D01*
X133013046Y-86705145D01*
X133032342Y-86688425D01*
X133054526Y-86672891D01*
X133217901Y-86558495D01*
X133384995Y-86391401D01*
X133520535Y-86197830D01*
X133620403Y-85983663D01*
X133681563Y-85755408D01*
X133702159Y-85520000D01*
X133681563Y-85284592D01*
X133620403Y-85056337D01*
X133520535Y-84842171D01*
X133384995Y-84648599D01*
X133384994Y-84648597D01*
X133217902Y-84481506D01*
X133217896Y-84481501D01*
X133032342Y-84351575D01*
X132988717Y-84296998D01*
X132981523Y-84227500D01*
X133013046Y-84165145D01*
X133032342Y-84148425D01*
X133054526Y-84132891D01*
X133217901Y-84018495D01*
X133384995Y-83851401D01*
X133520535Y-83657830D01*
X133620403Y-83443663D01*
X133681563Y-83215408D01*
X133702159Y-82980000D01*
X133681563Y-82744592D01*
X133620403Y-82516337D01*
X133520535Y-82302171D01*
X133384995Y-82108599D01*
X133384994Y-82108597D01*
X133217902Y-81941506D01*
X133217896Y-81941501D01*
X133032342Y-81811575D01*
X132988717Y-81756998D01*
X132981523Y-81687500D01*
X133013046Y-81625145D01*
X133032342Y-81608425D01*
X133054526Y-81592891D01*
X133217901Y-81478495D01*
X133384995Y-81311401D01*
X133520535Y-81117830D01*
X133620403Y-80903663D01*
X133681563Y-80675408D01*
X133702159Y-80440000D01*
X133681563Y-80204592D01*
X133620403Y-79976337D01*
X133520535Y-79762171D01*
X133384995Y-79568599D01*
X133384994Y-79568597D01*
X133217902Y-79401506D01*
X133217896Y-79401501D01*
X133032342Y-79271575D01*
X132988717Y-79216998D01*
X132981523Y-79147500D01*
X133013046Y-79085145D01*
X133032342Y-79068425D01*
X133054526Y-79052891D01*
X133217901Y-78938495D01*
X133384995Y-78771401D01*
X133520535Y-78577830D01*
X133620403Y-78363663D01*
X133681563Y-78135408D01*
X133702159Y-77900000D01*
X133681563Y-77664592D01*
X133620403Y-77436337D01*
X133520535Y-77222171D01*
X133384995Y-77028599D01*
X133384994Y-77028597D01*
X133217902Y-76861506D01*
X133217896Y-76861501D01*
X133032342Y-76731575D01*
X132988717Y-76676998D01*
X132981523Y-76607500D01*
X133013046Y-76545145D01*
X133032342Y-76528425D01*
X133054526Y-76512891D01*
X133217901Y-76398495D01*
X133384995Y-76231401D01*
X133520535Y-76037830D01*
X133620403Y-75823663D01*
X133681563Y-75595408D01*
X133702159Y-75360000D01*
X133681563Y-75124592D01*
X133620403Y-74896337D01*
X133520535Y-74682171D01*
X133518868Y-74679789D01*
X133384994Y-74488597D01*
X133217902Y-74321506D01*
X133217896Y-74321501D01*
X133032342Y-74191575D01*
X132988717Y-74136998D01*
X132981523Y-74067500D01*
X133013046Y-74005145D01*
X133032342Y-73988425D01*
X133054526Y-73972891D01*
X133217901Y-73858495D01*
X133384995Y-73691401D01*
X133520535Y-73497830D01*
X133620403Y-73283663D01*
X133681563Y-73055408D01*
X133702159Y-72820000D01*
X133681563Y-72584592D01*
X133620403Y-72356337D01*
X133520535Y-72142171D01*
X133384995Y-71948599D01*
X133384994Y-71948597D01*
X133217902Y-71781506D01*
X133217896Y-71781501D01*
X133032342Y-71651575D01*
X132988717Y-71596998D01*
X132981523Y-71527500D01*
X133013046Y-71465145D01*
X133032342Y-71448425D01*
X133054526Y-71432891D01*
X133217901Y-71318495D01*
X133384995Y-71151401D01*
X133520535Y-70957830D01*
X133620403Y-70743663D01*
X133681563Y-70515408D01*
X133702159Y-70280000D01*
X133701327Y-70270496D01*
X133696470Y-70214974D01*
X133681563Y-70044592D01*
X133627805Y-69843962D01*
X133620405Y-69816344D01*
X133620404Y-69816343D01*
X133620403Y-69816337D01*
X133520535Y-69602171D01*
X133384995Y-69408599D01*
X133384994Y-69408597D01*
X133217902Y-69241506D01*
X133217896Y-69241501D01*
X133032342Y-69111575D01*
X132988717Y-69056998D01*
X132981523Y-68987500D01*
X133013046Y-68925145D01*
X133032342Y-68908425D01*
X133054526Y-68892891D01*
X133217901Y-68778495D01*
X133384995Y-68611401D01*
X133520535Y-68417830D01*
X133620403Y-68203663D01*
X133681563Y-67975408D01*
X133702159Y-67740000D01*
X133681563Y-67504592D01*
X133620403Y-67276337D01*
X133520535Y-67062171D01*
X133384995Y-66868599D01*
X133384994Y-66868597D01*
X133217902Y-66701506D01*
X133217896Y-66701501D01*
X133032342Y-66571575D01*
X132988717Y-66516998D01*
X132981523Y-66447500D01*
X133013046Y-66385145D01*
X133032342Y-66368425D01*
X133054526Y-66352891D01*
X133217901Y-66238495D01*
X133384995Y-66071401D01*
X133520535Y-65877830D01*
X133620403Y-65663663D01*
X133681563Y-65435408D01*
X133702159Y-65200000D01*
X133681563Y-64964592D01*
X133620403Y-64736337D01*
X133520535Y-64522171D01*
X133384995Y-64328599D01*
X133384994Y-64328597D01*
X133217902Y-64161506D01*
X133217896Y-64161501D01*
X133032342Y-64031575D01*
X132988717Y-63976998D01*
X132981523Y-63907500D01*
X133013046Y-63845145D01*
X133032342Y-63828425D01*
X133054526Y-63812891D01*
X133217901Y-63698495D01*
X133384995Y-63531401D01*
X133520535Y-63337830D01*
X133620403Y-63123663D01*
X133681563Y-62895408D01*
X133702159Y-62660000D01*
X133681563Y-62424592D01*
X133620403Y-62196337D01*
X133520535Y-61982171D01*
X133384995Y-61788599D01*
X133384994Y-61788597D01*
X133217902Y-61621506D01*
X133217896Y-61621501D01*
X133032342Y-61491575D01*
X132988717Y-61436998D01*
X132981523Y-61367500D01*
X133013046Y-61305145D01*
X133032342Y-61288425D01*
X133054526Y-61272891D01*
X133217901Y-61158495D01*
X133384995Y-60991401D01*
X133520535Y-60797830D01*
X133620403Y-60583663D01*
X133681563Y-60355408D01*
X133702159Y-60120000D01*
X133702159Y-60119999D01*
X151374341Y-60119999D01*
X151374341Y-60120000D01*
X151394936Y-60355403D01*
X151394938Y-60355413D01*
X151456094Y-60583655D01*
X151456096Y-60583659D01*
X151456097Y-60583663D01*
X151555965Y-60797830D01*
X151555967Y-60797834D01*
X151691501Y-60991395D01*
X151691506Y-60991402D01*
X151858597Y-61158493D01*
X151858603Y-61158498D01*
X152044158Y-61288425D01*
X152087783Y-61343002D01*
X152094977Y-61412500D01*
X152063454Y-61474855D01*
X152044158Y-61491575D01*
X151858597Y-61621505D01*
X151691505Y-61788597D01*
X151555965Y-61982169D01*
X151555964Y-61982171D01*
X151456098Y-62196335D01*
X151456094Y-62196344D01*
X151394938Y-62424586D01*
X151394936Y-62424596D01*
X151374341Y-62659999D01*
X151374341Y-62660000D01*
X151394936Y-62895403D01*
X151394938Y-62895413D01*
X151456094Y-63123655D01*
X151456096Y-63123659D01*
X151456097Y-63123663D01*
X151555965Y-63337830D01*
X151555967Y-63337834D01*
X151691501Y-63531395D01*
X151691506Y-63531402D01*
X151858597Y-63698493D01*
X151858603Y-63698498D01*
X152044158Y-63828425D01*
X152087783Y-63883002D01*
X152094977Y-63952500D01*
X152063454Y-64014855D01*
X152044158Y-64031575D01*
X151858597Y-64161505D01*
X151691505Y-64328597D01*
X151555965Y-64522169D01*
X151555964Y-64522171D01*
X151456098Y-64736335D01*
X151456094Y-64736344D01*
X151394938Y-64964586D01*
X151394936Y-64964596D01*
X151374341Y-65199999D01*
X151374341Y-65200000D01*
X151394936Y-65435403D01*
X151394938Y-65435413D01*
X151456094Y-65663655D01*
X151456096Y-65663659D01*
X151456097Y-65663663D01*
X151555965Y-65877830D01*
X151555967Y-65877834D01*
X151691501Y-66071395D01*
X151691506Y-66071402D01*
X151858597Y-66238493D01*
X151858603Y-66238498D01*
X152044158Y-66368425D01*
X152087783Y-66423002D01*
X152094977Y-66492500D01*
X152063454Y-66554855D01*
X152044158Y-66571575D01*
X151858597Y-66701505D01*
X151691505Y-66868597D01*
X151555965Y-67062169D01*
X151555964Y-67062171D01*
X151456098Y-67276335D01*
X151456094Y-67276344D01*
X151394938Y-67504586D01*
X151394936Y-67504596D01*
X151374341Y-67739999D01*
X151374341Y-67740000D01*
X151394936Y-67975403D01*
X151394938Y-67975413D01*
X151456094Y-68203655D01*
X151456096Y-68203659D01*
X151456097Y-68203663D01*
X151555965Y-68417830D01*
X151555967Y-68417834D01*
X151691501Y-68611395D01*
X151691506Y-68611402D01*
X151858597Y-68778493D01*
X151858603Y-68778498D01*
X152044158Y-68908425D01*
X152087783Y-68963002D01*
X152094977Y-69032500D01*
X152063454Y-69094855D01*
X152044158Y-69111575D01*
X151858597Y-69241505D01*
X151691505Y-69408597D01*
X151555965Y-69602169D01*
X151555964Y-69602171D01*
X151456098Y-69816335D01*
X151456094Y-69816344D01*
X151394938Y-70044586D01*
X151394936Y-70044596D01*
X151374341Y-70279999D01*
X151374341Y-70280000D01*
X151394936Y-70515403D01*
X151394938Y-70515413D01*
X151456094Y-70743655D01*
X151456096Y-70743659D01*
X151456097Y-70743663D01*
X151555965Y-70957830D01*
X151555967Y-70957834D01*
X151691501Y-71151395D01*
X151691506Y-71151402D01*
X151858597Y-71318493D01*
X151858603Y-71318498D01*
X152044158Y-71448425D01*
X152087783Y-71503002D01*
X152094977Y-71572500D01*
X152063454Y-71634855D01*
X152044158Y-71651575D01*
X151858597Y-71781505D01*
X151691505Y-71948597D01*
X151555965Y-72142169D01*
X151555964Y-72142171D01*
X151456098Y-72356335D01*
X151456094Y-72356344D01*
X151394938Y-72584586D01*
X151394936Y-72584596D01*
X151374341Y-72819999D01*
X151374341Y-72820000D01*
X151394936Y-73055403D01*
X151394938Y-73055413D01*
X151456094Y-73283655D01*
X151456096Y-73283659D01*
X151456097Y-73283663D01*
X151555965Y-73497830D01*
X151555967Y-73497834D01*
X151691501Y-73691395D01*
X151691506Y-73691402D01*
X151858597Y-73858493D01*
X151858603Y-73858498D01*
X152044158Y-73988425D01*
X152087783Y-74043002D01*
X152094977Y-74112500D01*
X152063454Y-74174855D01*
X152044158Y-74191575D01*
X151858597Y-74321505D01*
X151691505Y-74488597D01*
X151555965Y-74682169D01*
X151555964Y-74682171D01*
X151456098Y-74896335D01*
X151456094Y-74896344D01*
X151394938Y-75124586D01*
X151394936Y-75124596D01*
X151374341Y-75359999D01*
X151374341Y-75360000D01*
X151394936Y-75595403D01*
X151394938Y-75595413D01*
X151456094Y-75823655D01*
X151456096Y-75823659D01*
X151456097Y-75823663D01*
X151555965Y-76037830D01*
X151555967Y-76037834D01*
X151691501Y-76231395D01*
X151691506Y-76231402D01*
X151858597Y-76398493D01*
X151858603Y-76398498D01*
X152044158Y-76528425D01*
X152087783Y-76583002D01*
X152094977Y-76652500D01*
X152063454Y-76714855D01*
X152044158Y-76731575D01*
X151858597Y-76861505D01*
X151691505Y-77028597D01*
X151555965Y-77222169D01*
X151555964Y-77222171D01*
X151456098Y-77436335D01*
X151456094Y-77436344D01*
X151394938Y-77664586D01*
X151394936Y-77664596D01*
X151374341Y-77899999D01*
X151374341Y-77900000D01*
X151394936Y-78135403D01*
X151394938Y-78135413D01*
X151456094Y-78363655D01*
X151456096Y-78363659D01*
X151456097Y-78363663D01*
X151555965Y-78577830D01*
X151555967Y-78577834D01*
X151691501Y-78771395D01*
X151691506Y-78771402D01*
X151858597Y-78938493D01*
X151858603Y-78938498D01*
X152044158Y-79068425D01*
X152087783Y-79123002D01*
X152094977Y-79192500D01*
X152063454Y-79254855D01*
X152044158Y-79271575D01*
X151858597Y-79401505D01*
X151691505Y-79568597D01*
X151555965Y-79762169D01*
X151555964Y-79762171D01*
X151456098Y-79976335D01*
X151456094Y-79976344D01*
X151394938Y-80204586D01*
X151394936Y-80204596D01*
X151374341Y-80439999D01*
X151374341Y-80440000D01*
X151394936Y-80675403D01*
X151394938Y-80675413D01*
X151456094Y-80903655D01*
X151456096Y-80903659D01*
X151456097Y-80903663D01*
X151555965Y-81117830D01*
X151555967Y-81117834D01*
X151691501Y-81311395D01*
X151691506Y-81311402D01*
X151858597Y-81478493D01*
X151858603Y-81478498D01*
X152044158Y-81608425D01*
X152087783Y-81663002D01*
X152094977Y-81732500D01*
X152063454Y-81794855D01*
X152044158Y-81811575D01*
X151858597Y-81941505D01*
X151691505Y-82108597D01*
X151555965Y-82302169D01*
X151555964Y-82302171D01*
X151456098Y-82516335D01*
X151456094Y-82516344D01*
X151394938Y-82744586D01*
X151394936Y-82744596D01*
X151374341Y-82979999D01*
X151374341Y-82980000D01*
X151394936Y-83215403D01*
X151394938Y-83215413D01*
X151456094Y-83443655D01*
X151456096Y-83443659D01*
X151456097Y-83443663D01*
X151555965Y-83657830D01*
X151555967Y-83657834D01*
X151691501Y-83851395D01*
X151691506Y-83851402D01*
X151858597Y-84018493D01*
X151858603Y-84018498D01*
X152044158Y-84148425D01*
X152087783Y-84203002D01*
X152094977Y-84272500D01*
X152063454Y-84334855D01*
X152044158Y-84351575D01*
X151858597Y-84481505D01*
X151691505Y-84648597D01*
X151555965Y-84842169D01*
X151555964Y-84842171D01*
X151456098Y-85056335D01*
X151456094Y-85056344D01*
X151394938Y-85284586D01*
X151394936Y-85284596D01*
X151374341Y-85519999D01*
X151374341Y-85520000D01*
X151394936Y-85755403D01*
X151394938Y-85755413D01*
X151456094Y-85983655D01*
X151456096Y-85983659D01*
X151456097Y-85983663D01*
X151555965Y-86197830D01*
X151555967Y-86197834D01*
X151691501Y-86391395D01*
X151691506Y-86391402D01*
X151858597Y-86558493D01*
X151858603Y-86558498D01*
X152044158Y-86688425D01*
X152087783Y-86743002D01*
X152094977Y-86812500D01*
X152063454Y-86874855D01*
X152044158Y-86891575D01*
X151858597Y-87021505D01*
X151691505Y-87188597D01*
X151555965Y-87382169D01*
X151555964Y-87382171D01*
X151456098Y-87596335D01*
X151456094Y-87596344D01*
X151394938Y-87824586D01*
X151394936Y-87824596D01*
X151374341Y-88059999D01*
X151374341Y-88060000D01*
X151394936Y-88295403D01*
X151394938Y-88295413D01*
X151456094Y-88523655D01*
X151456096Y-88523659D01*
X151456097Y-88523663D01*
X151555965Y-88737830D01*
X151555967Y-88737834D01*
X151664281Y-88892521D01*
X151691505Y-88931401D01*
X151858599Y-89098495D01*
X151955384Y-89166265D01*
X152052165Y-89234032D01*
X152052167Y-89234033D01*
X152052170Y-89234035D01*
X152266337Y-89333903D01*
X152494592Y-89395063D01*
X152682918Y-89411539D01*
X152729999Y-89415659D01*
X152730000Y-89415659D01*
X152730001Y-89415659D01*
X152769234Y-89412226D01*
X152965408Y-89395063D01*
X153193663Y-89333903D01*
X153407830Y-89234035D01*
X153601401Y-89098495D01*
X153768495Y-88931401D01*
X153904035Y-88737830D01*
X154003903Y-88523663D01*
X154065063Y-88295408D01*
X154085659Y-88060000D01*
X154065063Y-87824592D01*
X154003903Y-87596337D01*
X153904035Y-87382171D01*
X153768495Y-87188599D01*
X153768494Y-87188597D01*
X153601402Y-87021506D01*
X153601396Y-87021501D01*
X153415842Y-86891575D01*
X153372217Y-86836998D01*
X153365023Y-86767500D01*
X153396546Y-86705145D01*
X153415842Y-86688425D01*
X153438026Y-86672891D01*
X153601401Y-86558495D01*
X153768495Y-86391401D01*
X153904035Y-86197830D01*
X154003903Y-85983663D01*
X154065063Y-85755408D01*
X154085659Y-85520000D01*
X154065063Y-85284592D01*
X154003903Y-85056337D01*
X153904035Y-84842171D01*
X153768495Y-84648599D01*
X153768494Y-84648597D01*
X153601402Y-84481506D01*
X153601396Y-84481501D01*
X153415842Y-84351575D01*
X153372217Y-84296998D01*
X153365023Y-84227500D01*
X153396546Y-84165145D01*
X153415842Y-84148425D01*
X153438026Y-84132891D01*
X153601401Y-84018495D01*
X153768495Y-83851401D01*
X153904035Y-83657830D01*
X154003903Y-83443663D01*
X154065063Y-83215408D01*
X154085659Y-82980000D01*
X154065063Y-82744592D01*
X154003903Y-82516337D01*
X153904035Y-82302171D01*
X153768495Y-82108599D01*
X153768494Y-82108597D01*
X153601402Y-81941506D01*
X153601396Y-81941501D01*
X153415842Y-81811575D01*
X153372217Y-81756998D01*
X153365023Y-81687500D01*
X153396546Y-81625145D01*
X153415842Y-81608425D01*
X153438026Y-81592891D01*
X153601401Y-81478495D01*
X153768495Y-81311401D01*
X153904035Y-81117830D01*
X154003903Y-80903663D01*
X154065063Y-80675408D01*
X154085659Y-80440000D01*
X154065063Y-80204592D01*
X154003903Y-79976337D01*
X153904035Y-79762171D01*
X153768495Y-79568599D01*
X153768494Y-79568597D01*
X153601402Y-79401506D01*
X153601396Y-79401501D01*
X153415842Y-79271575D01*
X153372217Y-79216998D01*
X153365023Y-79147500D01*
X153396546Y-79085145D01*
X153415842Y-79068425D01*
X153438026Y-79052891D01*
X153601401Y-78938495D01*
X153768495Y-78771401D01*
X153904035Y-78577830D01*
X154003903Y-78363663D01*
X154065063Y-78135408D01*
X154085659Y-77900000D01*
X154065063Y-77664592D01*
X154003903Y-77436337D01*
X153904035Y-77222171D01*
X153768495Y-77028599D01*
X153768494Y-77028597D01*
X153601402Y-76861506D01*
X153601396Y-76861501D01*
X153415842Y-76731575D01*
X153372217Y-76676998D01*
X153365023Y-76607500D01*
X153396546Y-76545145D01*
X153415842Y-76528425D01*
X153438026Y-76512891D01*
X153601401Y-76398495D01*
X153768495Y-76231401D01*
X153904035Y-76037830D01*
X154003903Y-75823663D01*
X154065063Y-75595408D01*
X154085659Y-75360000D01*
X154065063Y-75124592D01*
X154003903Y-74896337D01*
X153904035Y-74682171D01*
X153902368Y-74679789D01*
X153768494Y-74488597D01*
X153601402Y-74321506D01*
X153601396Y-74321501D01*
X153415842Y-74191575D01*
X153372217Y-74136998D01*
X153365023Y-74067500D01*
X153396546Y-74005145D01*
X153415842Y-73988425D01*
X153438026Y-73972891D01*
X153601401Y-73858495D01*
X153768495Y-73691401D01*
X153904035Y-73497830D01*
X154003903Y-73283663D01*
X154065063Y-73055408D01*
X154085659Y-72820000D01*
X154065063Y-72584592D01*
X154003903Y-72356337D01*
X153904035Y-72142171D01*
X153768495Y-71948599D01*
X153768494Y-71948597D01*
X153601402Y-71781506D01*
X153601396Y-71781501D01*
X153415842Y-71651575D01*
X153372217Y-71596998D01*
X153365023Y-71527500D01*
X153396546Y-71465145D01*
X153415842Y-71448425D01*
X153438026Y-71432891D01*
X153601401Y-71318495D01*
X153768495Y-71151401D01*
X153904035Y-70957830D01*
X154003903Y-70743663D01*
X154065063Y-70515408D01*
X154085659Y-70280000D01*
X154084827Y-70270496D01*
X154079970Y-70214974D01*
X154065063Y-70044592D01*
X154011305Y-69843962D01*
X154003905Y-69816344D01*
X154003904Y-69816343D01*
X154003903Y-69816337D01*
X153904035Y-69602171D01*
X153768495Y-69408599D01*
X153768494Y-69408597D01*
X153601402Y-69241506D01*
X153601396Y-69241501D01*
X153415842Y-69111575D01*
X153372217Y-69056998D01*
X153365023Y-68987500D01*
X153396546Y-68925145D01*
X153415842Y-68908425D01*
X153438026Y-68892891D01*
X153601401Y-68778495D01*
X153768495Y-68611401D01*
X153904035Y-68417830D01*
X154003903Y-68203663D01*
X154065063Y-67975408D01*
X154085659Y-67740000D01*
X154065063Y-67504592D01*
X154003903Y-67276337D01*
X153904035Y-67062171D01*
X153768495Y-66868599D01*
X153768494Y-66868597D01*
X153601402Y-66701506D01*
X153601396Y-66701501D01*
X153415842Y-66571575D01*
X153372217Y-66516998D01*
X153365023Y-66447500D01*
X153396546Y-66385145D01*
X153415842Y-66368425D01*
X153438026Y-66352891D01*
X153601401Y-66238495D01*
X153768495Y-66071401D01*
X153904035Y-65877830D01*
X154003903Y-65663663D01*
X154065063Y-65435408D01*
X154085659Y-65200000D01*
X154065063Y-64964592D01*
X154003903Y-64736337D01*
X153904035Y-64522171D01*
X153768495Y-64328599D01*
X153768494Y-64328597D01*
X153601402Y-64161506D01*
X153601396Y-64161501D01*
X153415842Y-64031575D01*
X153372217Y-63976998D01*
X153365023Y-63907500D01*
X153396546Y-63845145D01*
X153415842Y-63828425D01*
X153438026Y-63812891D01*
X153601401Y-63698495D01*
X153768495Y-63531401D01*
X153904035Y-63337830D01*
X154003903Y-63123663D01*
X154065063Y-62895408D01*
X154085659Y-62660000D01*
X154065063Y-62424592D01*
X154003903Y-62196337D01*
X153904035Y-61982171D01*
X153768495Y-61788599D01*
X153768494Y-61788597D01*
X153601402Y-61621506D01*
X153601396Y-61621501D01*
X153415842Y-61491575D01*
X153372217Y-61436998D01*
X153365023Y-61367500D01*
X153396546Y-61305145D01*
X153415842Y-61288425D01*
X153438026Y-61272891D01*
X153601401Y-61158495D01*
X153768495Y-60991401D01*
X153904035Y-60797830D01*
X154003903Y-60583663D01*
X154065063Y-60355408D01*
X154085659Y-60120000D01*
X154065063Y-59884592D01*
X154003903Y-59656337D01*
X153904035Y-59442171D01*
X153768495Y-59248599D01*
X153768494Y-59248597D01*
X153601402Y-59081506D01*
X153601395Y-59081501D01*
X153407834Y-58945967D01*
X153407830Y-58945965D01*
X153383348Y-58934549D01*
X153193663Y-58846097D01*
X153193659Y-58846096D01*
X153193655Y-58846094D01*
X152965413Y-58784938D01*
X152965403Y-58784936D01*
X152730001Y-58764341D01*
X152729999Y-58764341D01*
X152494596Y-58784936D01*
X152494586Y-58784938D01*
X152266344Y-58846094D01*
X152266335Y-58846098D01*
X152052171Y-58945964D01*
X152052169Y-58945965D01*
X151858597Y-59081505D01*
X151691505Y-59248597D01*
X151555965Y-59442169D01*
X151555964Y-59442171D01*
X151456098Y-59656335D01*
X151456094Y-59656344D01*
X151394938Y-59884586D01*
X151394936Y-59884596D01*
X151374341Y-60119999D01*
X133702159Y-60119999D01*
X133681563Y-59884592D01*
X133620403Y-59656337D01*
X133520535Y-59442171D01*
X133384995Y-59248599D01*
X133384994Y-59248597D01*
X133217902Y-59081506D01*
X133217901Y-59081505D01*
X133031905Y-58951269D01*
X132988281Y-58896692D01*
X132981088Y-58827193D01*
X133012610Y-58764839D01*
X133031905Y-58748119D01*
X133107873Y-58694925D01*
X132475909Y-58062962D01*
X132539493Y-58045925D01*
X132653507Y-57980099D01*
X132746599Y-57887007D01*
X132812425Y-57772993D01*
X132829462Y-57709410D01*
X133461425Y-58341373D01*
X133461426Y-58341373D01*
X133520098Y-58257582D01*
X133520100Y-58257578D01*
X133619929Y-58043492D01*
X133619933Y-58043483D01*
X133681067Y-57815326D01*
X133681069Y-57815315D01*
X133701657Y-57580001D01*
X133701657Y-57579998D01*
X133681069Y-57344684D01*
X133681067Y-57344673D01*
X133619933Y-57116516D01*
X133619929Y-57116507D01*
X133520100Y-56902423D01*
X133520099Y-56902421D01*
X133461425Y-56818626D01*
X133461425Y-56818625D01*
X132829462Y-57450589D01*
X132812425Y-57387007D01*
X132746599Y-57272993D01*
X132653507Y-57179901D01*
X132539493Y-57114075D01*
X132475910Y-57097037D01*
X133107873Y-56465073D01*
X133107873Y-56465072D01*
X133031905Y-56411880D01*
X132988280Y-56357304D01*
X132981086Y-56287805D01*
X133012608Y-56225451D01*
X133031899Y-56208734D01*
X133217901Y-56078495D01*
X133384995Y-55911401D01*
X133520535Y-55717830D01*
X133620403Y-55503663D01*
X133681563Y-55275408D01*
X133702159Y-55040000D01*
X133681563Y-54804592D01*
X133620403Y-54576337D01*
X133520535Y-54362171D01*
X133384995Y-54168599D01*
X133384994Y-54168597D01*
X133217902Y-54001506D01*
X133217896Y-54001501D01*
X133032342Y-53871575D01*
X132988717Y-53816998D01*
X132981523Y-53747500D01*
X133013046Y-53685145D01*
X133032342Y-53668425D01*
X133054526Y-53652891D01*
X133217901Y-53538495D01*
X133384995Y-53371401D01*
X133520535Y-53177830D01*
X133620403Y-52963663D01*
X133681563Y-52735408D01*
X133702159Y-52500000D01*
X133681563Y-52264592D01*
X133620403Y-52036337D01*
X133520535Y-51822171D01*
X133384995Y-51628599D01*
X133384994Y-51628597D01*
X133217902Y-51461506D01*
X133217896Y-51461501D01*
X133032342Y-51331575D01*
X132988717Y-51276998D01*
X132981523Y-51207500D01*
X133013046Y-51145145D01*
X133032342Y-51128425D01*
X133054526Y-51112891D01*
X133217901Y-50998495D01*
X133384995Y-50831401D01*
X133520535Y-50637830D01*
X133620403Y-50423663D01*
X133681563Y-50195408D01*
X133702159Y-49960000D01*
X133681563Y-49724592D01*
X133620403Y-49496337D01*
X133520535Y-49282171D01*
X133384995Y-49088599D01*
X133384994Y-49088597D01*
X133217902Y-48921506D01*
X133217895Y-48921501D01*
X133024334Y-48785967D01*
X133024330Y-48785965D01*
X133024328Y-48785964D01*
X132810163Y-48686097D01*
X132810159Y-48686096D01*
X132810155Y-48686094D01*
X132581913Y-48624938D01*
X132581903Y-48624936D01*
X132346501Y-48604341D01*
X132346499Y-48604341D01*
X132111096Y-48624936D01*
X132111086Y-48624938D01*
X131882844Y-48686094D01*
X131882835Y-48686098D01*
X131668671Y-48785964D01*
X131668669Y-48785965D01*
X131475097Y-48921505D01*
X131308005Y-49088597D01*
X131172465Y-49282169D01*
X131172464Y-49282171D01*
X131072598Y-49496335D01*
X131072594Y-49496344D01*
X131011438Y-49724586D01*
X131011436Y-49724596D01*
X130990841Y-49959999D01*
X97290500Y-49959999D01*
X97290500Y-39868711D01*
X99139500Y-39868711D01*
X99139500Y-40111288D01*
X99168600Y-40332333D01*
X99171162Y-40351789D01*
X99173842Y-40361789D01*
X99233947Y-40586104D01*
X99326773Y-40810205D01*
X99326777Y-40810214D01*
X99332551Y-40820214D01*
X99448064Y-41020289D01*
X99448066Y-41020292D01*
X99448067Y-41020293D01*
X99595733Y-41212736D01*
X99595739Y-41212743D01*
X99767256Y-41384260D01*
X99767263Y-41384266D01*
X99852940Y-41450008D01*
X99959711Y-41531936D01*
X100169788Y-41653224D01*
X100393900Y-41746054D01*
X100628211Y-41808838D01*
X100808586Y-41832584D01*
X100868711Y-41840500D01*
X100868712Y-41840500D01*
X101111289Y-41840500D01*
X101159388Y-41834167D01*
X101351789Y-41808838D01*
X101586100Y-41746054D01*
X101810212Y-41653224D01*
X102020289Y-41531936D01*
X102212738Y-41384265D01*
X102384265Y-41212738D01*
X102531936Y-41020289D01*
X102653224Y-40810212D01*
X102746054Y-40586100D01*
X102785969Y-40437135D01*
X139185000Y-40437135D01*
X139185000Y-41682870D01*
X139185001Y-41682876D01*
X139191408Y-41742483D01*
X139241702Y-41877328D01*
X139241706Y-41877335D01*
X139327952Y-41992544D01*
X139327955Y-41992547D01*
X139443164Y-42078793D01*
X139443171Y-42078797D01*
X139578017Y-42129091D01*
X139578016Y-42129091D01*
X139584944Y-42129835D01*
X139637627Y-42135500D01*
X140883372Y-42135499D01*
X140942983Y-42129091D01*
X141077831Y-42078796D01*
X141193046Y-41992546D01*
X141279296Y-41877331D01*
X141329591Y-41742483D01*
X141336000Y-41682873D01*
X141335999Y-41059999D01*
X141680895Y-41059999D01*
X141680895Y-41060000D01*
X141699276Y-41258376D01*
X141699277Y-41258379D01*
X141753793Y-41449986D01*
X141753801Y-41450006D01*
X141841273Y-41625673D01*
X142360500Y-41106446D01*
X142360500Y-41112661D01*
X142387759Y-41214394D01*
X142440420Y-41305606D01*
X142514894Y-41380080D01*
X142606106Y-41432741D01*
X142707839Y-41460000D01*
X142714053Y-41460000D01*
X142197971Y-41976079D01*
X142197972Y-41976080D01*
X142279275Y-42026421D01*
X142279284Y-42026425D01*
X142465049Y-42098390D01*
X142465054Y-42098391D01*
X142660889Y-42135000D01*
X142860111Y-42135000D01*
X143055945Y-42098391D01*
X143055950Y-42098390D01*
X143241717Y-42026424D01*
X143241721Y-42026422D01*
X143323027Y-41976079D01*
X142806948Y-41460000D01*
X142813161Y-41460000D01*
X142914894Y-41432741D01*
X143006106Y-41380080D01*
X143080580Y-41305606D01*
X143133241Y-41214394D01*
X143160500Y-41112661D01*
X143160500Y-41106447D01*
X143679726Y-41625673D01*
X143767197Y-41450008D01*
X143767203Y-41449993D01*
X143821722Y-41258378D01*
X143821723Y-41258376D01*
X143840105Y-41060000D01*
X143840105Y-41059999D01*
X144180392Y-41059999D01*
X144180392Y-41060000D01*
X144198782Y-41258464D01*
X144198782Y-41258466D01*
X144198783Y-41258469D01*
X144253280Y-41450008D01*
X144253330Y-41450183D01*
X144342170Y-41628598D01*
X144342175Y-41628606D01*
X144462292Y-41787666D01*
X144560651Y-41877331D01*
X144609590Y-41921945D01*
X144697021Y-41976080D01*
X144778328Y-42026424D01*
X144779054Y-42026873D01*
X144964914Y-42098876D01*
X145160840Y-42135500D01*
X145160842Y-42135500D01*
X145360158Y-42135500D01*
X145360160Y-42135500D01*
X145556086Y-42098876D01*
X145741946Y-42026873D01*
X145911410Y-41921945D01*
X146058709Y-41787664D01*
X146178826Y-41628604D01*
X146267671Y-41450180D01*
X146322217Y-41258469D01*
X146340608Y-41060000D01*
X146322217Y-40861531D01*
X146267671Y-40669820D01*
X146225983Y-40586100D01*
X146178829Y-40491401D01*
X146178824Y-40491393D01*
X146058707Y-40332333D01*
X145911411Y-40198056D01*
X145911410Y-40198055D01*
X145823976Y-40143918D01*
X145741947Y-40093127D01*
X145741945Y-40093126D01*
X145659879Y-40061334D01*
X145556086Y-40021124D01*
X145556082Y-40021123D01*
X145477139Y-40006366D01*
X145360160Y-39984500D01*
X145160840Y-39984500D01*
X145070754Y-40001339D01*
X144964917Y-40021123D01*
X144964915Y-40021123D01*
X144964914Y-40021124D01*
X144913087Y-40041202D01*
X144779054Y-40093126D01*
X144779052Y-40093127D01*
X144609588Y-40198056D01*
X144462292Y-40332333D01*
X144342175Y-40491393D01*
X144342170Y-40491401D01*
X144253330Y-40669816D01*
X144198782Y-40861535D01*
X144180392Y-41059999D01*
X143840105Y-41059999D01*
X143821723Y-40861623D01*
X143821722Y-40861621D01*
X143767203Y-40670006D01*
X143767197Y-40669991D01*
X143679725Y-40494325D01*
X143160500Y-41013551D01*
X143160500Y-41007339D01*
X143133241Y-40905606D01*
X143080580Y-40814394D01*
X143006106Y-40739920D01*
X142914894Y-40687259D01*
X142813161Y-40660000D01*
X142806948Y-40660000D01*
X143323027Y-40143919D01*
X143323026Y-40143918D01*
X143241724Y-40093579D01*
X143241715Y-40093574D01*
X143055950Y-40021609D01*
X143055945Y-40021608D01*
X142860111Y-39985000D01*
X142660889Y-39985000D01*
X142465054Y-40021608D01*
X142465053Y-40021608D01*
X142279280Y-40093576D01*
X142279276Y-40093578D01*
X142197971Y-40143919D01*
X142714053Y-40660000D01*
X142707839Y-40660000D01*
X142606106Y-40687259D01*
X142514894Y-40739920D01*
X142440420Y-40814394D01*
X142387759Y-40905606D01*
X142360500Y-41007339D01*
X142360500Y-41013552D01*
X141841273Y-40494325D01*
X141753798Y-40670002D01*
X141753793Y-40670013D01*
X141699277Y-40861620D01*
X141699276Y-40861623D01*
X141680895Y-41059999D01*
X141335999Y-41059999D01*
X141335999Y-40437128D01*
X141329591Y-40377517D01*
X141323723Y-40361785D01*
X141279297Y-40242671D01*
X141279293Y-40242664D01*
X141193047Y-40127455D01*
X141193044Y-40127452D01*
X141077835Y-40041206D01*
X141077828Y-40041202D01*
X140942982Y-39990908D01*
X140942983Y-39990908D01*
X140883383Y-39984501D01*
X140883381Y-39984500D01*
X140883373Y-39984500D01*
X140883364Y-39984500D01*
X139637629Y-39984500D01*
X139637623Y-39984501D01*
X139578016Y-39990908D01*
X139443171Y-40041202D01*
X139443164Y-40041206D01*
X139327955Y-40127452D01*
X139327952Y-40127455D01*
X139241706Y-40242664D01*
X139241702Y-40242671D01*
X139191408Y-40377517D01*
X139185001Y-40437116D01*
X139185001Y-40437123D01*
X139185000Y-40437135D01*
X102785969Y-40437135D01*
X102808838Y-40351789D01*
X102840500Y-40111288D01*
X102840500Y-39878711D01*
X161149500Y-39878711D01*
X161149500Y-40121288D01*
X161181161Y-40361785D01*
X161243947Y-40596104D01*
X161281705Y-40687259D01*
X161336776Y-40820212D01*
X161458064Y-41030289D01*
X161458066Y-41030292D01*
X161458067Y-41030293D01*
X161605733Y-41222736D01*
X161605739Y-41222743D01*
X161777256Y-41394260D01*
X161777263Y-41394266D01*
X161827405Y-41432741D01*
X161969711Y-41541936D01*
X162179788Y-41663224D01*
X162403900Y-41756054D01*
X162638211Y-41818838D01*
X162802753Y-41840500D01*
X162878711Y-41850500D01*
X162878712Y-41850500D01*
X163121289Y-41850500D01*
X163169388Y-41844167D01*
X163361789Y-41818838D01*
X163596100Y-41756054D01*
X163820212Y-41663224D01*
X164030289Y-41541936D01*
X164222738Y-41394265D01*
X164394265Y-41222738D01*
X164541936Y-41030289D01*
X164663224Y-40820212D01*
X164756054Y-40596100D01*
X164818838Y-40361789D01*
X164850500Y-40121288D01*
X164850500Y-39878712D01*
X164849183Y-39868712D01*
X164818838Y-39638214D01*
X164818838Y-39638211D01*
X164756054Y-39403900D01*
X164663224Y-39179788D01*
X164541936Y-38969711D01*
X164394265Y-38777262D01*
X164394260Y-38777256D01*
X164222743Y-38605739D01*
X164222736Y-38605733D01*
X164030293Y-38458067D01*
X164030292Y-38458066D01*
X164030289Y-38458064D01*
X163820212Y-38336776D01*
X163820205Y-38336773D01*
X163596104Y-38243947D01*
X163361785Y-38181161D01*
X163121289Y-38149500D01*
X163121288Y-38149500D01*
X162878712Y-38149500D01*
X162878711Y-38149500D01*
X162638214Y-38181161D01*
X162403895Y-38243947D01*
X162179794Y-38336773D01*
X162179785Y-38336777D01*
X161969706Y-38458067D01*
X161777263Y-38605733D01*
X161777256Y-38605739D01*
X161605739Y-38777256D01*
X161605733Y-38777263D01*
X161458067Y-38969706D01*
X161336777Y-39179785D01*
X161336773Y-39179794D01*
X161243947Y-39403895D01*
X161181161Y-39638214D01*
X161149500Y-39878711D01*
X102840500Y-39878711D01*
X102840500Y-39868712D01*
X102808838Y-39628211D01*
X102746054Y-39393900D01*
X102653224Y-39169788D01*
X102531936Y-38959711D01*
X102384265Y-38767262D01*
X102384260Y-38767256D01*
X102212743Y-38595739D01*
X102212736Y-38595733D01*
X102020293Y-38448067D01*
X102020292Y-38448066D01*
X102020289Y-38448064D01*
X101810212Y-38326776D01*
X101810205Y-38326773D01*
X101586104Y-38233947D01*
X101351785Y-38171161D01*
X101111289Y-38139500D01*
X101111288Y-38139500D01*
X100868712Y-38139500D01*
X100868711Y-38139500D01*
X100628214Y-38171161D01*
X100393895Y-38233947D01*
X100169794Y-38326773D01*
X100169785Y-38326777D01*
X99959706Y-38448067D01*
X99767263Y-38595733D01*
X99767256Y-38595739D01*
X99595739Y-38767256D01*
X99595733Y-38767263D01*
X99448067Y-38959706D01*
X99448064Y-38959710D01*
X99448064Y-38959711D01*
X99431817Y-38987851D01*
X99326777Y-39169785D01*
X99326773Y-39169794D01*
X99233947Y-39393895D01*
X99171161Y-39628214D01*
X99139500Y-39868711D01*
X97290500Y-39868711D01*
X97290500Y-36364500D01*
X97310185Y-36297461D01*
X97362989Y-36251706D01*
X97414500Y-36240500D01*
X166530500Y-36240500D01*
X166597539Y-36260185D01*
G37*
%TD.AperFunction*%
%TD*%
M02*
